<svg xmlns="http://www.w3.org/2000/svg" viewBox="0 0 1600 360" role="img" aria-labelledby="title-279547335 desc-279547335">
  <title id="title-279547335">Generative page artwork</title>
  <desc id="desc-279547335">Platonic-solid, fractal, opt-art, glitch, and organic dialogue geometry for AI Use Declaration &amp; Oral Defence Rubric.</desc>
  <defs>
    <filter id="grain-279547335" x="-10%" y="-10%" width="120%" height="120%">
      <feTurbulence type="fractalNoise" baseFrequency="0.70" numOctaves="2" seed="499" result="noise"/>
      <feColorMatrix in="noise" type="saturate" values="0"/>
      <feComponentTransfer><feFuncA type="table" tableValues="0 .16"/></feComponentTransfer>
    </filter>
  </defs>
  <rect width="1600" height="360" fill="#050816"/>
  <rect width="1600" height="360" fill="#C44536" opacity=".10"/>
  <g fill="none" stroke="#9373DD" stroke-width="1.2" opacity=".58"><polygon points="295.9,211.6 183.4,353.0 117.3,184.9" fill="none" stroke="#C44536" stroke-width="1.21" opacity="0.37"/><polygon points="284.9,260.6 202.8,248.3 254.5,183.3" fill="none" stroke="#E2B127" stroke-width="0.99" opacity="0.30"/><polygon points="262.9,267.5 248.9,231.9 286.7,237.6" fill="none" stroke="#0EA5A3" stroke-width="0.77" opacity="0.23"/><polygon points="255.1,260.3 266.0,246.5 272.5,262.9" fill="none" stroke="#9373DD" stroke-width="0.55" opacity="0.16"/><polygon points="247.6,240.8 260.8,229.2 264.2,246.4" fill="none" stroke="#9373DD" stroke-width="0.55" opacity="0.16"/><polygon points="266.3,241.8 281.4,232.7 281.6,250.3" fill="none" stroke="#9373DD" stroke-width="0.55" opacity="0.16"/><polygon points="218.0,260.4 210.6,222.9 246.7,235.2" fill="none" stroke="#0EA5A3" stroke-width="0.77" opacity="0.23"/><polygon points="211.6,251.9 224.8,240.3 228.2,257.6" fill="none" stroke="#9373DD" stroke-width="0.55" opacity="0.16"/><polygon points="207.7,231.4 222.8,222.3 223.0,239.9" fill="none" stroke="#9373DD" stroke-width="0.55" opacity="0.16"/><polygon points="225.9,235.7 242.4,229.5 239.5,246.9" fill="none" stroke="#9373DD" stroke-width="0.55" opacity="0.16"/><polygon points="240.2,226.3 239.6,188.1 273.0,206.7" fill="none" stroke="#0EA5A3" stroke-width="0.77" opacity="0.23"/><polygon points="235.4,216.8 250.5,207.8 250.8,225.3" fill="none" stroke="#9373DD" stroke-width="0.55" opacity="0.16"/><polygon points="235.3,195.9 251.7,189.7 248.9,207.0" fill="none" stroke="#9373DD" stroke-width="0.55" opacity="0.16"/><polygon points="252.4,203.4 269.7,200.3 263.8,216.8" fill="none" stroke="#9373DD" stroke-width="0.55" opacity="0.16"/><polygon points="222.8,337.5 144.1,310.7 206.6,256.0" fill="none" stroke="#E2B127" stroke-width="0.99" opacity="0.30"/><polygon points="199.8,340.3 192.4,302.8 228.6,315.2" fill="none" stroke="#0EA5A3" stroke-width="0.77" opacity="0.23"/><polygon points="193.4,331.9 206.7,320.3 210.1,337.5" fill="none" stroke="#9373DD" stroke-width="0.55" opacity="0.16"/><polygon points="189.5,311.3 204.6,302.3 204.9,319.9" fill="none" stroke="#9373DD" stroke-width="0.55" opacity="0.16"/><polygon points="207.8,315.6 224.2,309.5 221.3,326.8" fill="none" stroke="#9373DD" stroke-width="0.55" opacity="0.16"/><polygon points="156.9,325.3 156.3,287.1 189.7,305.7" fill="none" stroke="#0EA5A3" stroke-width="0.77" opacity="0.23"/><polygon points="152.1,315.8 167.2,306.8 167.5,324.4" fill="none" stroke="#9373DD" stroke-width="0.55" opacity="0.16"/><polygon points="152.0,294.9 168.4,288.7 165.5,306.1" fill="none" stroke="#9373DD" stroke-width="0.55" opacity="0.16"/><polygon points="169.1,302.5 186.4,299.3 180.5,315.9" fill="none" stroke="#9373DD" stroke-width="0.55" opacity="0.16"/><polygon points="184.9,295.7 191.2,258.0 220.7,282.3" fill="none" stroke="#0EA5A3" stroke-width="0.77" opacity="0.23"/><polygon points="181.9,285.5 198.3,279.4 195.5,296.7" fill="none" stroke="#9373DD" stroke-width="0.55" opacity="0.16"/><polygon points="185.5,264.9 202.8,261.8 196.8,278.4" fill="none" stroke="#9373DD" stroke-width="0.55" opacity="0.16"/><polygon points="201.0,275.4 218.6,275.4 209.8,290.7" fill="none" stroke="#9373DD" stroke-width="0.55" opacity="0.16"/><polygon points="182.7,258.5 110.1,218.1 181.4,175.4" fill="none" stroke="#E2B127" stroke-width="0.99" opacity="0.30"/><polygon points="159.6,257.2 159.1,219.0 192.4,237.6" fill="none" stroke="#0EA5A3" stroke-width="0.77" opacity="0.23"/><polygon points="154.9,247.7 169.9,238.7 170.2,256.3" fill="none" stroke="#9373DD" stroke-width="0.55" opacity="0.16"/><polygon points="154.7,226.8 171.2,220.6 168.3,238.0" fill="none" stroke="#9373DD" stroke-width="0.55" opacity="0.16"/><polygon points="171.9,234.3 189.2,231.2 183.2,247.8" fill="none" stroke="#9373DD" stroke-width="0.55" opacity="0.16"/><polygon points="120.1,234.8 126.3,197.1 155.9,221.3" fill="none" stroke="#0EA5A3" stroke-width="0.77" opacity="0.23"/><polygon points="117.1,224.6 133.5,218.4 130.6,235.7" fill="none" stroke="#9373DD" stroke-width="0.55" opacity="0.16"/><polygon points="120.7,204.0 138.0,200.8 132.0,217.4" fill="none" stroke="#9373DD" stroke-width="0.55" opacity="0.16"/><polygon points="136.2,214.4 153.8,214.5 145.0,229.7" fill="none" stroke="#9373DD" stroke-width="0.55" opacity="0.16"/><polygon points="152.9,210.7 165.8,174.7 190.5,203.9" fill="none" stroke="#0EA5A3" stroke-width="0.77" opacity="0.23"/><polygon points="151.8,200.1 169.1,197.0 163.1,213.5" fill="none" stroke="#9373DD" stroke-width="0.55" opacity="0.16"/><polygon points="159.0,180.5 176.6,180.5 167.8,195.7" fill="none" stroke="#9373DD" stroke-width="0.55" opacity="0.16"/><polygon points="172.4,193.6 189.7,196.7 178.3,210.1" fill="none" stroke="#9373DD" stroke-width="0.55" opacity="0.16"/><polygon points="472.0,293.6 443.1,143.0 588.1,193.3" fill="none" stroke="#C44536" stroke-width="1.21" opacity="0.37"/><polygon points="446.5,259.5 499.9,213.3 513.2,282.6" fill="none" stroke="#E2B127" stroke-width="0.99" opacity="0.30"/><polygon points="454.3,241.5 484.9,252.1 460.4,273.3" fill="none" stroke="#0EA5A3" stroke-width="0.77" opacity="0.23"/><polygon points="463.2,240.4 466.0,255.1 451.9,250.2" fill="none" stroke="#9373DD" stroke-width="0.55" opacity="0.16"/><polygon points="480.0,246.4 480.1,261.3 467.1,254.0" fill="none" stroke="#9373DD" stroke-width="0.55" opacity="0.16"/><polygon points="469.0,257.9 466.4,272.6 454.9,263.0" fill="none" stroke="#9373DD" stroke-width="0.55" opacity="0.16"/><polygon points="483.7,216.4 512.0,232.4 484.0,248.9" fill="none" stroke="#0EA5A3" stroke-width="0.77" opacity="0.23"/><polygon points="492.7,217.0 492.8,231.9 479.8,224.6" fill="none" stroke="#9373DD" stroke-width="0.55" opacity="0.16"/><polygon points="508.1,225.8 505.6,240.6 494.1,231.0" fill="none" stroke="#9373DD" stroke-width="0.55" opacity="0.16"/><polygon points="495.2,235.2 490.1,249.2 480.5,237.8" fill="none" stroke="#9373DD" stroke-width="0.55" opacity="0.16"/><polygon points="493.4,249.6 518.3,270.4 487.9,281.6" fill="none" stroke="#0EA5A3" stroke-width="0.77" opacity="0.23"/><polygon points="502.1,251.8 499.6,266.5 488.1,257.0" fill="none" stroke="#9373DD" stroke-width="0.55" opacity="0.16"/><polygon points="515.7,263.3 510.6,277.3 501.0,265.8" fill="none" stroke="#9373DD" stroke-width="0.55" opacity="0.16"/><polygon points="501.4,270.2 493.8,283.0 486.4,270.1" fill="none" stroke="#9373DD" stroke-width="0.55" opacity="0.16"/><polygon points="431.3,176.8 492.1,141.0 492.8,211.6" fill="none" stroke="#E2B127" stroke-width="0.99" opacity="0.30"/><polygon points="442.2,160.5 470.5,176.5 442.5,193.0" fill="none" stroke="#0EA5A3" stroke-width="0.77" opacity="0.23"/><polygon points="451.2,161.1 451.3,176.0 438.3,168.7" fill="none" stroke="#9373DD" stroke-width="0.55" opacity="0.16"/><polygon points="466.6,169.9 464.1,184.7 452.6,175.1" fill="none" stroke="#9373DD" stroke-width="0.55" opacity="0.16"/><polygon points="453.7,179.3 448.6,193.3 439.0,181.9" fill="none" stroke="#9373DD" stroke-width="0.55" opacity="0.16"/><polygon points="475.6,141.1 500.6,161.9 470.1,173.1" fill="none" stroke="#0EA5A3" stroke-width="0.77" opacity="0.23"/><polygon points="484.4,143.3 481.9,158.0 470.4,148.5" fill="none" stroke="#9373DD" stroke-width="0.55" opacity="0.16"/><polygon points="498.0,154.8 492.8,168.8 483.2,157.4" fill="none" stroke="#9373DD" stroke-width="0.55" opacity="0.16"/><polygon points="483.6,161.7 476.1,174.6 468.7,161.6" fill="none" stroke="#9373DD" stroke-width="0.55" opacity="0.16"/><polygon points="479.2,175.5 500.0,200.5 468.1,206.0" fill="none" stroke="#0EA5A3" stroke-width="0.77" opacity="0.23"/><polygon points="487.4,179.2 482.3,193.3 472.7,181.8" fill="none" stroke="#9373DD" stroke-width="0.55" opacity="0.16"/><polygon points="498.7,193.0 491.2,205.9 483.8,192.9" fill="none" stroke="#9373DD" stroke-width="0.55" opacity="0.16"/><polygon points="483.4,197.2 473.6,208.5 468.7,194.4" fill="none" stroke="#9373DD" stroke-width="0.55" opacity="0.16"/><polygon points="504.4,194.7 570.6,170.3 558.6,239.9" fill="none" stroke="#E2B127" stroke-width="0.99" opacity="0.30"/><polygon points="518.0,180.6 542.9,201.4 512.5,212.6" fill="none" stroke="#0EA5A3" stroke-width="0.77" opacity="0.23"/><polygon points="526.8,182.8 524.2,197.5 512.7,187.9" fill="none" stroke="#9373DD" stroke-width="0.55" opacity="0.16"/><polygon points="540.3,194.2 535.2,208.3 525.6,196.8" fill="none" stroke="#9373DD" stroke-width="0.55" opacity="0.16"/><polygon points="526.0,201.1 518.4,214.0 511.0,201.0" fill="none" stroke="#9373DD" stroke-width="0.55" opacity="0.16"/><polygon points="554.4,167.5 575.2,192.4 543.2,198.0" fill="none" stroke="#0EA5A3" stroke-width="0.77" opacity="0.23"/><polygon points="562.6,171.2 557.5,185.2 547.9,173.8" fill="none" stroke="#9373DD" stroke-width="0.55" opacity="0.16"/><polygon points="573.9,184.9 566.3,197.8 559.0,184.8" fill="none" stroke="#9373DD" stroke-width="0.55" opacity="0.16"/><polygon points="558.5,189.1 548.8,200.5 543.9,186.4" fill="none" stroke="#9373DD" stroke-width="0.55" opacity="0.16"/><polygon points="551.7,202.0 567.8,230.2 535.3,230.0" fill="none" stroke="#0EA5A3" stroke-width="0.77" opacity="0.23"/><polygon points="559.2,207.1 551.6,220.0 544.2,207.0" fill="none" stroke="#9373DD" stroke-width="0.55" opacity="0.16"/><polygon points="567.8,222.6 558.1,234.0 553.1,219.9" fill="none" stroke="#9373DD" stroke-width="0.55" opacity="0.16"/><polygon points="552.0,224.0 540.4,233.4 538.0,218.7" fill="none" stroke="#9373DD" stroke-width="0.55" opacity="0.16"/><polygon points="791.3,118.2 769.8,205.2 705.2,143.1" fill="none" stroke="#C44536" stroke-width="1.21" opacity="0.37"/><polygon points="796.5,142.5 756.8,154.0 766.7,113.9" fill="none" stroke="#E2B127" stroke-width="0.99" opacity="0.30"/><polygon points="787.9,150.2 774.3,137.0 792.5,131.8" fill="none" stroke="#0EA5A3" stroke-width="0.77" opacity="0.23"/><polygon points="782.9,148.6 785.0,140.1 791.3,146.1" fill="none" stroke="#9373DD" stroke-width="0.55" opacity="0.16"/><polygon points="775.5,141.3 779.1,133.3 784.2,140.4" fill="none" stroke="#9373DD" stroke-width="0.55" opacity="0.16"/><polygon points="784.1,137.9 789.1,130.7 792.8,138.6" fill="none" stroke="#9373DD" stroke-width="0.55" opacity="0.16"/><polygon points="766.2,156.3 755.1,140.9 774.0,139.0" fill="none" stroke="#0EA5A3" stroke-width="0.77" opacity="0.23"/><polygon points="761.6,153.8 765.1,145.8 770.2,152.9" fill="none" stroke="#9373DD" stroke-width="0.55" opacity="0.16"/><polygon points="755.6,145.3 760.5,138.1 764.3,146.0" fill="none" stroke="#9373DD" stroke-width="0.55" opacity="0.16"/><polygon points="764.7,143.5 770.8,137.3 773.1,145.7" fill="none" stroke="#9373DD" stroke-width="0.55" opacity="0.16"/><polygon points="769.2,136.3 761.0,119.2 779.9,120.7" fill="none" stroke="#0EA5A3" stroke-width="0.77" opacity="0.23"/><polygon points="765.1,133.0 770.0,125.8 773.8,133.7" fill="none" stroke="#9373DD" stroke-width="0.55" opacity="0.16"/><polygon points="760.7,123.6 766.8,117.4 769.1,125.8" fill="none" stroke="#9373DD" stroke-width="0.55" opacity="0.16"/><polygon points="770.0,123.4 777.1,118.5 777.9,127.2" fill="none" stroke="#9373DD" stroke-width="0.55" opacity="0.16"/><polygon points="784.3,190.1 743.3,194.3 760.2,156.6" fill="none" stroke="#E2B127" stroke-width="0.99" opacity="0.30"/><polygon points="774.6,196.1 763.5,180.7 782.4,178.8" fill="none" stroke="#0EA5A3" stroke-width="0.77" opacity="0.23"/><polygon points="769.9,193.6 773.5,185.6 778.6,192.7" fill="none" stroke="#9373DD" stroke-width="0.55" opacity="0.16"/><polygon points="763.9,185.1 768.9,177.9 772.6,185.8" fill="none" stroke="#9373DD" stroke-width="0.55" opacity="0.16"/><polygon points="773.1,183.3 779.2,177.1 781.5,185.5" fill="none" stroke="#9373DD" stroke-width="0.55" opacity="0.16"/><polygon points="752.1,198.2 743.9,181.1 762.8,182.6" fill="none" stroke="#0EA5A3" stroke-width="0.77" opacity="0.23"/><polygon points="748.0,194.9 752.9,187.7 756.7,195.6" fill="none" stroke="#9373DD" stroke-width="0.55" opacity="0.16"/><polygon points="743.6,185.5 749.7,179.3 752.0,187.7" fill="none" stroke="#9373DD" stroke-width="0.55" opacity="0.16"/><polygon points="752.9,185.4 760.0,180.4 760.8,189.1" fill="none" stroke="#9373DD" stroke-width="0.55" opacity="0.16"/><polygon points="758.6,179.1 753.6,160.8 772.0,165.6" fill="none" stroke="#0EA5A3" stroke-width="0.77" opacity="0.23"/><polygon points="755.1,175.1 761.3,168.9 763.6,177.3" fill="none" stroke="#9373DD" stroke-width="0.55" opacity="0.16"/><polygon points="752.5,165.1 759.7,160.1 760.4,168.8" fill="none" stroke="#9373DD" stroke-width="0.55" opacity="0.16"/><polygon points="761.7,166.6 769.6,162.9 768.8,171.6" fill="none" stroke="#9373DD" stroke-width="0.55" opacity="0.16"/><polygon points="749.9,162.8 708.8,159.5 732.2,125.5" fill="none" stroke="#E2B127" stroke-width="0.99" opacity="0.30"/><polygon points="739.3,166.9 731.1,149.8 750.0,151.3" fill="none" stroke="#0EA5A3" stroke-width="0.77" opacity="0.23"/><polygon points="735.1,163.6 740.1,156.5 743.8,164.3" fill="none" stroke="#9373DD" stroke-width="0.55" opacity="0.16"/><polygon points="730.7,154.2 736.9,148.0 739.2,156.5" fill="none" stroke="#9373DD" stroke-width="0.55" opacity="0.16"/><polygon points="740.0,154.1 747.2,149.1 747.9,157.8" fill="none" stroke="#9373DD" stroke-width="0.55" opacity="0.16"/><polygon points="716.8,165.0 711.8,146.7 730.1,151.5" fill="none" stroke="#0EA5A3" stroke-width="0.77" opacity="0.23"/><polygon points="713.3,161.0 719.4,154.8 721.7,163.3" fill="none" stroke="#9373DD" stroke-width="0.55" opacity="0.16"/><polygon points="710.6,151.0 717.8,146.0 718.5,154.7" fill="none" stroke="#9373DD" stroke-width="0.55" opacity="0.16"/><polygon points="719.8,152.5 727.8,148.9 726.9,157.6" fill="none" stroke="#9373DD" stroke-width="0.55" opacity="0.16"/><polygon points="726.6,147.3 725.0,128.4 742.1,136.5" fill="none" stroke="#0EA5A3" stroke-width="0.77" opacity="0.23"/><polygon points="723.9,142.8 731.0,137.8 731.8,146.5" fill="none" stroke="#9373DD" stroke-width="0.55" opacity="0.16"/><polygon points="723.1,132.4 731.0,128.8 730.2,137.5" fill="none" stroke="#9373DD" stroke-width="0.55" opacity="0.16"/><polygon points="731.8,135.6 740.3,133.4 737.9,141.8" fill="none" stroke="#9373DD" stroke-width="0.55" opacity="0.16"/><polygon points="895.2,236.8 1061.0,172.8 1033.6,348.4" fill="none" stroke="#C44536" stroke-width="1.21" opacity="0.37"/><polygon points="928.9,200.7 992.5,252.1 916.3,281.5" fill="none" stroke="#E2B127" stroke-width="0.99" opacity="0.30"/><polygon points="951.0,205.8 945.2,243.0 916.0,219.4" fill="none" stroke="#0EA5A3" stroke-width="0.77" opacity="0.23"/><polygon points="954.1,215.8 938.0,222.1 940.6,205.0" fill="none" stroke="#9373DD" stroke-width="0.55" opacity="0.16"/><polygon points="950.8,236.2 933.8,239.4 939.4,223.1" fill="none" stroke="#9373DD" stroke-width="0.55" opacity="0.16"/><polygon points="935.4,226.0 918.1,226.1 926.6,211.1" fill="none" stroke="#9373DD" stroke-width="0.55" opacity="0.16"/><polygon points="985.7,234.2 973.3,269.7 948.7,241.3" fill="none" stroke="#0EA5A3" stroke-width="0.77" opacity="0.23"/><polygon points="986.9,244.6 969.9,247.8 975.6,231.5" fill="none" stroke="#9373DD" stroke-width="0.55" opacity="0.16"/><polygon points="980.0,264.0 962.7,264.1 971.2,249.1" fill="none" stroke="#9373DD" stroke-width="0.55" opacity="0.16"/><polygon points="966.6,251.2 949.6,248.3 960.7,235.0" fill="none" stroke="#9373DD" stroke-width="0.55" opacity="0.16"/><polygon points="949.8,252.1 931.3,284.8 912.2,252.4" fill="none" stroke="#0EA5A3" stroke-width="0.77" opacity="0.23"/><polygon points="949.1,262.5 931.8,262.7 940.4,247.6" fill="none" stroke="#9373DD" stroke-width="0.55" opacity="0.16"/><polygon points="938.9,280.4 921.8,277.4 932.9,264.1" fill="none" stroke="#9373DD" stroke-width="0.55" opacity="0.16"/><polygon points="928.0,265.4 911.8,259.5 925.1,248.4" fill="none" stroke="#9373DD" stroke-width="0.55" opacity="0.16"/><polygon points="1020.0,166.4 1073.4,228.3 993.1,243.6" fill="none" stroke="#E2B127" stroke-width="0.99" opacity="0.30"/><polygon points="1040.8,175.4 1028.5,210.9 1003.9,182.4" fill="none" stroke="#0EA5A3" stroke-width="0.77" opacity="0.23"/><polygon points="1042.0,185.8 1025.1,189.0 1030.7,172.7" fill="none" stroke="#9373DD" stroke-width="0.55" opacity="0.16"/><polygon points="1035.1,205.2 1017.8,205.3 1026.3,190.2" fill="none" stroke="#9373DD" stroke-width="0.55" opacity="0.16"/><polygon points="1021.8,192.4 1004.8,189.4 1015.8,176.2" fill="none" stroke="#9373DD" stroke-width="0.55" opacity="0.16"/><polygon points="1069.8,209.5 1051.3,242.2 1032.2,209.8" fill="none" stroke="#0EA5A3" stroke-width="0.77" opacity="0.23"/><polygon points="1069.2,219.9 1051.9,220.1 1060.4,205.0" fill="none" stroke="#9373DD" stroke-width="0.55" opacity="0.16"/><polygon points="1058.9,237.8 1041.8,234.8 1052.9,221.5" fill="none" stroke="#9373DD" stroke-width="0.55" opacity="0.16"/><polygon points="1048.1,222.8 1031.8,216.9 1045.1,205.8" fill="none" stroke="#9373DD" stroke-width="0.55" opacity="0.16"/><polygon points="1031.3,220.7 1007.2,249.6 994.3,214.3" fill="none" stroke="#0EA5A3" stroke-width="0.77" opacity="0.23"/><polygon points="1028.8,230.8 1011.8,227.9 1022.8,214.6" fill="none" stroke="#9373DD" stroke-width="0.55" opacity="0.16"/><polygon points="1015.5,246.5 999.3,240.6 1012.5,229.5" fill="none" stroke="#9373DD" stroke-width="0.55" opacity="0.16"/><polygon points="1007.5,229.9 992.6,221.1 1007.7,212.6" fill="none" stroke="#9373DD" stroke-width="0.55" opacity="0.16"/><polygon points="1014.7,253.4 1056.2,323.8 974.4,324.5" fill="none" stroke="#E2B127" stroke-width="0.99" opacity="0.30"/><polygon points="1033.6,265.9 1015.1,298.7 996.0,266.3" fill="none" stroke="#0EA5A3" stroke-width="0.77" opacity="0.23"/><polygon points="1032.9,276.4 1015.6,276.5 1024.2,261.5" fill="none" stroke="#9373DD" stroke-width="0.55" opacity="0.16"/><polygon points="1022.6,294.2 1005.6,291.3 1016.7,278.0" fill="none" stroke="#9373DD" stroke-width="0.55" opacity="0.16"/><polygon points="1011.8,279.3 995.6,273.3 1008.9,262.2" fill="none" stroke="#9373DD" stroke-width="0.55" opacity="0.16"/><polygon points="1056.0,304.7 1031.9,333.6 1018.9,298.3" fill="none" stroke="#0EA5A3" stroke-width="0.77" opacity="0.23"/><polygon points="1053.5,314.8 1036.4,311.9 1047.5,298.6" fill="none" stroke="#9373DD" stroke-width="0.55" opacity="0.16"/><polygon points="1040.2,330.5 1023.9,324.6 1037.2,313.5" fill="none" stroke="#9373DD" stroke-width="0.55" opacity="0.16"/><polygon points="1032.2,313.9 1017.3,305.1 1032.3,296.6" fill="none" stroke="#9373DD" stroke-width="0.55" opacity="0.16"/><polygon points="1016.1,308.8 987.3,332.9 980.8,295.9" fill="none" stroke="#0EA5A3" stroke-width="0.77" opacity="0.23"/><polygon points="1011.8,318.3 995.6,312.4 1008.9,301.3" fill="none" stroke="#9373DD" stroke-width="0.55" opacity="0.16"/><polygon points="995.9,331.4 981.0,322.6 996.1,314.1" fill="none" stroke="#9373DD" stroke-width="0.55" opacity="0.16"/><polygon points="991.1,313.6 978.0,302.3 994.3,296.6" fill="none" stroke="#9373DD" stroke-width="0.55" opacity="0.16"/><polygon points="1330.7,198.1 1253.8,229.4 1265.2,147.2" fill="none" stroke="#C44536" stroke-width="1.21" opacity="0.37"/><polygon points="1315.3,215.3 1285.2,191.8 1320.5,177.4" fill="none" stroke="#E2B127" stroke-width="0.99" opacity="0.30"/><polygon points="1304.9,213.0 1307.3,195.7 1321.2,206.4" fill="none" stroke="#0EA5A3" stroke-width="0.77" opacity="0.23"/><polygon points="1303.4,208.4 1310.9,205.4 1309.8,213.4" fill="none" stroke="#9373DD" stroke-width="0.55" opacity="0.16"/><polygon points="1304.8,198.9 1312.7,197.2 1310.2,204.9" fill="none" stroke="#9373DD" stroke-width="0.55" opacity="0.16"/><polygon points="1312.1,203.5 1320.1,203.3 1316.3,210.4" fill="none" stroke="#9373DD" stroke-width="0.55" opacity="0.16"/><polygon points="1288.5,200.1 1294.0,183.4 1305.7,196.5" fill="none" stroke="#0EA5A3" stroke-width="0.77" opacity="0.23"/><polygon points="1287.9,195.2 1295.8,193.6 1293.2,201.3" fill="none" stroke="#9373DD" stroke-width="0.55" opacity="0.16"/><polygon points="1290.9,186.1 1299.0,185.9 1295.2,193.0" fill="none" stroke="#9373DD" stroke-width="0.55" opacity="0.16"/><polygon points="1297.3,192.0 1305.2,193.2 1300.2,199.5" fill="none" stroke="#9373DD" stroke-width="0.55" opacity="0.16"/><polygon points="1305.1,191.4 1313.5,176.0 1322.7,191.0" fill="none" stroke="#0EA5A3" stroke-width="0.77" opacity="0.23"/><polygon points="1305.3,186.6 1313.4,186.4 1309.5,193.5" fill="none" stroke="#9373DD" stroke-width="0.55" opacity="0.16"/><polygon points="1310.0,178.2 1318.0,179.4 1312.9,185.7" fill="none" stroke="#9373DD" stroke-width="0.55" opacity="0.16"/><polygon points="1315.2,185.0 1322.8,187.7 1316.7,193.0" fill="none" stroke="#9373DD" stroke-width="0.55" opacity="0.16"/><polygon points="1273.1,232.0 1247.6,203.6 1285.0,195.8" fill="none" stroke="#E2B127" stroke-width="0.99" opacity="0.30"/><polygon points="1263.2,228.0 1268.7,211.3 1280.4,224.4" fill="none" stroke="#0EA5A3" stroke-width="0.77" opacity="0.23"/><polygon points="1262.6,223.2 1270.5,221.5 1268.0,229.2" fill="none" stroke="#9373DD" stroke-width="0.55" opacity="0.16"/><polygon points="1265.7,214.1 1273.7,213.8 1269.9,220.9" fill="none" stroke="#9373DD" stroke-width="0.55" opacity="0.16"/><polygon points="1272.0,219.9 1280.0,221.1 1274.9,227.4" fill="none" stroke="#9373DD" stroke-width="0.55" opacity="0.16"/><polygon points="1249.4,212.3 1257.8,196.9 1267.0,211.9" fill="none" stroke="#0EA5A3" stroke-width="0.77" opacity="0.23"/><polygon points="1249.7,207.4 1257.7,207.2 1253.9,214.3" fill="none" stroke="#9373DD" stroke-width="0.55" opacity="0.16"/><polygon points="1254.3,199.0 1262.3,200.3 1257.2,206.6" fill="none" stroke="#9373DD" stroke-width="0.55" opacity="0.16"/><polygon points="1259.5,205.9 1267.1,208.6 1261.0,213.8" fill="none" stroke="#9373DD" stroke-width="0.55" opacity="0.16"/><polygon points="1267.3,206.8 1278.3,193.1 1284.7,209.5" fill="none" stroke="#0EA5A3" stroke-width="0.77" opacity="0.23"/><polygon points="1268.4,202.0 1276.4,203.3 1271.3,209.6" fill="none" stroke="#9373DD" stroke-width="0.55" opacity="0.16"/><polygon points="1274.5,194.6 1282.1,197.2 1276.0,202.5" fill="none" stroke="#9373DD" stroke-width="0.55" opacity="0.16"/><polygon points="1278.3,202.3 1285.4,206.2 1278.4,210.4" fill="none" stroke="#9373DD" stroke-width="0.55" opacity="0.16"/><polygon points="1274.8,191.4 1254.9,158.8 1293.0,157.8" fill="none" stroke="#E2B127" stroke-width="0.99" opacity="0.30"/><polygon points="1265.9,185.7 1274.3,170.2 1283.4,185.2" fill="none" stroke="#0EA5A3" stroke-width="0.77" opacity="0.23"/><polygon points="1266.1,180.8 1274.2,180.6 1270.3,187.7" fill="none" stroke="#9373DD" stroke-width="0.55" opacity="0.16"/><polygon points="1270.8,172.4 1278.7,173.6 1273.7,179.9" fill="none" stroke="#9373DD" stroke-width="0.55" opacity="0.16"/><polygon points="1275.9,179.3 1283.6,181.9 1277.4,187.2" fill="none" stroke="#9373DD" stroke-width="0.55" opacity="0.16"/><polygon points="1255.1,167.8 1266.1,154.1 1272.5,170.5" fill="none" stroke="#0EA5A3" stroke-width="0.77" opacity="0.23"/><polygon points="1256.2,163.0 1264.2,164.2 1259.1,170.5" fill="none" stroke="#9373DD" stroke-width="0.55" opacity="0.16"/><polygon points="1262.3,155.6 1269.9,158.2 1263.8,163.5" fill="none" stroke="#9373DD" stroke-width="0.55" opacity="0.16"/><polygon points="1266.1,163.3 1273.2,167.2 1266.2,171.3" fill="none" stroke="#9373DD" stroke-width="0.55" opacity="0.16"/><polygon points="1273.7,165.5 1287.0,154.0 1290.3,171.3" fill="none" stroke="#0EA5A3" stroke-width="0.77" opacity="0.23"/><polygon points="1275.6,161.0 1283.2,163.7 1277.1,169.0" fill="none" stroke="#9373DD" stroke-width="0.55" opacity="0.16"/><polygon points="1282.9,154.8 1290.0,158.8 1283.0,162.9" fill="none" stroke="#9373DD" stroke-width="0.55" opacity="0.16"/><polygon points="1285.3,163.1 1291.5,168.2 1284.0,171.0" fill="none" stroke="#9373DD" stroke-width="0.55" opacity="0.16"/></g>
  <path d="M70 287.6805 C402.824 42.522999999999996, 491.084 304.976, 765.56 206.288 S1177.184 140.108, 1510 260.4592" fill="none" stroke="#0EA5A3" stroke-width="7" stroke-linecap="round" opacity=".34"/>
  <path d="M70 287.6805 C402.824 42.522999999999996, 491.084 304.976, 765.56 206.288 S1177.184 140.108, 1510 260.4592" fill="none" stroke="#E2B127" stroke-width="1.1" stroke-dasharray="11 16" stroke-linecap="round" opacity=".78"/>
  <g stroke="#C44536" stroke-width="2.2" fill="none" opacity=".74" transform="rotate(-5.39 1302.5 209.4)"><polygon points="1342.6,317.5 1194.5,249.6 1262.4,101.4 1410.5,169.3"/><polygon points="1277.5,263.9 1248.0,184.5 1327.5,155.0 1357.0,234.4"/><line x1="1342.6" y1="317.5" x2="1277.5" y2="263.9"/><line x1="1277.5" y1="263.9" x2="1194.5" y2="249.6"/><line x1="1194.5" y1="249.6" x2="1248.0" y2="184.5"/><line x1="1248.0" y1="184.5" x2="1262.4" y2="101.4"/><line x1="1262.4" y1="101.4" x2="1327.5" y2="155.0"/><line x1="1327.5" y1="155.0" x2="1410.5" y2="169.3"/><line x1="1410.5" y1="169.3" x2="1357.0" y2="234.4"/><line x1="1357.0" y1="234.4" x2="1342.6" y2="317.5"/></g>
  <g><polygon points="184.9,300.8 169.9,311.9 134.2,285.5 146.4,262.4 180.3,264.7" fill="#0EA5A3" opacity="0.20"/><polygon points="327.0,229.2 297.4,247.8 285.4,242.0 278.5,212.6 311.3,198.6 316.6,201.4" fill="#E2B127" opacity="0.30"/><polygon points="437.5,159.4 431.2,165.1 397.7,159.6 395.3,131.4 407.6,120.3 423.6,119.0 442.9,143.4" fill="#C44536" opacity="0.16"/><polygon points="553.1,143.3 517.1,143.3 507.8,129.4 520.9,96.4 552.2,98.2" fill="#9373DD" opacity="0.29"/><polygon points="696.1,194.4 683.9,200.0 665.7,195.5 657.1,167.3 685.6,151.7 695.8,156.7" fill="#0EA5A3" opacity="0.24"/><polygon points="872.3,272.3 866.4,277.8 831.3,269.6 828.0,258.4 846.4,233.3 860.6,233.7 877.4,256.0" fill="#E2B127" opacity="0.29"/><polygon points="1057.2,297.1 1018.9,320.2 997.3,284.8 1009.0,266.2 1053.4,274.7" fill="#C44536" opacity="0.19"/><polygon points="1191.7,248.4 1175.4,260.5 1164.1,253.7 1166.0,234.7 1169.4,232.2 1191.7,242.5" fill="#9373DD" opacity="0.21"/><polygon points="1313.1,178.9 1298.6,185.6 1290.5,184.6 1275.2,157.3 1291.1,141.1 1310.3,144.6 1319.6,164.9" fill="#0EA5A3" opacity="0.26"/><polygon points="1428.3,134.9 1403.3,141.4 1388.0,113.8 1398.6,99.1 1427.6,102.7" fill="#E2B127" opacity="0.16"/></g>
  <g><rect x="106.9" y="302.4" width="93.7" height="6.3" fill="#9373DD" opacity="0.18"/><rect x="217.6" y="51.3" width="70.7" height="3.9" fill="#0EA5A3" opacity="0.18"/><rect x="316.8" y="174.7" width="102.6" height="14.8" fill="#E2B127" opacity="0.30"/><rect x="400.1" y="169.8" width="48.8" height="14.0" fill="#C44536" opacity="0.14"/><rect x="508.4" y="70.5" width="85.1" height="3.0" fill="#9373DD" opacity="0.22"/><rect x="601.2" y="47.8" width="116.6" height="7.9" fill="#0EA5A3" opacity="0.11"/><rect x="704.1" y="268.7" width="140.4" height="13.4" fill="#E2B127" opacity="0.15"/><rect x="834.0" y="108.6" width="59.2" height="3.8" fill="#C44536" opacity="0.23"/><rect x="935.5" y="100.8" width="31.2" height="8.6" fill="#9373DD" opacity="0.11"/><rect x="1035.0" y="236.5" width="23.7" height="9.4" fill="#0EA5A3" opacity="0.30"/><rect x="1149.9" y="41.7" width="110.3" height="12.5" fill="#E2B127" opacity="0.30"/><rect x="1246.0" y="223.4" width="127.7" height="8.2" fill="#C44536" opacity="0.15"/><rect x="1339.4" y="146.3" width="56.2" height="8.2" fill="#9373DD" opacity="0.29"/><rect x="1468.3" y="33.8" width="44.3" height="10.1" fill="#0EA5A3" opacity="0.11"/></g>
  <rect width="1600" height="360" filter="url(#grain-279547335)" opacity=".85"/>
</svg>
