<svg xmlns="http://www.w3.org/2000/svg" viewBox="0 0 1600 360" role="img" aria-labelledby="title-1554375598 desc-1554375598">
  <title id="title-1554375598">Generative page artwork</title>
  <desc id="desc-1554375598">Platonic-solid, fractal, opt-art, glitch, and organic dialogue geometry for Practice-Oriented Web Design Education Through Incremental Projects.</desc>
  <defs>
    <filter id="grain-1554375598" x="-10%" y="-10%" width="120%" height="120%">
      <feTurbulence type="fractalNoise" baseFrequency="0.59" numOctaves="2" seed="754" result="noise"/>
      <feColorMatrix in="noise" type="saturate" values="0"/>
      <feComponentTransfer><feFuncA type="table" tableValues="0 .16"/></feComponentTransfer>
    </filter>
  </defs>
  <rect width="1600" height="360" fill="#050816"/>
  <rect width="1600" height="360" fill="#FAC775" opacity=".10"/>
  <g fill="none" stroke="#534AB7" stroke-width="1.2" opacity=".58"><polygon points="241.1,125.9 207.8,286.6 85.3,177.4" fill="none" stroke="#D85A30" stroke-width="1.21" opacity="0.37"/><polygon points="252.2,170.1 180.6,193.8 195.9,119.9" fill="none" stroke="#FAC775" stroke-width="0.99" opacity="0.30"/><polygon points="237.2,184.7 211.3,161.6 244.2,150.7" fill="none" stroke="#5DCAA5" stroke-width="0.77" opacity="0.23"/><polygon points="227.9,182.1 231.2,166.4 243.1,177.1" fill="none" stroke="#534AB7" stroke-width="0.55" opacity="0.16"/><polygon points="213.8,169.3 219.8,154.5 229.6,167.1" fill="none" stroke="#534AB7" stroke-width="0.55" opacity="0.16"/><polygon points="229.4,162.5 237.9,149.0 245.4,163.1" fill="none" stroke="#534AB7" stroke-width="0.55" opacity="0.16"/><polygon points="197.9,197.4 176.5,170.0 210.9,165.2" fill="none" stroke="#5DCAA5" stroke-width="0.77" opacity="0.23"/><polygon points="189.2,193.1 195.2,178.3 205.0,190.9" fill="none" stroke="#534AB7" stroke-width="0.55" opacity="0.16"/><polygon points="177.6,178.1 186.1,164.6 193.6,178.7" fill="none" stroke="#534AB7" stroke-width="0.55" opacity="0.16"/><polygon points="194.2,174.1 205.0,162.4 209.8,177.6" fill="none" stroke="#534AB7" stroke-width="0.55" opacity="0.16"/><polygon points="201.9,160.6 185.8,129.9 220.5,131.3" fill="none" stroke="#5DCAA5" stroke-width="0.77" opacity="0.23"/><polygon points="194.1,154.9 202.7,141.4 210.1,155.5" fill="none" stroke="#534AB7" stroke-width="0.55" opacity="0.16"/><polygon points="185.4,138.0 196.3,126.2 201.0,141.5" fill="none" stroke="#534AB7" stroke-width="0.55" opacity="0.16"/><polygon points="202.4,137.0 215.2,127.4 217.2,143.3" fill="none" stroke="#534AB7" stroke-width="0.55" opacity="0.16"/><polygon points="233.4,257.9 158.6,268.4 186.9,198.5" fill="none" stroke="#FAC775" stroke-width="0.99" opacity="0.30"/><polygon points="215.9,269.6 194.6,242.3 228.9,237.4" fill="none" stroke="#5DCAA5" stroke-width="0.77" opacity="0.23"/><polygon points="207.3,265.4 213.3,250.6 223.1,263.2" fill="none" stroke="#534AB7" stroke-width="0.55" opacity="0.16"/><polygon points="195.7,250.3 204.2,236.8 211.6,251.0" fill="none" stroke="#534AB7" stroke-width="0.55" opacity="0.16"/><polygon points="212.2,246.4 223.1,234.6 227.8,249.9" fill="none" stroke="#534AB7" stroke-width="0.55" opacity="0.16"/><polygon points="175.0,275.1 158.8,244.3 193.5,245.7" fill="none" stroke="#5DCAA5" stroke-width="0.77" opacity="0.23"/><polygon points="167.2,269.3 175.7,255.8 183.2,270.0" fill="none" stroke="#534AB7" stroke-width="0.55" opacity="0.16"/><polygon points="158.5,252.4 169.3,240.7 174.1,255.9" fill="none" stroke="#534AB7" stroke-width="0.55" opacity="0.16"/><polygon points="175.5,251.5 188.2,241.9 190.2,257.7" fill="none" stroke="#534AB7" stroke-width="0.55" opacity="0.16"/><polygon points="185.5,239.6 175.2,206.5 209.0,214.0" fill="none" stroke="#5DCAA5" stroke-width="0.77" opacity="0.23"/><polygon points="178.9,232.6 189.7,220.8 194.5,236.1" fill="none" stroke="#534AB7" stroke-width="0.55" opacity="0.16"/><polygon points="173.4,214.4 186.1,204.8 188.1,220.6" fill="none" stroke="#534AB7" stroke-width="0.55" opacity="0.16"/><polygon points="190.3,216.5 204.5,209.3 203.6,225.3" fill="none" stroke="#534AB7" stroke-width="0.55" opacity="0.16"/><polygon points="168.5,210.3 93.1,207.3 133.4,143.5" fill="none" stroke="#FAC775" stroke-width="0.99" opacity="0.30"/><polygon points="149.3,218.7 133.1,188.0 167.8,189.4" fill="none" stroke="#5DCAA5" stroke-width="0.77" opacity="0.23"/><polygon points="141.5,213.0 150.0,199.5 157.5,213.6" fill="none" stroke="#534AB7" stroke-width="0.55" opacity="0.16"/><polygon points="132.8,196.1 143.6,184.3 148.4,199.6" fill="none" stroke="#534AB7" stroke-width="0.55" opacity="0.16"/><polygon points="149.8,195.2 162.6,185.5 164.5,201.4" fill="none" stroke="#534AB7" stroke-width="0.55" opacity="0.16"/><polygon points="108.0,216.7 97.6,183.6 131.5,191.2" fill="none" stroke="#5DCAA5" stroke-width="0.77" opacity="0.23"/><polygon points="101.4,209.7 112.2,198.0 117.0,213.2" fill="none" stroke="#534AB7" stroke-width="0.55" opacity="0.16"/><polygon points="95.8,191.5 108.6,181.9 110.5,197.7" fill="none" stroke="#534AB7" stroke-width="0.55" opacity="0.16"/><polygon points="112.7,193.7 127.0,186.5 126.1,202.4" fill="none" stroke="#534AB7" stroke-width="0.55" opacity="0.16"/><polygon points="124.7,183.7 120.5,149.3 152.4,162.8" fill="none" stroke="#5DCAA5" stroke-width="0.77" opacity="0.23"/><polygon points="119.5,175.6 132.2,166.0 134.2,181.9" fill="none" stroke="#534AB7" stroke-width="0.55" opacity="0.16"/><polygon points="117.3,156.7 131.6,149.6 130.7,165.5" fill="none" stroke="#534AB7" stroke-width="0.55" opacity="0.16"/><polygon points="133.5,161.9 148.8,157.4 145.1,172.9" fill="none" stroke="#534AB7" stroke-width="0.55" opacity="0.16"/><polygon points="418.4,303.2 367.3,104.9 564.6,159.8" fill="none" stroke="#D85A30" stroke-width="1.21" opacity="0.37"/><polygon points="381.6,259.8 448.8,193.9 472.3,285.1" fill="none" stroke="#FAC775" stroke-width="0.99" opacity="0.30"/><polygon points="390.4,235.2 432.1,246.8 401.2,277.2" fill="none" stroke="#5DCAA5" stroke-width="0.77" opacity="0.23"/><polygon points="402.2,233.0 407.2,252.3 388.0,247.0" fill="none" stroke="#534AB7" stroke-width="0.55" opacity="0.16"/><polygon points="425.0,239.6 426.5,259.5 408.5,250.8" fill="none" stroke="#534AB7" stroke-width="0.55" opacity="0.16"/><polygon points="411.3,255.8 409.2,275.6 393.1,263.9" fill="none" stroke="#534AB7" stroke-width="0.55" opacity="0.16"/><polygon points="427.5,199.4 466.5,218.3 430.6,242.6" fill="none" stroke="#5DCAA5" stroke-width="0.77" opacity="0.23"/><polygon points="439.5,199.4 441.0,219.3 423.0,210.6" fill="none" stroke="#534AB7" stroke-width="0.55" opacity="0.16"/><polygon points="460.8,209.9 458.6,229.7 442.5,217.9" fill="none" stroke="#534AB7" stroke-width="0.55" opacity="0.16"/><polygon points="444.4,223.4 438.7,242.5 425.0,228.1" fill="none" stroke="#534AB7" stroke-width="0.55" opacity="0.16"/><polygon points="443.2,242.8 478.1,268.4 438.5,285.9" fill="none" stroke="#5DCAA5" stroke-width="0.77" opacity="0.23"/><polygon points="455.0,245.0 452.9,264.8 436.8,253.0" fill="none" stroke="#534AB7" stroke-width="0.55" opacity="0.16"/><polygon points="474.0,259.1 468.4,278.2 454.7,263.8" fill="none" stroke="#534AB7" stroke-width="0.55" opacity="0.16"/><polygon points="455.5,269.5 446.5,287.3 435.6,270.6" fill="none" stroke="#534AB7" stroke-width="0.55" opacity="0.16"/><polygon points="354.4,151.0 432.4,98.2 439.2,192.1" fill="none" stroke="#FAC775" stroke-width="0.99" opacity="0.30"/><polygon points="367.5,128.4 406.5,147.3 370.6,171.6" fill="none" stroke="#5DCAA5" stroke-width="0.77" opacity="0.23"/><polygon points="379.6,128.4 381.0,148.3 363.1,139.6" fill="none" stroke="#534AB7" stroke-width="0.55" opacity="0.16"/><polygon points="400.8,138.9 398.7,158.7 382.6,146.9" fill="none" stroke="#534AB7" stroke-width="0.55" opacity="0.16"/><polygon points="384.4,152.4 378.8,171.5 365.1,157.1" fill="none" stroke="#534AB7" stroke-width="0.55" opacity="0.16"/><polygon points="410.4,99.8 445.4,125.3 405.8,142.9" fill="none" stroke="#5DCAA5" stroke-width="0.77" opacity="0.23"/><polygon points="422.3,101.9 420.1,121.7 404.0,110.0" fill="none" stroke="#534AB7" stroke-width="0.55" opacity="0.16"/><polygon points="441.3,116.1 435.7,135.2 421.9,120.7" fill="none" stroke="#534AB7" stroke-width="0.55" opacity="0.16"/><polygon points="422.8,126.5 413.8,144.2 402.9,127.6" fill="none" stroke="#534AB7" stroke-width="0.55" opacity="0.16"/><polygon points="418.1,145.3 447.9,176.7 405.8,186.9" fill="none" stroke="#5DCAA5" stroke-width="0.77" opacity="0.23"/><polygon points="429.4,149.5 423.7,168.7 410.0,154.2" fill="none" stroke="#534AB7" stroke-width="0.55" opacity="0.16"/><polygon points="445.6,166.9 436.6,184.7 425.7,168.0" fill="none" stroke="#534AB7" stroke-width="0.55" opacity="0.16"/><polygon points="425.5,173.8 413.4,189.7 405.7,171.3" fill="none" stroke="#534AB7" stroke-width="0.55" opacity="0.16"/><polygon points="453.2,168.7 539.4,130.7 529.3,224.3" fill="none" stroke="#FAC775" stroke-width="0.99" opacity="0.30"/><polygon points="470.2,148.8 505.2,174.3 465.5,191.8" fill="none" stroke="#5DCAA5" stroke-width="0.77" opacity="0.23"/><polygon points="482.0,150.9 479.9,170.7 463.8,159.0" fill="none" stroke="#534AB7" stroke-width="0.55" opacity="0.16"/><polygon points="501.1,165.1 495.4,184.2 481.7,169.7" fill="none" stroke="#534AB7" stroke-width="0.55" opacity="0.16"/><polygon points="482.5,175.4 473.5,193.2 462.6,176.6" fill="none" stroke="#534AB7" stroke-width="0.55" opacity="0.16"/><polygon points="517.5,128.3 547.4,159.7 505.2,169.9" fill="none" stroke="#5DCAA5" stroke-width="0.77" opacity="0.23"/><polygon points="528.8,132.5 523.1,151.7 509.4,137.2" fill="none" stroke="#534AB7" stroke-width="0.55" opacity="0.16"/><polygon points="545.0,149.9 536.0,167.7 525.1,151.0" fill="none" stroke="#534AB7" stroke-width="0.55" opacity="0.16"/><polygon points="524.9,156.8 512.9,172.7 505.1,154.3" fill="none" stroke="#534AB7" stroke-width="0.55" opacity="0.16"/><polygon points="516.9,174.5 540.6,210.7 497.4,213.2" fill="none" stroke="#5DCAA5" stroke-width="0.77" opacity="0.23"/><polygon points="527.2,180.7 518.2,198.5 507.3,181.8" fill="none" stroke="#534AB7" stroke-width="0.55" opacity="0.16"/><polygon points="540.1,200.6 528.0,216.5 520.3,198.2" fill="none" stroke="#534AB7" stroke-width="0.55" opacity="0.16"/><polygon points="519.1,203.8 504.4,217.3 500.0,197.8" fill="none" stroke="#534AB7" stroke-width="0.55" opacity="0.16"/><polygon points="778.1,239.9 657.6,157.8 789.0,94.5" fill="none" stroke="#D85A30" stroke-width="1.21" opacity="0.37"/><polygon points="738.0,234.0 743.0,167.1 798.5,204.9" fill="none" stroke="#FAC775" stroke-width="0.99" opacity="0.30"/><polygon points="731.1,216.7 759.0,203.3 756.6,234.1" fill="none" stroke="#5DCAA5" stroke-width="0.77" opacity="0.23"/><polygon points="736.5,210.0 748.2,218.0 735.4,224.1" fill="none" stroke="#534AB7" stroke-width="0.55" opacity="0.16"/><polygon points="751.8,202.8 761.9,212.7 748.2,216.5" fill="none" stroke="#534AB7" stroke-width="0.55" opacity="0.16"/><polygon points="752.1,217.9 760.2,229.5 746.1,230.7" fill="none" stroke="#534AB7" stroke-width="0.55" opacity="0.16"/><polygon points="734.2,180.1 763.9,171.9 756.2,201.7" fill="none" stroke="#5DCAA5" stroke-width="0.77" opacity="0.23"/><polygon points="740.6,174.4 750.7,184.4 737.1,188.2" fill="none" stroke="#534AB7" stroke-width="0.55" opacity="0.16"/><polygon points="757.0,170.1 765.1,181.7 751.0,182.9" fill="none" stroke="#534AB7" stroke-width="0.55" opacity="0.16"/><polygon points="754.5,185.0 760.5,197.9 746.4,196.6" fill="none" stroke="#534AB7" stroke-width="0.55" opacity="0.16"/><polygon points="763.0,196.0 793.7,193.2 780.7,221.2" fill="none" stroke="#5DCAA5" stroke-width="0.77" opacity="0.23"/><polygon points="770.3,191.5 778.5,203.2 764.4,204.4" fill="none" stroke="#534AB7" stroke-width="0.55" opacity="0.16"/><polygon points="787.2,190.2 793.1,203.1 779.0,201.8" fill="none" stroke="#534AB7" stroke-width="0.55" opacity="0.16"/><polygon points="782.1,204.4 785.7,218.2 772.0,214.4" fill="none" stroke="#534AB7" stroke-width="0.55" opacity="0.16"/><polygon points="672.4,188.5 689.3,123.6 737.1,170.7" fill="none" stroke="#FAC775" stroke-width="0.99" opacity="0.30"/><polygon points="668.7,170.2 698.5,162.0 690.7,191.9" fill="none" stroke="#5DCAA5" stroke-width="0.77" opacity="0.23"/><polygon points="675.2,164.6 685.3,174.5 671.6,178.3" fill="none" stroke="#534AB7" stroke-width="0.55" opacity="0.16"/><polygon points="691.5,160.2 699.7,171.8 685.5,173.1" fill="none" stroke="#534AB7" stroke-width="0.55" opacity="0.16"/><polygon points="689.1,175.1 695.0,188.0 680.9,186.7" fill="none" stroke="#534AB7" stroke-width="0.55" opacity="0.16"/><polygon points="678.3,134.7 709.0,132.0 696.0,160.0" fill="none" stroke="#5DCAA5" stroke-width="0.77" opacity="0.23"/><polygon points="685.6,130.3 693.8,142.0 679.7,143.2" fill="none" stroke="#534AB7" stroke-width="0.55" opacity="0.16"/><polygon points="702.5,129.0 708.4,141.9 694.3,140.6" fill="none" stroke="#534AB7" stroke-width="0.55" opacity="0.16"/><polygon points="697.4,143.2 701.0,157.0 687.3,153.2" fill="none" stroke="#534AB7" stroke-width="0.55" opacity="0.16"/><polygon points="703.8,155.5 734.5,158.3 716.7,183.6" fill="none" stroke="#5DCAA5" stroke-width="0.77" opacity="0.23"/><polygon points="711.8,152.5 717.7,165.4 703.6,164.1" fill="none" stroke="#534AB7" stroke-width="0.55" opacity="0.16"/><polygon points="728.6,154.2 732.2,167.9 718.5,164.1" fill="none" stroke="#534AB7" stroke-width="0.55" opacity="0.16"/><polygon points="721.1,167.3 722.1,181.5 709.3,175.3" fill="none" stroke="#534AB7" stroke-width="0.55" opacity="0.16"/><polygon points="733.6,151.6 761.9,90.7 800.4,145.6" fill="none" stroke="#FAC775" stroke-width="0.99" opacity="0.30"/><polygon points="733.3,132.9 764.0,130.2 751.0,158.2" fill="none" stroke="#5DCAA5" stroke-width="0.77" opacity="0.23"/><polygon points="740.6,128.5 748.8,140.1 734.7,141.4" fill="none" stroke="#534AB7" stroke-width="0.55" opacity="0.16"/><polygon points="757.5,127.1 763.4,140.0 749.3,138.7" fill="none" stroke="#534AB7" stroke-width="0.55" opacity="0.16"/><polygon points="752.4,141.4 756.0,155.2 742.3,151.3" fill="none" stroke="#534AB7" stroke-width="0.55" opacity="0.16"/><polygon points="749.0,99.7 779.8,102.5 761.9,127.8" fill="none" stroke="#5DCAA5" stroke-width="0.77" opacity="0.23"/><polygon points="757.0,96.7 763.0,109.6 748.9,108.3" fill="none" stroke="#534AB7" stroke-width="0.55" opacity="0.16"/><polygon points="773.9,98.4 777.4,112.1 763.7,108.3" fill="none" stroke="#534AB7" stroke-width="0.55" opacity="0.16"/><polygon points="766.3,111.5 767.4,125.7 754.6,119.5" fill="none" stroke="#534AB7" stroke-width="0.55" opacity="0.16"/><polygon points="770.4,124.7 800.1,133.0 778.1,154.6" fill="none" stroke="#5DCAA5" stroke-width="0.77" opacity="0.23"/><polygon points="778.8,123.2 782.4,137.0 768.7,133.1" fill="none" stroke="#534AB7" stroke-width="0.55" opacity="0.16"/><polygon points="795.1,127.9 796.1,142.0 783.3,135.8" fill="none" stroke="#534AB7" stroke-width="0.55" opacity="0.16"/><polygon points="785.3,139.4 783.8,153.5 772.3,145.2" fill="none" stroke="#534AB7" stroke-width="0.55" opacity="0.16"/><polygon points="1042.8,308.0 968.4,178.9 1117.4,179.0" fill="none" stroke="#D85A30" stroke-width="1.21" opacity="0.37"/><polygon points="1008.6,284.8 1042.9,225.4 1077.1,284.8" fill="none" stroke="#FAC775" stroke-width="0.99" opacity="0.30"/><polygon points="1010.0,265.8 1041.5,265.8 1025.7,293.1" fill="none" stroke="#5DCAA5" stroke-width="0.77" opacity="0.23"/><polygon points="1017.9,261.9 1025.1,274.5 1010.6,274.5" fill="none" stroke="#534AB7" stroke-width="0.55" opacity="0.16"/><polygon points="1035.1,262.1 1040.0,275.7 1025.7,273.1" fill="none" stroke="#534AB7" stroke-width="0.55" opacity="0.16"/><polygon points="1028.7,276.1 1031.0,290.4 1017.5,285.3" fill="none" stroke="#534AB7" stroke-width="0.55" opacity="0.16"/><polygon points="1029.0,233.4 1060.0,239.1 1039.6,263.1" fill="none" stroke="#5DCAA5" stroke-width="0.77" opacity="0.23"/><polygon points="1037.5,231.1 1042.3,244.7 1028.1,242.1" fill="none" stroke="#534AB7" stroke-width="0.55" opacity="0.16"/><polygon points="1054.4,234.3 1056.8,248.6 1043.2,243.5" fill="none" stroke="#534AB7" stroke-width="0.55" opacity="0.16"/><polygon points="1045.6,247.0 1045.3,261.5 1032.9,254.0" fill="none" stroke="#534AB7" stroke-width="0.55" opacity="0.16"/><polygon points="1048.5,260.8 1078.0,271.9 1053.6,291.9" fill="none" stroke="#5DCAA5" stroke-width="0.77" opacity="0.23"/><polygon points="1057.2,260.0 1059.5,274.3 1046.0,269.2" fill="none" stroke="#534AB7" stroke-width="0.55" opacity="0.16"/><polygon points="1073.3,266.2 1073.0,280.7 1060.6,273.3" fill="none" stroke="#534AB7" stroke-width="0.55" opacity="0.16"/><polygon points="1062.3,277.1 1059.5,291.3 1048.6,281.8" fill="none" stroke="#534AB7" stroke-width="0.55" opacity="0.16"/><polygon points="968.4,213.8 1012.8,161.5 1035.8,226.1" fill="none" stroke="#FAC775" stroke-width="0.99" opacity="0.30"/><polygon points="973.2,195.3 1004.2,201.0 983.8,225.0" fill="none" stroke="#5DCAA5" stroke-width="0.77" opacity="0.23"/><polygon points="981.6,193.0 986.5,206.6 972.2,204.0" fill="none" stroke="#534AB7" stroke-width="0.55" opacity="0.16"/><polygon points="998.6,196.2 1000.9,210.5 987.4,205.4" fill="none" stroke="#534AB7" stroke-width="0.55" opacity="0.16"/><polygon points="989.7,208.9 989.5,223.4 977.0,215.9" fill="none" stroke="#534AB7" stroke-width="0.55" opacity="0.16"/><polygon points="997.7,166.9 1027.2,178.0 1002.8,198.0" fill="none" stroke="#5DCAA5" stroke-width="0.77" opacity="0.23"/><polygon points="1006.4,166.1 1008.8,180.4 995.2,175.3" fill="none" stroke="#534AB7" stroke-width="0.55" opacity="0.16"/><polygon points="1022.5,172.3 1022.3,186.8 1009.8,179.4" fill="none" stroke="#534AB7" stroke-width="0.55" opacity="0.16"/><polygon points="1011.5,183.2 1008.7,197.4 997.8,187.9" fill="none" stroke="#534AB7" stroke-width="0.55" opacity="0.16"/><polygon points="1011.9,197.4 1038.9,213.6 1011.4,228.9" fill="none" stroke="#5DCAA5" stroke-width="0.77" opacity="0.23"/><polygon points="1020.6,198.1 1020.4,212.6 1008.0,205.2" fill="none" stroke="#534AB7" stroke-width="0.55" opacity="0.16"/><polygon points="1035.4,207.1 1032.5,221.4 1021.6,211.8" fill="none" stroke="#534AB7" stroke-width="0.55" opacity="0.16"/><polygon points="1022.6,215.9 1017.3,229.4 1008.3,218.0" fill="none" stroke="#534AB7" stroke-width="0.55" opacity="0.16"/><polygon points="1041.1,206.9 1094.1,163.5 1105.2,231.1" fill="none" stroke="#FAC775" stroke-width="0.99" opacity="0.30"/><polygon points="1049.1,189.6 1078.6,200.8 1054.2,220.7" fill="none" stroke="#5DCAA5" stroke-width="0.77" opacity="0.23"/><polygon points="1057.8,188.8 1060.2,203.2 1046.6,198.0" fill="none" stroke="#534AB7" stroke-width="0.55" opacity="0.16"/><polygon points="1073.9,195.1 1073.7,209.6 1061.2,202.1" fill="none" stroke="#534AB7" stroke-width="0.55" opacity="0.16"/><polygon points="1063.0,205.9 1060.1,220.2 1049.2,210.6" fill="none" stroke="#534AB7" stroke-width="0.55" opacity="0.16"/><polygon points="1078.3,166.1 1105.3,182.3 1077.8,197.6" fill="none" stroke="#5DCAA5" stroke-width="0.77" opacity="0.23"/><polygon points="1087.0,166.9 1086.8,181.4 1074.4,173.9" fill="none" stroke="#534AB7" stroke-width="0.55" opacity="0.16"/><polygon points="1101.8,175.9 1098.9,190.1 1088.0,180.5" fill="none" stroke="#534AB7" stroke-width="0.55" opacity="0.16"/><polygon points="1089.0,184.6 1083.7,198.1 1074.7,186.7" fill="none" stroke="#534AB7" stroke-width="0.55" opacity="0.16"/><polygon points="1086.9,198.6 1110.5,219.4 1080.7,229.5" fill="none" stroke="#5DCAA5" stroke-width="0.77" opacity="0.23"/><polygon points="1095.3,200.9 1092.5,215.1 1081.6,205.5" fill="none" stroke="#534AB7" stroke-width="0.55" opacity="0.16"/><polygon points="1108.2,212.4 1102.8,225.9 1093.8,214.5" fill="none" stroke="#534AB7" stroke-width="0.55" opacity="0.16"/><polygon points="1094.1,218.7 1086.4,231.0 1079.6,218.2" fill="none" stroke="#534AB7" stroke-width="0.55" opacity="0.16"/><polygon points="1313.3,137.3 1367.4,219.7 1269.0,225.4" fill="none" stroke="#D85A30" stroke-width="1.21" opacity="0.37"/><polygon points="1336.8,151.4 1316.4,191.9 1291.5,154.0" fill="none" stroke="#FAC775" stroke-width="0.99" opacity="0.30"/><polygon points="1336.6,164.0 1315.8,165.2 1325.2,146.5" fill="none" stroke="#5DCAA5" stroke-width="0.77" opacity="0.23"/><polygon points="1331.5,166.8 1326.3,158.8 1335.9,158.2" fill="none" stroke="#534AB7" stroke-width="0.55" opacity="0.16"/><polygon points="1320.1,167.3 1316.4,158.5 1325.9,159.7" fill="none" stroke="#534AB7" stroke-width="0.55" opacity="0.16"/><polygon points="1323.9,157.8 1321.7,148.5 1330.9,151.3" fill="none" stroke="#534AB7" stroke-width="0.55" opacity="0.16"/><polygon points="1325.3,186.0 1304.6,183.5 1317.1,166.8" fill="none" stroke="#5DCAA5" stroke-width="0.77" opacity="0.23"/><polygon points="1319.8,187.9 1316.1,179.1 1325.6,180.3" fill="none" stroke="#534AB7" stroke-width="0.55" opacity="0.16"/><polygon points="1308.5,186.4 1306.4,177.1 1315.5,179.9" fill="none" stroke="#534AB7" stroke-width="0.55" opacity="0.16"/><polygon points="1313.8,177.7 1313.4,168.1 1321.9,172.6" fill="none" stroke="#534AB7" stroke-width="0.55" opacity="0.16"/><polygon points="1311.4,168.7 1291.5,162.5 1306.8,148.4" fill="none" stroke="#5DCAA5" stroke-width="0.77" opacity="0.23"/><polygon points="1305.7,169.6 1303.6,160.2 1312.7,163.1" fill="none" stroke="#534AB7" stroke-width="0.55" opacity="0.16"/><polygon points="1294.8,166.1 1294.4,156.5 1302.9,160.9" fill="none" stroke="#534AB7" stroke-width="0.55" opacity="0.16"/><polygon points="1301.6,158.5 1302.9,149.0 1310.5,154.9" fill="none" stroke="#534AB7" stroke-width="0.55" opacity="0.16"/><polygon points="1366.1,196.7 1338.8,232.9 1321.1,191.2" fill="none" stroke="#FAC775" stroke-width="0.99" opacity="0.30"/><polygon points="1363.6,209.0 1342.9,206.5 1355.5,189.8" fill="none" stroke="#5DCAA5" stroke-width="0.77" opacity="0.23"/><polygon points="1358.1,210.9 1354.4,202.1 1363.9,203.2" fill="none" stroke="#534AB7" stroke-width="0.55" opacity="0.16"/><polygon points="1346.8,209.4 1344.7,200.1 1353.9,202.9" fill="none" stroke="#534AB7" stroke-width="0.55" opacity="0.16"/><polygon points="1352.2,200.7 1351.8,191.1 1360.3,195.6" fill="none" stroke="#534AB7" stroke-width="0.55" opacity="0.16"/><polygon points="1348.5,228.7 1328.6,222.5 1344.0,208.4" fill="none" stroke="#5DCAA5" stroke-width="0.77" opacity="0.23"/><polygon points="1342.8,229.6 1340.7,220.2 1349.9,223.1" fill="none" stroke="#534AB7" stroke-width="0.55" opacity="0.16"/><polygon points="1331.9,226.1 1331.5,216.5 1340.0,221.0" fill="none" stroke="#534AB7" stroke-width="0.55" opacity="0.16"/><polygon points="1338.8,218.5 1340.1,209.0 1347.7,214.9" fill="none" stroke="#534AB7" stroke-width="0.55" opacity="0.16"/><polygon points="1338.0,209.2 1319.5,199.5 1337.1,188.4" fill="none" stroke="#5DCAA5" stroke-width="0.77" opacity="0.23"/><polygon points="1332.2,209.0 1331.8,199.4 1340.3,203.9" fill="none" stroke="#534AB7" stroke-width="0.55" opacity="0.16"/><polygon points="1322.1,203.6 1323.4,194.1 1331.0,200.0" fill="none" stroke="#534AB7" stroke-width="0.55" opacity="0.16"/><polygon points="1330.2,197.4 1333.2,188.3 1339.6,195.4" fill="none" stroke="#534AB7" stroke-width="0.55" opacity="0.16"/><polygon points="1318.3,204.0 1285.0,234.7 1275.0,190.5" fill="none" stroke="#FAC775" stroke-width="0.99" opacity="0.30"/><polygon points="1313.7,215.7 1293.8,209.5 1309.1,195.4" fill="none" stroke="#5DCAA5" stroke-width="0.77" opacity="0.23"/><polygon points="1308.0,216.6 1305.9,207.2 1315.0,210.1" fill="none" stroke="#534AB7" stroke-width="0.55" opacity="0.16"/><polygon points="1297.1,213.1 1296.7,203.5 1305.2,208.0" fill="none" stroke="#534AB7" stroke-width="0.55" opacity="0.16"/><polygon points="1303.9,205.5 1305.3,196.0 1312.8,201.9" fill="none" stroke="#534AB7" stroke-width="0.55" opacity="0.16"/><polygon points="1295.3,232.4 1276.9,222.7 1294.5,211.6" fill="none" stroke="#5DCAA5" stroke-width="0.77" opacity="0.23"/><polygon points="1289.6,232.2 1289.2,222.6 1297.7,227.1" fill="none" stroke="#534AB7" stroke-width="0.55" opacity="0.16"/><polygon points="1279.5,226.9 1280.8,217.4 1288.4,223.3" fill="none" stroke="#534AB7" stroke-width="0.55" opacity="0.16"/><polygon points="1287.6,220.6 1290.6,211.5 1296.9,218.6" fill="none" stroke="#534AB7" stroke-width="0.55" opacity="0.16"/><polygon points="1288.4,211.3 1272.0,198.5 1291.3,190.6" fill="none" stroke="#5DCAA5" stroke-width="0.77" opacity="0.23"/><polygon points="1282.8,210.1 1284.1,200.6 1291.7,206.5" fill="none" stroke="#534AB7" stroke-width="0.55" opacity="0.16"/><polygon points="1273.8,203.0 1276.8,193.9 1283.2,201.0" fill="none" stroke="#534AB7" stroke-width="0.55" opacity="0.16"/><polygon points="1282.9,198.3 1287.5,189.8 1292.5,198.0" fill="none" stroke="#534AB7" stroke-width="0.55" opacity="0.16"/></g>
  <path d="M70 265.6145 C406.496 94.89, 558.776 284.456, 757.432 210.944 S1233.288 102.5, 1510 236.5976" fill="none" stroke="#5DCAA5" stroke-width="7" stroke-linecap="round" opacity=".34"/>
  <path d="M70 265.6145 C406.496 94.89, 558.776 284.456, 757.432 210.944 S1233.288 102.5, 1510 236.5976" fill="none" stroke="#FAC775" stroke-width="1.1" stroke-dasharray="11 16" stroke-linecap="round" opacity=".78"/>
  <g stroke="#D85A30" stroke-width="2.2" fill="none" opacity=".74" transform="rotate(1.70 1108.4 209.7)"><polygon points="1092.1,315.7 1041.3,293.3 1008.5,248.6 1002.4,193.4 1024.8,142.6 1069.5,109.8 1124.7,103.7 1175.5,126.0 1208.3,170.8 1214.4,226.0 1192.1,276.8 1147.3,309.6"/><polygon points="1086.0,260.7 1063.5,242.7 1053.0,215.8 1057.4,187.2 1075.4,164.7 1102.3,154.3 1130.8,158.6 1153.4,176.7 1163.8,203.6 1159.5,232.1 1141.4,254.6 1114.5,265.1"/><line x1="1092.1" y1="315.7" x2="1086.0" y2="260.7"/><line x1="1086.0" y1="260.7" x2="1041.3" y2="293.3"/><line x1="1041.3" y1="293.3" x2="1063.5" y2="242.7"/><line x1="1063.5" y1="242.7" x2="1008.5" y2="248.6"/><line x1="1008.5" y1="248.6" x2="1053.0" y2="215.8"/><line x1="1053.0" y1="215.8" x2="1002.4" y2="193.4"/><line x1="1002.4" y1="193.4" x2="1057.4" y2="187.2"/><line x1="1057.4" y1="187.2" x2="1024.8" y2="142.6"/><line x1="1024.8" y1="142.6" x2="1075.4" y2="164.7"/><line x1="1075.4" y1="164.7" x2="1069.5" y2="109.8"/><line x1="1069.5" y1="109.8" x2="1102.3" y2="154.3"/><line x1="1102.3" y1="154.3" x2="1124.7" y2="103.7"/><line x1="1124.7" y1="103.7" x2="1130.8" y2="158.6"/><line x1="1130.8" y1="158.6" x2="1175.5" y2="126.0"/><line x1="1175.5" y1="126.0" x2="1153.4" y2="176.7"/><line x1="1153.4" y1="176.7" x2="1208.3" y2="170.8"/><line x1="1208.3" y1="170.8" x2="1163.8" y2="203.6"/><line x1="1163.8" y1="203.6" x2="1214.4" y2="226.0"/><line x1="1214.4" y1="226.0" x2="1159.5" y2="232.1"/><line x1="1159.5" y1="232.1" x2="1192.1" y2="276.8"/><line x1="1192.1" y1="276.8" x2="1141.4" y2="254.6"/><line x1="1141.4" y1="254.6" x2="1147.3" y2="309.6"/><line x1="1147.3" y1="309.6" x2="1114.5" y2="265.1"/><line x1="1114.5" y1="265.1" x2="1092.1" y2="315.7"/></g>
  <g><polygon points="124.4,288.4 98.8,309.9 78.9,288.9 102.0,264.5 116.7,270.2" fill="#5DCAA5" opacity="0.27"/><polygon points="286.6,280.1 281.1,284.1 266.2,281.9 262.5,263.7 269.1,257.3 287.4,261.9" fill="#FAC775" opacity="0.24"/><polygon points="476.6,195.6 448.9,221.3 434.1,217.1 423.2,204.1 426.6,176.9 464.3,170.5 469.8,175.3" fill="#D85A30" opacity="0.24"/><polygon points="607.8,137.1 590.9,142.0 580.0,127.7 590.6,112.2 603.3,113.3" fill="#534AB7" opacity="0.32"/><polygon points="734.6,132.8 715.3,152.5 697.9,144.2 695.3,125.1 717.1,112.2 727.8,117.1" fill="#5DCAA5" opacity="0.24"/><polygon points="843.7,224.2 833.6,228.6 807.1,216.0 805.4,196.7 810.8,187.5 844.6,185.1 849.4,190.4" fill="#FAC775" opacity="0.33"/><polygon points="990.2,287.5 966.5,302.0 942.6,278.7 955.2,255.2 989.4,264.8" fill="#D85A30" opacity="0.16"/><polygon points="1164.9,284.2 1128.7,311.5 1109.8,295.8 1116.6,262.0 1143.3,255.5 1160.4,267.9" fill="#534AB7" opacity="0.30"/><polygon points="1335.1,223.6 1325.5,237.1 1305.8,239.9 1290.2,212.1 1308.5,195.0 1320.2,195.9 1335.9,218.0" fill="#5DCAA5" opacity="0.30"/><polygon points="1488.4,148.7 1467.9,161.9 1447.9,134.3 1461.1,120.1 1482.2,123.7" fill="#FAC775" opacity="0.26"/></g>
  <g><rect x="80.0" y="144.6" width="28.1" height="13.0" fill="#534AB7" opacity="0.12"/><rect x="203.6" y="251.4" width="54.1" height="7.0" fill="#5DCAA5" opacity="0.24"/><rect x="307.9" y="238.3" width="75.0" height="14.6" fill="#FAC775" opacity="0.11"/><rect x="400.6" y="96.5" width="112.5" height="12.7" fill="#D85A30" opacity="0.23"/><rect x="498.1" y="266.6" width="95.0" height="11.9" fill="#534AB7" opacity="0.17"/><rect x="619.4" y="119.2" width="106.2" height="6.5" fill="#5DCAA5" opacity="0.30"/><rect x="735.2" y="73.2" width="23.7" height="8.8" fill="#FAC775" opacity="0.11"/><rect x="845.9" y="99.5" width="113.8" height="13.6" fill="#D85A30" opacity="0.30"/><rect x="917.1" y="76.5" width="121.0" height="4.9" fill="#534AB7" opacity="0.16"/><rect x="1030.3" y="130.4" width="125.7" height="12.7" fill="#5DCAA5" opacity="0.15"/><rect x="1148.7" y="188.2" width="25.3" height="11.0" fill="#FAC775" opacity="0.18"/><rect x="1226.9" y="203.4" width="104.2" height="4.9" fill="#D85A30" opacity="0.21"/><rect x="1352.8" y="109.0" width="54.0" height="14.4" fill="#534AB7" opacity="0.17"/><rect x="1455.7" y="249.9" width="61.4" height="9.0" fill="#5DCAA5" opacity="0.19"/></g>
  <rect width="1600" height="360" filter="url(#grain-1554375598)" opacity=".85"/>
</svg>
