<svg xmlns="http://www.w3.org/2000/svg" viewBox="0 0 1600 360" role="img" aria-labelledby="title-3550274326 desc-3550274326">
  <title id="title-3550274326">Generative page artwork</title>
  <desc id="desc-3550274326">Platonic-solid, fractal, opt-art, glitch, and organic dialogue geometry for Razonamiento de Evaluación Web Atelier.</desc>
  <defs>
    <filter id="grain-3550274326" x="-10%" y="-10%" width="120%" height="120%">
      <feTurbulence type="fractalNoise" baseFrequency="0.55" numOctaves="2" seed="197" result="noise"/>
      <feColorMatrix in="noise" type="saturate" values="0"/>
      <feComponentTransfer><feFuncA type="table" tableValues="0 .16"/></feComponentTransfer>
    </filter>
  </defs>
  <rect width="1600" height="360" fill="#050816"/>
  <rect width="1600" height="360" fill="#EF9F27" opacity=".10"/>
  <g fill="none" stroke="#7F77DD" stroke-width="1.2" opacity=".58"><polygon points="306.8,175.3 126.6,276.2 129.3,69.7" fill="none" stroke="#D4537E" stroke-width="1.21" opacity="0.37"/><polygon points="274.0,222.4 192.3,173.8 275.2,127.4" fill="none" stroke="#EF9F27" stroke-width="0.99" opacity="0.30"/><polygon points="247.7,220.1 248.2,176.5 285.8,198.8" fill="none" stroke="#1D9E75" stroke-width="0.77" opacity="0.23"/><polygon points="242.5,209.2 260.0,199.3 259.8,219.4" fill="none" stroke="#7F77DD" stroke-width="0.55" opacity="0.16"/><polygon points="243.0,185.2 262.0,178.7 258.2,198.4" fill="none" stroke="#7F77DD" stroke-width="0.55" opacity="0.16"/><polygon points="262.4,194.4 282.2,191.4 274.9,210.1" fill="none" stroke="#7F77DD" stroke-width="0.55" opacity="0.16"/><polygon points="203.2,193.2 211.6,150.3 244.5,179.0" fill="none" stroke="#1D9E75" stroke-width="0.77" opacity="0.23"/><polygon points="200.1,181.5 219.1,174.9 215.2,194.7" fill="none" stroke="#7F77DD" stroke-width="0.55" opacity="0.16"/><polygon points="204.9,158.0 224.7,155.0 217.4,173.7" fill="none" stroke="#7F77DD" stroke-width="0.55" opacity="0.16"/><polygon points="222.3,170.5 242.3,171.1 231.8,188.2" fill="none" stroke="#7F77DD" stroke-width="0.55" opacity="0.16"/><polygon points="241.5,166.7 257.4,126.0 284.7,160.2" fill="none" stroke="#1D9E75" stroke-width="0.77" opacity="0.23"/><polygon points="240.5,154.6 260.4,151.6 253.1,170.3" fill="none" stroke="#7F77DD" stroke-width="0.55" opacity="0.16"/><polygon points="249.4,132.4 269.5,133.0 259.0,150.1" fill="none" stroke="#7F77DD" stroke-width="0.55" opacity="0.16"/><polygon points="264.3,147.8 284.0,152.0 270.5,166.9" fill="none" stroke="#7F77DD" stroke-width="0.55" opacity="0.16"/><polygon points="174.9,276.9 103.3,214.5 193.1,183.6" fill="none" stroke="#EF9F27" stroke-width="0.99" opacity="0.30"/><polygon points="149.4,269.9 157.8,227.1 190.7,255.8" fill="none" stroke="#1D9E75" stroke-width="0.77" opacity="0.23"/><polygon points="146.3,258.2 165.3,251.7 161.5,271.4" fill="none" stroke="#7F77DD" stroke-width="0.55" opacity="0.16"/><polygon points="151.1,234.8 171.0,231.7 163.6,250.5" fill="none" stroke="#7F77DD" stroke-width="0.55" opacity="0.16"/><polygon points="168.5,247.2 188.6,247.8 178.0,264.9" fill="none" stroke="#7F77DD" stroke-width="0.55" opacity="0.16"/><polygon points="110.5,235.5 126.4,194.8 153.7,228.9" fill="none" stroke="#1D9E75" stroke-width="0.77" opacity="0.23"/><polygon points="109.5,223.4 129.4,220.3 122.1,239.1" fill="none" stroke="#7F77DD" stroke-width="0.55" opacity="0.16"/><polygon points="118.4,201.2 138.5,201.7 127.9,218.8" fill="none" stroke="#7F77DD" stroke-width="0.55" opacity="0.16"/><polygon points="133.3,216.6 153.0,220.7 139.5,235.7" fill="none" stroke="#7F77DD" stroke-width="0.55" opacity="0.16"/><polygon points="152.9,216.3 175.8,179.1 196.6,217.6" fill="none" stroke="#1D9E75" stroke-width="0.77" opacity="0.23"/><polygon points="154.1,204.2 174.2,204.8 163.7,221.9" fill="none" stroke="#7F77DD" stroke-width="0.55" opacity="0.16"/><polygon points="166.9,183.9 186.5,188.1 173.1,203.1" fill="none" stroke="#7F77DD" stroke-width="0.55" opacity="0.16"/><polygon points="178.7,201.8 197.3,209.4 181.4,221.7" fill="none" stroke="#7F77DD" stroke-width="0.55" opacity="0.16"/><polygon points="166.7,176.0 107.4,101.8 201.3,87.5" fill="none" stroke="#EF9F27" stroke-width="0.99" opacity="0.30"/><polygon points="142.8,164.6 158.8,123.9 186.0,158.1" fill="none" stroke="#1D9E75" stroke-width="0.77" opacity="0.23"/><polygon points="141.9,152.5 161.8,149.5 154.4,168.2" fill="none" stroke="#7F77DD" stroke-width="0.55" opacity="0.16"/><polygon points="150.8,130.3 170.9,130.9 160.3,148.0" fill="none" stroke="#7F77DD" stroke-width="0.55" opacity="0.16"/><polygon points="165.7,145.7 185.3,149.9 171.9,164.8" fill="none" stroke="#7F77DD" stroke-width="0.55" opacity="0.16"/><polygon points="110.7,123.7 133.7,86.5 154.4,125.0" fill="none" stroke="#1D9E75" stroke-width="0.77" opacity="0.23"/><polygon points="111.9,111.6 132.0,112.2 121.5,129.3" fill="none" stroke="#7F77DD" stroke-width="0.55" opacity="0.16"/><polygon points="124.7,91.4 144.3,95.6 130.9,110.5" fill="none" stroke="#7F77DD" stroke-width="0.55" opacity="0.16"/><polygon points="136.6,109.2 155.1,116.8 139.2,129.1" fill="none" stroke="#7F77DD" stroke-width="0.55" opacity="0.16"/><polygon points="155.9,112.4 185.1,80.0 198.6,121.5" fill="none" stroke="#1D9E75" stroke-width="0.77" opacity="0.23"/><polygon points="159.3,100.8 178.9,104.9 165.5,119.9" fill="none" stroke="#7F77DD" stroke-width="0.55" opacity="0.16"/><polygon points="175.4,83.1 194.0,90.7 178.1,103.0" fill="none" stroke="#7F77DD" stroke-width="0.55" opacity="0.16"/><polygon points="183.9,102.8 200.8,113.6 183.0,122.8" fill="none" stroke="#7F77DD" stroke-width="0.55" opacity="0.16"/><polygon points="384.8,223.5 471.5,35.2 591.2,204.4" fill="none" stroke="#D4537E" stroke-width="1.21" opacity="0.37"/><polygon points="383.6,165.9 478.6,157.1 438.7,243.7" fill="none" stroke="#EF9F27" stroke-width="0.99" opacity="0.30"/><polygon points="406.3,152.2 431.6,188.0 387.9,192.0" fill="none" stroke="#1D9E75" stroke-width="0.77" opacity="0.23"/><polygon points="417.0,158.1 408.5,176.4 396.9,159.9" fill="none" stroke="#7F77DD" stroke-width="0.55" opacity="0.16"/><polygon points="430.7,177.8 419.1,194.3 410.6,176.0" fill="none" stroke="#7F77DD" stroke-width="0.55" opacity="0.16"/><polygon points="409.6,181.8 395.2,195.9 390.1,176.4" fill="none" stroke="#7F77DD" stroke-width="0.55" opacity="0.16"/><polygon points="458.3,147.8 476.8,187.6 433.1,183.7" fill="none" stroke="#1D9E75" stroke-width="0.77" opacity="0.23"/><polygon points="467.8,155.5 456.2,172.0 447.7,153.7" fill="none" stroke="#7F77DD" stroke-width="0.55" opacity="0.16"/><polygon points="477.7,177.3 463.4,191.5 458.3,172.0" fill="none" stroke="#7F77DD" stroke-width="0.55" opacity="0.16"/><polygon points="456.2,177.5 439.6,188.9 438.0,168.7" fill="none" stroke="#7F77DD" stroke-width="0.55" opacity="0.16"/><polygon points="442.9,191.9 454.0,234.3 411.7,222.7" fill="none" stroke="#1D9E75" stroke-width="0.77" opacity="0.23"/><polygon points="450.8,201.2 436.4,215.3 431.3,195.8" fill="none" stroke="#7F77DD" stroke-width="0.55" opacity="0.16"/><polygon points="456.7,224.4 440.0,235.8 438.5,215.7" fill="none" stroke="#7F77DD" stroke-width="0.55" opacity="0.16"/><polygon points="435.5,220.7 417.1,229.0 419.2,208.9" fill="none" stroke="#7F77DD" stroke-width="0.55" opacity="0.16"/><polygon points="431.9,63.2 526.9,71.5 472.1,149.6" fill="none" stroke="#EF9F27" stroke-width="0.99" opacity="0.30"/><polygon points="456.6,53.7 475.2,93.5 431.5,89.7" fill="none" stroke="#1D9E75" stroke-width="0.77" opacity="0.23"/><polygon points="466.1,61.4 454.5,78.0 446.0,59.7" fill="none" stroke="#7F77DD" stroke-width="0.55" opacity="0.16"/><polygon points="476.1,83.3 461.7,97.5 456.6,77.9" fill="none" stroke="#7F77DD" stroke-width="0.55" opacity="0.16"/><polygon points="454.6,83.4 437.9,94.8 436.4,74.7" fill="none" stroke="#7F77DD" stroke-width="0.55" opacity="0.16"/><polygon points="508.6,58.7 519.7,101.2 477.4,89.6" fill="none" stroke="#1D9E75" stroke-width="0.77" opacity="0.23"/><polygon points="516.5,68.0 502.2,82.2 497.1,62.7" fill="none" stroke="#7F77DD" stroke-width="0.55" opacity="0.16"/><polygon points="522.4,91.3 505.8,102.7 504.2,82.5" fill="none" stroke="#7F77DD" stroke-width="0.55" opacity="0.16"/><polygon points="501.3,87.6 482.8,95.8 484.9,75.7" fill="none" stroke="#7F77DD" stroke-width="0.55" opacity="0.16"/><polygon points="485.5,99.4 488.8,143.1 449.3,124.1" fill="none" stroke="#1D9E75" stroke-width="0.77" opacity="0.23"/><polygon points="491.6,109.9 475.0,121.3 473.5,101.2" fill="none" stroke="#7F77DD" stroke-width="0.55" opacity="0.16"/><polygon points="493.3,133.9 474.9,142.1 477.0,122.0" fill="none" stroke="#7F77DD" stroke-width="0.55" opacity="0.16"/><polygon points="473.1,126.4 453.5,131.2 459.2,111.8" fill="none" stroke="#7F77DD" stroke-width="0.55" opacity="0.16"/><polygon points="498.1,140.2 590.1,165.4 522.3,232.5" fill="none" stroke="#EF9F27" stroke-width="0.99" opacity="0.30"/><polygon points="524.2,135.4 535.3,177.8 493.0,166.2" fill="none" stroke="#1D9E75" stroke-width="0.77" opacity="0.23"/><polygon points="532.1,144.6 517.7,158.8 512.6,139.3" fill="none" stroke="#7F77DD" stroke-width="0.55" opacity="0.16"/><polygon points="538.0,167.9 521.3,179.3 519.8,159.2" fill="none" stroke="#7F77DD" stroke-width="0.55" opacity="0.16"/><polygon points="516.8,164.2 498.4,172.4 500.5,152.4" fill="none" stroke="#7F77DD" stroke-width="0.55" opacity="0.16"/><polygon points="574.4,149.6 577.7,193.3 538.2,174.3" fill="none" stroke="#1D9E75" stroke-width="0.77" opacity="0.23"/><polygon points="580.6,160.1 563.9,171.5 562.4,151.4" fill="none" stroke="#7F77DD" stroke-width="0.55" opacity="0.16"/><polygon points="582.2,184.1 563.8,192.3 565.9,172.2" fill="none" stroke="#7F77DD" stroke-width="0.55" opacity="0.16"/><polygon points="562.0,176.6 542.4,181.4 548.1,162.1" fill="none" stroke="#7F77DD" stroke-width="0.55" opacity="0.16"/><polygon points="544.4,185.4 539.9,229.0 504.4,203.3" fill="none" stroke="#1D9E75" stroke-width="0.77" opacity="0.23"/><polygon points="548.6,196.9 530.1,205.1 532.2,185.0" fill="none" stroke="#7F77DD" stroke-width="0.55" opacity="0.16"/><polygon points="545.9,220.7 526.3,225.5 531.9,206.2" fill="none" stroke="#7F77DD" stroke-width="0.55" opacity="0.16"/><polygon points="527.4,209.8 507.2,211.0 516.3,193.0" fill="none" stroke="#7F77DD" stroke-width="0.55" opacity="0.16"/><polygon points="738.8,57.0 835.5,185.6 675.8,205.1" fill="none" stroke="#D4537E" stroke-width="1.21" opacity="0.37"/><polygon points="778.5,77.5 749.5,145.6 705.1,86.4" fill="none" stroke="#EF9F27" stroke-width="0.99" opacity="0.30"/><polygon points="779.5,98.0 745.7,102.1 759.1,70.8" fill="none" stroke="#1D9E75" stroke-width="0.77" opacity="0.23"/><polygon points="771.6,103.1 762.2,90.6 777.7,88.7" fill="none" stroke="#7F77DD" stroke-width="0.55" opacity="0.16"/><polygon points="753.1,105.2 746.0,91.2 761.7,92.2" fill="none" stroke="#7F77DD" stroke-width="0.55" opacity="0.16"/><polygon points="758.1,89.3 753.7,74.3 768.9,78.0" fill="none" stroke="#7F77DD" stroke-width="0.55" opacity="0.16"/><polygon points="763.4,135.2 729.4,133.2 748.1,104.7" fill="none" stroke="#1D9E75" stroke-width="0.77" opacity="0.23"/><polygon points="754.6,138.8 747.6,124.8 763.2,125.7" fill="none" stroke="#7F77DD" stroke-width="0.55" opacity="0.16"/><polygon points="736.0,137.5 731.6,122.5 746.9,126.2" fill="none" stroke="#7F77DD" stroke-width="0.55" opacity="0.16"/><polygon points="743.9,122.8 742.2,107.2 756.5,113.6" fill="none" stroke="#7F77DD" stroke-width="0.55" opacity="0.16"/><polygon points="738.9,108.4 705.9,100.3 729.4,75.7" fill="none" stroke="#1D9E75" stroke-width="0.77" opacity="0.23"/><polygon points="729.7,110.4 725.3,95.3 740.5,99.0" fill="none" stroke="#7F77DD" stroke-width="0.55" opacity="0.16"/><polygon points="711.6,105.8 710.0,90.2 724.3,96.6" fill="none" stroke="#7F77DD" stroke-width="0.55" opacity="0.16"/><polygon points="721.9,92.7 723.1,77.1 736.1,85.9" fill="none" stroke="#7F77DD" stroke-width="0.55" opacity="0.16"/><polygon points="830.9,148.3 790.2,210.1 757.0,143.9" fill="none" stroke="#EF9F27" stroke-width="0.99" opacity="0.30"/><polygon points="828.2,168.7 794.3,166.7 813.0,138.2" fill="none" stroke="#1D9E75" stroke-width="0.77" opacity="0.23"/><polygon points="819.5,172.3 812.5,158.3 828.1,159.2" fill="none" stroke="#7F77DD" stroke-width="0.55" opacity="0.16"/><polygon points="800.9,171.0 796.5,156.0 811.7,159.7" fill="none" stroke="#7F77DD" stroke-width="0.55" opacity="0.16"/><polygon points="808.7,156.3 807.1,140.7 821.4,147.1" fill="none" stroke="#7F77DD" stroke-width="0.55" opacity="0.16"/><polygon points="805.7,202.3 772.6,194.3 796.1,169.7" fill="none" stroke="#1D9E75" stroke-width="0.77" opacity="0.23"/><polygon points="796.4,204.3 792.0,189.3 807.3,193.0" fill="none" stroke="#7F77DD" stroke-width="0.55" opacity="0.16"/><polygon points="778.4,199.8 776.7,184.2 791.0,190.6" fill="none" stroke="#7F77DD" stroke-width="0.55" opacity="0.16"/><polygon points="788.7,186.7 789.9,171.1 802.8,179.9" fill="none" stroke="#7F77DD" stroke-width="0.55" opacity="0.16"/><polygon points="786.4,171.6 755.3,157.7 782.9,137.7" fill="none" stroke="#1D9E75" stroke-width="0.77" opacity="0.23"/><polygon points="777.0,171.9 775.3,156.3 789.7,162.7" fill="none" stroke="#7F77DD" stroke-width="0.55" opacity="0.16"/><polygon points="760.0,164.2 761.2,148.6 774.1,157.4" fill="none" stroke="#7F77DD" stroke-width="0.55" opacity="0.16"/><polygon points="772.5,153.1 776.5,138.0 787.6,149.0" fill="none" stroke="#7F77DD" stroke-width="0.55" opacity="0.16"/><polygon points="753.9,165.2 702.8,218.7 682.0,147.7" fill="none" stroke="#EF9F27" stroke-width="0.99" opacity="0.30"/><polygon points="747.6,184.7 714.5,176.7 738.0,152.1" fill="none" stroke="#1D9E75" stroke-width="0.77" opacity="0.23"/><polygon points="738.3,186.7 733.9,171.7 749.2,175.4" fill="none" stroke="#7F77DD" stroke-width="0.55" opacity="0.16"/><polygon points="720.3,182.2 718.6,166.6 732.9,173.0" fill="none" stroke="#7F77DD" stroke-width="0.55" opacity="0.16"/><polygon points="730.6,169.1 731.8,153.5 744.7,162.3" fill="none" stroke="#7F77DD" stroke-width="0.55" opacity="0.16"/><polygon points="719.4,213.8 688.3,200.0 715.8,180.0" fill="none" stroke="#1D9E75" stroke-width="0.77" opacity="0.23"/><polygon points="709.9,214.1 708.3,198.6 722.6,204.9" fill="none" stroke="#7F77DD" stroke-width="0.55" opacity="0.16"/><polygon points="693.0,206.4 694.1,190.8 707.1,199.6" fill="none" stroke="#7F77DD" stroke-width="0.55" opacity="0.16"/><polygon points="705.5,195.4 709.4,180.2 720.6,191.2" fill="none" stroke="#7F77DD" stroke-width="0.55" opacity="0.16"/><polygon points="705.9,180.1 677.8,160.9 708.5,146.2" fill="none" stroke="#1D9E75" stroke-width="0.77" opacity="0.23"/><polygon points="696.6,178.7 697.8,163.1 710.7,171.9" fill="none" stroke="#7F77DD" stroke-width="0.55" opacity="0.16"/><polygon points="681.3,168.1 685.2,153.0 696.4,164.0" fill="none" stroke="#7F77DD" stroke-width="0.55" opacity="0.16"/><polygon points="695.6,159.5 702.2,145.3 711.2,158.1" fill="none" stroke="#7F77DD" stroke-width="0.55" opacity="0.16"/><polygon points="1054.3,242.4 992.7,120.8 1128.8,128.3" fill="none" stroke="#D4537E" stroke-width="1.21" opacity="0.37"/><polygon points="1024.2,219.5 1058.4,167.0 1086.7,222.9" fill="none" stroke="#EF9F27" stroke-width="0.99" opacity="0.30"/><polygon points="1026.4,202.2 1055.2,203.8 1039.4,227.9" fill="none" stroke="#1D9E75" stroke-width="0.77" opacity="0.23"/><polygon points="1033.8,199.1 1039.7,210.9 1026.5,210.2" fill="none" stroke="#7F77DD" stroke-width="0.55" opacity="0.16"/><polygon points="1049.5,200.1 1053.3,212.8 1040.4,209.7" fill="none" stroke="#7F77DD" stroke-width="0.55" opacity="0.16"/><polygon points="1042.9,212.6 1044.4,225.8 1032.2,220.4" fill="none" stroke="#7F77DD" stroke-width="0.55" opacity="0.16"/><polygon points="1045.3,173.6 1073.4,180.3 1053.6,201.2" fill="none" stroke="#1D9E75" stroke-width="0.77" opacity="0.23"/><polygon points="1053.2,171.9 1056.9,184.6 1044.0,181.5" fill="none" stroke="#7F77DD" stroke-width="0.55" opacity="0.16"/><polygon points="1068.5,175.7 1069.9,188.9 1057.8,183.5" fill="none" stroke="#7F77DD" stroke-width="0.55" opacity="0.16"/><polygon points="1059.8,186.8 1058.8,200.0 1047.9,192.6" fill="none" stroke="#7F77DD" stroke-width="0.55" opacity="0.16"/><polygon points="1061.8,199.6 1088.1,211.2 1064.9,228.2" fill="none" stroke="#1D9E75" stroke-width="0.77" opacity="0.23"/><polygon points="1069.8,199.3 1071.2,212.5 1059.1,207.1" fill="none" stroke="#7F77DD" stroke-width="0.55" opacity="0.16"/><polygon points="1084.2,205.8 1083.2,219.0 1072.2,211.6" fill="none" stroke="#7F77DD" stroke-width="0.55" opacity="0.16"/><polygon points="1073.6,215.2 1070.3,228.0 1060.8,218.7" fill="none" stroke="#7F77DD" stroke-width="0.55" opacity="0.16"/><polygon points="991.0,152.7 1034.1,107.1 1051.9,167.2" fill="none" stroke="#EF9F27" stroke-width="0.99" opacity="0.30"/><polygon points="996.2,136.0 1024.3,142.8 1004.4,163.7" fill="none" stroke="#1D9E75" stroke-width="0.77" opacity="0.23"/><polygon points="1004.0,134.3 1007.8,147.0 994.9,144.0" fill="none" stroke="#7F77DD" stroke-width="0.55" opacity="0.16"/><polygon points="1019.4,138.1 1020.8,151.3 1008.7,146.0" fill="none" stroke="#7F77DD" stroke-width="0.55" opacity="0.16"/><polygon points="1010.7,149.2 1009.7,162.5 998.7,155.0" fill="none" stroke="#7F77DD" stroke-width="0.55" opacity="0.16"/><polygon points="1020.0,111.3 1046.4,122.9 1023.2,140.0" fill="none" stroke="#1D9E75" stroke-width="0.77" opacity="0.23"/><polygon points="1028.0,111.0 1029.5,124.2 1017.3,118.9" fill="none" stroke="#7F77DD" stroke-width="0.55" opacity="0.16"/><polygon points="1042.4,117.5 1041.5,130.7 1030.5,123.3" fill="none" stroke="#7F77DD" stroke-width="0.55" opacity="0.16"/><polygon points="1031.9,126.9 1028.6,139.7 1019.1,130.5" fill="none" stroke="#7F77DD" stroke-width="0.55" opacity="0.16"/><polygon points="1031.5,139.8 1055.4,156.0 1029.5,168.6" fill="none" stroke="#1D9E75" stroke-width="0.77" opacity="0.23"/><polygon points="1039.4,141.0 1038.5,154.2 1027.5,146.8" fill="none" stroke="#7F77DD" stroke-width="0.55" opacity="0.16"/><polygon points="1052.4,149.9 1049.2,162.7 1039.7,153.5" fill="none" stroke="#7F77DD" stroke-width="0.55" opacity="0.16"/><polygon points="1040.4,157.3 1034.8,169.3 1027.2,158.5" fill="none" stroke="#7F77DD" stroke-width="0.55" opacity="0.16"/><polygon points="1057.7,150.0 1108.3,112.9 1115.1,175.3" fill="none" stroke="#EF9F27" stroke-width="0.99" opacity="0.30"/><polygon points="1065.9,134.6 1092.2,146.2 1069.0,163.3" fill="none" stroke="#1D9E75" stroke-width="0.77" opacity="0.23"/><polygon points="1073.9,134.3 1075.3,147.5 1063.2,142.1" fill="none" stroke="#7F77DD" stroke-width="0.55" opacity="0.16"/><polygon points="1088.3,140.8 1087.3,154.0 1076.3,146.6" fill="none" stroke="#7F77DD" stroke-width="0.55" opacity="0.16"/><polygon points="1077.7,150.2 1074.4,163.0 1064.9,153.7" fill="none" stroke="#7F77DD" stroke-width="0.55" opacity="0.16"/><polygon points="1093.7,114.5 1117.6,130.7 1091.6,143.3" fill="none" stroke="#1D9E75" stroke-width="0.77" opacity="0.23"/><polygon points="1101.6,115.7 1100.7,128.9 1089.7,121.5" fill="none" stroke="#7F77DD" stroke-width="0.55" opacity="0.16"/><polygon points="1114.6,124.6 1111.3,137.5 1101.9,128.2" fill="none" stroke="#7F77DD" stroke-width="0.55" opacity="0.16"/><polygon points="1102.6,132.0 1097.0,144.0 1089.4,133.2" fill="none" stroke="#7F77DD" stroke-width="0.55" opacity="0.16"/><polygon points="1099.9,144.6 1120.5,164.8 1092.7,172.6" fill="none" stroke="#1D9E75" stroke-width="0.77" opacity="0.23"/><polygon points="1107.5,147.2 1104.2,160.0 1094.7,150.7" fill="none" stroke="#7F77DD" stroke-width="0.55" opacity="0.16"/><polygon points="1118.7,158.3 1113.1,170.3 1105.5,159.5" fill="none" stroke="#7F77DD" stroke-width="0.55" opacity="0.16"/><polygon points="1105.5,163.4 1097.9,174.2 1092.3,162.2" fill="none" stroke="#7F77DD" stroke-width="0.55" opacity="0.16"/><polygon points="1191.1,132.3 1390.4,141.6 1282.6,309.5" fill="none" stroke="#D4537E" stroke-width="1.21" opacity="0.37"/><polygon points="1242.1,110.4 1284.2,192.0 1192.5,187.7" fill="none" stroke="#EF9F27" stroke-width="0.99" opacity="0.30"/><polygon points="1262.5,125.7 1239.7,161.3 1220.3,123.7" fill="none" stroke="#1D9E75" stroke-width="0.77" opacity="0.23"/><polygon points="1261.1,137.4 1241.7,136.5 1252.2,120.1" fill="none" stroke="#7F77DD" stroke-width="0.55" opacity="0.16"/><polygon points="1248.4,156.7 1229.5,152.4 1242.8,138.2" fill="none" stroke="#7F77DD" stroke-width="0.55" opacity="0.16"/><polygon points="1237.3,139.3 1219.4,131.6 1235.0,120.0" fill="none" stroke="#7F77DD" stroke-width="0.55" opacity="0.16"/><polygon points="1285.2,170.6 1256.4,201.4 1244.0,161.1" fill="none" stroke="#1D9E75" stroke-width="0.77" opacity="0.23"/><polygon points="1281.7,181.8 1262.8,177.4 1276.0,163.2" fill="none" stroke="#7F77DD" stroke-width="0.55" opacity="0.16"/><polygon points="1265.8,198.5 1248.0,190.9 1263.6,179.3" fill="none" stroke="#7F77DD" stroke-width="0.55" opacity="0.16"/><polygon points="1257.9,179.4 1241.8,168.7 1259.2,160.0" fill="none" stroke="#7F77DD" stroke-width="0.55" opacity="0.16"/><polygon points="1240.2,172.7 1206.4,197.9 1201.5,156.0" fill="none" stroke="#1D9E75" stroke-width="0.77" opacity="0.23"/><polygon points="1234.8,183.1 1217.0,175.4 1232.6,163.8" fill="none" stroke="#7F77DD" stroke-width="0.55" opacity="0.16"/><polygon points="1216.2,196.8 1200.0,186.0 1217.4,177.4" fill="none" stroke="#7F77DD" stroke-width="0.55" opacity="0.16"/><polygon points="1211.8,176.5 1197.9,163.1 1216.5,157.7" fill="none" stroke="#7F77DD" stroke-width="0.55" opacity="0.16"/><polygon points="1351.1,116.4 1378.0,204.2 1288.5,183.5" fill="none" stroke="#EF9F27" stroke-width="0.99" opacity="0.30"/><polygon points="1368.5,135.1 1339.7,166.0 1327.3,125.6" fill="none" stroke="#1D9E75" stroke-width="0.77" opacity="0.23"/><polygon points="1365.0,146.3 1346.1,142.0 1359.4,127.8" fill="none" stroke="#7F77DD" stroke-width="0.55" opacity="0.16"/><polygon points="1349.1,163.1 1331.3,155.4 1346.9,143.8" fill="none" stroke="#7F77DD" stroke-width="0.55" opacity="0.16"/><polygon points="1341.2,144.0 1325.1,133.2 1342.5,124.6" fill="none" stroke="#7F77DD" stroke-width="0.55" opacity="0.16"/><polygon points="1382.8,183.3 1348.9,208.5 1344.0,166.6" fill="none" stroke="#1D9E75" stroke-width="0.77" opacity="0.23"/><polygon points="1377.4,193.7 1359.6,186.0 1375.1,174.4" fill="none" stroke="#7F77DD" stroke-width="0.55" opacity="0.16"/><polygon points="1358.7,207.4 1342.6,196.6 1360.0,188.0" fill="none" stroke="#7F77DD" stroke-width="0.55" opacity="0.16"/><polygon points="1354.4,187.1 1340.4,173.6 1359.1,168.3" fill="none" stroke="#7F77DD" stroke-width="0.55" opacity="0.16"/><polygon points="1338.2,177.3 1300.4,196.1 1303.1,154.0" fill="none" stroke="#1D9E75" stroke-width="0.77" opacity="0.23"/><polygon points="1331.0,186.6 1314.9,175.9 1332.3,167.2" fill="none" stroke="#7F77DD" stroke-width="0.55" opacity="0.16"/><polygon points="1310.2,196.7 1296.2,183.2 1314.9,177.9" fill="none" stroke="#7F77DD" stroke-width="0.55" opacity="0.16"/><polygon points="1309.6,176.0 1298.2,160.3 1317.6,158.3" fill="none" stroke="#7F77DD" stroke-width="0.55" opacity="0.16"/><polygon points="1306.3,203.4 1317.0,294.5 1232.7,258.2" fill="none" stroke="#EF9F27" stroke-width="0.99" opacity="0.30"/><polygon points="1320.0,224.8 1286.2,250.1 1281.3,208.1" fill="none" stroke="#1D9E75" stroke-width="0.77" opacity="0.23"/><polygon points="1314.6,235.3 1296.8,227.6 1312.4,216.0" fill="none" stroke="#7F77DD" stroke-width="0.55" opacity="0.16"/><polygon points="1296.0,248.9 1279.8,238.2 1297.2,229.5" fill="none" stroke="#7F77DD" stroke-width="0.55" opacity="0.16"/><polygon points="1291.6,228.7 1277.7,215.2 1296.3,209.8" fill="none" stroke="#7F77DD" stroke-width="0.55" opacity="0.16"/><polygon points="1325.5,274.8 1287.7,293.6 1290.3,251.4" fill="none" stroke="#1D9E75" stroke-width="0.77" opacity="0.23"/><polygon points="1318.3,284.1 1302.1,273.3 1319.5,264.7" fill="none" stroke="#7F77DD" stroke-width="0.55" opacity="0.16"/><polygon points="1297.5,294.2 1283.5,280.7 1302.2,275.3" fill="none" stroke="#7F77DD" stroke-width="0.55" opacity="0.16"/><polygon points="1296.9,273.5 1285.5,257.7 1304.9,255.8" fill="none" stroke="#7F77DD" stroke-width="0.55" opacity="0.16"/><polygon points="1282.7,261.0 1242.1,272.6 1252.3,231.7" fill="none" stroke="#1D9E75" stroke-width="0.77" opacity="0.23"/><polygon points="1274.0,268.8 1260.0,255.3 1278.6,250.0" fill="none" stroke="#7F77DD" stroke-width="0.55" opacity="0.16"/><polygon points="1251.7,275.0 1240.3,259.3 1259.7,257.3" fill="none" stroke="#7F77DD" stroke-width="0.55" opacity="0.16"/><polygon points="1254.8,254.6 1246.4,237.0 1265.8,238.6" fill="none" stroke="#7F77DD" stroke-width="0.55" opacity="0.16"/></g>
  <path d="M70 292.8725 C349.48 83.79499999999999, 492.764 335.792, 768.768 225.344 S1197.176 130.7, 1510 242.6568" fill="none" stroke="#1D9E75" stroke-width="7" stroke-linecap="round" opacity=".34"/>
  <path d="M70 292.8725 C349.48 83.79499999999999, 492.764 335.792, 768.768 225.344 S1197.176 130.7, 1510 242.6568" fill="none" stroke="#EF9F27" stroke-width="1.1" stroke-dasharray="11 16" stroke-linecap="round" opacity=".78"/>
  <g stroke="#D4537E" stroke-width="2.2" fill="none" opacity=".74" transform="rotate(-7.35 1128.0 201.4)"><polygon points="1046.0,257.2 1038.7,158.2 1120.7,102.4 1210.1,145.6 1217.4,244.5 1135.3,300.3"/><polygon points="1076.6,205.2 1099.0,158.7 1150.5,154.9 1179.5,197.6 1157.1,244.0 1105.6,247.8"/><line x1="1046.0" y1="257.2" x2="1076.6" y2="205.2"/><line x1="1076.6" y1="205.2" x2="1038.7" y2="158.2"/><line x1="1038.7" y1="158.2" x2="1099.0" y2="158.7"/><line x1="1099.0" y1="158.7" x2="1120.7" y2="102.4"/><line x1="1120.7" y1="102.4" x2="1150.5" y2="154.9"/><line x1="1150.5" y1="154.9" x2="1210.1" y2="145.6"/><line x1="1210.1" y1="145.6" x2="1179.5" y2="197.6"/><line x1="1179.5" y1="197.6" x2="1217.4" y2="244.5"/><line x1="1217.4" y1="244.5" x2="1157.1" y2="244.0"/><line x1="1157.1" y1="244.0" x2="1135.3" y2="300.3"/><line x1="1135.3" y1="300.3" x2="1105.6" y2="247.8"/><line x1="1105.6" y1="247.8" x2="1046.0" y2="257.2"/></g>
  <g><polygon points="176.3,129.6 151.8,134.9 145.2,128.1 156.6,101.2 178.8,113.8" fill="#1D9E75" opacity="0.16"/><polygon points="301.5,177.9 269.9,184.5 260.4,178.8 252.7,143.9 289.5,127.1 307.4,142.3" fill="#EF9F27" opacity="0.19"/><polygon points="420.0,254.2 388.6,267.4 383.3,265.8 364.8,240.2 390.8,208.4 396.2,208.2 424.5,235.3" fill="#D4537E" opacity="0.24"/><polygon points="549.6,303.9 525.6,311.2 510.4,284.1 514.0,276.4 541.5,269.2" fill="#7F77DD" opacity="0.28"/><polygon points="723.8,275.8 690.1,288.5 680.0,281.6 682.4,242.9 691.4,237.8 721.6,247.5" fill="#1D9E75" opacity="0.31"/><polygon points="894.8,189.4 879.2,202.3 872.0,201.8 857.9,184.6 863.9,169.6 872.7,164.9 895.7,181.7" fill="#EF9F27" opacity="0.18"/><polygon points="1051.9,141.7 1027.9,148.5 1008.1,127.0 1025.1,98.9 1045.5,100.3" fill="#D4537E" opacity="0.29"/><polygon points="1176.1,147.1 1157.9,156.9 1143.7,148.0 1141.2,135.4 1155.6,120.0 1170.5,123.0" fill="#7F77DD" opacity="0.19"/><polygon points="1292.9,232.4 1285.5,238.5 1264.2,240.9 1245.2,220.0 1248.4,200.8 1285.0,190.4 1294.2,198.4" fill="#1D9E75" opacity="0.18"/><polygon points="1426.2,282.9 1403.2,307.2 1377.2,290.4 1402.2,256.9 1424.5,272.9" fill="#EF9F27" opacity="0.27"/></g>
  <g><rect x="85.8" y="172.9" width="22.0" height="7.9" fill="#7F77DD" opacity="0.26"/><rect x="218.2" y="304.8" width="54.6" height="11.8" fill="#1D9E75" opacity="0.23"/><rect x="291.3" y="28.9" width="31.2" height="11.0" fill="#EF9F27" opacity="0.15"/><rect x="418.3" y="102.1" width="60.5" height="6.7" fill="#D4537E" opacity="0.32"/><rect x="502.2" y="148.0" width="141.2" height="9.6" fill="#7F77DD" opacity="0.20"/><rect x="626.3" y="223.6" width="134.6" height="12.1" fill="#1D9E75" opacity="0.13"/><rect x="706.7" y="249.9" width="101.8" height="7.6" fill="#EF9F27" opacity="0.25"/><rect x="836.9" y="81.0" width="64.8" height="6.9" fill="#D4537E" opacity="0.19"/><rect x="927.6" y="306.9" width="124.1" height="4.3" fill="#7F77DD" opacity="0.11"/><rect x="1049.1" y="312.9" width="86.6" height="7.8" fill="#1D9E75" opacity="0.29"/><rect x="1149.7" y="138.2" width="95.8" height="8.9" fill="#EF9F27" opacity="0.18"/><rect x="1253.1" y="120.8" width="39.8" height="4.6" fill="#D4537E" opacity="0.25"/><rect x="1331.6" y="257.0" width="81.2" height="11.7" fill="#7F77DD" opacity="0.32"/><rect x="1441.3" y="198.7" width="73.5" height="9.4" fill="#1D9E75" opacity="0.28"/></g>
  <rect width="1600" height="360" filter="url(#grain-3550274326)" opacity=".85"/>
</svg>
