<svg xmlns="http://www.w3.org/2000/svg" viewBox="0 0 1600 360" role="img" aria-labelledby="title-358191022 desc-358191022">
  <title id="title-358191022">Generative page artwork</title>
  <desc id="desc-358191022">Platonic-solid, fractal, opt-art, glitch, and organic dialogue geometry for Unit 7: Performance Engineering — Core Web Vitals &amp; Optimization.</desc>
  <defs>
    <filter id="grain-358191022" x="-10%" y="-10%" width="120%" height="120%">
      <feTurbulence type="fractalNoise" baseFrequency="0.60" numOctaves="2" seed="826" result="noise"/>
      <feColorMatrix in="noise" type="saturate" values="0"/>
      <feComponentTransfer><feFuncA type="table" tableValues="0 .16"/></feComponentTransfer>
    </filter>
  </defs>
  <rect width="1600" height="360" fill="#050816"/>
  <rect width="1600" height="360" fill="#C9C932" opacity=".10"/>
  <g fill="none" stroke="#378ADD" stroke-width="1.2" opacity=".58"><polygon points="247.6,118.6 163.6,236.3 103.7,104.7" fill="none" stroke="#AFA9EC" stroke-width="1.21" opacity="0.37"/><polygon points="240.8,158.2 174.6,151.8 213.3,97.7" fill="none" stroke="#C9C932" stroke-width="0.99" opacity="0.30"/><polygon points="223.5,164.7 210.8,136.8 241.3,139.8" fill="none" stroke="#F0997B" stroke-width="0.77" opacity="0.23"/><polygon points="217.0,159.2 225.1,147.8 231.0,160.6" fill="none" stroke="#378ADD" stroke-width="0.55" opacity="0.16"/><polygon points="210.1,143.9 220.2,134.1 223.7,147.8" fill="none" stroke="#378ADD" stroke-width="0.55" opacity="0.16"/><polygon points="225.1,144.0 236.8,136.1 237.8,150.2" fill="none" stroke="#378ADD" stroke-width="0.55" opacity="0.16"/><polygon points="187.3,160.9 179.8,131.2 209.2,139.6" fill="none" stroke="#F0997B" stroke-width="0.77" opacity="0.23"/><polygon points="181.8,154.4 191.9,144.6 195.4,158.2" fill="none" stroke="#378ADD" stroke-width="0.55" opacity="0.16"/><polygon points="177.8,138.1 189.5,130.3 190.5,144.3" fill="none" stroke="#378ADD" stroke-width="0.55" opacity="0.16"/><polygon points="192.6,140.8 205.5,135.2 203.9,149.2" fill="none" stroke="#378ADD" stroke-width="0.55" opacity="0.16"/><polygon points="203.6,132.7 201.6,102.2 229.0,115.6" fill="none" stroke="#F0997B" stroke-width="0.77" opacity="0.23"/><polygon points="199.4,125.3 211.1,117.5 212.1,131.5" fill="none" stroke="#378ADD" stroke-width="0.55" opacity="0.16"/><polygon points="198.4,108.6 211.3,103.0 209.7,116.9" fill="none" stroke="#378ADD" stroke-width="0.55" opacity="0.16"/><polygon points="212.5,113.9 226.2,110.7 222.1,124.1" fill="none" stroke="#378ADD" stroke-width="0.55" opacity="0.16"/><polygon points="194.3,222.3 130.3,204.2 178.1,157.8" fill="none" stroke="#C9C932" stroke-width="0.99" opacity="0.30"/><polygon points="176.1,225.5 168.6,195.9 198.1,204.2" fill="none" stroke="#F0997B" stroke-width="0.77" opacity="0.23"/><polygon points="170.7,219.0 180.8,209.2 184.2,222.9" fill="none" stroke="#378ADD" stroke-width="0.55" opacity="0.16"/><polygon points="166.7,202.8 178.4,194.9 179.3,209.0" fill="none" stroke="#378ADD" stroke-width="0.55" opacity="0.16"/><polygon points="181.4,205.5 194.3,199.9 192.8,213.8" fill="none" stroke="#378ADD" stroke-width="0.55" opacity="0.16"/><polygon points="141.2,215.3 139.1,184.8 166.6,198.3" fill="none" stroke="#F0997B" stroke-width="0.77" opacity="0.23"/><polygon points="137.0,207.9 148.7,200.1 149.6,214.1" fill="none" stroke="#378ADD" stroke-width="0.55" opacity="0.16"/><polygon points="136.0,191.2 148.9,185.6 147.3,199.6" fill="none" stroke="#378ADD" stroke-width="0.55" opacity="0.16"/><polygon points="150.0,196.5 163.7,193.3 159.6,206.8" fill="none" stroke="#378ADD" stroke-width="0.55" opacity="0.16"/><polygon points="162.3,190.5 165.8,160.1 190.4,178.3" fill="none" stroke="#F0997B" stroke-width="0.77" opacity="0.23"/><polygon points="159.5,182.5 172.4,176.9 170.8,190.9" fill="none" stroke="#378ADD" stroke-width="0.55" opacity="0.16"/><polygon points="161.5,165.9 175.2,162.6 171.1,176.1" fill="none" stroke="#378ADD" stroke-width="0.55" opacity="0.16"/><polygon points="174.4,173.6 188.4,172.9 182.0,185.4" fill="none" stroke="#378ADD" stroke-width="0.55" opacity="0.16"/><polygon points="159.0,160.9 99.3,131.6 154.5,94.5" fill="none" stroke="#C9C932" stroke-width="0.99" opacity="0.30"/><polygon points="140.5,160.8 138.5,130.3 165.9,143.7" fill="none" stroke="#F0997B" stroke-width="0.77" opacity="0.23"/><polygon points="136.3,153.4 148.0,145.6 149.0,159.6" fill="none" stroke="#378ADD" stroke-width="0.55" opacity="0.16"/><polygon points="135.3,136.7 148.2,131.1 146.6,145.0" fill="none" stroke="#378ADD" stroke-width="0.55" opacity="0.16"/><polygon points="149.3,142.0 163.0,138.8 159.0,152.2" fill="none" stroke="#378ADD" stroke-width="0.55" opacity="0.16"/><polygon points="108.0,144.5 111.4,114.1 136.0,132.3" fill="none" stroke="#F0997B" stroke-width="0.77" opacity="0.23"/><polygon points="105.1,136.5 118.0,130.8 116.5,144.8" fill="none" stroke="#378ADD" stroke-width="0.55" opacity="0.16"/><polygon points="107.2,119.8 120.9,116.6 116.8,130.1" fill="none" stroke="#378ADD" stroke-width="0.55" opacity="0.16"/><polygon points="120.0,127.6 134.1,126.9 127.7,139.4" fill="none" stroke="#378ADD" stroke-width="0.55" opacity="0.16"/><polygon points="133.2,123.8 142.0,94.6 163.0,116.8" fill="none" stroke="#F0997B" stroke-width="0.77" opacity="0.23"/><polygon points="131.9,115.5 145.6,112.2 141.5,125.7" fill="none" stroke="#378ADD" stroke-width="0.55" opacity="0.16"/><polygon points="136.8,99.5 150.9,98.7 144.5,111.3" fill="none" stroke="#378ADD" stroke-width="0.55" opacity="0.16"/><polygon points="148.1,109.4 162.0,111.2 153.5,122.4" fill="none" stroke="#378ADD" stroke-width="0.55" opacity="0.16"/><polygon points="503.3,169.5 380.1,168.9 442.2,62.6" fill="none" stroke="#AFA9EC" stroke-width="1.21" opacity="0.37"/><polygon points="472.4,184.3 444.3,135.1 501.0,135.4" fill="none" stroke="#C9C932" stroke-width="0.99" opacity="0.30"/><polygon points="459.4,175.4 472.6,152.9 485.5,175.5" fill="none" stroke="#F0997B" stroke-width="0.77" opacity="0.23"/><polygon points="460.0,168.2 472.0,168.3 465.9,178.6" fill="none" stroke="#378ADD" stroke-width="0.55" opacity="0.16"/><polygon points="467.3,155.9 479.1,158.1 471.3,167.2" fill="none" stroke="#378ADD" stroke-width="0.55" opacity="0.16"/><polygon points="474.6,166.4 485.8,170.7 476.5,178.2" fill="none" stroke="#378ADD" stroke-width="0.55" opacity="0.16"/><polygon points="444.3,148.4 461.2,128.6 469.9,153.2" fill="none" stroke="#F0997B" stroke-width="0.77" opacity="0.23"/><polygon points="446.1,141.4 457.9,143.6 450.1,152.7" fill="none" stroke="#378ADD" stroke-width="0.55" opacity="0.16"/><polygon points="455.5,130.6 466.7,134.9 457.4,142.4" fill="none" stroke="#378ADD" stroke-width="0.55" opacity="0.16"/><polygon points="460.8,142.2 471.1,148.4 460.6,154.2" fill="none" stroke="#378ADD" stroke-width="0.55" opacity="0.16"/><polygon points="471.9,145.9 492.1,129.5 496.3,155.2" fill="none" stroke="#F0997B" stroke-width="0.77" opacity="0.23"/><polygon points="475.0,139.3 486.2,143.6 476.9,151.2" fill="none" stroke="#378ADD" stroke-width="0.55" opacity="0.16"/><polygon points="486.1,130.4 496.4,136.6 485.9,142.4" fill="none" stroke="#378ADD" stroke-width="0.55" opacity="0.16"/><polygon points="489.3,142.8 498.3,150.7 486.9,154.5" fill="none" stroke="#378ADD" stroke-width="0.55" opacity="0.16"/><polygon points="405.0,183.5 386.2,130.0 441.8,140.5" fill="none" stroke="#C9C932" stroke-width="0.99" opacity="0.30"/><polygon points="393.8,172.4 410.8,152.6 419.4,177.2" fill="none" stroke="#F0997B" stroke-width="0.77" opacity="0.23"/><polygon points="395.7,165.4 407.4,167.6 399.6,176.7" fill="none" stroke="#378ADD" stroke-width="0.55" opacity="0.16"/><polygon points="405.0,154.6 416.2,158.9 406.9,166.5" fill="none" stroke="#378ADD" stroke-width="0.55" opacity="0.16"/><polygon points="410.4,166.2 420.6,172.4 410.1,178.2" fill="none" stroke="#378ADD" stroke-width="0.55" opacity="0.16"/><polygon points="383.7,143.1 404.0,126.6 408.1,152.4" fill="none" stroke="#F0997B" stroke-width="0.77" opacity="0.23"/><polygon points="386.8,136.5 398.0,140.8 388.7,148.3" fill="none" stroke="#378ADD" stroke-width="0.55" opacity="0.16"/><polygon points="397.9,127.6 408.2,133.8 397.7,139.6" fill="none" stroke="#378ADD" stroke-width="0.55" opacity="0.16"/><polygon points="401.1,140.0 410.1,147.9 398.7,151.7" fill="none" stroke="#378ADD" stroke-width="0.55" opacity="0.16"/><polygon points="411.4,145.6 434.2,133.0 433.7,159.1" fill="none" stroke="#F0997B" stroke-width="0.77" opacity="0.23"/><polygon points="415.6,139.7 425.8,145.9 415.3,151.6" fill="none" stroke="#378ADD" stroke-width="0.55" opacity="0.16"/><polygon points="428.1,132.9 437.1,140.8 425.7,144.6" fill="none" stroke="#378ADD" stroke-width="0.55" opacity="0.16"/><polygon points="429.1,145.6 436.5,155.1 424.6,156.8" fill="none" stroke="#378ADD" stroke-width="0.55" opacity="0.16"/><polygon points="430.4,128.7 421.4,72.8 474.3,93.0" fill="none" stroke="#C9C932" stroke-width="0.99" opacity="0.30"/><polygon points="421.4,115.8 441.6,99.4 445.7,125.1" fill="none" stroke="#F0997B" stroke-width="0.77" opacity="0.23"/><polygon points="424.4,109.2 435.6,113.5 426.3,121.1" fill="none" stroke="#378ADD" stroke-width="0.55" opacity="0.16"/><polygon points="435.6,100.3 445.8,106.5 435.3,112.3" fill="none" stroke="#378ADD" stroke-width="0.55" opacity="0.16"/><polygon points="438.8,112.7 447.7,120.6 436.4,124.4" fill="none" stroke="#378ADD" stroke-width="0.55" opacity="0.16"/><polygon points="416.7,85.1 439.5,72.6 439.0,98.6" fill="none" stroke="#F0997B" stroke-width="0.77" opacity="0.23"/><polygon points="420.9,79.2 431.1,85.5 420.6,91.2" fill="none" stroke="#378ADD" stroke-width="0.55" opacity="0.16"/><polygon points="433.4,72.5 442.4,80.4 431.0,84.2" fill="none" stroke="#378ADD" stroke-width="0.55" opacity="0.16"/><polygon points="434.4,85.2 441.8,94.6 429.9,96.3" fill="none" stroke="#378ADD" stroke-width="0.55" opacity="0.16"/><polygon points="443.4,92.6 468.2,84.3 463.0,109.8" fill="none" stroke="#F0997B" stroke-width="0.77" opacity="0.23"/><polygon points="448.6,87.5 457.6,95.4 446.2,99.2" fill="none" stroke="#378ADD" stroke-width="0.55" opacity="0.16"/><polygon points="462.2,83.1 469.6,92.5 457.7,94.2" fill="none" stroke="#378ADD" stroke-width="0.55" opacity="0.16"/><polygon points="460.8,95.8 466.4,106.4 454.5,105.9" fill="none" stroke="#378ADD" stroke-width="0.55" opacity="0.16"/><polygon points="777.1,237.5 626.3,112.9 809.6,44.5" fill="none" stroke="#AFA9EC" stroke-width="1.21" opacity="0.37"/><polygon points="724.3,224.6 739.2,135.8 808.6,193.1" fill="none" stroke="#C9C932" stroke-width="0.99" opacity="0.30"/><polygon points="717.3,200.6 756.1,186.1 749.2,227.0" fill="none" stroke="#F0997B" stroke-width="0.77" opacity="0.23"/><polygon points="725.2,192.3 739.9,204.4 722.1,211.1" fill="none" stroke="#378ADD" stroke-width="0.55" opacity="0.16"/><polygon points="746.5,184.5 758.8,199.1 740.1,202.4" fill="none" stroke="#378ADD" stroke-width="0.55" opacity="0.16"/><polygon points="745.1,204.8 754.5,221.3 735.5,221.2" fill="none" stroke="#378ADD" stroke-width="0.55" opacity="0.16"/><polygon points="725.8,152.1 766.6,144.8 752.5,183.7" fill="none" stroke="#F0997B" stroke-width="0.77" opacity="0.23"/><polygon points="735.1,145.3 747.4,159.9 728.7,163.2" fill="none" stroke="#378ADD" stroke-width="0.55" opacity="0.16"/><polygon points="757.5,141.5 767.0,158.0 747.9,157.9" fill="none" stroke="#378ADD" stroke-width="0.55" opacity="0.16"/><polygon points="752.4,161.1 758.8,179.1 740.1,175.6" fill="none" stroke="#378ADD" stroke-width="0.55" opacity="0.16"/><polygon points="762.4,176.8 803.8,176.9 782.9,212.7" fill="none" stroke="#F0997B" stroke-width="0.77" opacity="0.23"/><polygon points="772.7,171.8 782.2,188.4 763.1,188.3" fill="none" stroke="#378ADD" stroke-width="0.55" opacity="0.16"/><polygon points="795.4,172.1 801.8,190.0 783.0,186.6" fill="none" stroke="#378ADD" stroke-width="0.55" opacity="0.16"/><polygon points="786.9,190.5 789.9,209.3 772.1,202.5" fill="none" stroke="#378ADD" stroke-width="0.55" opacity="0.16"/><polygon points="642.2,155.7 672.8,71.1 730.8,139.9" fill="none" stroke="#C9C932" stroke-width="0.99" opacity="0.30"/><polygon points="639.6,130.9 680.4,123.6 666.3,162.5" fill="none" stroke="#F0997B" stroke-width="0.77" opacity="0.23"/><polygon points="648.9,124.1 661.2,138.7 642.4,142.0" fill="none" stroke="#378ADD" stroke-width="0.55" opacity="0.16"/><polygon points="671.3,120.3 680.7,136.8 661.7,136.7" fill="none" stroke="#378ADD" stroke-width="0.55" opacity="0.16"/><polygon points="666.2,139.9 672.6,157.9 653.8,154.4" fill="none" stroke="#378ADD" stroke-width="0.55" opacity="0.16"/><polygon points="656.7,84.6 698.1,84.8 677.3,120.6" fill="none" stroke="#F0997B" stroke-width="0.77" opacity="0.23"/><polygon points="667.1,79.6 676.6,96.2 657.5,96.1" fill="none" stroke="#378ADD" stroke-width="0.55" opacity="0.16"/><polygon points="689.8,79.9 696.1,97.8 677.4,94.4" fill="none" stroke="#378ADD" stroke-width="0.55" opacity="0.16"/><polygon points="681.3,98.3 684.3,117.1 666.5,110.4" fill="none" stroke="#378ADD" stroke-width="0.55" opacity="0.16"/><polygon points="688.2,115.5 728.9,123.1 702.0,154.6" fill="none" stroke="#F0997B" stroke-width="0.77" opacity="0.23"/><polygon points="699.3,112.5 705.7,130.4 686.9,127.0" fill="none" stroke="#378ADD" stroke-width="0.55" opacity="0.16"/><polygon points="721.6,116.8 724.6,135.6 706.8,128.8" fill="none" stroke="#378ADD" stroke-width="0.55" opacity="0.16"/><polygon points="709.9,133.4 709.5,152.4 693.2,142.6" fill="none" stroke="#378ADD" stroke-width="0.55" opacity="0.16"/><polygon points="728.5,113.9 773.8,36.1 818.6,114.2" fill="none" stroke="#C9C932" stroke-width="0.99" opacity="0.30"/><polygon points="730.4,89.0 771.8,89.1 751.0,124.9" fill="none" stroke="#F0997B" stroke-width="0.77" opacity="0.23"/><polygon points="740.8,84.0 750.3,100.5 731.2,100.4" fill="none" stroke="#378ADD" stroke-width="0.55" opacity="0.16"/><polygon points="763.5,84.2 769.8,102.2 751.1,98.7" fill="none" stroke="#378ADD" stroke-width="0.55" opacity="0.16"/><polygon points="755.0,102.6 758.0,121.4 740.2,114.7" fill="none" stroke="#378ADD" stroke-width="0.55" opacity="0.16"/><polygon points="755.5,46.5 796.2,54.1 769.4,85.6" fill="none" stroke="#F0997B" stroke-width="0.77" opacity="0.23"/><polygon points="766.6,43.5 773.0,61.4 754.3,58.0" fill="none" stroke="#378ADD" stroke-width="0.55" opacity="0.16"/><polygon points="788.9,47.8 791.9,66.6 774.1,59.8" fill="none" stroke="#378ADD" stroke-width="0.55" opacity="0.16"/><polygon points="777.2,64.4 776.8,83.4 760.5,73.6" fill="none" stroke="#378ADD" stroke-width="0.55" opacity="0.16"/><polygon points="781.0,82.6 819.7,97.3 787.6,123.5" fill="none" stroke="#F0997B" stroke-width="0.77" opacity="0.23"/><polygon points="792.4,81.6 795.5,100.4 777.7,93.6" fill="none" stroke="#378ADD" stroke-width="0.55" opacity="0.16"/><polygon points="813.6,89.8 813.2,108.8 796.9,99.0" fill="none" stroke="#378ADD" stroke-width="0.55" opacity="0.16"/><polygon points="799.1,104.0 795.4,122.7 781.1,110.1" fill="none" stroke="#378ADD" stroke-width="0.55" opacity="0.16"/><polygon points="1013.9,210.1 959.7,113.4 1070.6,114.9" fill="none" stroke="#AFA9EC" stroke-width="1.21" opacity="0.37"/><polygon points="988.6,192.5 1014.7,148.7 1039.6,193.2" fill="none" stroke="#C9C932" stroke-width="0.99" opacity="0.30"/><polygon points="989.8,178.4 1013.3,178.7 1001.3,198.9" fill="none" stroke="#F0997B" stroke-width="0.77" opacity="0.23"/><polygon points="995.7,175.6 1001.0,185.1 990.2,184.9" fill="none" stroke="#378ADD" stroke-width="0.55" opacity="0.16"/><polygon points="1008.6,175.9 1012.1,186.1 1001.5,184.0" fill="none" stroke="#378ADD" stroke-width="0.55" opacity="0.16"/><polygon points="1003.7,186.3 1005.3,197.0 995.2,193.0" fill="none" stroke="#378ADD" stroke-width="0.55" opacity="0.16"/><polygon points="1004.3,154.5 1027.3,159.0 1011.9,176.7" fill="none" stroke="#F0997B" stroke-width="0.77" opacity="0.23"/><polygon points="1010.6,152.9 1014.1,163.1 1003.5,161.0" fill="none" stroke="#378ADD" stroke-width="0.55" opacity="0.16"/><polygon points="1023.2,155.4 1024.8,166.1 1014.8,162.2" fill="none" stroke="#378ADD" stroke-width="0.55" opacity="0.16"/><polygon points="1016.5,164.8 1016.2,175.6 1007.0,169.9" fill="none" stroke="#378ADD" stroke-width="0.55" opacity="0.16"/><polygon points="1018.5,175.1 1040.4,183.6 1022.0,198.3" fill="none" stroke="#F0997B" stroke-width="0.77" opacity="0.23"/><polygon points="1025.0,174.6 1026.6,185.2 1016.6,181.3" fill="none" stroke="#378ADD" stroke-width="0.55" opacity="0.16"/><polygon points="1036.9,179.4 1036.6,190.1 1027.4,184.5" fill="none" stroke="#378ADD" stroke-width="0.55" opacity="0.16"/><polygon points="1028.7,187.3 1026.4,197.9 1018.4,190.7" fill="none" stroke="#378ADD" stroke-width="0.55" opacity="0.16"/><polygon points="959.4,139.3 992.9,100.9 1009.4,149.1" fill="none" stroke="#C9C932" stroke-width="0.99" opacity="0.30"/><polygon points="963.1,125.7 986.1,130.2 970.7,147.8" fill="none" stroke="#F0997B" stroke-width="0.77" opacity="0.23"/><polygon points="969.4,124.0 972.9,134.2 962.3,132.1" fill="none" stroke="#378ADD" stroke-width="0.55" opacity="0.16"/><polygon points="982.0,126.6 983.6,137.2 973.6,133.3" fill="none" stroke="#378ADD" stroke-width="0.55" opacity="0.16"/><polygon points="975.3,135.9 975.0,146.7 965.8,141.0" fill="none" stroke="#378ADD" stroke-width="0.55" opacity="0.16"/><polygon points="981.6,104.7 1003.5,113.3 985.1,127.9" fill="none" stroke="#F0997B" stroke-width="0.77" opacity="0.23"/><polygon points="988.1,104.2 989.7,114.9 979.7,111.0" fill="none" stroke="#378ADD" stroke-width="0.55" opacity="0.16"/><polygon points="1000.0,109.0 999.7,119.8 990.5,114.1" fill="none" stroke="#378ADD" stroke-width="0.55" opacity="0.16"/><polygon points="991.8,117.0 989.5,127.6 981.5,120.3" fill="none" stroke="#378ADD" stroke-width="0.55" opacity="0.16"/><polygon points="991.9,127.5 1011.9,139.9 991.2,151.0" fill="none" stroke="#F0997B" stroke-width="0.77" opacity="0.23"/><polygon points="998.4,128.2 998.1,139.0 988.9,133.3" fill="none" stroke="#378ADD" stroke-width="0.55" opacity="0.16"/><polygon points="1009.3,135.0 1007.0,145.6 999.0,138.4" fill="none" stroke="#378ADD" stroke-width="0.55" opacity="0.16"/><polygon points="999.7,141.4 995.6,151.4 989.0,142.8" fill="none" stroke="#378ADD" stroke-width="0.55" opacity="0.16"/><polygon points="1013.6,134.9 1053.4,103.1 1061.1,153.5" fill="none" stroke="#C9C932" stroke-width="0.99" opacity="0.30"/><polygon points="1019.7,122.1 1041.5,130.7 1023.2,145.3" fill="none" stroke="#F0997B" stroke-width="0.77" opacity="0.23"/><polygon points="1026.2,121.6 1027.8,132.3 1017.7,128.4" fill="none" stroke="#378ADD" stroke-width="0.55" opacity="0.16"/><polygon points="1038.1,126.4 1037.8,137.2 1028.6,131.5" fill="none" stroke="#378ADD" stroke-width="0.55" opacity="0.16"/><polygon points="1029.8,134.4 1027.6,144.9 1019.6,137.7" fill="none" stroke="#378ADD" stroke-width="0.55" opacity="0.16"/><polygon points="1041.6,104.9 1061.6,117.2 1040.9,128.3" fill="none" stroke="#F0997B" stroke-width="0.77" opacity="0.23"/><polygon points="1048.1,105.5 1047.8,116.3 1038.6,110.7" fill="none" stroke="#378ADD" stroke-width="0.55" opacity="0.16"/><polygon points="1059.0,112.4 1056.7,122.9 1048.7,115.7" fill="none" stroke="#378ADD" stroke-width="0.55" opacity="0.16"/><polygon points="1049.4,118.8 1045.3,128.7 1038.7,120.2" fill="none" stroke="#378ADD" stroke-width="0.55" opacity="0.16"/><polygon points="1047.7,129.1 1065.1,144.8 1042.8,152.1" fill="none" stroke="#F0997B" stroke-width="0.77" opacity="0.23"/><polygon points="1053.9,130.9 1051.7,141.5 1043.7,134.3" fill="none" stroke="#378ADD" stroke-width="0.55" opacity="0.16"/><polygon points="1063.4,139.6 1059.3,149.6 1052.7,141.1" fill="none" stroke="#378ADD" stroke-width="0.55" opacity="0.16"/><polygon points="1052.9,144.2 1047.0,153.3 1042.1,143.7" fill="none" stroke="#378ADD" stroke-width="0.55" opacity="0.16"/><polygon points="1209.7,167.2 1337.2,130.6 1305.2,259.3" fill="none" stroke="#AFA9EC" stroke-width="1.21" opacity="0.37"/><polygon points="1237.1,142.6 1281.1,185.0 1222.4,201.8" fill="none" stroke="#C9C932" stroke-width="0.99" opacity="0.30"/><polygon points="1253.3,147.8 1246.5,175.1 1226.3,155.6" fill="none" stroke="#F0997B" stroke-width="0.77" opacity="0.23"/><polygon points="1254.9,155.5 1242.5,159.0 1245.6,146.5" fill="none" stroke="#378ADD" stroke-width="0.55" opacity="0.16"/><polygon points="1251.0,170.4 1238.2,171.7 1243.5,159.9" fill="none" stroke="#378ADD" stroke-width="0.55" opacity="0.16"/><polygon points="1240.3,161.8 1227.4,160.8 1234.7,150.1" fill="none" stroke="#378ADD" stroke-width="0.55" opacity="0.16"/><polygon points="1277.1,171.2 1265.6,196.8 1249.2,174.0" fill="none" stroke="#F0997B" stroke-width="0.77" opacity="0.23"/><polygon points="1277.4,179.0 1264.5,180.3 1269.8,168.6" fill="none" stroke="#378ADD" stroke-width="0.55" opacity="0.16"/><polygon points="1270.9,193.0 1258.0,192.0 1265.4,181.3" fill="none" stroke="#378ADD" stroke-width="0.55" opacity="0.16"/><polygon points="1261.9,182.6 1249.4,179.3 1258.5,170.2" fill="none" stroke="#378ADD" stroke-width="0.55" opacity="0.16"/><polygon points="1249.3,182.2 1233.3,205.3 1221.3,179.9" fill="none" stroke="#F0997B" stroke-width="0.77" opacity="0.23"/><polygon points="1248.1,189.9 1235.2,188.9 1242.6,178.2" fill="none" stroke="#378ADD" stroke-width="0.55" opacity="0.16"/><polygon points="1239.3,202.5 1226.8,199.2 1235.9,190.0" fill="none" stroke="#378ADD" stroke-width="0.55" opacity="0.16"/><polygon points="1232.2,190.7 1220.5,185.2 1231.2,177.8" fill="none" stroke="#378ADD" stroke-width="0.55" opacity="0.16"/><polygon points="1307.1,123.1 1342.8,172.6 1282.0,178.7" fill="none" stroke="#C9C932" stroke-width="0.99" opacity="0.30"/><polygon points="1322.0,131.1 1310.5,156.7 1294.1,133.9" fill="none" stroke="#F0997B" stroke-width="0.77" opacity="0.23"/><polygon points="1322.3,138.9 1309.4,140.2 1314.7,128.4" fill="none" stroke="#378ADD" stroke-width="0.55" opacity="0.16"/><polygon points="1315.8,152.9 1303.0,151.9 1310.3,141.2" fill="none" stroke="#378ADD" stroke-width="0.55" opacity="0.16"/><polygon points="1306.8,142.5 1294.3,139.2 1303.4,130.1" fill="none" stroke="#378ADD" stroke-width="0.55" opacity="0.16"/><polygon points="1341.3,158.4 1325.4,181.5 1313.4,156.2" fill="none" stroke="#F0997B" stroke-width="0.77" opacity="0.23"/><polygon points="1340.2,166.1 1327.3,165.1 1334.6,154.5" fill="none" stroke="#378ADD" stroke-width="0.55" opacity="0.16"/><polygon points="1331.3,178.7 1318.9,175.4 1328.0,166.2" fill="none" stroke="#378ADD" stroke-width="0.55" opacity="0.16"/><polygon points="1324.3,166.9 1312.6,161.4 1323.2,154.0" fill="none" stroke="#378ADD" stroke-width="0.55" opacity="0.16"/><polygon points="1312.0,164.2 1292.2,184.1 1284.9,157.0" fill="none" stroke="#F0997B" stroke-width="0.77" opacity="0.23"/><polygon points="1309.4,171.6 1297.0,168.2 1306.1,159.1" fill="none" stroke="#378ADD" stroke-width="0.55" opacity="0.16"/><polygon points="1298.5,182.4 1286.8,176.9 1297.4,169.5" fill="none" stroke="#378ADD" stroke-width="0.55" opacity="0.16"/><polygon points="1293.7,169.5 1283.2,162.0 1294.9,156.6" fill="none" stroke="#378ADD" stroke-width="0.55" opacity="0.16"/><polygon points="1297.4,187.4 1323.6,242.5 1262.8,237.6" fill="none" stroke="#C9C932" stroke-width="0.99" opacity="0.30"/><polygon points="1310.7,198.0 1294.7,221.1 1282.7,195.7" fill="none" stroke="#F0997B" stroke-width="0.77" opacity="0.23"/><polygon points="1309.5,205.7 1296.6,204.7 1304.0,194.0" fill="none" stroke="#378ADD" stroke-width="0.55" opacity="0.16"/><polygon points="1300.7,218.3 1288.2,215.0 1297.3,205.8" fill="none" stroke="#378ADD" stroke-width="0.55" opacity="0.16"/><polygon points="1293.6,206.5 1281.9,201.0 1292.5,193.6" fill="none" stroke="#378ADD" stroke-width="0.55" opacity="0.16"/><polygon points="1324.8,228.3 1305.0,248.2 1297.6,221.1" fill="none" stroke="#F0997B" stroke-width="0.77" opacity="0.23"/><polygon points="1322.2,235.7 1309.8,232.3 1318.9,223.2" fill="none" stroke="#378ADD" stroke-width="0.55" opacity="0.16"/><polygon points="1311.3,246.5 1299.6,241.0 1310.2,233.6" fill="none" stroke="#378ADD" stroke-width="0.55" opacity="0.16"/><polygon points="1306.5,233.6 1296.0,226.1 1307.7,220.7" fill="none" stroke="#378ADD" stroke-width="0.55" opacity="0.16"/><polygon points="1294.9,228.7 1271.8,244.7 1269.5,216.8" fill="none" stroke="#F0997B" stroke-width="0.77" opacity="0.23"/><polygon points="1291.0,235.5 1279.4,230.0 1290.0,222.6" fill="none" stroke="#378ADD" stroke-width="0.55" opacity="0.16"/><polygon points="1278.3,244.2 1267.8,236.7 1279.6,231.3" fill="none" stroke="#378ADD" stroke-width="0.55" opacity="0.16"/><polygon points="1275.9,230.6 1266.9,221.4 1279.4,218.2" fill="none" stroke="#378ADD" stroke-width="0.55" opacity="0.16"/></g>
  <path d="M70 297.905 C333.848 73.701, 474.572 303.696, 758.768 214.368 S1208.16 126.81200000000001, 1510 233.0752" fill="none" stroke="#F0997B" stroke-width="7" stroke-linecap="round" opacity=".34"/>
  <path d="M70 297.905 C333.848 73.701, 474.572 303.696, 758.768 214.368 S1208.16 126.81200000000001, 1510 233.0752" fill="none" stroke="#C9C932" stroke-width="1.1" stroke-dasharray="11 16" stroke-linecap="round" opacity=".78"/>
  <g stroke="#AFA9EC" stroke-width="2.2" fill="none" opacity=".74" transform="rotate(3.09 1092.2 179.2)"><polygon points="1033.5,240.8 1007.1,181.2 1030.6,120.5 1090.2,94.1 1151.0,117.6 1177.4,177.2 1153.8,238.0 1094.2,264.4"/><polygon points="1051.7,197.1 1050.9,163.3 1074.3,138.7 1108.2,137.9 1132.7,161.3 1133.5,195.2 1110.1,219.7 1076.3,220.5"/><line x1="1033.5" y1="240.8" x2="1051.7" y2="197.1"/><line x1="1051.7" y1="197.1" x2="1007.1" y2="181.2"/><line x1="1007.1" y1="181.2" x2="1050.9" y2="163.3"/><line x1="1050.9" y1="163.3" x2="1030.6" y2="120.5"/><line x1="1030.6" y1="120.5" x2="1074.3" y2="138.7"/><line x1="1074.3" y1="138.7" x2="1090.2" y2="94.1"/><line x1="1090.2" y1="94.1" x2="1108.2" y2="137.9"/><line x1="1108.2" y1="137.9" x2="1151.0" y2="117.6"/><line x1="1151.0" y1="117.6" x2="1132.7" y2="161.3"/><line x1="1132.7" y1="161.3" x2="1177.4" y2="177.2"/><line x1="1177.4" y1="177.2" x2="1133.5" y2="195.2"/><line x1="1133.5" y1="195.2" x2="1153.8" y2="238.0"/><line x1="1153.8" y1="238.0" x2="1110.1" y2="219.7"/><line x1="1110.1" y1="219.7" x2="1094.2" y2="264.4"/><line x1="1094.2" y1="264.4" x2="1076.3" y2="220.5"/><line x1="1076.3" y1="220.5" x2="1033.5" y2="240.8"/></g>
  <g><polygon points="117.4,123.3 92.5,140.3 75.5,122.4 80.5,105.5 106.3,100.7" fill="#F0997B" opacity="0.19"/><polygon points="271.5,172.7 251.7,186.9 233.1,174.3 231.7,163.6 260.9,147.9 265.8,151.2" fill="#C9C932" opacity="0.27"/><polygon points="450.5,256.4 425.9,271.8 411.0,263.8 405.8,252.7 414.9,230.1 427.4,225.7 451.7,247.2" fill="#AFA9EC" opacity="0.16"/><polygon points="621.1,294.3 600.3,314.8 574.9,299.5 586.4,269.5 616.4,276.4" fill="#378ADD" opacity="0.30"/><polygon points="751.5,262.5 739.6,271.2 719.6,258.8 719.1,251.6 737.9,236.8 753.4,251.0" fill="#F0997B" opacity="0.19"/><polygon points="873.0,172.7 855.8,193.4 838.2,189.7 830.4,165.1 836.1,156.2 852.4,150.3 872.8,169.3" fill="#C9C932" opacity="0.25"/><polygon points="993.8,131.9 973.7,147.0 944.7,131.0 956.4,96.8 994.2,109.6" fill="#AFA9EC" opacity="0.31"/><polygon points="1137.7,159.9 1117.3,172.0 1090.5,149.8 1090.6,142.5 1127.0,123.4 1133.3,127.7" fill="#378ADD" opacity="0.20"/><polygon points="1304.6,239.0 1289.0,246.4 1271.0,235.0 1269.0,227.3 1278.8,209.2 1291.8,206.5 1309.0,223.6" fill="#F0997B" opacity="0.32"/><polygon points="1479.6,299.1 1466.9,307.0 1442.4,287.0 1462.9,266.0 1469.7,267.0" fill="#C9C932" opacity="0.18"/></g>
  <g><rect x="87.5" y="53.8" width="50.2" height="6.0" fill="#378ADD" opacity="0.31"/><rect x="205.9" y="297.2" width="37.9" height="5.8" fill="#F0997B" opacity="0.30"/><rect x="313.7" y="166.1" width="126.7" height="14.4" fill="#C9C932" opacity="0.30"/><rect x="404.8" y="49.8" width="63.5" height="9.7" fill="#AFA9EC" opacity="0.17"/><rect x="499.8" y="71.1" width="52.0" height="10.5" fill="#378ADD" opacity="0.24"/><rect x="630.3" y="270.7" width="116.7" height="10.4" fill="#F0997B" opacity="0.18"/><rect x="723.7" y="273.5" width="77.1" height="10.1" fill="#C9C932" opacity="0.20"/><rect x="821.5" y="180.8" width="115.7" height="6.0" fill="#AFA9EC" opacity="0.28"/><rect x="938.7" y="31.5" width="95.2" height="3.1" fill="#378ADD" opacity="0.10"/><rect x="1023.5" y="258.9" width="63.8" height="12.6" fill="#F0997B" opacity="0.22"/><rect x="1154.5" y="287.7" width="22.6" height="7.7" fill="#C9C932" opacity="0.15"/><rect x="1247.4" y="134.3" width="77.5" height="14.7" fill="#AFA9EC" opacity="0.11"/><rect x="1346.6" y="100.7" width="45.1" height="3.2" fill="#378ADD" opacity="0.32"/><rect x="1449.7" y="225.6" width="50.3" height="7.9" fill="#F0997B" opacity="0.15"/></g>
  <rect width="1600" height="360" filter="url(#grain-358191022)" opacity=".85"/>
</svg>
