<svg xmlns="http://www.w3.org/2000/svg" viewBox="0 0 1600 360" role="img" aria-labelledby="title-515501934 desc-515501934">
  <title id="title-515501934">Generative page artwork</title>
  <desc id="desc-515501934">Platonic-solid, fractal, opt-art, glitch, and organic dialogue geometry for /lessons/es/pseudo-elementos-y-estilos-de-estado/demo/dropdown.html.</desc>
  <defs>
    <filter id="grain-515501934" x="-10%" y="-10%" width="120%" height="120%">
      <feTurbulence type="fractalNoise" baseFrequency="0.68" numOctaves="2" seed="93" result="noise"/>
      <feColorMatrix in="noise" type="saturate" values="0"/>
      <feComponentTransfer><feFuncA type="table" tableValues="0 .16"/></feComponentTransfer>
    </filter>
  </defs>
  <rect width="1600" height="360" fill="#050816"/>
  <rect width="1600" height="360" fill="#ED93B1" opacity=".10"/>
  <g fill="none" stroke="#0C447C" stroke-width="1.2" opacity=".58"><polygon points="246.1,93.5 216.6,172.7 162.8,107.6" fill="none" stroke="#E2B127" stroke-width="1.21" opacity="0.37"/><polygon points="248.3,116.9 210.0,123.4 223.6,86.9" fill="none" stroke="#ED93B1" stroke-width="0.99" opacity="0.30"/><polygon points="239.5,123.1 228.1,109.4 245.8,106.4" fill="none" stroke="#97C459" stroke-width="0.77" opacity="0.23"/><polygon points="235.0,121.1 237.9,113.4 243.1,119.7" fill="none" stroke="#0C447C" stroke-width="0.55" opacity="0.16"/><polygon points="228.8,113.5 233.0,106.4 237.1,113.6" fill="none" stroke="#0C447C" stroke-width="0.55" opacity="0.16"/><polygon points="237.3,111.2 242.7,105.0 245.4,112.8" fill="none" stroke="#0C447C" stroke-width="0.55" opacity="0.16"/><polygon points="218.5,126.5 209.8,110.9 227.7,111.2" fill="none" stroke="#97C459" stroke-width="0.77" opacity="0.23"/><polygon points="214.4,123.7 218.6,116.6 222.7,123.8" fill="none" stroke="#0C447C" stroke-width="0.55" opacity="0.16"/><polygon points="209.7,115.1 215.1,108.9 217.8,116.7" fill="none" stroke="#0C447C" stroke-width="0.55" opacity="0.16"/><polygon points="218.5,114.4 224.9,109.3 226.1,117.4" fill="none" stroke="#0C447C" stroke-width="0.55" opacity="0.16"/><polygon points="223.5,108.1 217.6,91.2 235.2,94.6" fill="none" stroke="#97C459" stroke-width="0.77" opacity="0.23"/><polygon points="219.9,104.6 225.3,98.4 228.0,106.2" fill="none" stroke="#0C447C" stroke-width="0.55" opacity="0.16"/><polygon points="216.8,95.3 223.3,90.2 224.5,98.3" fill="none" stroke="#0C447C" stroke-width="0.55" opacity="0.16"/><polygon points="225.6,96.2 232.8,92.3 232.6,100.5" fill="none" stroke="#0C447C" stroke-width="0.55" opacity="0.16"/><polygon points="231.9,160.1 193.0,159.7 212.8,126.2" fill="none" stroke="#ED93B1" stroke-width="0.99" opacity="0.30"/><polygon points="222.1,164.7 213.3,149.1 231.2,149.3" fill="none" stroke="#97C459" stroke-width="0.77" opacity="0.23"/><polygon points="218.0,161.9 222.2,154.8 226.2,162.0" fill="none" stroke="#0C447C" stroke-width="0.55" opacity="0.16"/><polygon points="213.3,153.3 218.7,147.1 221.4,154.9" fill="none" stroke="#0C447C" stroke-width="0.55" opacity="0.16"/><polygon points="222.0,152.6 228.4,147.5 229.7,155.6" fill="none" stroke="#0C447C" stroke-width="0.55" opacity="0.16"/><polygon points="200.8,164.3 195.0,147.4 212.5,150.8" fill="none" stroke="#97C459" stroke-width="0.77" opacity="0.23"/><polygon points="197.3,160.8 202.7,154.6 205.4,162.3" fill="none" stroke="#0C447C" stroke-width="0.55" opacity="0.16"/><polygon points="194.2,151.5 200.6,146.3 201.8,154.5" fill="none" stroke="#0C447C" stroke-width="0.55" opacity="0.16"/><polygon points="202.9,152.3 210.2,148.4 209.9,156.7" fill="none" stroke="#0C447C" stroke-width="0.55" opacity="0.16"/><polygon points="208.9,147.1 206.3,129.4 222.9,135.9" fill="none" stroke="#97C459" stroke-width="0.77" opacity="0.23"/><polygon points="206.1,143.0 212.6,137.8 213.8,146.0" fill="none" stroke="#0C447C" stroke-width="0.55" opacity="0.16"/><polygon points="204.7,133.3 212.0,129.4 211.7,137.6" fill="none" stroke="#0C447C" stroke-width="0.55" opacity="0.16"/><polygon points="213.2,135.7 221.0,133.1 219.3,141.2" fill="none" stroke="#0C447C" stroke-width="0.55" opacity="0.16"/><polygon points="202.6,130.8 164.4,123.4 189.9,94.1" fill="none" stroke="#ED93B1" stroke-width="0.99" opacity="0.30"/><polygon points="192.1,133.6 186.3,116.7 203.9,120.1" fill="none" stroke="#97C459" stroke-width="0.77" opacity="0.23"/><polygon points="188.6,130.1 194.0,123.9 196.7,131.7" fill="none" stroke="#0C447C" stroke-width="0.55" opacity="0.16"/><polygon points="185.5,120.8 191.9,115.7 193.2,123.8" fill="none" stroke="#0C447C" stroke-width="0.55" opacity="0.16"/><polygon points="194.2,121.7 201.5,117.7 201.2,126.0" fill="none" stroke="#0C447C" stroke-width="0.55" opacity="0.16"/><polygon points="171.3,129.4 168.6,111.7 185.2,118.2" fill="none" stroke="#97C459" stroke-width="0.77" opacity="0.23"/><polygon points="168.4,125.3 174.9,120.1 176.1,128.3" fill="none" stroke="#0C447C" stroke-width="0.55" opacity="0.16"/><polygon points="167.0,115.6 174.3,111.7 174.0,119.9" fill="none" stroke="#0C447C" stroke-width="0.55" opacity="0.16"/><polygon points="175.5,118.0 183.3,115.4 181.6,123.5" fill="none" stroke="#0C447C" stroke-width="0.55" opacity="0.16"/><polygon points="182.4,113.9 182.9,96.0 198.1,105.4" fill="none" stroke="#97C459" stroke-width="0.77" opacity="0.23"/><polygon points="180.3,109.3 187.6,105.4 187.3,113.7" fill="none" stroke="#0C447C" stroke-width="0.55" opacity="0.16"/><polygon points="180.7,99.6 188.5,97.0 186.8,105.1" fill="none" stroke="#0C447C" stroke-width="0.55" opacity="0.16"/><polygon points="188.5,103.4 196.7,102.3 193.6,109.9" fill="none" stroke="#0C447C" stroke-width="0.55" opacity="0.16"/><polygon points="456.4,133.5 534.2,220.7 419.8,244.4" fill="none" stroke="#E2B127" stroke-width="1.21" opacity="0.37"/><polygon points="486.5,145.8 469.6,196.9 433.8,156.8" fill="none" stroke="#ED93B1" stroke-width="0.99" opacity="0.30"/><polygon points="488.4,160.6 464.2,165.7 472.0,142.2" fill="none" stroke="#97C459" stroke-width="0.77" opacity="0.23"/><polygon points="483.0,164.8 475.4,156.3 486.6,154.0" fill="none" stroke="#0C447C" stroke-width="0.55" opacity="0.16"/><polygon points="469.7,167.5 463.8,157.8 475.1,157.5" fill="none" stroke="#0C447C" stroke-width="0.55" opacity="0.16"/><polygon points="472.4,155.7 468.3,145.0 479.5,146.8" fill="none" stroke="#0C447C" stroke-width="0.55" opacity="0.16"/><polygon points="479.0,188.5 454.3,189.1 466.1,167.4" fill="none" stroke="#97C459" stroke-width="0.77" opacity="0.23"/><polygon points="472.9,191.7 466.9,182.0 478.3,181.7" fill="none" stroke="#0C447C" stroke-width="0.55" opacity="0.16"/><polygon points="459.3,191.9 455.2,181.3 466.5,183.0" fill="none" stroke="#0C447C" stroke-width="0.55" opacity="0.16"/><polygon points="464.1,180.7 462.0,169.6 472.7,173.3" fill="none" stroke="#0C447C" stroke-width="0.55" opacity="0.16"/><polygon points="459.7,170.6 435.2,166.8 450.8,147.5" fill="none" stroke="#97C459" stroke-width="0.77" opacity="0.23"/><polygon points="453.1,172.6 449.0,162.0 460.2,163.7" fill="none" stroke="#0C447C" stroke-width="0.55" opacity="0.16"/><polygon points="439.7,170.4 437.6,159.2 448.3,163.0" fill="none" stroke="#0C447C" stroke-width="0.55" opacity="0.16"/><polygon points="446.4,160.3 446.3,148.9 456.2,154.5" fill="none" stroke="#0C447C" stroke-width="0.55" opacity="0.16"/><polygon points="528.7,193.9 503.0,241.1 474.9,195.2" fill="none" stroke="#ED93B1" stroke-width="0.99" opacity="0.30"/><polygon points="528.0,208.8 503.2,209.4 515.1,187.7" fill="none" stroke="#97C459" stroke-width="0.77" opacity="0.23"/><polygon points="521.9,212.0 515.9,202.3 527.3,202.0" fill="none" stroke="#0C447C" stroke-width="0.55" opacity="0.16"/><polygon points="508.3,212.2 504.2,201.6 515.5,203.4" fill="none" stroke="#0C447C" stroke-width="0.55" opacity="0.16"/><polygon points="513.1,201.1 511.0,189.9 521.7,193.6" fill="none" stroke="#0C447C" stroke-width="0.55" opacity="0.16"/><polygon points="513.7,234.6 489.3,230.7 504.8,211.5" fill="none" stroke="#97C459" stroke-width="0.77" opacity="0.23"/><polygon points="507.1,236.6 503.0,226.0 514.3,227.7" fill="none" stroke="#0C447C" stroke-width="0.55" opacity="0.16"/><polygon points="493.8,234.4 491.6,223.2 502.4,226.9" fill="none" stroke="#0C447C" stroke-width="0.55" opacity="0.16"/><polygon points="500.4,224.3 500.3,212.9 510.2,218.5" fill="none" stroke="#0C447C" stroke-width="0.55" opacity="0.16"/><polygon points="497.9,213.5 474.5,205.3 493.3,189.2" fill="none" stroke="#97C459" stroke-width="0.77" opacity="0.23"/><polygon points="491.1,214.3 488.9,203.1 499.7,206.8" fill="none" stroke="#0C447C" stroke-width="0.55" opacity="0.16"/><polygon points="478.3,209.7 478.2,198.3 488.1,204.0" fill="none" stroke="#0C447C" stroke-width="0.55" opacity="0.16"/><polygon points="486.7,201.0 488.6,189.8 497.4,197.0" fill="none" stroke="#0C447C" stroke-width="0.55" opacity="0.16"/><polygon points="473.9,210.8 440.2,252.6 420.8,202.5" fill="none" stroke="#ED93B1" stroke-width="0.99" opacity="0.30"/><polygon points="470.6,225.4 446.1,221.5 461.7,202.3" fill="none" stroke="#97C459" stroke-width="0.77" opacity="0.23"/><polygon points="464.0,227.4 459.9,216.7 471.1,218.5" fill="none" stroke="#0C447C" stroke-width="0.55" opacity="0.16"/><polygon points="450.6,225.2 448.5,214.0 459.2,217.7" fill="none" stroke="#0C447C" stroke-width="0.55" opacity="0.16"/><polygon points="457.3,215.1 457.2,203.7 467.1,209.3" fill="none" stroke="#0C447C" stroke-width="0.55" opacity="0.16"/><polygon points="451.9,248.1 428.6,240.0 447.3,223.8" fill="none" stroke="#97C459" stroke-width="0.77" opacity="0.23"/><polygon points="445.1,248.9 443.0,237.7 453.7,241.5" fill="none" stroke="#0C447C" stroke-width="0.55" opacity="0.16"/><polygon points="432.3,244.4 432.2,233.0 442.1,238.6" fill="none" stroke="#0C447C" stroke-width="0.55" opacity="0.16"/><polygon points="440.7,235.6 442.7,224.4 451.4,231.7" fill="none" stroke="#0C447C" stroke-width="0.55" opacity="0.16"/><polygon points="440.1,224.5 418.6,212.4 439.9,199.8" fill="none" stroke="#97C459" stroke-width="0.77" opacity="0.23"/><polygon points="433.3,224.1 433.2,212.7 443.1,218.3" fill="none" stroke="#0C447C" stroke-width="0.55" opacity="0.16"/><polygon points="421.6,217.3 423.5,206.1 432.2,213.4" fill="none" stroke="#0C447C" stroke-width="0.55" opacity="0.16"/><polygon points="431.4,210.2 435.3,199.6 442.6,208.3" fill="none" stroke="#0C447C" stroke-width="0.55" opacity="0.16"/><polygon points="769.6,272.8 651.3,220.6 755.6,144.2" fill="none" stroke="#E2B127" stroke-width="1.21" opacity="0.37"/><polygon points="733.7,274.1 727.2,215.0 781.7,238.9" fill="none" stroke="#ED93B1" stroke-width="0.99" opacity="0.30"/><polygon points="724.9,260.1 747.0,243.9 749.9,271.1" fill="none" stroke="#97C459" stroke-width="0.77" opacity="0.23"/><polygon points="728.5,253.4 740.0,258.4 729.8,265.9" fill="none" stroke="#0C447C" stroke-width="0.55" opacity="0.16"/><polygon points="740.6,244.6 751.0,251.7 739.7,257.2" fill="none" stroke="#0C447C" stroke-width="0.55" opacity="0.16"/><polygon points="743.3,257.7 752.3,266.5 740.2,269.9" fill="none" stroke="#0C447C" stroke-width="0.55" opacity="0.16"/><polygon points="721.6,227.7 746.2,215.7 744.3,243.0" fill="none" stroke="#97C459" stroke-width="0.77" opacity="0.23"/><polygon points="726.3,221.7 736.7,228.8 725.4,234.3" fill="none" stroke="#0C447C" stroke-width="0.55" opacity="0.16"/><polygon points="739.9,215.3 748.8,224.1 736.7,227.5" fill="none" stroke="#0C447C" stroke-width="0.55" opacity="0.16"/><polygon points="740.2,228.7 747.4,238.9 734.9,240.1" fill="none" stroke="#0C447C" stroke-width="0.55" opacity="0.16"/><polygon points="749.3,236.9 775.6,229.5 768.8,256.0" fill="none" stroke="#97C459" stroke-width="0.77" opacity="0.23"/><polygon points="755.0,231.8 764.0,240.6 751.9,244.0" fill="none" stroke="#0C447C" stroke-width="0.55" opacity="0.16"/><polygon points="769.4,227.9 776.7,238.2 764.2,239.3" fill="none" stroke="#0C447C" stroke-width="0.55" opacity="0.16"/><polygon points="767.3,241.2 772.7,252.6 760.1,251.5" fill="none" stroke="#0C447C" stroke-width="0.55" opacity="0.16"/><polygon points="669.1,245.0 673.4,185.7 722.6,219.0" fill="none" stroke="#ED93B1" stroke-width="0.99" opacity="0.30"/><polygon points="663.0,229.7 687.6,217.7 685.6,245.0" fill="none" stroke="#97C459" stroke-width="0.77" opacity="0.23"/><polygon points="667.7,223.7 678.1,230.8 666.8,236.3" fill="none" stroke="#0C447C" stroke-width="0.55" opacity="0.16"/><polygon points="681.2,217.3 690.2,226.1 678.1,229.5" fill="none" stroke="#0C447C" stroke-width="0.55" opacity="0.16"/><polygon points="681.5,230.7 688.8,240.9 676.3,242.1" fill="none" stroke="#0C447C" stroke-width="0.55" opacity="0.16"/><polygon points="665.6,197.2 691.9,189.9 685.1,216.4" fill="none" stroke="#97C459" stroke-width="0.77" opacity="0.23"/><polygon points="671.3,192.2 680.3,201.0 668.1,204.4" fill="none" stroke="#0C447C" stroke-width="0.55" opacity="0.16"/><polygon points="685.7,188.3 693.0,198.5 680.5,199.7" fill="none" stroke="#0C447C" stroke-width="0.55" opacity="0.16"/><polygon points="683.6,201.5 688.9,212.9 676.4,211.8" fill="none" stroke="#0C447C" stroke-width="0.55" opacity="0.16"/><polygon points="691.1,211.2 718.4,208.7 706.9,233.5" fill="none" stroke="#97C459" stroke-width="0.77" opacity="0.23"/><polygon points="697.7,207.3 704.9,217.5 692.4,218.7" fill="none" stroke="#0C447C" stroke-width="0.55" opacity="0.16"/><polygon points="712.6,206.0 717.9,217.4 705.4,216.3" fill="none" stroke="#0C447C" stroke-width="0.55" opacity="0.16"/><polygon points="708.1,218.7 711.3,230.8 699.2,227.5" fill="none" stroke="#0C447C" stroke-width="0.55" opacity="0.16"/><polygon points="716.5,202.9 731.3,145.3 773.8,186.9" fill="none" stroke="#ED93B1" stroke-width="0.99" opacity="0.30"/><polygon points="713.2,186.7 739.6,179.4 732.8,205.9" fill="none" stroke="#97C459" stroke-width="0.77" opacity="0.23"/><polygon points="718.9,181.7 727.9,190.5 715.8,193.9" fill="none" stroke="#0C447C" stroke-width="0.55" opacity="0.16"/><polygon points="733.4,177.8 740.6,188.1 728.1,189.2" fill="none" stroke="#0C447C" stroke-width="0.55" opacity="0.16"/><polygon points="731.3,191.0 736.6,202.4 724.0,201.3" fill="none" stroke="#0C447C" stroke-width="0.55" opacity="0.16"/><polygon points="721.6,155.3 748.8,152.7 737.4,177.6" fill="none" stroke="#97C459" stroke-width="0.77" opacity="0.23"/><polygon points="728.1,151.3 735.3,161.6 722.8,162.8" fill="none" stroke="#0C447C" stroke-width="0.55" opacity="0.16"/><polygon points="743.0,150.1 748.3,161.5 735.8,160.4" fill="none" stroke="#0C447C" stroke-width="0.55" opacity="0.16"/><polygon points="738.6,162.7 741.7,174.9 729.6,171.6" fill="none" stroke="#0C447C" stroke-width="0.55" opacity="0.16"/><polygon points="744.2,173.6 771.5,176.0 755.8,198.4" fill="none" stroke="#97C459" stroke-width="0.77" opacity="0.23"/><polygon points="751.3,170.9 756.6,182.3 744.1,181.2" fill="none" stroke="#0C447C" stroke-width="0.55" opacity="0.16"/><polygon points="766.2,172.3 769.4,184.5 757.3,181.2" fill="none" stroke="#0C447C" stroke-width="0.55" opacity="0.16"/><polygon points="759.6,184.0 760.6,196.5 749.2,191.1" fill="none" stroke="#0C447C" stroke-width="0.55" opacity="0.16"/><polygon points="1056.8,129.3 1134.7,308.2 940.8,286.1" fill="none" stroke="#E2B127" stroke-width="1.21" opacity="0.37"/><polygon points="1098.0,164.6 1044.6,236.7 1008.8,154.4" fill="none" stroke="#ED93B1" stroke-width="0.99" opacity="0.30"/><polygon points="1093.4,189.1 1052.4,184.4 1076.9,151.2" fill="none" stroke="#97C459" stroke-width="0.77" opacity="0.23"/><polygon points="1082.6,192.9 1075.0,175.5 1093.9,177.6" fill="none" stroke="#0C447C" stroke-width="0.55" opacity="0.16"/><polygon points="1060.1,190.2 1055.8,171.7 1074.0,177.2" fill="none" stroke="#0C447C" stroke-width="0.55" opacity="0.16"/><polygon points="1070.6,172.8 1069.6,153.9 1086.5,162.5" fill="none" stroke="#0C447C" stroke-width="0.55" opacity="0.16"/><polygon points="1063.9,228.4 1024.3,216.4 1054.4,188.2" fill="none" stroke="#97C459" stroke-width="0.77" opacity="0.23"/><polygon points="1052.5,230.2 1048.2,211.7 1066.4,217.2" fill="none" stroke="#0C447C" stroke-width="0.55" opacity="0.16"/><polygon points="1031.0,223.5 1030.0,204.5 1046.9,213.2" fill="none" stroke="#0C447C" stroke-width="0.55" opacity="0.16"/><polygon points="1044.3,208.3 1046.8,189.5 1061.9,201.0" fill="none" stroke="#0C447C" stroke-width="0.55" opacity="0.16"/><polygon points="1042.6,189.9 1005.8,171.0 1040.5,148.6" fill="none" stroke="#97C459" stroke-width="0.77" opacity="0.23"/><polygon points="1031.1,189.6 1030.2,170.6 1047.1,179.3" fill="none" stroke="#0C447C" stroke-width="0.55" opacity="0.16"/><polygon points="1011.1,179.1 1013.5,160.3 1028.6,171.9" fill="none" stroke="#0C447C" stroke-width="0.55" opacity="0.16"/><polygon points="1027.0,166.6 1032.7,148.5 1045.5,162.6" fill="none" stroke="#0C447C" stroke-width="0.55" opacity="0.16"/><polygon points="1139.8,262.8 1074.4,324.3 1053.9,236.9" fill="none" stroke="#ED93B1" stroke-width="0.99" opacity="0.30"/><polygon points="1130.9,286.1 1091.4,274.2 1121.5,245.9" fill="none" stroke="#97C459" stroke-width="0.77" opacity="0.23"/><polygon points="1119.6,287.9 1115.3,269.5 1133.5,274.9" fill="none" stroke="#0C447C" stroke-width="0.55" opacity="0.16"/><polygon points="1098.0,281.2 1097.1,262.3 1114.0,270.9" fill="none" stroke="#0C447C" stroke-width="0.55" opacity="0.16"/><polygon points="1111.4,266.1 1113.9,247.2 1128.9,258.8" fill="none" stroke="#0C447C" stroke-width="0.55" opacity="0.16"/><polygon points="1094.9,319.5 1058.1,300.7 1092.8,278.3" fill="none" stroke="#97C459" stroke-width="0.77" opacity="0.23"/><polygon points="1083.4,319.3 1082.4,300.3 1099.3,308.9" fill="none" stroke="#0C447C" stroke-width="0.55" opacity="0.16"/><polygon points="1063.4,308.8 1065.8,290.0 1080.9,301.5" fill="none" stroke="#0C447C" stroke-width="0.55" opacity="0.16"/><polygon points="1079.2,296.3 1085.0,278.2 1097.8,292.2" fill="none" stroke="#0C447C" stroke-width="0.55" opacity="0.16"/><polygon points="1080.8,277.8 1048.0,252.7 1086.1,236.9" fill="none" stroke="#97C459" stroke-width="0.77" opacity="0.23"/><polygon points="1069.6,275.5 1072.0,256.7 1087.1,268.2" fill="none" stroke="#0C447C" stroke-width="0.55" opacity="0.16"/><polygon points="1051.7,261.6 1057.5,243.5 1070.3,257.6" fill="none" stroke="#0C447C" stroke-width="0.55" opacity="0.16"/><polygon points="1069.6,252.1 1078.5,235.4 1088.6,251.5" fill="none" stroke="#0C447C" stroke-width="0.55" opacity="0.16"/><polygon points="1044.2,261.1 968.9,309.8 964.3,220.2" fill="none" stroke="#ED93B1" stroke-width="0.99" opacity="0.30"/><polygon points="1031.3,282.4 994.6,263.6 1029.2,241.2" fill="none" stroke="#97C459" stroke-width="0.77" opacity="0.23"/><polygon points="1019.8,282.1 1018.9,263.2 1035.8,271.8" fill="none" stroke="#0C447C" stroke-width="0.55" opacity="0.16"/><polygon points="999.8,271.7 1002.2,252.8 1017.3,264.4" fill="none" stroke="#0C447C" stroke-width="0.55" opacity="0.16"/><polygon points="1015.7,259.1 1021.5,241.0 1034.2,255.1" fill="none" stroke="#0C447C" stroke-width="0.55" opacity="0.16"/><polygon points="989.8,308.7 957.0,283.7 995.2,267.8" fill="none" stroke="#97C459" stroke-width="0.77" opacity="0.23"/><polygon points="978.6,306.4 981.0,287.6 996.1,299.2" fill="none" stroke="#0C447C" stroke-width="0.55" opacity="0.16"/><polygon points="960.7,292.6 966.5,274.5 979.3,288.5" fill="none" stroke="#0C447C" stroke-width="0.55" opacity="0.16"/><polygon points="978.6,283.1 987.5,266.3 997.6,282.4" fill="none" stroke="#0C447C" stroke-width="0.55" opacity="0.16"/><polygon points="983.5,265.2 955.7,234.7 996.0,225.9" fill="none" stroke="#97C459" stroke-width="0.77" opacity="0.23"/><polygon points="972.8,260.9 978.6,242.9 991.4,256.9" fill="none" stroke="#0C447C" stroke-width="0.55" opacity="0.16"/><polygon points="957.8,244.1 966.7,227.3 976.7,243.4" fill="none" stroke="#0C447C" stroke-width="0.55" opacity="0.16"/><polygon points="977.0,237.9 988.8,223.1 995.8,240.7" fill="none" stroke="#0C447C" stroke-width="0.55" opacity="0.16"/><polygon points="1356.0,325.6 1202.0,221.4 1369.3,140.1" fill="none" stroke="#E2B127" stroke-width="1.21" opacity="0.37"/><polygon points="1304.9,318.2 1311.0,232.9 1381.8,280.8" fill="none" stroke="#ED93B1" stroke-width="0.99" opacity="0.30"/><polygon points="1296.0,296.1 1331.4,278.9 1328.6,318.2" fill="none" stroke="#97C459" stroke-width="0.77" opacity="0.23"/><polygon points="1302.8,287.6 1317.8,297.7 1301.5,305.6" fill="none" stroke="#0C447C" stroke-width="0.55" opacity="0.16"/><polygon points="1322.3,278.3 1335.2,291.0 1317.8,295.8" fill="none" stroke="#0C447C" stroke-width="0.55" opacity="0.16"/><polygon points="1322.7,297.6 1333.2,312.4 1315.1,314.0" fill="none" stroke="#0C447C" stroke-width="0.55" opacity="0.16"/><polygon points="1299.7,249.4 1337.7,238.8 1327.9,277.0" fill="none" stroke="#97C459" stroke-width="0.77" opacity="0.23"/><polygon points="1307.9,242.2 1320.9,254.9 1303.4,259.7" fill="none" stroke="#0C447C" stroke-width="0.55" opacity="0.16"/><polygon points="1328.7,236.6 1339.2,251.3 1321.2,253.0" fill="none" stroke="#0C447C" stroke-width="0.55" opacity="0.16"/><polygon points="1325.7,255.6 1333.4,272.0 1315.3,270.4" fill="none" stroke="#0C447C" stroke-width="0.55" opacity="0.16"/><polygon points="1336.5,269.6 1375.7,265.9 1359.3,301.7" fill="none" stroke="#97C459" stroke-width="0.77" opacity="0.23"/><polygon points="1345.9,263.9 1356.4,278.7 1338.3,280.4" fill="none" stroke="#0C447C" stroke-width="0.55" opacity="0.16"/><polygon points="1367.4,262.1 1375.0,278.5 1357.0,276.9" fill="none" stroke="#0C447C" stroke-width="0.55" opacity="0.16"/><polygon points="1361.0,280.3 1365.6,297.8 1348.1,293.0" fill="none" stroke="#0C447C" stroke-width="0.55" opacity="0.16"/><polygon points="1221.0,260.5 1242.2,177.6 1303.4,237.5" fill="none" stroke="#ED93B1" stroke-width="0.99" opacity="0.30"/><polygon points="1216.2,237.2 1254.1,226.6 1244.4,264.7" fill="none" stroke="#97C459" stroke-width="0.77" opacity="0.23"/><polygon points="1224.4,229.9 1237.4,242.6 1219.9,247.5" fill="none" stroke="#0C447C" stroke-width="0.55" opacity="0.16"/><polygon points="1245.2,224.3 1255.7,239.1 1237.7,240.8" fill="none" stroke="#0C447C" stroke-width="0.55" opacity="0.16"/><polygon points="1242.2,243.4 1249.9,259.8 1231.8,258.2" fill="none" stroke="#0C447C" stroke-width="0.55" opacity="0.16"/><polygon points="1228.2,191.9 1267.4,188.3 1251.0,224.0" fill="none" stroke="#97C459" stroke-width="0.77" opacity="0.23"/><polygon points="1237.6,186.2 1248.0,201.0 1230.0,202.7" fill="none" stroke="#0C447C" stroke-width="0.55" opacity="0.16"/><polygon points="1259.1,184.4 1266.7,200.8 1248.7,199.2" fill="none" stroke="#0C447C" stroke-width="0.55" opacity="0.16"/><polygon points="1252.7,202.6 1257.3,220.1 1239.8,215.4" fill="none" stroke="#0C447C" stroke-width="0.55" opacity="0.16"/><polygon points="1260.8,218.3 1300.0,221.7 1277.5,254.0" fill="none" stroke="#97C459" stroke-width="0.77" opacity="0.23"/><polygon points="1271.1,214.4 1278.7,230.8 1260.7,229.2" fill="none" stroke="#0C447C" stroke-width="0.55" opacity="0.16"/><polygon points="1292.5,216.4 1297.1,234.0 1279.6,229.2" fill="none" stroke="#0C447C" stroke-width="0.55" opacity="0.16"/><polygon points="1283.0,233.2 1284.3,251.3 1268.0,243.4" fill="none" stroke="#0C447C" stroke-width="0.55" opacity="0.16"/><polygon points="1298.8,213.1 1334.6,135.3 1384.1,205.2" fill="none" stroke="#ED93B1" stroke-width="0.99" opacity="0.30"/><polygon points="1298.4,189.3 1337.6,185.7 1321.1,221.4" fill="none" stroke="#97C459" stroke-width="0.77" opacity="0.23"/><polygon points="1307.7,183.6 1318.2,198.4 1300.2,200.1" fill="none" stroke="#0C447C" stroke-width="0.55" opacity="0.16"/><polygon points="1329.2,181.8 1336.8,198.2 1318.8,196.7" fill="none" stroke="#0C447C" stroke-width="0.55" opacity="0.16"/><polygon points="1322.8,200.0 1327.4,217.6 1309.9,212.8" fill="none" stroke="#0C447C" stroke-width="0.55" opacity="0.16"/><polygon points="1318.3,146.9 1357.5,150.3 1334.9,182.6" fill="none" stroke="#97C459" stroke-width="0.77" opacity="0.23"/><polygon points="1328.5,143.0 1336.1,159.4 1318.1,157.8" fill="none" stroke="#0C447C" stroke-width="0.55" opacity="0.16"/><polygon points="1350.0,145.1 1354.5,162.6 1337.1,157.8" fill="none" stroke="#0C447C" stroke-width="0.55" opacity="0.16"/><polygon points="1340.4,161.8 1341.8,179.9 1325.5,172.0" fill="none" stroke="#0C447C" stroke-width="0.55" opacity="0.16"/><polygon points="1345.6,178.7 1383.6,189.1 1355.6,216.8" fill="none" stroke="#97C459" stroke-width="0.77" opacity="0.23"/><polygon points="1356.4,176.7 1361.0,194.2 1343.5,189.4" fill="none" stroke="#0C447C" stroke-width="0.55" opacity="0.16"/><polygon points="1377.1,182.6 1378.5,200.6 1362.2,192.8" fill="none" stroke="#0C447C" stroke-width="0.55" opacity="0.16"/><polygon points="1364.7,197.4 1362.9,215.4 1348.2,204.7" fill="none" stroke="#0C447C" stroke-width="0.55" opacity="0.16"/></g>
  <path d="M70 291.195 C364.976 90.788, 574.904 320.888, 793.752 205.368 S1201.016 131.828, 1510 284.612" fill="none" stroke="#97C459" stroke-width="7" stroke-linecap="round" opacity=".34"/>
  <path d="M70 291.195 C364.976 90.788, 574.904 320.888, 793.752 205.368 S1201.016 131.828, 1510 284.612" fill="none" stroke="#ED93B1" stroke-width="1.1" stroke-dasharray="11 16" stroke-linecap="round" opacity=".78"/>
  <g stroke="#E2B127" stroke-width="2.2" fill="none" opacity=".74" transform="rotate(0.56 1159.1 186.5)"><polygon points="1273.7,189.5 1267.1,224.8 1250.0,256.3 1224.0,280.9 1191.6,296.4 1156.1,301.0 1120.8,294.5 1089.3,277.4 1064.6,251.3 1049.2,219.0 1044.6,183.4 1051.1,148.2 1068.2,116.7 1094.3,92.0 1126.6,76.6 1162.2,71.9 1197.4,78.5 1228.9,95.6 1253.6,121.6 1269.0,154.0"/><polygon points="1217.7,197.4 1211.5,214.9 1200.1,229.7 1184.7,240.3 1166.9,245.6 1148.2,245.1 1130.7,238.8 1115.9,227.5 1105.3,212.1 1100.0,194.2 1100.5,175.6 1106.8,158.0 1118.1,143.2 1133.5,132.7 1151.4,127.4 1170.0,127.9 1187.6,134.1 1202.4,145.5 1212.9,160.9 1218.2,178.7"/><line x1="1273.7" y1="189.5" x2="1217.7" y2="197.4"/><line x1="1217.7" y1="197.4" x2="1267.1" y2="224.8"/><line x1="1267.1" y1="224.8" x2="1211.5" y2="214.9"/><line x1="1211.5" y1="214.9" x2="1250.0" y2="256.3"/><line x1="1250.0" y1="256.3" x2="1200.1" y2="229.7"/><line x1="1200.1" y1="229.7" x2="1224.0" y2="280.9"/><line x1="1224.0" y1="280.9" x2="1184.7" y2="240.3"/><line x1="1184.7" y1="240.3" x2="1191.6" y2="296.4"/><line x1="1191.6" y1="296.4" x2="1166.9" y2="245.6"/><line x1="1166.9" y1="245.6" x2="1156.1" y2="301.0"/><line x1="1156.1" y1="301.0" x2="1148.2" y2="245.1"/><line x1="1148.2" y1="245.1" x2="1120.8" y2="294.5"/><line x1="1120.8" y1="294.5" x2="1130.7" y2="238.8"/><line x1="1130.7" y1="238.8" x2="1089.3" y2="277.4"/><line x1="1089.3" y1="277.4" x2="1115.9" y2="227.5"/><line x1="1115.9" y1="227.5" x2="1064.6" y2="251.3"/><line x1="1064.6" y1="251.3" x2="1105.3" y2="212.1"/><line x1="1105.3" y1="212.1" x2="1049.2" y2="219.0"/><line x1="1049.2" y1="219.0" x2="1100.0" y2="194.2"/><line x1="1100.0" y1="194.2" x2="1044.6" y2="183.4"/><line x1="1044.6" y1="183.4" x2="1100.5" y2="175.6"/><line x1="1100.5" y1="175.6" x2="1051.1" y2="148.2"/><line x1="1051.1" y1="148.2" x2="1106.8" y2="158.0"/><line x1="1106.8" y1="158.0" x2="1068.2" y2="116.7"/><line x1="1068.2" y1="116.7" x2="1118.1" y2="143.2"/><line x1="1118.1" y1="143.2" x2="1094.3" y2="92.0"/><line x1="1094.3" y1="92.0" x2="1133.5" y2="132.7"/><line x1="1133.5" y1="132.7" x2="1126.6" y2="76.6"/><line x1="1126.6" y1="76.6" x2="1151.4" y2="127.4"/><line x1="1151.4" y1="127.4" x2="1162.2" y2="71.9"/><line x1="1162.2" y1="71.9" x2="1170.0" y2="127.9"/><line x1="1170.0" y1="127.9" x2="1197.4" y2="78.5"/><line x1="1197.4" y1="78.5" x2="1187.6" y2="134.1"/><line x1="1187.6" y1="134.1" x2="1228.9" y2="95.6"/><line x1="1228.9" y1="95.6" x2="1202.4" y2="145.5"/><line x1="1202.4" y1="145.5" x2="1253.6" y2="121.6"/><line x1="1253.6" y1="121.6" x2="1212.9" y2="160.9"/><line x1="1212.9" y1="160.9" x2="1269.0" y2="154.0"/><line x1="1269.0" y1="154.0" x2="1218.2" y2="178.7"/><line x1="1218.2" y1="178.7" x2="1273.7" y2="189.5"/></g>
  <g><polygon points="145.4,192.1 122.2,206.7 100.5,178.2 122.2,159.6 133.1,161.6" fill="#97C459" opacity="0.27"/><polygon points="315.9,127.5 297.1,139.9 289.9,137.0 285.0,114.7 303.1,106.7 312.1,111.9" fill="#ED93B1" opacity="0.30"/><polygon points="469.9,161.6 464.6,164.6 445.5,166.0 425.0,144.1 446.0,110.7 472.8,117.8 481.6,137.7" fill="#E2B127" opacity="0.26"/><polygon points="588.2,227.5 567.4,230.0 558.9,217.8 572.2,197.8 592.9,210.1" fill="#0C447C" opacity="0.17"/><polygon points="708.7,302.1 701.8,307.2 667.5,300.3 667.1,264.7 681.7,255.1 716.7,278.2" fill="#97C459" opacity="0.24"/><polygon points="838.3,282.3 831.7,292.6 811.8,293.5 803.9,281.8 811.7,263.7 832.3,265.0 838.7,277.8" fill="#ED93B1" opacity="0.32"/><polygon points="998.2,216.0 986.2,223.5 971.0,216.5 974.5,194.3 992.4,193.0" fill="#E2B127" opacity="0.26"/><polygon points="1189.2,145.7 1160.2,163.5 1134.6,145.0 1136.5,118.8 1165.7,104.5 1188.3,120.1" fill="#0C447C" opacity="0.20"/><polygon points="1335.9,139.8 1323.0,144.2 1312.8,140.4 1306.6,131.8 1311.7,112.2 1329.6,108.4 1339.6,116.3" fill="#97C459" opacity="0.28"/><polygon points="1472.8,193.1 1445.6,206.5 1436.4,188.8 1442.6,176.8 1470.3,181.1" fill="#ED93B1" opacity="0.27"/></g>
  <g><rect x="91.6" y="41.7" width="29.9" height="11.5" fill="#0C447C" opacity="0.10"/><rect x="211.7" y="101.2" width="57.6" height="10.7" fill="#97C459" opacity="0.31"/><rect x="303.5" y="198.5" width="71.7" height="3.7" fill="#ED93B1" opacity="0.32"/><rect x="395.8" y="285.2" width="34.4" height="3.5" fill="#E2B127" opacity="0.15"/><rect x="500.9" y="87.4" width="96.5" height="11.6" fill="#0C447C" opacity="0.13"/><rect x="602.4" y="152.1" width="53.8" height="4.6" fill="#97C459" opacity="0.15"/><rect x="713.5" y="130.5" width="77.2" height="9.3" fill="#ED93B1" opacity="0.23"/><rect x="832.9" y="94.2" width="24.4" height="14.6" fill="#E2B127" opacity="0.14"/><rect x="927.1" y="163.7" width="93.4" height="11.2" fill="#0C447C" opacity="0.27"/><rect x="1039.8" y="308.4" width="83.9" height="12.6" fill="#97C459" opacity="0.11"/><rect x="1135.1" y="179.3" width="56.2" height="8.3" fill="#ED93B1" opacity="0.21"/><rect x="1238.2" y="130.2" width="97.0" height="14.2" fill="#E2B127" opacity="0.13"/><rect x="1333.2" y="202.1" width="78.9" height="10.2" fill="#0C447C" opacity="0.28"/><rect x="1455.6" y="119.7" width="31.2" height="13.6" fill="#97C459" opacity="0.17"/></g>
  <rect width="1600" height="360" filter="url(#grain-515501934)" opacity=".85"/>
</svg>
