<svg xmlns="http://www.w3.org/2000/svg" viewBox="0 0 1600 360" role="img" aria-labelledby="title-917544943 desc-917544943">
  <title id="title-917544943">Generative page artwork</title>
  <desc id="desc-917544943">Platonic-solid, fractal, opt-art, glitch, and organic dialogue geometry for /lessons/en/modals/demo/01-css-modal.html.</desc>
  <defs>
    <filter id="grain-917544943" x="-10%" y="-10%" width="120%" height="120%">
      <feTurbulence type="fractalNoise" baseFrequency="0.77" numOctaves="2" seed="858" result="noise"/>
      <feColorMatrix in="noise" type="saturate" values="0"/>
      <feComponentTransfer><feFuncA type="table" tableValues="0 .16"/></feComponentTransfer>
    </filter>
  </defs>
  <rect width="1600" height="360" fill="#050816"/>
  <rect width="1600" height="360" fill="#D85A30" opacity=".10"/>
  <g fill="none" stroke="#534AB7" stroke-width="1.2" opacity=".58"><polygon points="243.6,235.7 133.4,126.1 283.3,85.5" fill="none" stroke="#D85A30" stroke-width="1.21" opacity="0.37"/><polygon points="202.7,221.6 221.0,152.6 271.7,202.9" fill="none" stroke="#FAC775" stroke-width="0.99" opacity="0.30"/><polygon points="198.9,202.1 230.7,193.6 222.3,225.3" fill="none" stroke="#5DCAA5" stroke-width="0.77" opacity="0.23"/><polygon points="205.8,196.2 216.6,206.8 202.0,210.8" fill="none" stroke="#534AB7" stroke-width="0.55" opacity="0.16"/><polygon points="223.2,191.6 231.9,204.0 216.8,205.3" fill="none" stroke="#534AB7" stroke-width="0.55" opacity="0.16"/><polygon points="220.6,207.5 226.9,221.2 211.8,219.8" fill="none" stroke="#534AB7" stroke-width="0.55" opacity="0.16"/><polygon points="209.3,164.4 242.0,161.6 228.0,191.4" fill="none" stroke="#5DCAA5" stroke-width="0.77" opacity="0.23"/><polygon points="217.1,159.7 225.8,172.2 210.7,173.4" fill="none" stroke="#534AB7" stroke-width="0.55" opacity="0.16"/><polygon points="235.1,158.4 241.3,172.1 226.3,170.7" fill="none" stroke="#534AB7" stroke-width="0.55" opacity="0.16"/><polygon points="229.6,173.5 233.3,188.2 218.8,184.1" fill="none" stroke="#534AB7" stroke-width="0.55" opacity="0.16"/><polygon points="236.3,186.7 269.0,189.8 250.0,216.6" fill="none" stroke="#5DCAA5" stroke-width="0.77" opacity="0.23"/><polygon points="244.9,183.5 251.2,197.2 236.1,195.8" fill="none" stroke="#534AB7" stroke-width="0.55" opacity="0.16"/><polygon points="262.8,185.3 266.5,200.0 251.9,195.9" fill="none" stroke="#534AB7" stroke-width="0.55" opacity="0.16"/><polygon points="254.7,199.3 255.7,214.4 242.2,207.7" fill="none" stroke="#534AB7" stroke-width="0.55" opacity="0.16"/><polygon points="142.9,161.2 173.3,96.5 214.1,155.2" fill="none" stroke="#FAC775" stroke-width="0.99" opacity="0.30"/><polygon points="142.7,141.3 175.4,138.6 161.4,168.3" fill="none" stroke="#5DCAA5" stroke-width="0.77" opacity="0.23"/><polygon points="150.5,136.7 159.2,149.1 144.1,150.4" fill="none" stroke="#534AB7" stroke-width="0.55" opacity="0.16"/><polygon points="168.5,135.3 174.7,149.0 159.7,147.6" fill="none" stroke="#534AB7" stroke-width="0.55" opacity="0.16"/><polygon points="163.0,150.5 166.7,165.1 152.2,161.0" fill="none" stroke="#534AB7" stroke-width="0.55" opacity="0.16"/><polygon points="159.6,106.1 192.3,109.2 173.2,136.0" fill="none" stroke="#5DCAA5" stroke-width="0.77" opacity="0.23"/><polygon points="168.1,102.9 174.4,116.6 159.4,115.2" fill="none" stroke="#534AB7" stroke-width="0.55" opacity="0.16"/><polygon points="186.0,104.7 189.7,119.4 175.2,115.3" fill="none" stroke="#534AB7" stroke-width="0.55" opacity="0.16"/><polygon points="178.0,118.7 179.0,133.8 165.4,127.1" fill="none" stroke="#534AB7" stroke-width="0.55" opacity="0.16"/><polygon points="182.2,132.8 213.8,141.7 190.3,164.6" fill="none" stroke="#5DCAA5" stroke-width="0.77" opacity="0.23"/><polygon points="191.2,131.2 194.9,145.8 180.4,141.7" fill="none" stroke="#534AB7" stroke-width="0.55" opacity="0.16"/><polygon points="208.5,136.2 209.5,151.3 195.9,144.6" fill="none" stroke="#534AB7" stroke-width="0.55" opacity="0.16"/><polygon points="198.0,148.5 196.4,163.5 184.2,154.5" fill="none" stroke="#534AB7" stroke-width="0.55" opacity="0.16"/><polygon points="214.2,134.4 255.7,76.3 285.3,141.2" fill="none" stroke="#FAC775" stroke-width="0.99" opacity="0.30"/><polygon points="217.5,114.9 250.2,118.0 231.2,144.8" fill="none" stroke="#5DCAA5" stroke-width="0.77" opacity="0.23"/><polygon points="226.1,111.7 232.3,125.4 217.3,124.0" fill="none" stroke="#534AB7" stroke-width="0.55" opacity="0.16"/><polygon points="244.0,113.5 247.7,128.2 233.1,124.1" fill="none" stroke="#534AB7" stroke-width="0.55" opacity="0.16"/><polygon points="235.9,127.5 236.9,142.6 223.4,135.9" fill="none" stroke="#534AB7" stroke-width="0.55" opacity="0.16"/><polygon points="240.5,83.2 272.1,92.1 248.5,115.0" fill="none" stroke="#5DCAA5" stroke-width="0.77" opacity="0.23"/><polygon points="249.5,81.6 253.2,96.2 238.6,92.1" fill="none" stroke="#534AB7" stroke-width="0.55" opacity="0.16"/><polygon points="266.7,86.6 267.8,101.7 254.2,95.0" fill="none" stroke="#534AB7" stroke-width="0.55" opacity="0.16"/><polygon points="256.3,98.9 254.6,113.9 242.4,104.9" fill="none" stroke="#534AB7" stroke-width="0.55" opacity="0.16"/><polygon points="257.9,113.5 287.5,128.0 260.2,146.3" fill="none" stroke="#5DCAA5" stroke-width="0.77" opacity="0.23"/><polygon points="267.1,113.6 268.1,128.7 254.5,122.0" fill="none" stroke="#534AB7" stroke-width="0.55" opacity="0.16"/><polygon points="283.2,121.6 281.5,136.6 269.3,127.7" fill="none" stroke="#534AB7" stroke-width="0.55" opacity="0.16"/><polygon points="270.7,131.8 266.4,146.3 256.0,135.3" fill="none" stroke="#534AB7" stroke-width="0.55" opacity="0.16"/><polygon points="573.0,79.8 495.6,272.2 367.7,109.0" fill="none" stroke="#D85A30" stroke-width="1.21" opacity="0.37"/><polygon points="576.9,137.3 482.5,150.7 518.1,62.2" fill="none" stroke="#FAC775" stroke-width="0.99" opacity="0.30"/><polygon points="555.0,152.1 527.9,117.6 571.3,111.4" fill="none" stroke="#5DCAA5" stroke-width="0.77" opacity="0.23"/><polygon points="544.0,146.7 551.5,128.0 564.0,143.9" fill="none" stroke="#534AB7" stroke-width="0.55" opacity="0.16"/><polygon points="529.3,127.7 540.1,110.6 549.5,128.5" fill="none" stroke="#534AB7" stroke-width="0.55" opacity="0.16"/><polygon points="550.3,122.7 563.9,107.8 570.0,127.1" fill="none" stroke="#534AB7" stroke-width="0.55" opacity="0.16"/><polygon points="503.2,159.0 482.7,120.2 526.6,121.9" fill="none" stroke="#5DCAA5" stroke-width="0.77" opacity="0.23"/><polygon points="493.4,151.8 504.1,134.7 513.5,152.6" fill="none" stroke="#534AB7" stroke-width="0.55" opacity="0.16"/><polygon points="482.3,130.5 496.0,115.6 502.0,134.8" fill="none" stroke="#534AB7" stroke-width="0.55" opacity="0.16"/><polygon points="503.8,129.3 519.9,117.1 522.4,137.1" fill="none" stroke="#534AB7" stroke-width="0.55" opacity="0.16"/><polygon points="516.5,114.2 503.3,72.3 546.1,81.9" fill="none" stroke="#5DCAA5" stroke-width="0.77" opacity="0.23"/><polygon points="508.1,105.3 521.8,90.5 527.8,109.7" fill="none" stroke="#534AB7" stroke-width="0.55" opacity="0.16"/><polygon points="501.1,82.4 517.2,70.2 519.7,90.2" fill="none" stroke="#534AB7" stroke-width="0.55" opacity="0.16"/><polygon points="522.4,85.0 540.4,75.9 539.3,96.1" fill="none" stroke="#534AB7" stroke-width="0.55" opacity="0.16"/><polygon points="533.7,242.3 438.4,238.6 489.3,157.9" fill="none" stroke="#FAC775" stroke-width="0.99" opacity="0.30"/><polygon points="509.5,252.9 489.0,214.1 532.9,215.8" fill="none" stroke="#5DCAA5" stroke-width="0.77" opacity="0.23"/><polygon points="499.7,245.7 510.4,228.6 519.8,246.5" fill="none" stroke="#534AB7" stroke-width="0.55" opacity="0.16"/><polygon points="488.6,224.4 502.3,209.5 508.3,228.7" fill="none" stroke="#534AB7" stroke-width="0.55" opacity="0.16"/><polygon points="510.1,223.2 526.2,211.0 528.7,231.0" fill="none" stroke="#534AB7" stroke-width="0.55" opacity="0.16"/><polygon points="457.3,250.5 444.1,208.6 487.0,218.2" fill="none" stroke="#5DCAA5" stroke-width="0.77" opacity="0.23"/><polygon points="448.9,241.6 462.6,226.8 468.6,246.0" fill="none" stroke="#534AB7" stroke-width="0.55" opacity="0.16"/><polygon points="441.9,218.6 458.0,206.5 460.5,226.5" fill="none" stroke="#534AB7" stroke-width="0.55" opacity="0.16"/><polygon points="463.2,221.3 481.3,212.2 480.1,232.4" fill="none" stroke="#534AB7" stroke-width="0.55" opacity="0.16"/><polygon points="478.4,208.8 472.9,165.2 513.4,182.3" fill="none" stroke="#5DCAA5" stroke-width="0.77" opacity="0.23"/><polygon points="471.7,198.5 487.8,186.3 490.3,206.4" fill="none" stroke="#534AB7" stroke-width="0.55" opacity="0.16"/><polygon points="468.9,174.7 487.0,165.6 485.8,185.7" fill="none" stroke="#534AB7" stroke-width="0.55" opacity="0.16"/><polygon points="489.5,181.1 508.8,175.4 504.1,195.0" fill="none" stroke="#534AB7" stroke-width="0.55" opacity="0.16"/><polygon points="463.8,168.6 370.7,147.8 435.2,77.6" fill="none" stroke="#FAC775" stroke-width="0.99" opacity="0.30"/><polygon points="438.0,174.7 424.8,132.8 467.7,142.3" fill="none" stroke="#5DCAA5" stroke-width="0.77" opacity="0.23"/><polygon points="429.6,165.8 443.3,150.9 449.3,170.2" fill="none" stroke="#534AB7" stroke-width="0.55" opacity="0.16"/><polygon points="422.6,142.8 438.7,130.6 441.2,150.7" fill="none" stroke="#534AB7" stroke-width="0.55" opacity="0.16"/><polygon points="443.9,145.5 461.9,136.4 460.8,156.5" fill="none" stroke="#534AB7" stroke-width="0.55" opacity="0.16"/><polygon points="387.1,162.9 381.6,119.4 422.1,136.4" fill="none" stroke="#5DCAA5" stroke-width="0.77" opacity="0.23"/><polygon points="380.4,152.7 396.5,140.5 399.0,160.5" fill="none" stroke="#534AB7" stroke-width="0.55" opacity="0.16"/><polygon points="377.6,128.8 395.7,119.7 394.5,139.9" fill="none" stroke="#534AB7" stroke-width="0.55" opacity="0.16"/><polygon points="398.2,135.3 417.5,129.6 412.8,149.2" fill="none" stroke="#534AB7" stroke-width="0.55" opacity="0.16"/><polygon points="415.3,125.7 417.7,81.8 454.5,105.8" fill="none" stroke="#5DCAA5" stroke-width="0.77" opacity="0.23"/><polygon points="410.6,114.4 428.6,105.3 427.5,125.4" fill="none" stroke="#534AB7" stroke-width="0.55" opacity="0.16"/><polygon points="412.1,90.4 431.5,84.7 426.8,104.3" fill="none" stroke="#534AB7" stroke-width="0.55" opacity="0.16"/><polygon points="431.2,100.4 451.2,98.3 443.1,116.7" fill="none" stroke="#534AB7" stroke-width="0.55" opacity="0.16"/><polygon points="781.9,60.6 832.5,177.3 706.2,162.8" fill="none" stroke="#D85A30" stroke-width="1.21" opacity="0.37"/><polygon points="808.7,83.7 773.9,130.7 750.6,77.0" fill="none" stroke="#FAC775" stroke-width="0.99" opacity="0.30"/><polygon points="805.7,99.6 779.0,96.6 795.0,75.0" fill="none" stroke="#5DCAA5" stroke-width="0.77" opacity="0.23"/><polygon points="798.7,102.1 793.7,90.8 806.0,92.2" fill="none" stroke="#534AB7" stroke-width="0.55" opacity="0.16"/><polygon points="784.0,100.3 781.2,88.3 793.1,91.9" fill="none" stroke="#534AB7" stroke-width="0.55" opacity="0.16"/><polygon points="790.9,89.0 790.2,76.7 801.3,82.3" fill="none" stroke="#534AB7" stroke-width="0.55" opacity="0.16"/><polygon points="786.4,125.2 760.7,117.4 780.3,99.0" fill="none" stroke="#5DCAA5" stroke-width="0.77" opacity="0.23"/><polygon points="779.1,126.4 776.2,114.3 788.1,117.9" fill="none" stroke="#534AB7" stroke-width="0.55" opacity="0.16"/><polygon points="765.0,122.0 764.4,109.6 775.4,115.3" fill="none" stroke="#534AB7" stroke-width="0.55" opacity="0.16"/><polygon points="773.7,112.1 775.3,99.8 785.2,107.4" fill="none" stroke="#534AB7" stroke-width="0.55" opacity="0.16"/><polygon points="772.6,100.1 748.7,87.8 771.3,73.2" fill="none" stroke="#5DCAA5" stroke-width="0.77" opacity="0.23"/><polygon points="765.1,99.9 764.5,87.6 775.5,93.2" fill="none" stroke="#534AB7" stroke-width="0.55" opacity="0.16"/><polygon points="752.1,93.1 753.7,80.8 763.5,88.4" fill="none" stroke="#534AB7" stroke-width="0.55" opacity="0.16"/><polygon points="762.4,84.9 766.2,73.2 774.5,82.3" fill="none" stroke="#534AB7" stroke-width="0.55" opacity="0.16"/><polygon points="835.9,147.8 793.2,187.7 779.9,130.8" fill="none" stroke="#FAC775" stroke-width="0.99" opacity="0.30"/><polygon points="830.1,162.9 804.4,155.1 824.0,136.7" fill="none" stroke="#5DCAA5" stroke-width="0.77" opacity="0.23"/><polygon points="822.7,164.1 819.9,152.0 831.7,155.6" fill="none" stroke="#534AB7" stroke-width="0.55" opacity="0.16"/><polygon points="808.7,159.7 808.0,147.4 819.1,153.0" fill="none" stroke="#534AB7" stroke-width="0.55" opacity="0.16"/><polygon points="817.4,149.8 819.0,137.6 828.8,145.1" fill="none" stroke="#534AB7" stroke-width="0.55" opacity="0.16"/><polygon points="806.6,184.6 782.6,172.4 805.2,157.8" fill="none" stroke="#5DCAA5" stroke-width="0.77" opacity="0.23"/><polygon points="799.1,184.5 798.5,172.1 809.5,177.8" fill="none" stroke="#534AB7" stroke-width="0.55" opacity="0.16"/><polygon points="786.0,177.6 787.6,165.4 797.5,172.9" fill="none" stroke="#534AB7" stroke-width="0.55" opacity="0.16"/><polygon points="796.4,169.5 800.2,157.7 808.5,166.9" fill="none" stroke="#534AB7" stroke-width="0.55" opacity="0.16"/><polygon points="797.4,157.5 776.1,141.1 800.9,130.8" fill="none" stroke="#5DCAA5" stroke-width="0.77" opacity="0.23"/><polygon points="790.1,156.0 791.7,143.7 801.6,151.2" fill="none" stroke="#534AB7" stroke-width="0.55" opacity="0.16"/><polygon points="778.5,146.9 782.3,135.1 790.6,144.3" fill="none" stroke="#534AB7" stroke-width="0.55" opacity="0.16"/><polygon points="790.2,140.7 796.0,129.8 802.5,140.3" fill="none" stroke="#534AB7" stroke-width="0.55" opacity="0.16"/><polygon points="773.6,146.5 724.5,178.2 721.6,119.8" fill="none" stroke="#FAC775" stroke-width="0.99" opacity="0.30"/><polygon points="765.2,160.4 741.2,148.1 763.8,133.5" fill="none" stroke="#5DCAA5" stroke-width="0.77" opacity="0.23"/><polygon points="757.7,160.2 757.1,147.9 768.1,153.5" fill="none" stroke="#534AB7" stroke-width="0.55" opacity="0.16"/><polygon points="744.6,153.4 746.2,141.1 756.1,148.7" fill="none" stroke="#534AB7" stroke-width="0.55" opacity="0.16"/><polygon points="755.0,145.2 758.8,133.4 767.1,142.6" fill="none" stroke="#534AB7" stroke-width="0.55" opacity="0.16"/><polygon points="738.1,177.5 716.8,161.2 741.6,150.9" fill="none" stroke="#5DCAA5" stroke-width="0.77" opacity="0.23"/><polygon points="730.8,176.0 732.4,163.8 742.2,171.3" fill="none" stroke="#534AB7" stroke-width="0.55" opacity="0.16"/><polygon points="719.2,167.0 723.0,155.2 731.3,164.4" fill="none" stroke="#534AB7" stroke-width="0.55" opacity="0.16"/><polygon points="730.8,160.8 736.7,149.9 743.2,160.4" fill="none" stroke="#534AB7" stroke-width="0.55" opacity="0.16"/><polygon points="734.0,149.2 715.9,129.2 742.2,123.6" fill="none" stroke="#5DCAA5" stroke-width="0.77" opacity="0.23"/><polygon points="727.1,146.4 730.9,134.6 739.2,143.8" fill="none" stroke="#534AB7" stroke-width="0.55" opacity="0.16"/><polygon points="717.3,135.4 723.1,124.5 729.6,135.0" fill="none" stroke="#534AB7" stroke-width="0.55" opacity="0.16"/><polygon points="729.8,131.4 737.5,121.7 742.1,133.2" fill="none" stroke="#534AB7" stroke-width="0.55" opacity="0.16"/><polygon points="1026.1,162.8 967.0,106.1 1045.6,83.3" fill="none" stroke="#D85A30" stroke-width="1.21" opacity="0.37"/><polygon points="1004.5,155.8 1013.4,119.2 1040.6,145.3" fill="none" stroke="#FAC775" stroke-width="0.99" opacity="0.30"/><polygon points="1002.3,145.5 1018.9,140.7 1014.8,157.5" fill="none" stroke="#5DCAA5" stroke-width="0.77" opacity="0.23"/><polygon points="1005.8,142.3 1011.6,147.8 1003.9,150.1" fill="none" stroke="#534AB7" stroke-width="0.55" opacity="0.16"/><polygon points="1015.0,139.7 1019.6,146.2 1011.7,147.0" fill="none" stroke="#534AB7" stroke-width="0.55" opacity="0.16"/><polygon points="1013.7,148.1 1017.2,155.3 1009.2,154.7" fill="none" stroke="#534AB7" stroke-width="0.55" opacity="0.16"/><polygon points="1007.4,125.6 1024.6,123.8 1017.5,139.6" fill="none" stroke="#5DCAA5" stroke-width="0.77" opacity="0.23"/><polygon points="1011.4,123.0 1016.1,129.5 1008.2,130.3" fill="none" stroke="#534AB7" stroke-width="0.55" opacity="0.16"/><polygon points="1020.9,122.1 1024.3,129.3 1016.4,128.7" fill="none" stroke="#534AB7" stroke-width="0.55" opacity="0.16"/><polygon points="1018.2,130.2 1020.3,137.9 1012.6,135.8" fill="none" stroke="#534AB7" stroke-width="0.55" opacity="0.16"/><polygon points="1021.8,137.0 1039.1,138.4 1029.3,152.7" fill="none" stroke="#5DCAA5" stroke-width="0.77" opacity="0.23"/><polygon points="1026.3,135.3 1029.7,142.5 1021.8,141.8" fill="none" stroke="#534AB7" stroke-width="0.55" opacity="0.16"/><polygon points="1035.8,136.1 1037.8,143.8 1030.1,141.7" fill="none" stroke="#534AB7" stroke-width="0.55" opacity="0.16"/><polygon points="1031.6,143.5 1032.3,151.4 1025.1,148.1" fill="none" stroke="#534AB7" stroke-width="0.55" opacity="0.16"/><polygon points="972.4,124.5 987.7,90.1 1009.8,120.6" fill="none" stroke="#FAC775" stroke-width="0.99" opacity="0.30"/><polygon points="972.0,114.0 989.3,112.3 982.2,128.1" fill="none" stroke="#5DCAA5" stroke-width="0.77" opacity="0.23"/><polygon points="976.1,111.5 980.8,118.0 972.9,118.8" fill="none" stroke="#534AB7" stroke-width="0.55" opacity="0.16"/><polygon points="985.6,110.6 989.0,117.8 981.1,117.2" fill="none" stroke="#534AB7" stroke-width="0.55" opacity="0.16"/><polygon points="982.8,118.7 984.9,126.3 977.2,124.3" fill="none" stroke="#534AB7" stroke-width="0.55" opacity="0.16"/><polygon points="980.6,95.3 997.9,96.6 988.1,110.9" fill="none" stroke="#5DCAA5" stroke-width="0.77" opacity="0.23"/><polygon points="985.1,93.5 988.5,100.7 980.6,100.1" fill="none" stroke="#534AB7" stroke-width="0.55" opacity="0.16"/><polygon points="994.5,94.3 996.6,102.0 988.9,100.0" fill="none" stroke="#534AB7" stroke-width="0.55" opacity="0.16"/><polygon points="990.4,101.8 991.1,109.7 983.9,106.3" fill="none" stroke="#534AB7" stroke-width="0.55" opacity="0.16"/><polygon points="992.8,109.2 1009.5,113.6 997.3,125.9" fill="none" stroke="#5DCAA5" stroke-width="0.77" opacity="0.23"/><polygon points="997.5,108.2 999.6,115.9 991.9,113.9" fill="none" stroke="#534AB7" stroke-width="0.55" opacity="0.16"/><polygon points="1006.7,110.7 1007.4,118.7 1000.1,115.3" fill="none" stroke="#534AB7" stroke-width="0.55" opacity="0.16"/><polygon points="1001.3,117.3 1000.5,125.2 994.0,120.6" fill="none" stroke="#534AB7" stroke-width="0.55" opacity="0.16"/><polygon points="1009.7,109.7 1031.0,78.7 1047.2,112.6" fill="none" stroke="#FAC775" stroke-width="0.99" opacity="0.30"/><polygon points="1011.2,99.4 1028.5,100.7 1018.7,115.0" fill="none" stroke="#5DCAA5" stroke-width="0.77" opacity="0.23"/><polygon points="1015.7,97.6 1019.1,104.8 1011.2,104.2" fill="none" stroke="#534AB7" stroke-width="0.55" opacity="0.16"/><polygon points="1025.2,98.4 1027.2,106.1 1019.5,104.1" fill="none" stroke="#534AB7" stroke-width="0.55" opacity="0.16"/><polygon points="1021.0,105.8 1021.7,113.8 1014.5,110.4" fill="none" stroke="#534AB7" stroke-width="0.55" opacity="0.16"/><polygon points="1023.0,82.5 1039.8,86.9 1027.6,99.2" fill="none" stroke="#5DCAA5" stroke-width="0.77" opacity="0.23"/><polygon points="1027.7,81.5 1029.8,89.2 1022.1,87.2" fill="none" stroke="#534AB7" stroke-width="0.55" opacity="0.16"/><polygon points="1036.9,84.0 1037.6,92.0 1030.4,88.6" fill="none" stroke="#534AB7" stroke-width="0.55" opacity="0.16"/><polygon points="1031.5,90.6 1030.8,98.5 1024.3,93.9" fill="none" stroke="#534AB7" stroke-width="0.55" opacity="0.16"/><polygon points="1032.5,98.3 1048.2,105.6 1034.0,115.5" fill="none" stroke="#5DCAA5" stroke-width="0.77" opacity="0.23"/><polygon points="1037.3,98.2 1038.0,106.2 1030.8,102.8" fill="none" stroke="#534AB7" stroke-width="0.55" opacity="0.16"/><polygon points="1045.9,102.3 1045.1,110.2 1038.6,105.6" fill="none" stroke="#534AB7" stroke-width="0.55" opacity="0.16"/><polygon points="1039.4,107.8 1037.3,115.5 1031.7,109.8" fill="none" stroke="#534AB7" stroke-width="0.55" opacity="0.16"/><polygon points="1271.4,228.3 1197.8,149.6 1302.7,125.2" fill="none" stroke="#D85A30" stroke-width="1.21" opacity="0.37"/><polygon points="1243.5,217.6 1257.9,170.1 1291.8,206.3" fill="none" stroke="#FAC775" stroke-width="0.99" opacity="0.30"/><polygon points="1241.3,204.0 1263.5,198.8 1256.9,220.6" fill="none" stroke="#5DCAA5" stroke-width="0.77" opacity="0.23"/><polygon points="1246.2,200.0 1253.4,207.6 1243.2,210.0" fill="none" stroke="#534AB7" stroke-width="0.55" opacity="0.16"/><polygon points="1258.4,197.2 1264.1,206.1 1253.6,206.6" fill="none" stroke="#534AB7" stroke-width="0.55" opacity="0.16"/><polygon points="1256.2,208.2 1260.2,217.9 1249.8,216.5" fill="none" stroke="#534AB7" stroke-width="0.55" opacity="0.16"/><polygon points="1249.4,178.0 1272.2,176.9 1261.8,197.2" fill="none" stroke="#5DCAA5" stroke-width="0.77" opacity="0.23"/><polygon points="1255.0,175.0 1260.6,183.8 1250.2,184.3" fill="none" stroke="#534AB7" stroke-width="0.55" opacity="0.16"/><polygon points="1267.4,174.5 1271.5,184.2 1261.1,182.8" fill="none" stroke="#534AB7" stroke-width="0.55" opacity="0.16"/><polygon points="1263.3,184.9 1265.5,195.1 1255.5,191.9" fill="none" stroke="#534AB7" stroke-width="0.55" opacity="0.16"/><polygon points="1267.6,194.1 1290.2,197.1 1276.3,215.2" fill="none" stroke="#5DCAA5" stroke-width="0.77" opacity="0.23"/><polygon points="1273.6,192.1 1277.6,201.8 1267.2,200.5" fill="none" stroke="#534AB7" stroke-width="0.55" opacity="0.16"/><polygon points="1286.0,193.9 1288.2,204.1 1278.2,200.9" fill="none" stroke="#534AB7" stroke-width="0.55" opacity="0.16"/><polygon points="1280.1,203.4 1280.4,213.8 1271.1,208.9" fill="none" stroke="#534AB7" stroke-width="0.55" opacity="0.16"/><polygon points="1203.5,174.2 1226.1,130.1 1253.0,171.7" fill="none" stroke="#FAC775" stroke-width="0.99" opacity="0.30"/><polygon points="1203.8,160.4 1226.6,159.3 1216.1,179.6" fill="none" stroke="#5DCAA5" stroke-width="0.77" opacity="0.23"/><polygon points="1209.3,157.3 1215.0,166.2 1204.5,166.7" fill="none" stroke="#534AB7" stroke-width="0.55" opacity="0.16"/><polygon points="1221.8,156.8 1225.8,166.5 1215.4,165.2" fill="none" stroke="#534AB7" stroke-width="0.55" opacity="0.16"/><polygon points="1217.7,167.2 1219.9,177.5 1209.9,174.3" fill="none" stroke="#534AB7" stroke-width="0.55" opacity="0.16"/><polygon points="1216.4,136.3 1239.0,139.3 1225.1,157.4" fill="none" stroke="#5DCAA5" stroke-width="0.77" opacity="0.23"/><polygon points="1222.4,134.3 1226.4,144.0 1216.0,142.7" fill="none" stroke="#534AB7" stroke-width="0.55" opacity="0.16"/><polygon points="1234.8,136.1 1237.0,146.3 1227.0,143.1" fill="none" stroke="#534AB7" stroke-width="0.55" opacity="0.16"/><polygon points="1228.8,145.5 1229.2,156.0 1219.9,151.1" fill="none" stroke="#534AB7" stroke-width="0.55" opacity="0.16"/><polygon points="1231.4,155.4 1253.1,162.4 1236.2,177.7" fill="none" stroke="#5DCAA5" stroke-width="0.77" opacity="0.23"/><polygon points="1237.7,154.5 1239.9,164.8 1229.9,161.6" fill="none" stroke="#534AB7" stroke-width="0.55" opacity="0.16"/><polygon points="1249.6,158.5 1249.9,169.0 1240.6,164.0" fill="none" stroke="#534AB7" stroke-width="0.55" opacity="0.16"/><polygon points="1242.0,166.7 1240.5,177.1 1232.3,170.6" fill="none" stroke="#534AB7" stroke-width="0.55" opacity="0.16"/><polygon points="1253.6,157.4 1283.8,118.1 1302.7,163.9" fill="none" stroke="#FAC775" stroke-width="0.99" opacity="0.30"/><polygon points="1256.4,143.9 1279.0,146.9 1265.1,165.0" fill="none" stroke="#5DCAA5" stroke-width="0.77" opacity="0.23"/><polygon points="1262.4,141.9 1266.4,151.6 1256.0,150.2" fill="none" stroke="#534AB7" stroke-width="0.55" opacity="0.16"/><polygon points="1274.7,143.6 1276.9,153.9 1267.0,150.7" fill="none" stroke="#534AB7" stroke-width="0.55" opacity="0.16"/><polygon points="1268.8,153.1 1269.1,163.6 1259.9,158.6" fill="none" stroke="#534AB7" stroke-width="0.55" opacity="0.16"/><polygon points="1273.1,122.5 1294.8,129.5 1277.9,144.8" fill="none" stroke="#5DCAA5" stroke-width="0.77" opacity="0.23"/><polygon points="1279.3,121.6 1281.5,131.9 1271.6,128.6" fill="none" stroke="#534AB7" stroke-width="0.55" opacity="0.16"/><polygon points="1291.2,125.5 1291.5,136.0 1282.3,131.0" fill="none" stroke="#534AB7" stroke-width="0.55" opacity="0.16"/><polygon points="1283.6,133.8 1282.1,144.1 1273.9,137.6" fill="none" stroke="#534AB7" stroke-width="0.55" opacity="0.16"/><polygon points="1284.4,144.0 1304.5,154.7 1285.2,166.8" fill="none" stroke="#5DCAA5" stroke-width="0.77" opacity="0.23"/><polygon points="1290.8,144.2 1291.1,154.7 1281.8,149.8" fill="none" stroke="#534AB7" stroke-width="0.55" opacity="0.16"/><polygon points="1301.7,150.2 1300.2,160.6 1292.0,154.0" fill="none" stroke="#534AB7" stroke-width="0.55" opacity="0.16"/><polygon points="1292.8,157.0 1289.4,166.9 1282.5,159.0" fill="none" stroke="#534AB7" stroke-width="0.55" opacity="0.16"/></g>
  <path d="M70 285.0955 C380.088 49.453, 553.808 298.144, 747.72 197.992 S1171.448 193.652, 1510 267.1568" fill="none" stroke="#5DCAA5" stroke-width="7" stroke-linecap="round" opacity=".34"/>
  <path d="M70 285.0955 C380.088 49.453, 553.808 298.144, 747.72 197.992 S1171.448 193.652, 1510 267.1568" fill="none" stroke="#FAC775" stroke-width="1.1" stroke-dasharray="11 16" stroke-linecap="round" opacity=".78"/>
  <g stroke="#D85A30" stroke-width="2.2" fill="none" opacity=".74" transform="rotate(3.14 1075.2 180.7)"><polygon points="1014.0,231.4 996.9,194.0 1000.7,153.0 1024.5,119.5 1061.9,102.3 1102.8,106.1 1136.4,130.0 1153.6,167.3 1149.7,208.3 1125.9,241.9 1088.5,259.0 1047.6,255.2"/><polygon points="1037.6,197.9 1034.1,176.8 1041.5,156.8 1058.0,143.1 1079.1,139.5 1099.1,147.0 1112.8,163.4 1116.4,184.5 1108.9,204.6 1092.5,218.2 1071.4,221.8 1051.3,214.4"/><line x1="1014.0" y1="231.4" x2="1037.6" y2="197.9"/><line x1="1037.6" y1="197.9" x2="996.9" y2="194.0"/><line x1="996.9" y1="194.0" x2="1034.1" y2="176.8"/><line x1="1034.1" y1="176.8" x2="1000.7" y2="153.0"/><line x1="1000.7" y1="153.0" x2="1041.5" y2="156.8"/><line x1="1041.5" y1="156.8" x2="1024.5" y2="119.5"/><line x1="1024.5" y1="119.5" x2="1058.0" y2="143.1"/><line x1="1058.0" y1="143.1" x2="1061.9" y2="102.3"/><line x1="1061.9" y1="102.3" x2="1079.1" y2="139.5"/><line x1="1079.1" y1="139.5" x2="1102.8" y2="106.1"/><line x1="1102.8" y1="106.1" x2="1099.1" y2="147.0"/><line x1="1099.1" y1="147.0" x2="1136.4" y2="130.0"/><line x1="1136.4" y1="130.0" x2="1112.8" y2="163.4"/><line x1="1112.8" y1="163.4" x2="1153.6" y2="167.3"/><line x1="1153.6" y1="167.3" x2="1116.4" y2="184.5"/><line x1="1116.4" y1="184.5" x2="1149.7" y2="208.3"/><line x1="1149.7" y1="208.3" x2="1108.9" y2="204.6"/><line x1="1108.9" y1="204.6" x2="1125.9" y2="241.9"/><line x1="1125.9" y1="241.9" x2="1092.5" y2="218.2"/><line x1="1092.5" y1="218.2" x2="1088.5" y2="259.0"/><line x1="1088.5" y1="259.0" x2="1071.4" y2="221.8"/><line x1="1071.4" y1="221.8" x2="1047.6" y2="255.2"/><line x1="1047.6" y1="255.2" x2="1051.3" y2="214.4"/><line x1="1051.3" y1="214.4" x2="1014.0" y2="231.4"/></g>
  <g><polygon points="187.1,292.8 160.3,313.9 137.0,297.3 145.3,267.1 184.9,276.3" fill="#5DCAA5" opacity="0.17"/><polygon points="318.3,279.9 307.5,287.5 287.6,279.9 286.4,260.6 307.2,251.2 321.6,268.4" fill="#FAC775" opacity="0.29"/><polygon points="447.7,196.9 425.4,220.4 409.5,219.7 390.4,184.2 403.3,166.8 415.3,162.6 444.3,177.2" fill="#D85A30" opacity="0.29"/><polygon points="551.6,134.5 528.6,142.7 517.9,127.7 523.0,113.9 552.8,121.0" fill="#534AB7" opacity="0.31"/><polygon points="697.6,153.4 676.4,160.1 653.0,138.2 662.9,112.0 678.2,106.2 703.9,121.3" fill="#5DCAA5" opacity="0.30"/><polygon points="871.0,207.8 846.7,225.2 833.7,214.6 832.1,209.8 836.6,193.2 858.0,187.5 871.0,203.6" fill="#FAC775" opacity="0.17"/><polygon points="1046.9,297.8 1030.1,306.2 998.6,272.1 1006.7,257.5 1041.7,253.8" fill="#D85A30" opacity="0.29"/><polygon points="1194.3,297.8 1169.5,304.1 1160.7,298.4 1154.6,281.2 1182.8,260.7 1196.3,270.3" fill="#534AB7" opacity="0.20"/><polygon points="1315.3,218.9 1296.9,233.2 1284.7,226.6 1281.1,217.1 1290.9,200.5 1296.2,199.0 1312.5,206.2" fill="#5DCAA5" opacity="0.28"/><polygon points="1432.1,139.4 1402.6,157.4 1391.6,142.5 1404.5,120.2 1431.4,133.7" fill="#FAC775" opacity="0.17"/></g>
  <g><rect x="92.1" y="246.2" width="130.3" height="3.3" fill="#534AB7" opacity="0.24"/><rect x="208.5" y="211.6" width="51.6" height="14.8" fill="#5DCAA5" opacity="0.22"/><rect x="290.9" y="162.4" width="70.2" height="10.6" fill="#FAC775" opacity="0.23"/><rect x="403.7" y="315.1" width="92.2" height="10.8" fill="#D85A30" opacity="0.11"/><rect x="517.6" y="91.8" width="44.9" height="4.0" fill="#534AB7" opacity="0.28"/><rect x="601.5" y="238.9" width="122.1" height="3.4" fill="#5DCAA5" opacity="0.10"/><rect x="727.0" y="139.8" width="42.5" height="4.3" fill="#FAC775" opacity="0.25"/><rect x="827.6" y="224.3" width="96.2" height="11.5" fill="#D85A30" opacity="0.27"/><rect x="944.9" y="130.3" width="69.2" height="7.5" fill="#534AB7" opacity="0.15"/><rect x="1053.3" y="154.3" width="124.0" height="3.8" fill="#5DCAA5" opacity="0.17"/><rect x="1122.5" y="250.5" width="59.8" height="5.4" fill="#FAC775" opacity="0.22"/><rect x="1253.3" y="226.2" width="38.2" height="10.2" fill="#D85A30" opacity="0.21"/><rect x="1330.3" y="99.3" width="73.3" height="6.6" fill="#534AB7" opacity="0.32"/><rect x="1452.8" y="119.4" width="117.8" height="3.8" fill="#5DCAA5" opacity="0.16"/></g>
  <rect width="1600" height="360" filter="url(#grain-917544943)" opacity=".85"/>
</svg>
