<svg xmlns="http://www.w3.org/2000/svg" viewBox="0 0 1600 360" role="img" aria-labelledby="title-3317617660 desc-3317617660">
  <title id="title-3317617660">Generative page artwork</title>
  <desc id="desc-3317617660">Platonic-solid, fractal, opt-art, glitch, and organic dialogue geometry for Filosofía y visión pedagógica: El Tao Developer.</desc>
  <defs>
    <filter id="grain-3317617660" x="-10%" y="-10%" width="120%" height="120%">
      <feTurbulence type="fractalNoise" baseFrequency="0.61" numOctaves="2" seed="460" result="noise"/>
      <feColorMatrix in="noise" type="saturate" values="0"/>
      <feComponentTransfer><feFuncA type="table" tableValues="0 .16"/></feComponentTransfer>
    </filter>
  </defs>
  <rect width="1600" height="360" fill="#050816"/>
  <rect width="1600" height="360" fill="#9373DD" opacity=".10"/>
  <g fill="none" stroke="#9373DD" stroke-width="1.2" opacity=".58"><polygon points="202.5,185.1 295.6,189.8 244.9,268.1" fill="none" stroke="#C44536" stroke-width="1.21" opacity="0.37"/><polygon points="226.3,175.0 245.9,213.2 203.0,211.0" fill="none" stroke="#E2B127" stroke-width="0.99" opacity="0.30"/><polygon points="235.8,182.2 225.1,198.7 216.1,181.2" fill="none" stroke="#0EA5A3" stroke-width="0.77" opacity="0.23"/><polygon points="235.2,187.6 226.1,187.1 231.0,179.5" fill="none" stroke="#9373DD" stroke-width="0.55" opacity="0.16"/><polygon points="229.2,196.6 220.4,194.6 226.6,187.9" fill="none" stroke="#9373DD" stroke-width="0.55" opacity="0.16"/><polygon points="224.0,188.5 215.7,184.9 223.0,179.5" fill="none" stroke="#9373DD" stroke-width="0.55" opacity="0.16"/><polygon points="246.4,203.2 232.9,217.5 227.2,198.7" fill="none" stroke="#0EA5A3" stroke-width="0.77" opacity="0.23"/><polygon points="244.7,208.4 235.9,206.3 242.1,199.7" fill="none" stroke="#9373DD" stroke-width="0.55" opacity="0.16"/><polygon points="237.3,216.2 228.9,212.6 236.2,207.2" fill="none" stroke="#9373DD" stroke-width="0.55" opacity="0.16"/><polygon points="233.6,207.3 226.1,202.2 234.2,198.2" fill="none" stroke="#9373DD" stroke-width="0.55" opacity="0.16"/><polygon points="225.4,204.1 209.5,215.8 207.3,196.2" fill="none" stroke="#0EA5A3" stroke-width="0.77" opacity="0.23"/><polygon points="222.8,208.9 214.5,205.3 221.8,199.9" fill="none" stroke="#9373DD" stroke-width="0.55" opacity="0.16"/><polygon points="214.1,215.3 206.5,210.2 214.7,206.2" fill="none" stroke="#9373DD" stroke-width="0.55" opacity="0.16"/><polygon points="212.1,205.8 205.6,199.5 214.3,197.0" fill="none" stroke="#9373DD" stroke-width="0.55" opacity="0.16"/><polygon points="277.3,178.0 289.7,219.1 247.9,209.2" fill="none" stroke="#E2B127" stroke-width="0.99" opacity="0.30"/><polygon points="285.4,186.7 271.9,201.1 266.2,182.2" fill="none" stroke="#0EA5A3" stroke-width="0.77" opacity="0.23"/><polygon points="283.7,192.0 274.9,189.9 281.1,183.3" fill="none" stroke="#9373DD" stroke-width="0.55" opacity="0.16"/><polygon points="276.3,199.8 268.0,196.2 275.3,190.8" fill="none" stroke="#9373DD" stroke-width="0.55" opacity="0.16"/><polygon points="272.6,190.8 265.1,185.8 273.2,181.8" fill="none" stroke="#9373DD" stroke-width="0.55" opacity="0.16"/><polygon points="292.0,209.3 276.1,221.0 273.9,201.4" fill="none" stroke="#0EA5A3" stroke-width="0.77" opacity="0.23"/><polygon points="289.4,214.1 281.1,210.5 288.4,205.1" fill="none" stroke="#9373DD" stroke-width="0.55" opacity="0.16"/><polygon points="280.7,220.5 273.2,215.4 281.3,211.4" fill="none" stroke="#9373DD" stroke-width="0.55" opacity="0.16"/><polygon points="278.7,211.0 272.2,204.7 280.9,202.2" fill="none" stroke="#9373DD" stroke-width="0.55" opacity="0.16"/><polygon points="271.1,206.4 253.4,215.1 254.8,195.4" fill="none" stroke="#0EA5A3" stroke-width="0.77" opacity="0.23"/><polygon points="267.8,210.8 260.2,205.7 268.4,201.7" fill="none" stroke="#9373DD" stroke-width="0.55" opacity="0.16"/><polygon points="258.0,215.4 251.5,209.1 260.3,206.6" fill="none" stroke="#9373DD" stroke-width="0.55" opacity="0.16"/><polygon points="257.8,205.8 252.5,198.4 261.5,197.5" fill="none" stroke="#9373DD" stroke-width="0.55" opacity="0.16"/><polygon points="256.2,218.5 261.0,261.2 221.7,244.0" fill="none" stroke="#E2B127" stroke-width="0.99" opacity="0.30"/><polygon points="262.6,228.6 246.7,240.3 244.5,220.7" fill="none" stroke="#0EA5A3" stroke-width="0.77" opacity="0.23"/><polygon points="260.0,233.5 251.7,229.8 259.0,224.4" fill="none" stroke="#9373DD" stroke-width="0.55" opacity="0.16"/><polygon points="251.3,239.8 243.7,234.8 251.9,230.8" fill="none" stroke="#9373DD" stroke-width="0.55" opacity="0.16"/><polygon points="249.3,230.3 242.8,224.0 251.5,221.5" fill="none" stroke="#9373DD" stroke-width="0.55" opacity="0.16"/><polygon points="265.0,252.0 247.3,260.7 248.6,241.0" fill="none" stroke="#0EA5A3" stroke-width="0.77" opacity="0.23"/><polygon points="261.7,256.3 254.1,251.2 262.3,247.2" fill="none" stroke="#9373DD" stroke-width="0.55" opacity="0.16"/><polygon points="251.9,261.0 245.4,254.7 254.1,252.2" fill="none" stroke="#9373DD" stroke-width="0.55" opacity="0.16"/><polygon points="251.7,251.3 246.4,243.9 255.4,243.0" fill="none" stroke="#9373DD" stroke-width="0.55" opacity="0.16"/><polygon points="245.0,245.4 226.1,250.8 230.9,231.7" fill="none" stroke="#0EA5A3" stroke-width="0.77" opacity="0.23"/><polygon points="240.9,249.1 234.4,242.8 243.2,240.3" fill="none" stroke="#9373DD" stroke-width="0.55" opacity="0.16"/><polygon points="230.5,251.9 225.3,244.6 234.3,243.7" fill="none" stroke="#9373DD" stroke-width="0.55" opacity="0.16"/><polygon points="232.0,242.4 228.1,234.2 237.2,234.9" fill="none" stroke="#9373DD" stroke-width="0.55" opacity="0.16"/><polygon points="455.7,365.1 392.8,175.8 588.2,216.0" fill="none" stroke="#C44536" stroke-width="1.21" opacity="0.37"/><polygon points="417.0,325.4 478.0,256.8 506.9,343.9" fill="none" stroke="#E2B127" stroke-width="0.99" opacity="0.30"/><polygon points="423.9,300.9 465.3,309.4 437.2,340.9" fill="none" stroke="#0EA5A3" stroke-width="0.77" opacity="0.23"/><polygon points="435.3,298.0 441.4,316.4 422.4,312.5" fill="none" stroke="#9373DD" stroke-width="0.55" opacity="0.16"/><polygon points="457.9,302.8 460.6,322.0 442.6,314.8" fill="none" stroke="#9373DD" stroke-width="0.55" opacity="0.16"/><polygon points="445.7,319.5 444.9,338.9 428.5,328.5" fill="none" stroke="#9373DD" stroke-width="0.55" opacity="0.16"/><polygon points="457.6,263.6 496.8,279.3 463.5,305.4" fill="none" stroke="#0EA5A3" stroke-width="0.77" opacity="0.23"/><polygon points="469.3,262.8 472.0,282.0 454.0,274.7" fill="none" stroke="#9373DD" stroke-width="0.55" opacity="0.16"/><polygon points="490.7,271.6 489.9,291.0 473.5,280.6" fill="none" stroke="#9373DD" stroke-width="0.55" opacity="0.16"/><polygon points="475.7,285.8 471.4,304.7 457.1,291.6" fill="none" stroke="#9373DD" stroke-width="0.55" opacity="0.16"/><polygon points="475.8,304.7 511.5,327.3 474.1,346.9" fill="none" stroke="#0EA5A3" stroke-width="0.77" opacity="0.23"/><polygon points="487.4,306.0 486.6,325.4 470.2,315.1" fill="none" stroke="#9373DD" stroke-width="0.55" opacity="0.16"/><polygon points="506.9,318.5 502.6,337.5 488.3,324.3" fill="none" stroke="#9373DD" stroke-width="0.55" opacity="0.16"/><polygon points="489.5,329.8 482.0,347.7 470.3,332.2" fill="none" stroke="#9373DD" stroke-width="0.55" opacity="0.16"/><polygon points="383.4,221.5 455.7,164.9 468.5,255.7" fill="none" stroke="#E2B127" stroke-width="0.99" opacity="0.30"/><polygon points="394.6,198.6 433.8,214.3 400.5,240.4" fill="none" stroke="#0EA5A3" stroke-width="0.77" opacity="0.23"/><polygon points="406.3,197.7 409.0,217.0 391.0,209.7" fill="none" stroke="#9373DD" stroke-width="0.55" opacity="0.16"/><polygon points="427.7,206.6 426.9,226.0 410.5,215.6" fill="none" stroke="#9373DD" stroke-width="0.55" opacity="0.16"/><polygon points="412.7,220.8 408.4,239.7 394.1,226.6" fill="none" stroke="#9373DD" stroke-width="0.55" opacity="0.16"/><polygon points="434.4,167.9 470.1,190.4 432.7,210.1" fill="none" stroke="#0EA5A3" stroke-width="0.77" opacity="0.23"/><polygon points="446.1,169.2 445.3,188.6 428.9,178.2" fill="none" stroke="#9373DD" stroke-width="0.55" opacity="0.16"/><polygon points="465.5,181.7 461.3,200.6 447.0,187.5" fill="none" stroke="#9373DD" stroke-width="0.55" opacity="0.16"/><polygon points="448.2,193.0 440.6,210.9 428.9,195.4" fill="none" stroke="#9373DD" stroke-width="0.55" opacity="0.16"/><polygon points="444.9,211.6 476.0,240.2 435.7,252.8" fill="none" stroke="#0EA5A3" stroke-width="0.77" opacity="0.23"/><polygon points="456.1,215.0 451.9,234.0 437.6,220.8" fill="none" stroke="#9373DD" stroke-width="0.55" opacity="0.16"/><polygon points="473.0,230.8 465.5,248.7 453.8,233.2" fill="none" stroke="#9373DD" stroke-width="0.55" opacity="0.16"/><polygon points="454.0,238.8 443.3,255.1 434.6,237.7" fill="none" stroke="#9373DD" stroke-width="0.55" opacity="0.16"/><polygon points="480.6,232.1 561.8,189.3 558.2,281.0" fill="none" stroke="#E2B127" stroke-width="0.99" opacity="0.30"/><polygon points="495.7,211.5 531.4,234.1 494.1,253.7" fill="none" stroke="#0EA5A3" stroke-width="0.77" opacity="0.23"/><polygon points="507.4,212.8 506.6,232.2 490.2,221.9" fill="none" stroke="#9373DD" stroke-width="0.55" opacity="0.16"/><polygon points="526.8,225.3 522.6,244.3 508.3,231.1" fill="none" stroke="#9373DD" stroke-width="0.55" opacity="0.16"/><polygon points="509.5,236.6 502.0,254.5 490.3,239.0" fill="none" stroke="#9373DD" stroke-width="0.55" opacity="0.16"/><polygon points="540.4,188.5 571.5,217.0 531.2,229.7" fill="none" stroke="#0EA5A3" stroke-width="0.77" opacity="0.23"/><polygon points="551.6,191.8 547.4,210.8 533.1,197.7" fill="none" stroke="#9373DD" stroke-width="0.55" opacity="0.16"/><polygon points="568.5,207.6 561.0,225.5 549.3,210.0" fill="none" stroke="#9373DD" stroke-width="0.55" opacity="0.16"/><polygon points="549.5,215.7 538.8,231.9 530.1,214.6" fill="none" stroke="#9373DD" stroke-width="0.55" opacity="0.16"/><polygon points="542.9,233.4 568.3,267.1 526.5,272.3" fill="none" stroke="#0EA5A3" stroke-width="0.77" opacity="0.23"/><polygon points="553.3,238.7 545.8,256.6 534.1,241.1" fill="none" stroke="#9373DD" stroke-width="0.55" opacity="0.16"/><polygon points="567.1,257.3 556.5,273.5 547.7,256.2" fill="none" stroke="#9373DD" stroke-width="0.55" opacity="0.16"/><polygon points="546.9,261.8 533.6,275.8 528.0,257.2" fill="none" stroke="#9373DD" stroke-width="0.55" opacity="0.16"/><polygon points="869.1,311.2 668.3,339.2 744.5,151.3" fill="none" stroke="#C44536" stroke-width="1.21" opacity="0.37"/><polygon points="822.3,342.6 765.0,269.0 857.3,256.1" fill="none" stroke="#E2B127" stroke-width="0.99" opacity="0.30"/><polygon points="799.1,331.1 815.2,291.4 841.5,325.2" fill="none" stroke="#0EA5A3" stroke-width="0.77" opacity="0.23"/><polygon points="798.3,319.2 817.8,316.5 810.4,334.8" fill="none" stroke="#9373DD" stroke-width="0.55" opacity="0.16"/><polygon points="807.3,297.5 827.0,298.4 816.4,315.0" fill="none" stroke="#9373DD" stroke-width="0.55" opacity="0.16"/><polygon points="821.7,312.8 840.9,317.2 827.6,331.7" fill="none" stroke="#9373DD" stroke-width="0.55" opacity="0.16"/><polygon points="768.0,290.6 791.0,254.4 810.8,292.4" fill="none" stroke="#0EA5A3" stroke-width="0.77" opacity="0.23"/><polygon points="769.3,278.8 789.0,279.6 778.5,296.2" fill="none" stroke="#9373DD" stroke-width="0.55" opacity="0.16"/><polygon points="782.1,259.0 801.3,263.4 787.9,277.9" fill="none" stroke="#9373DD" stroke-width="0.55" opacity="0.16"/><polygon points="793.5,276.7 811.7,284.4 795.9,296.2" fill="none" stroke="#9373DD" stroke-width="0.55" opacity="0.16"/><polygon points="812.5,280.1 841.6,248.5 854.3,289.5" fill="none" stroke="#0EA5A3" stroke-width="0.77" opacity="0.23"/><polygon points="815.9,268.6 835.2,273.0 821.8,287.5" fill="none" stroke="#9373DD" stroke-width="0.55" opacity="0.16"/><polygon points="832.0,251.5 850.1,259.2 834.4,271.1" fill="none" stroke="#9373DD" stroke-width="0.55" opacity="0.16"/><polygon points="840.1,270.9 856.6,281.7 839.0,290.6" fill="none" stroke="#9373DD" stroke-width="0.55" opacity="0.16"/><polygon points="712.2,357.0 669.0,274.4 762.2,278.3" fill="none" stroke="#E2B127" stroke-width="0.99" opacity="0.30"/><polygon points="691.4,341.6 714.4,305.4 734.3,343.4" fill="none" stroke="#0EA5A3" stroke-width="0.77" opacity="0.23"/><polygon points="692.8,329.8 712.5,330.6 701.9,347.3" fill="none" stroke="#9373DD" stroke-width="0.55" opacity="0.16"/><polygon points="705.5,310.0 724.7,314.4 711.4,328.9" fill="none" stroke="#9373DD" stroke-width="0.55" opacity="0.16"/><polygon points="717.0,327.7 735.1,335.4 719.4,347.3" fill="none" stroke="#9373DD" stroke-width="0.55" opacity="0.16"/><polygon points="668.1,296.2 697.2,264.6 709.9,305.6" fill="none" stroke="#0EA5A3" stroke-width="0.77" opacity="0.23"/><polygon points="671.5,284.8 690.8,289.1 677.4,303.6" fill="none" stroke="#9373DD" stroke-width="0.55" opacity="0.16"/><polygon points="687.6,267.6 705.8,275.3 690.0,287.2" fill="none" stroke="#9373DD" stroke-width="0.55" opacity="0.16"/><polygon points="695.7,287.0 712.2,297.9 694.6,306.7" fill="none" stroke="#9373DD" stroke-width="0.55" opacity="0.16"/><polygon points="713.7,293.8 748.0,267.9 753.2,310.5" fill="none" stroke="#0EA5A3" stroke-width="0.77" opacity="0.23"/><polygon points="719.2,283.2 737.3,290.9 721.6,302.7" fill="none" stroke="#9373DD" stroke-width="0.55" opacity="0.16"/><polygon points="738.0,269.2 754.5,280.0 736.9,288.9" fill="none" stroke="#9373DD" stroke-width="0.55" opacity="0.16"/><polygon points="742.6,289.7 756.8,303.3 737.9,308.9" fill="none" stroke="#9373DD" stroke-width="0.55" opacity="0.16"/><polygon points="740.7,261.8 713.0,172.8 804.0,193.3" fill="none" stroke="#E2B127" stroke-width="0.99" opacity="0.30"/><polygon points="723.0,242.9 752.1,211.4 764.8,252.3" fill="none" stroke="#0EA5A3" stroke-width="0.77" opacity="0.23"/><polygon points="726.4,231.5 745.7,235.8 732.3,250.3" fill="none" stroke="#9373DD" stroke-width="0.55" opacity="0.16"/><polygon points="742.5,214.4 760.7,222.1 744.9,233.9" fill="none" stroke="#9373DD" stroke-width="0.55" opacity="0.16"/><polygon points="750.6,233.8 767.1,244.6 749.5,253.5" fill="none" stroke="#9373DD" stroke-width="0.55" opacity="0.16"/><polygon points="708.2,194.0 742.4,168.2 747.7,210.8" fill="none" stroke="#0EA5A3" stroke-width="0.77" opacity="0.23"/><polygon points="713.6,183.4 731.8,191.1 716.0,203.0" fill="none" stroke="#9373DD" stroke-width="0.55" opacity="0.16"/><polygon points="732.5,169.4 749.0,180.3 731.3,189.1" fill="none" stroke="#9373DD" stroke-width="0.55" opacity="0.16"/><polygon points="737.0,190.0 751.3,203.6 732.4,209.2" fill="none" stroke="#9373DD" stroke-width="0.55" opacity="0.16"/><polygon points="753.5,199.8 791.9,180.6 789.4,223.4" fill="none" stroke="#0EA5A3" stroke-width="0.77" opacity="0.23"/><polygon points="760.8,190.4 777.3,201.2 759.6,210.1" fill="none" stroke="#9373DD" stroke-width="0.55" opacity="0.16"/><polygon points="781.9,180.0 796.1,193.6 777.2,199.2" fill="none" stroke="#9373DD" stroke-width="0.55" opacity="0.16"/><polygon points="782.6,201.0 794.2,217.0 774.6,219.0" fill="none" stroke="#9373DD" stroke-width="0.55" opacity="0.16"/><polygon points="941.6,160.1 1009.3,101.2 1026.4,189.3" fill="none" stroke="#C44536" stroke-width="1.21" opacity="0.37"/><polygon points="951.4,137.2 990.4,150.6 959.3,177.7" fill="none" stroke="#E2B127" stroke-width="0.99" opacity="0.30"/><polygon points="962.8,135.8 966.4,154.4 948.5,148.2" fill="none" stroke="#0EA5A3" stroke-width="0.77" opacity="0.23"/><polygon points="966.0,140.0 959.4,145.7 957.7,137.2" fill="none" stroke="#9373DD" stroke-width="0.55" opacity="0.16"/><polygon points="967.9,150.2 960.3,154.7 960.2,145.9" fill="none" stroke="#9373DD" stroke-width="0.55" opacity="0.16"/><polygon points="958.8,148.0 950.6,151.1 952.1,142.5" fill="none" stroke="#9373DD" stroke-width="0.55" opacity="0.16"/><polygon points="984.1,143.3 984.3,162.3 967.8,153.0" fill="none" stroke="#0EA5A3" stroke-width="0.77" opacity="0.23"/><polygon points="986.5,148.0 978.9,152.5 978.8,143.8" fill="none" stroke="#9373DD" stroke-width="0.55" opacity="0.16"/><polygon points="986.5,158.4 978.3,161.5 979.8,152.9" fill="none" stroke="#9373DD" stroke-width="0.55" opacity="0.16"/><polygon points="978.0,154.7 969.4,156.2 972.4,148.0" fill="none" stroke="#9373DD" stroke-width="0.55" opacity="0.16"/><polygon points="970.1,158.0 967.0,176.7 952.3,164.6" fill="none" stroke="#0EA5A3" stroke-width="0.77" opacity="0.23"/><polygon points="971.6,163.0 963.4,166.1 964.9,157.5" fill="none" stroke="#9373DD" stroke-width="0.55" opacity="0.16"/><polygon points="969.8,173.3 961.2,174.8 964.2,166.6" fill="none" stroke="#9373DD" stroke-width="0.55" opacity="0.16"/><polygon points="962.1,168.0 953.4,168.0 957.8,160.4" fill="none" stroke="#9373DD" stroke-width="0.55" opacity="0.16"/><polygon points="988.8,105.2 1024.7,125.4 989.2,146.5" fill="none" stroke="#E2B127" stroke-width="0.99" opacity="0.30"/><polygon points="1000.2,105.9 1000.4,124.9 983.9,115.6" fill="none" stroke="#0EA5A3" stroke-width="0.77" opacity="0.23"/><polygon points="1002.6,110.6 995.0,115.1 994.9,106.4" fill="none" stroke="#9373DD" stroke-width="0.55" opacity="0.16"/><polygon points="1002.6,121.0 994.4,124.1 995.9,115.5" fill="none" stroke="#9373DD" stroke-width="0.55" opacity="0.16"/><polygon points="994.1,117.3 985.5,118.8 988.5,110.6" fill="none" stroke="#9373DD" stroke-width="0.55" opacity="0.16"/><polygon points="1019.8,117.1 1016.6,135.9 1002.0,123.7" fill="none" stroke="#0EA5A3" stroke-width="0.77" opacity="0.23"/><polygon points="1021.3,122.2 1013.1,125.2 1014.6,116.6" fill="none" stroke="#9373DD" stroke-width="0.55" opacity="0.16"/><polygon points="1019.5,132.4 1010.9,134.0 1013.8,125.8" fill="none" stroke="#9373DD" stroke-width="0.55" opacity="0.16"/><polygon points="1011.8,127.2 1003.0,127.2 1007.4,119.6" fill="none" stroke="#9373DD" stroke-width="0.55" opacity="0.16"/><polygon points="1003.5,129.1 997.0,146.9 984.8,132.4" fill="none" stroke="#0EA5A3" stroke-width="0.77" opacity="0.23"/><polygon points="1004.0,134.3 995.4,135.8 998.4,127.6" fill="none" stroke="#9373DD" stroke-width="0.55" opacity="0.16"/><polygon points="1000.4,144.0 991.6,144.0 996.0,136.5" fill="none" stroke="#9373DD" stroke-width="0.55" opacity="0.16"/><polygon points="993.7,137.5 985.2,135.9 990.8,129.3" fill="none" stroke="#9373DD" stroke-width="0.55" opacity="0.16"/><polygon points="1001.2,147.4 1032.9,173.8 994.2,188.1" fill="none" stroke="#E2B127" stroke-width="0.99" opacity="0.30"/><polygon points="1012.3,150.2 1009.1,168.9 994.5,156.8" fill="none" stroke="#0EA5A3" stroke-width="0.77" opacity="0.23"/><polygon points="1013.8,155.2 1005.6,158.3 1007.1,149.6" fill="none" stroke="#9373DD" stroke-width="0.55" opacity="0.16"/><polygon points="1012.0,165.5 1003.4,167.0 1006.3,158.8" fill="none" stroke="#9373DD" stroke-width="0.55" opacity="0.16"/><polygon points="1004.3,160.2 995.5,160.2 999.9,152.6" fill="none" stroke="#9373DD" stroke-width="0.55" opacity="0.16"/><polygon points="1029.6,164.7 1023.1,182.6 1010.9,168.0" fill="none" stroke="#0EA5A3" stroke-width="0.77" opacity="0.23"/><polygon points="1030.1,170.0 1021.5,171.5 1024.5,163.3" fill="none" stroke="#9373DD" stroke-width="0.55" opacity="0.16"/><polygon points="1026.5,179.7 1017.8,179.7 1022.2,172.1" fill="none" stroke="#9373DD" stroke-width="0.55" opacity="0.16"/><polygon points="1019.9,173.2 1011.3,171.6 1017.0,164.9" fill="none" stroke="#9373DD" stroke-width="0.55" opacity="0.16"/><polygon points="1011.4,173.5 1001.8,189.9 992.4,173.4" fill="none" stroke="#0EA5A3" stroke-width="0.77" opacity="0.23"/><polygon points="1011.0,178.8 1002.2,178.7 1006.6,171.2" fill="none" stroke="#9373DD" stroke-width="0.55" opacity="0.16"/><polygon points="1005.7,187.7 997.1,186.1 1002.7,179.5" fill="none" stroke="#9373DD" stroke-width="0.55" opacity="0.16"/><polygon points="1000.3,180.1 992.1,177.0 998.9,171.5" fill="none" stroke="#9373DD" stroke-width="0.55" opacity="0.16"/><polygon points="1210.3,104.1 1371.1,72.8 1317.7,227.7" fill="none" stroke="#C44536" stroke-width="1.21" opacity="0.37"/><polygon points="1246.7,76.8 1296.1,133.6 1222.2,148.0" fill="none" stroke="#E2B127" stroke-width="0.99" opacity="0.30"/><polygon points="1266.0,85.0 1254.7,117.7 1231.9,91.6" fill="none" stroke="#0EA5A3" stroke-width="0.77" opacity="0.23"/><polygon points="1267.1,94.5 1251.5,97.6 1256.7,82.5" fill="none" stroke="#9373DD" stroke-width="0.55" opacity="0.16"/><polygon points="1260.8,112.4 1244.8,112.6 1252.7,98.7" fill="none" stroke="#9373DD" stroke-width="0.55" opacity="0.16"/><polygon points="1248.5,100.7 1232.8,98.0 1242.9,85.8" fill="none" stroke="#9373DD" stroke-width="0.55" opacity="0.16"/><polygon points="1292.8,116.3 1275.8,146.5 1258.1,116.7" fill="none" stroke="#0EA5A3" stroke-width="0.77" opacity="0.23"/><polygon points="1292.2,125.9 1276.3,126.1 1284.1,112.2" fill="none" stroke="#9373DD" stroke-width="0.55" opacity="0.16"/><polygon points="1282.8,142.4 1267.1,139.7 1277.2,127.5" fill="none" stroke="#9373DD" stroke-width="0.55" opacity="0.16"/><polygon points="1272.8,128.7 1257.8,123.2 1270.0,113.0" fill="none" stroke="#9373DD" stroke-width="0.55" opacity="0.16"/><polygon points="1257.3,126.8 1235.2,153.4 1223.2,121.0" fill="none" stroke="#0EA5A3" stroke-width="0.77" opacity="0.23"/><polygon points="1255.1,136.1 1239.3,133.4 1249.5,121.2" fill="none" stroke="#9373DD" stroke-width="0.55" opacity="0.16"/><polygon points="1242.8,150.6 1227.8,145.2 1240.1,134.9" fill="none" stroke="#9373DD" stroke-width="0.55" opacity="0.16"/><polygon points="1235.4,135.3 1221.7,127.3 1235.5,119.4" fill="none" stroke="#9373DD" stroke-width="0.55" opacity="0.16"/><polygon points="1334.9,60.3 1373.3,125.1 1298.0,126.0" fill="none" stroke="#E2B127" stroke-width="0.99" opacity="0.30"/><polygon points="1352.3,71.9 1335.4,102.1 1317.7,72.3" fill="none" stroke="#0EA5A3" stroke-width="0.77" opacity="0.23"/><polygon points="1351.8,81.5 1335.8,81.7 1343.6,67.8" fill="none" stroke="#9373DD" stroke-width="0.55" opacity="0.16"/><polygon points="1342.3,98.0 1326.6,95.3 1336.8,83.0" fill="none" stroke="#9373DD" stroke-width="0.55" opacity="0.16"/><polygon points="1332.3,84.2 1317.3,78.8 1329.6,68.5" fill="none" stroke="#9373DD" stroke-width="0.55" opacity="0.16"/><polygon points="1373.1,107.5 1351.0,134.2 1338.9,101.7" fill="none" stroke="#0EA5A3" stroke-width="0.77" opacity="0.23"/><polygon points="1370.8,116.9 1355.1,114.2 1365.3,101.9" fill="none" stroke="#9373DD" stroke-width="0.55" opacity="0.16"/><polygon points="1358.6,131.4 1343.6,126.0 1355.8,115.7" fill="none" stroke="#9373DD" stroke-width="0.55" opacity="0.16"/><polygon points="1351.2,116.1 1337.4,108.1 1351.3,100.2" fill="none" stroke="#9373DD" stroke-width="0.55" opacity="0.16"/><polygon points="1336.4,111.4 1309.9,133.7 1303.8,99.6" fill="none" stroke="#0EA5A3" stroke-width="0.77" opacity="0.23"/><polygon points="1332.5,120.2 1317.5,114.8 1329.7,104.5" fill="none" stroke="#9373DD" stroke-width="0.55" opacity="0.16"/><polygon points="1317.8,132.3 1304.1,124.3 1317.9,116.4" fill="none" stroke="#9373DD" stroke-width="0.55" opacity="0.16"/><polygon points="1313.3,116.0 1301.2,105.6 1316.2,100.3" fill="none" stroke="#9373DD" stroke-width="0.55" opacity="0.16"/><polygon points="1316.0,138.4 1342.2,209.0 1267.9,196.4" fill="none" stroke="#E2B127" stroke-width="0.99" opacity="0.30"/><polygon points="1331.1,152.9 1309.0,179.5 1296.9,147.1" fill="none" stroke="#0EA5A3" stroke-width="0.77" opacity="0.23"/><polygon points="1328.8,162.2 1313.1,159.5 1323.3,147.3" fill="none" stroke="#9373DD" stroke-width="0.55" opacity="0.16"/><polygon points="1316.6,176.7 1301.6,171.3 1313.8,161.0" fill="none" stroke="#9373DD" stroke-width="0.55" opacity="0.16"/><polygon points="1309.2,161.4 1295.5,153.4 1309.3,145.5" fill="none" stroke="#9373DD" stroke-width="0.55" opacity="0.16"/><polygon points="1345.2,191.6 1318.6,213.9 1312.6,179.8" fill="none" stroke="#0EA5A3" stroke-width="0.77" opacity="0.23"/><polygon points="1341.2,200.4 1326.3,195.0 1338.5,184.7" fill="none" stroke="#9373DD" stroke-width="0.55" opacity="0.16"/><polygon points="1326.6,212.5 1312.9,204.5 1326.7,196.6" fill="none" stroke="#9373DD" stroke-width="0.55" opacity="0.16"/><polygon points="1322.1,196.2 1310.0,185.8 1325.0,180.5" fill="none" stroke="#9373DD" stroke-width="0.55" opacity="0.16"/><polygon points="1308.3,188.9 1278.2,206.1 1278.4,171.5" fill="none" stroke="#0EA5A3" stroke-width="0.77" opacity="0.23"/><polygon points="1302.9,196.9 1289.1,188.8 1303.0,180.9" fill="none" stroke="#9373DD" stroke-width="0.55" opacity="0.16"/><polygon points="1286.3,206.1 1274.2,195.8 1289.3,190.5" fill="none" stroke="#9373DD" stroke-width="0.55" opacity="0.16"/><polygon points="1284.8,189.2 1274.8,176.9 1290.5,174.3" fill="none" stroke="#9373DD" stroke-width="0.55" opacity="0.16"/></g>
  <path d="M70 262.6005 C375.664 73.68, 555.656 315.424, 760.728 206.656 S1237.656 154.51999999999998, 1510 263.5784" fill="none" stroke="#0EA5A3" stroke-width="7" stroke-linecap="round" opacity=".34"/>
  <path d="M70 262.6005 C375.664 73.68, 555.656 315.424, 760.728 206.656 S1237.656 154.51999999999998, 1510 263.5784" fill="none" stroke="#E2B127" stroke-width="1.1" stroke-dasharray="11 16" stroke-linecap="round" opacity=".78"/>
  <g stroke="#C44536" stroke-width="2.2" fill="none" opacity=".74" transform="rotate(-4.69 1308.7 186.1)"><polygon points="1264.6,285.6 1209.2,142.0 1352.8,86.7 1408.1,230.2"/><polygon points="1255.9,206.5 1288.3,133.3 1361.4,165.8 1329.0,238.9"/><line x1="1264.6" y1="285.6" x2="1255.9" y2="206.5"/><line x1="1255.9" y1="206.5" x2="1209.2" y2="142.0"/><line x1="1209.2" y1="142.0" x2="1288.3" y2="133.3"/><line x1="1288.3" y1="133.3" x2="1352.8" y2="86.7"/><line x1="1352.8" y1="86.7" x2="1361.4" y2="165.8"/><line x1="1361.4" y1="165.8" x2="1408.1" y2="230.2"/><line x1="1408.1" y1="230.2" x2="1329.0" y2="238.9"/><line x1="1329.0" y1="238.9" x2="1264.6" y2="285.6"/></g>
  <g><polygon points="121.4,302.3 104.7,308.9 86.2,289.5 101.8,269.0 120.1,273.9" fill="#0EA5A3" opacity="0.18"/><polygon points="308.8,273.2 287.3,293.1 257.1,273.8 264.7,247.2 278.9,240.3 302.4,248.5" fill="#E2B127" opacity="0.15"/><polygon points="475.7,193.9 464.9,208.6 441.7,210.0 428.9,180.7 436.0,169.8 455.1,163.8 475.7,182.3" fill="#C44536" opacity="0.23"/><polygon points="611.7,139.6 598.1,148.8 568.4,133.1 588.1,100.4 609.8,107.9" fill="#9373DD" opacity="0.20"/><polygon points="723.7,151.9 699.0,157.6 683.4,136.7 683.5,132.7 713.6,112.9 729.9,130.7" fill="#0EA5A3" opacity="0.16"/><polygon points="845.9,212.8 818.1,230.1 814.3,228.4 803.8,206.8 810.2,194.5 837.2,192.6 845.9,207.1" fill="#E2B127" opacity="0.20"/><polygon points="986.0,296.4 964.0,301.5 949.9,289.0 966.9,257.6 992.0,273.1" fill="#C44536" opacity="0.16"/><polygon points="1156.0,299.7 1153.3,301.2 1120.8,283.1 1120.7,280.8 1152.6,260.4 1159.8,265.6" fill="#9373DD" opacity="0.25"/><polygon points="1326.5,224.3 1315.6,227.1 1304.7,219.7 1304.6,204.8 1308.8,200.1 1325.3,199.3 1328.8,202.2" fill="#0EA5A3" opacity="0.21"/><polygon points="1483.5,145.3 1464.9,155.7 1450.4,146.6 1467.6,117.9 1482.0,125.8" fill="#E2B127" opacity="0.18"/></g>
  <g><rect x="81.8" y="39.6" width="102.2" height="6.3" fill="#9373DD" opacity="0.23"/><rect x="206.2" y="162.3" width="28.5" height="9.9" fill="#0EA5A3" opacity="0.12"/><rect x="288.6" y="260.2" width="141.4" height="12.3" fill="#E2B127" opacity="0.17"/><rect x="423.5" y="135.9" width="65.5" height="9.9" fill="#C44536" opacity="0.14"/><rect x="504.0" y="114.0" width="124.3" height="6.0" fill="#9373DD" opacity="0.18"/><rect x="618.8" y="32.0" width="74.9" height="4.9" fill="#0EA5A3" opacity="0.10"/><rect x="735.2" y="250.2" width="126.1" height="7.7" fill="#E2B127" opacity="0.31"/><rect x="842.0" y="199.5" width="48.2" height="12.1" fill="#C44536" opacity="0.14"/><rect x="937.7" y="61.2" width="97.6" height="6.2" fill="#9373DD" opacity="0.17"/><rect x="1033.2" y="170.8" width="85.4" height="8.3" fill="#0EA5A3" opacity="0.22"/><rect x="1133.1" y="314.2" width="113.0" height="4.0" fill="#E2B127" opacity="0.20"/><rect x="1252.8" y="271.8" width="86.0" height="3.0" fill="#C44536" opacity="0.15"/><rect x="1354.9" y="230.3" width="141.4" height="4.2" fill="#9373DD" opacity="0.15"/><rect x="1464.0" y="264.5" width="134.1" height="12.4" fill="#0EA5A3" opacity="0.21"/></g>
  <rect width="1600" height="360" filter="url(#grain-3317617660)" opacity=".85"/>
</svg>
