<svg xmlns="http://www.w3.org/2000/svg" viewBox="0 0 1600 360" role="img" aria-labelledby="title-626443266 desc-626443266">
  <title id="title-626443266">Generative page artwork</title>
  <desc id="desc-626443266">Platonic-solid, fractal, opt-art, glitch, and organic dialogue geometry for HELIOS DECK — Observatorio Cósmico de Datos Geofísicos.</desc>
  <defs>
    <filter id="grain-626443266" x="-10%" y="-10%" width="120%" height="120%">
      <feTurbulence type="fractalNoise" baseFrequency="0.57" numOctaves="2" seed="250" result="noise"/>
      <feColorMatrix in="noise" type="saturate" values="0"/>
      <feComponentTransfer><feFuncA type="table" tableValues="0 .16"/></feComponentTransfer>
    </filter>
  </defs>
  <rect width="1600" height="360" fill="#050816"/>
  <rect width="1600" height="360" fill="#EF9F27" opacity=".10"/>
  <g fill="none" stroke="#7F77DD" stroke-width="1.2" opacity=".58"><polygon points="233.2,223.2 233.4,307.8 160.1,265.7" fill="none" stroke="#D4537E" stroke-width="1.21" opacity="0.37"/><polygon points="243.5,244.3 209.9,263.9 209.8,225.0" fill="none" stroke="#EF9F27" stroke-width="0.99" opacity="0.30"/><polygon points="237.5,253.3 222.0,244.4 237.4,235.4" fill="none" stroke="#1D9E75" stroke-width="0.77" opacity="0.23"/><polygon points="232.5,253.0 232.5,244.7 239.6,248.8" fill="none" stroke="#7F77DD" stroke-width="0.55" opacity="0.16"/><polygon points="224.1,248.0 225.5,239.9 231.8,245.2" fill="none" stroke="#7F77DD" stroke-width="0.55" opacity="0.16"/><polygon points="231.2,242.9 234.1,235.2 239.3,241.6" fill="none" stroke="#7F77DD" stroke-width="0.55" opacity="0.16"/><polygon points="219.0,263.9 205.3,252.3 222.2,246.2" fill="none" stroke="#1D9E75" stroke-width="0.77" opacity="0.23"/><polygon points="214.2,262.6 215.6,254.5 221.9,259.8" fill="none" stroke="#7F77DD" stroke-width="0.55" opacity="0.16"/><polygon points="206.7,256.3 209.6,248.5 214.9,254.9" fill="none" stroke="#7F77DD" stroke-width="0.55" opacity="0.16"/><polygon points="214.7,252.5 218.9,245.4 222.9,252.6" fill="none" stroke="#7F77DD" stroke-width="0.55" opacity="0.16"/><polygon points="217.1,244.9 205.8,231.1 223.4,228.1" fill="none" stroke="#1D9E75" stroke-width="0.77" opacity="0.23"/><polygon points="212.6,242.8 215.5,235.1 220.7,241.5" fill="none" stroke="#7F77DD" stroke-width="0.55" opacity="0.16"/><polygon points="206.5,235.2 210.7,228.1 214.7,235.3" fill="none" stroke="#7F77DD" stroke-width="0.55" opacity="0.16"/><polygon points="214.9,233.0 220.3,226.8 223.0,234.5" fill="none" stroke="#7F77DD" stroke-width="0.55" opacity="0.16"/><polygon points="243.3,290.6 206.7,303.8 213.6,265.6" fill="none" stroke="#EF9F27" stroke-width="0.99" opacity="0.30"/><polygon points="235.7,298.4 222.1,286.8 238.9,280.8" fill="none" stroke="#1D9E75" stroke-width="0.77" opacity="0.23"/><polygon points="230.9,297.1 232.4,289.0 238.7,294.3" fill="none" stroke="#7F77DD" stroke-width="0.55" opacity="0.16"/><polygon points="223.5,290.8 226.4,283.0 231.6,289.4" fill="none" stroke="#7F77DD" stroke-width="0.55" opacity="0.16"/><polygon points="231.4,287.0 235.6,279.9 239.7,287.1" fill="none" stroke="#7F77DD" stroke-width="0.55" opacity="0.16"/><polygon points="215.7,305.4 204.3,291.6 221.9,288.7" fill="none" stroke="#1D9E75" stroke-width="0.77" opacity="0.23"/><polygon points="211.1,303.4 214.0,295.6 219.3,302.0" fill="none" stroke="#7F77DD" stroke-width="0.55" opacity="0.16"/><polygon points="205.0,295.8 209.2,288.7 213.2,295.9" fill="none" stroke="#7F77DD" stroke-width="0.55" opacity="0.16"/><polygon points="213.4,293.5 218.9,287.3 221.5,295.1" fill="none" stroke="#7F77DD" stroke-width="0.55" opacity="0.16"/><polygon points="217.2,286.4 208.5,270.8 226.4,271.1" fill="none" stroke="#1D9E75" stroke-width="0.77" opacity="0.23"/><polygon points="213.2,283.6 217.4,276.5 221.4,283.7" fill="none" stroke="#7F77DD" stroke-width="0.55" opacity="0.16"/><polygon points="208.5,275.0 213.9,268.8 216.5,276.6" fill="none" stroke="#7F77DD" stroke-width="0.55" opacity="0.16"/><polygon points="217.2,274.3 223.6,269.2 224.9,277.3" fill="none" stroke="#7F77DD" stroke-width="0.55" opacity="0.16"/><polygon points="205.6,273.5 167.2,279.9 180.8,243.5" fill="none" stroke="#EF9F27" stroke-width="0.99" opacity="0.30"/><polygon points="196.8,279.7 185.4,265.9 203.0,263.0" fill="none" stroke="#1D9E75" stroke-width="0.77" opacity="0.23"/><polygon points="192.2,277.7 195.1,270.0 200.4,276.3" fill="none" stroke="#7F77DD" stroke-width="0.55" opacity="0.16"/><polygon points="186.1,270.1 190.3,263.0 194.3,270.2" fill="none" stroke="#7F77DD" stroke-width="0.55" opacity="0.16"/><polygon points="194.5,267.8 199.9,261.6 202.6,269.4" fill="none" stroke="#7F77DD" stroke-width="0.55" opacity="0.16"/><polygon points="175.7,283.1 167.0,267.5 184.9,267.7" fill="none" stroke="#1D9E75" stroke-width="0.77" opacity="0.23"/><polygon points="171.7,280.3 175.9,273.2 179.9,280.4" fill="none" stroke="#7F77DD" stroke-width="0.55" opacity="0.16"/><polygon points="167.0,271.7 172.4,265.5 175.0,273.3" fill="none" stroke="#7F77DD" stroke-width="0.55" opacity="0.16"/><polygon points="175.7,271.0 182.1,265.8 183.3,274.0" fill="none" stroke="#7F77DD" stroke-width="0.55" opacity="0.16"/><polygon points="180.7,264.7 174.9,247.8 192.4,251.2" fill="none" stroke="#1D9E75" stroke-width="0.77" opacity="0.23"/><polygon points="177.2,261.2 182.6,255.0 185.3,262.8" fill="none" stroke="#7F77DD" stroke-width="0.55" opacity="0.16"/><polygon points="174.1,251.9 180.5,246.8 181.8,254.9" fill="none" stroke="#7F77DD" stroke-width="0.55" opacity="0.16"/><polygon points="182.8,252.8 190.1,248.9 189.8,257.1" fill="none" stroke="#7F77DD" stroke-width="0.55" opacity="0.16"/><polygon points="448.3,162.5 500.3,76.6 548.7,164.6" fill="none" stroke="#D4537E" stroke-width="1.21" opacity="0.37"/><polygon points="450.9,134.7 497.1,135.7 473.1,175.2" fill="none" stroke="#EF9F27" stroke-width="0.99" opacity="0.30"/><polygon points="462.6,129.4 472.8,148.0 451.5,147.5" fill="none" stroke="#1D9E75" stroke-width="0.77" opacity="0.23"/><polygon points="467.4,132.8 462.3,141.1 457.6,132.6" fill="none" stroke="#7F77DD" stroke-width="0.55" opacity="0.16"/><polygon points="472.9,143.0 466.4,150.3 463.3,141.1" fill="none" stroke="#7F77DD" stroke-width="0.55" opacity="0.16"/><polygon points="462.5,143.8 454.8,149.8 453.4,140.1" fill="none" stroke="#7F77DD" stroke-width="0.55" opacity="0.16"/><polygon points="487.8,130.1 494.6,150.2 473.8,146.0" fill="none" stroke="#1D9E75" stroke-width="0.77" opacity="0.23"/><polygon points="492.0,134.3 485.5,141.6 482.4,132.3" fill="none" stroke="#7F77DD" stroke-width="0.55" opacity="0.16"/><polygon points="495.6,145.4 487.9,151.4 486.5,141.7" fill="none" stroke="#7F77DD" stroke-width="0.55" opacity="0.16"/><polygon points="485.2,144.3 476.6,148.8 476.9,139.1" fill="none" stroke="#7F77DD" stroke-width="0.55" opacity="0.16"/><polygon points="478.0,150.5 481.0,171.5 461.3,163.6" fill="none" stroke="#1D9E75" stroke-width="0.77" opacity="0.23"/><polygon points="481.3,155.4 473.6,161.4 472.2,151.7" fill="none" stroke="#7F77DD" stroke-width="0.55" opacity="0.16"/><polygon points="482.9,166.9 474.2,171.5 474.6,161.7" fill="none" stroke="#7F77DD" stroke-width="0.55" opacity="0.16"/><polygon points="472.9,164.0 463.5,166.9 465.7,157.4" fill="none" stroke="#7F77DD" stroke-width="0.55" opacity="0.16"/><polygon points="479.7,87.9 525.0,97.1 494.4,131.7" fill="none" stroke="#EF9F27" stroke-width="0.99" opacity="0.30"/><polygon points="492.2,84.7 498.9,104.9 478.1,100.6" fill="none" stroke="#1D9E75" stroke-width="0.77" opacity="0.23"/><polygon points="496.3,88.9 489.8,96.2 486.7,87.0" fill="none" stroke="#7F77DD" stroke-width="0.55" opacity="0.16"/><polygon points="499.9,100.0 492.2,106.0 490.8,96.4" fill="none" stroke="#7F77DD" stroke-width="0.55" opacity="0.16"/><polygon points="489.6,98.9 480.9,103.4 481.3,93.7" fill="none" stroke="#7F77DD" stroke-width="0.55" opacity="0.16"/><polygon points="516.9,89.9 520.0,111.0 500.2,103.1" fill="none" stroke="#1D9E75" stroke-width="0.77" opacity="0.23"/><polygon points="520.2,94.8 512.6,100.9 511.2,91.2" fill="none" stroke="#7F77DD" stroke-width="0.55" opacity="0.16"/><polygon points="521.8,106.4 513.2,110.9 513.5,101.2" fill="none" stroke="#7F77DD" stroke-width="0.55" opacity="0.16"/><polygon points="511.8,103.4 502.5,106.4 504.6,96.8" fill="none" stroke="#7F77DD" stroke-width="0.55" opacity="0.16"/><polygon points="503.6,108.2 502.8,129.5 484.8,118.2" fill="none" stroke="#1D9E75" stroke-width="0.77" opacity="0.23"/><polygon points="506.0,113.7 497.3,118.2 497.7,108.4" fill="none" stroke="#7F77DD" stroke-width="0.55" opacity="0.16"/><polygon points="505.4,125.3 496.1,128.2 498.2,118.7" fill="none" stroke="#7F77DD" stroke-width="0.55" opacity="0.16"/><polygon points="496.1,120.6 486.4,121.8 490.2,112.8" fill="none" stroke="#7F77DD" stroke-width="0.55" opacity="0.16"/><polygon points="507.4,128.6 550.3,145.8 514.0,174.4" fill="none" stroke="#EF9F27" stroke-width="0.99" opacity="0.30"/><polygon points="520.2,127.7 523.3,148.7 503.5,140.8" fill="none" stroke="#1D9E75" stroke-width="0.77" opacity="0.23"/><polygon points="523.6,132.6 515.9,138.6 514.5,129.0" fill="none" stroke="#7F77DD" stroke-width="0.55" opacity="0.16"/><polygon points="525.1,144.1 516.5,148.7 516.8,138.9" fill="none" stroke="#7F77DD" stroke-width="0.55" opacity="0.16"/><polygon points="515.1,141.2 505.8,144.1 507.9,134.6" fill="none" stroke="#7F77DD" stroke-width="0.55" opacity="0.16"/><polygon points="543.7,137.3 542.9,158.5 524.9,147.2" fill="none" stroke="#1D9E75" stroke-width="0.77" opacity="0.23"/><polygon points="546.0,142.7 537.4,147.3 537.8,137.5" fill="none" stroke="#7F77DD" stroke-width="0.55" opacity="0.16"/><polygon points="545.5,154.3 536.2,157.3 538.3,147.7" fill="none" stroke="#7F77DD" stroke-width="0.55" opacity="0.16"/><polygon points="536.2,149.6 526.5,150.9 530.3,141.9" fill="none" stroke="#7F77DD" stroke-width="0.55" opacity="0.16"/><polygon points="527.3,152.9 522.7,173.7 507.0,159.3" fill="none" stroke="#1D9E75" stroke-width="0.77" opacity="0.23"/><polygon points="528.6,158.7 519.3,161.6 521.4,152.1" fill="none" stroke="#7F77DD" stroke-width="0.55" opacity="0.16"/><polygon points="526.0,170.0 516.3,171.2 520.1,162.2" fill="none" stroke="#7F77DD" stroke-width="0.55" opacity="0.16"/><polygon points="517.7,163.7 507.9,163.2 513.3,155.0" fill="none" stroke="#7F77DD" stroke-width="0.55" opacity="0.16"/><polygon points="850.2,313.2 667.4,307.7 763.5,152.1" fill="none" stroke="#D4537E" stroke-width="1.21" opacity="0.37"/><polygon points="803.8,334.0 764.0,259.9 848.1,262.4" fill="none" stroke="#EF9F27" stroke-width="0.99" opacity="0.30"/><polygon points="784.9,320.3 805.2,287.4 823.6,321.5" fill="none" stroke="#1D9E75" stroke-width="0.77" opacity="0.23"/><polygon points="786.0,309.6 803.8,310.1 794.4,325.3" fill="none" stroke="#7F77DD" stroke-width="0.55" opacity="0.16"/><polygon points="797.3,291.7 814.7,295.4 802.8,308.6" fill="none" stroke="#7F77DD" stroke-width="0.55" opacity="0.16"/><polygon points="807.8,307.4 824.3,314.2 810.2,325.1" fill="none" stroke="#7F77DD" stroke-width="0.55" opacity="0.16"/><polygon points="763.4,279.6 789.3,250.8 801.2,287.6" fill="none" stroke="#1D9E75" stroke-width="0.77" opacity="0.23"/><polygon points="766.4,269.2 783.8,272.9 771.9,286.2" fill="none" stroke="#7F77DD" stroke-width="0.55" opacity="0.16"/><polygon points="780.7,253.6 797.1,260.4 783.0,271.2" fill="none" stroke="#7F77DD" stroke-width="0.55" opacity="0.16"/><polygon points="788.2,271.0 803.2,280.6 787.4,288.8" fill="none" stroke="#7F77DD" stroke-width="0.55" opacity="0.16"/><polygon points="804.5,276.9 835.2,253.2 840.3,291.6" fill="none" stroke="#1D9E75" stroke-width="0.77" opacity="0.23"/><polygon points="809.3,267.3 825.8,274.0 811.7,284.9" fill="none" stroke="#7F77DD" stroke-width="0.55" opacity="0.16"/><polygon points="826.2,254.4 841.2,264.1 825.4,272.2" fill="none" stroke="#7F77DD" stroke-width="0.55" opacity="0.16"/><polygon points="830.5,272.9 843.5,285.1 826.5,290.3" fill="none" stroke="#7F77DD" stroke-width="0.55" opacity="0.16"/><polygon points="703.7,330.2 677.8,250.2 760.1,267.7" fill="none" stroke="#EF9F27" stroke-width="0.99" opacity="0.30"/><polygon points="687.5,313.3 713.5,284.6 725.4,321.4" fill="none" stroke="#1D9E75" stroke-width="0.77" opacity="0.23"/><polygon points="690.5,303.0 708.0,306.7 696.0,319.9" fill="none" stroke="#7F77DD" stroke-width="0.55" opacity="0.16"/><polygon points="704.9,287.4 721.3,294.1 707.2,305.0" fill="none" stroke="#7F77DD" stroke-width="0.55" opacity="0.16"/><polygon points="712.4,304.8 727.4,314.4 711.6,322.6" fill="none" stroke="#7F77DD" stroke-width="0.55" opacity="0.16"/><polygon points="673.7,269.4 704.3,245.8 709.5,284.1" fill="none" stroke="#1D9E75" stroke-width="0.77" opacity="0.23"/><polygon points="678.5,259.8 694.9,266.5 680.8,277.4" fill="none" stroke="#7F77DD" stroke-width="0.55" opacity="0.16"/><polygon points="695.3,247.0 710.3,256.6 694.5,264.7" fill="none" stroke="#7F77DD" stroke-width="0.55" opacity="0.16"/><polygon points="699.6,265.4 712.7,277.6 695.6,282.8" fill="none" stroke="#7F77DD" stroke-width="0.55" opacity="0.16"/><polygon points="714.6,274.2 749.0,256.4 747.2,295.0" fill="none" stroke="#1D9E75" stroke-width="0.77" opacity="0.23"/><polygon points="721.1,265.5 736.1,275.2 720.3,283.3" fill="none" stroke="#7F77DD" stroke-width="0.55" opacity="0.16"/><polygon points="740.0,256.0 753.0,268.1 736.0,273.3" fill="none" stroke="#7F77DD" stroke-width="0.55" opacity="0.16"/><polygon points="740.9,274.9 751.5,289.2 733.9,291.3" fill="none" stroke="#7F77DD" stroke-width="0.55" opacity="0.16"/><polygon points="743.5,249.8 732.3,166.4 810.1,198.4" fill="none" stroke="#EF9F27" stroke-width="0.99" opacity="0.30"/><polygon points="730.6,230.3 761.2,206.7 766.4,245.0" fill="none" stroke="#1D9E75" stroke-width="0.77" opacity="0.23"/><polygon points="735.4,220.7 751.8,227.5 737.7,238.3" fill="none" stroke="#7F77DD" stroke-width="0.55" opacity="0.16"/><polygon points="752.2,207.9 767.2,217.5 751.4,225.7" fill="none" stroke="#7F77DD" stroke-width="0.55" opacity="0.16"/><polygon points="756.5,226.4 769.6,238.5 752.5,243.7" fill="none" stroke="#7F77DD" stroke-width="0.55" opacity="0.16"/><polygon points="724.8,184.6 759.2,166.8 757.4,205.5" fill="none" stroke="#1D9E75" stroke-width="0.77" opacity="0.23"/><polygon points="731.2,176.0 746.2,185.6 730.4,193.8" fill="none" stroke="#7F77DD" stroke-width="0.55" opacity="0.16"/><polygon points="750.1,166.4 763.2,178.5 746.1,183.8" fill="none" stroke="#7F77DD" stroke-width="0.55" opacity="0.16"/><polygon points="751.0,185.4 761.7,199.6 744.0,201.7" fill="none" stroke="#7F77DD" stroke-width="0.55" opacity="0.16"/><polygon points="764.2,196.6 801.3,185.3 792.6,223.0" fill="none" stroke="#1D9E75" stroke-width="0.77" opacity="0.23"/><polygon points="772.1,189.3 785.2,201.4 768.1,206.7" fill="none" stroke="#7F77DD" stroke-width="0.55" opacity="0.16"/><polygon points="792.4,183.3 803.1,197.5 785.4,199.6" fill="none" stroke="#7F77DD" stroke-width="0.55" opacity="0.16"/><polygon points="789.9,202.1 797.9,218.0 780.1,216.9" fill="none" stroke="#7F77DD" stroke-width="0.55" opacity="0.16"/><polygon points="1092.7,188.3 932.3,179.0 1020.5,44.7" fill="none" stroke="#D4537E" stroke-width="1.21" opacity="0.37"/><polygon points="1051.4,205.4 1018.2,139.4 1092.0,143.6" fill="none" stroke="#EF9F27" stroke-width="0.99" opacity="0.30"/><polygon points="1035.1,192.9 1053.8,164.5 1069.1,194.9" fill="none" stroke="#1D9E75" stroke-width="0.77" opacity="0.23"/><polygon points="1036.4,183.6 1052.0,184.5 1043.4,197.5" fill="none" stroke="#7F77DD" stroke-width="0.55" opacity="0.16"/><polygon points="1046.7,168.1 1061.9,171.8 1051.1,183.1" fill="none" stroke="#7F77DD" stroke-width="0.55" opacity="0.16"/><polygon points="1055.6,182.2 1069.9,188.5 1057.2,197.7" fill="none" stroke="#7F77DD" stroke-width="0.55" opacity="0.16"/><polygon points="1017.2,156.6 1040.7,132.0 1050.3,164.6" fill="none" stroke="#1D9E75" stroke-width="0.77" opacity="0.23"/><polygon points="1020.1,147.6 1035.3,151.3 1024.5,162.6" fill="none" stroke="#7F77DD" stroke-width="0.55" opacity="0.16"/><polygon points="1033.1,134.3 1047.4,140.6 1034.7,149.8" fill="none" stroke="#7F77DD" stroke-width="0.55" opacity="0.16"/><polygon points="1039.3,149.7 1052.2,158.5 1038.1,165.3" fill="none" stroke="#7F77DD" stroke-width="0.55" opacity="0.16"/><polygon points="1053.4,155.3 1080.9,135.3 1084.5,169.1" fill="none" stroke="#1D9E75" stroke-width="0.77" opacity="0.23"/><polygon points="1057.9,147.0 1072.2,153.3 1059.5,162.5" fill="none" stroke="#7F77DD" stroke-width="0.55" opacity="0.16"/><polygon points="1073.0,136.1 1085.9,144.9 1071.9,151.7" fill="none" stroke="#7F77DD" stroke-width="0.55" opacity="0.16"/><polygon points="1076.3,152.5 1087.5,163.4 1072.4,167.6" fill="none" stroke="#7F77DD" stroke-width="0.55" opacity="0.16"/><polygon points="963.7,199.7 942.8,128.8 1014.6,146.1" fill="none" stroke="#EF9F27" stroke-width="0.99" opacity="0.30"/><polygon points="949.8,184.5 973.3,159.8 982.9,192.5" fill="none" stroke="#1D9E75" stroke-width="0.77" opacity="0.23"/><polygon points="952.7,175.5 967.9,179.1 957.1,190.5" fill="none" stroke="#7F77DD" stroke-width="0.55" opacity="0.16"/><polygon points="965.7,162.1 980.0,168.4 967.3,177.6" fill="none" stroke="#7F77DD" stroke-width="0.55" opacity="0.16"/><polygon points="971.9,177.6 984.8,186.4 970.7,193.2" fill="none" stroke="#7F77DD" stroke-width="0.55" opacity="0.16"/><polygon points="938.7,145.5 966.2,125.5 969.8,159.3" fill="none" stroke="#1D9E75" stroke-width="0.77" opacity="0.23"/><polygon points="943.2,137.2 957.5,143.6 944.8,152.8" fill="none" stroke="#7F77DD" stroke-width="0.55" opacity="0.16"/><polygon points="958.3,126.4 971.2,135.2 957.2,142.0" fill="none" stroke="#7F77DD" stroke-width="0.55" opacity="0.16"/><polygon points="961.6,142.7 972.8,153.7 957.7,157.8" fill="none" stroke="#7F77DD" stroke-width="0.55" opacity="0.16"/><polygon points="974.6,150.7 1005.2,135.9 1002.7,169.8" fill="none" stroke="#1D9E75" stroke-width="0.77" opacity="0.23"/><polygon points="980.5,143.3 993.4,152.1 979.3,158.9" fill="none" stroke="#7F77DD" stroke-width="0.55" opacity="0.16"/><polygon points="997.3,135.3 1008.4,146.3 993.4,150.5" fill="none" stroke="#7F77DD" stroke-width="0.55" opacity="0.16"/><polygon points="997.6,152.0 1006.6,164.8 991.1,166.2" fill="none" stroke="#7F77DD" stroke-width="0.55" opacity="0.16"/><polygon points="1000.5,130.0 992.7,56.6 1060.2,86.5" fill="none" stroke="#EF9F27" stroke-width="0.99" opacity="0.30"/><polygon points="989.6,112.6 1017.1,92.6 1020.7,126.4" fill="none" stroke="#1D9E75" stroke-width="0.77" opacity="0.23"/><polygon points="994.1,104.3 1008.4,110.6 995.7,119.8" fill="none" stroke="#7F77DD" stroke-width="0.55" opacity="0.16"/><polygon points="1009.2,93.4 1022.1,102.2 1008.1,109.0" fill="none" stroke="#7F77DD" stroke-width="0.55" opacity="0.16"/><polygon points="1012.5,109.8 1023.7,120.7 1008.6,124.9" fill="none" stroke="#7F77DD" stroke-width="0.55" opacity="0.16"/><polygon points="985.7,72.3 1016.3,57.6 1013.8,91.5" fill="none" stroke="#1D9E75" stroke-width="0.77" opacity="0.23"/><polygon points="991.5,64.9 1004.5,73.7 990.4,80.5" fill="none" stroke="#7F77DD" stroke-width="0.55" opacity="0.16"/><polygon points="1008.4,57.0 1019.5,68.0 1004.4,72.1" fill="none" stroke="#7F77DD" stroke-width="0.55" opacity="0.16"/><polygon points="1008.7,73.6 1017.7,86.4 1002.1,87.8" fill="none" stroke="#7F77DD" stroke-width="0.55" opacity="0.16"/><polygon points="1020.0,83.9 1052.8,74.8 1044.2,107.7" fill="none" stroke="#1D9E75" stroke-width="0.77" opacity="0.23"/><polygon points="1027.1,77.6 1038.3,88.6 1023.2,92.8" fill="none" stroke="#7F77DD" stroke-width="0.55" opacity="0.16"/><polygon points="1045.1,72.8 1054.1,85.6 1038.5,87.0" fill="none" stroke="#7F77DD" stroke-width="0.55" opacity="0.16"/><polygon points="1042.5,89.3 1049.0,103.4 1033.4,102.0" fill="none" stroke="#7F77DD" stroke-width="0.55" opacity="0.16"/><polygon points="1306.4,92.8 1414.1,262.9 1212.9,271.1" fill="none" stroke="#D4537E" stroke-width="1.21" opacity="0.37"/><polygon points="1353.9,122.3 1310.9,204.3 1261.4,126.1" fill="none" stroke="#EF9F27" stroke-width="0.99" opacity="0.30"/><polygon points="1353.1,148.0 1310.6,149.7 1330.3,112.0" fill="none" stroke="#1D9E75" stroke-width="0.77" opacity="0.23"/><polygon points="1342.7,153.6 1332.2,137.0 1351.8,136.2" fill="none" stroke="#7F77DD" stroke-width="0.55" opacity="0.16"/><polygon points="1319.4,154.4 1312.0,136.2 1331.4,138.9" fill="none" stroke="#7F77DD" stroke-width="0.55" opacity="0.16"/><polygon points="1327.3,135.0 1323.3,115.9 1341.9,122.0" fill="none" stroke="#7F77DD" stroke-width="0.55" opacity="0.16"/><polygon points="1329.2,192.7 1287.0,186.8 1313.3,153.2" fill="none" stroke="#1D9E75" stroke-width="0.77" opacity="0.23"/><polygon points="1318.0,196.4 1310.6,178.2 1330.0,180.9" fill="none" stroke="#7F77DD" stroke-width="0.55" opacity="0.16"/><polygon points="1294.9,193.0 1290.9,173.8 1309.5,179.9" fill="none" stroke="#7F77DD" stroke-width="0.55" opacity="0.16"/><polygon points="1306.1,175.4 1305.6,155.8 1322.9,165.1" fill="none" stroke="#7F77DD" stroke-width="0.55" opacity="0.16"/><polygon points="1301.4,156.8 1261.0,143.5 1292.8,115.1" fill="none" stroke="#1D9E75" stroke-width="0.77" opacity="0.23"/><polygon points="1289.7,158.4 1285.7,139.2 1304.3,145.4" fill="none" stroke="#7F77DD" stroke-width="0.55" opacity="0.16"/><polygon points="1267.6,150.9 1267.1,131.3 1284.3,140.7" fill="none" stroke="#7F77DD" stroke-width="0.55" opacity="0.16"/><polygon points="1281.8,135.6 1284.9,116.2 1300.1,128.6" fill="none" stroke="#7F77DD" stroke-width="0.55" opacity="0.16"/><polygon points="1412.2,215.9 1355.2,288.9 1320.4,203.0" fill="none" stroke="#EF9F27" stroke-width="0.99" opacity="0.30"/><polygon points="1406.8,241.0 1364.6,235.1 1390.8,201.6" fill="none" stroke="#1D9E75" stroke-width="0.77" opacity="0.23"/><polygon points="1395.5,244.7 1388.2,226.5 1407.6,229.2" fill="none" stroke="#7F77DD" stroke-width="0.55" opacity="0.16"/><polygon points="1372.4,241.3 1368.4,222.1 1387.1,228.2" fill="none" stroke="#7F77DD" stroke-width="0.55" opacity="0.16"/><polygon points="1383.7,223.7 1383.2,204.1 1400.4,213.5" fill="none" stroke="#7F77DD" stroke-width="0.55" opacity="0.16"/><polygon points="1375.3,280.8 1334.8,267.4 1366.6,239.1" fill="none" stroke="#1D9E75" stroke-width="0.77" opacity="0.23"/><polygon points="1363.5,282.3 1359.5,263.1 1378.1,269.3" fill="none" stroke="#7F77DD" stroke-width="0.55" opacity="0.16"/><polygon points="1341.4,274.8 1341.0,255.3 1358.2,264.6" fill="none" stroke="#7F77DD" stroke-width="0.55" opacity="0.16"/><polygon points="1355.6,259.5 1358.7,240.2 1373.9,252.5" fill="none" stroke="#7F77DD" stroke-width="0.55" opacity="0.16"/><polygon points="1354.3,240.5 1316.9,220.1 1353.3,197.9" fill="none" stroke="#1D9E75" stroke-width="0.77" opacity="0.23"/><polygon points="1342.5,239.9 1342.0,220.3 1359.2,229.7" fill="none" stroke="#7F77DD" stroke-width="0.55" opacity="0.16"/><polygon points="1322.1,228.6 1325.2,209.2 1340.4,221.5" fill="none" stroke="#7F77DD" stroke-width="0.55" opacity="0.16"/><polygon points="1338.8,216.1 1345.3,197.6 1358.1,212.4" fill="none" stroke="#7F77DD" stroke-width="0.55" opacity="0.16"/><polygon points="1314.4,229.2 1245.2,290.8 1226.4,200.1" fill="none" stroke="#EF9F27" stroke-width="0.99" opacity="0.30"/><polygon points="1304.6,253.0 1264.1,239.6 1295.9,211.3" fill="none" stroke="#1D9E75" stroke-width="0.77" opacity="0.23"/><polygon points="1292.8,254.5 1288.8,235.4 1307.5,241.5" fill="none" stroke="#7F77DD" stroke-width="0.55" opacity="0.16"/><polygon points="1270.7,247.1 1270.3,227.5 1287.5,236.8" fill="none" stroke="#7F77DD" stroke-width="0.55" opacity="0.16"/><polygon points="1284.9,231.7 1288.0,212.4 1303.2,224.7" fill="none" stroke="#7F77DD" stroke-width="0.55" opacity="0.16"/><polygon points="1266.4,286.4 1229.0,266.0 1265.4,243.8" fill="none" stroke="#1D9E75" stroke-width="0.77" opacity="0.23"/><polygon points="1254.6,285.9 1254.1,266.3 1271.3,275.7" fill="none" stroke="#7F77DD" stroke-width="0.55" opacity="0.16"/><polygon points="1234.2,274.5 1237.3,255.2 1252.5,267.5" fill="none" stroke="#7F77DD" stroke-width="0.55" opacity="0.16"/><polygon points="1250.9,262.0 1257.4,243.5 1270.2,258.4" fill="none" stroke="#7F77DD" stroke-width="0.55" opacity="0.16"/><polygon points="1253.1,243.0 1219.9,216.3 1259.7,201.0" fill="none" stroke="#1D9E75" stroke-width="0.77" opacity="0.23"/><polygon points="1241.5,240.4 1244.6,221.0 1259.8,233.3" fill="none" stroke="#7F77DD" stroke-width="0.55" opacity="0.16"/><polygon points="1223.5,225.6 1230.0,207.1 1242.8,221.9" fill="none" stroke="#7F77DD" stroke-width="0.55" opacity="0.16"/><polygon points="1242.2,216.3 1251.9,199.2 1261.8,216.1" fill="none" stroke="#7F77DD" stroke-width="0.55" opacity="0.16"/></g>
  <path d="M70 260.1365 C403.13599999999997 61.206, 516.5 306.136, 777.216 204.856 S1219.76 151.82, 1510 258.4768" fill="none" stroke="#1D9E75" stroke-width="7" stroke-linecap="round" opacity=".34"/>
  <path d="M70 260.1365 C403.13599999999997 61.206, 516.5 306.136, 777.216 204.856 S1219.76 151.82, 1510 258.4768" fill="none" stroke="#EF9F27" stroke-width="1.1" stroke-dasharray="11 16" stroke-linecap="round" opacity=".78"/>
  <g stroke="#D4537E" stroke-width="2.2" fill="none" opacity=".74" transform="rotate(-1.16 1192.9 186.1)"><polygon points="1205.9,299.8 1101.0,254.2 1088.0,140.5 1180.0,72.4 1284.9,118.0 1297.9,231.7"/><polygon points="1169.2,240.7 1133.8,192.9 1157.5,138.3 1216.7,131.6 1252.1,179.4 1228.3,234.0"/><line x1="1205.9" y1="299.8" x2="1169.2" y2="240.7"/><line x1="1169.2" y1="240.7" x2="1101.0" y2="254.2"/><line x1="1101.0" y1="254.2" x2="1133.8" y2="192.9"/><line x1="1133.8" y1="192.9" x2="1088.0" y2="140.5"/><line x1="1088.0" y1="140.5" x2="1157.5" y2="138.3"/><line x1="1157.5" y1="138.3" x2="1180.0" y2="72.4"/><line x1="1180.0" y1="72.4" x2="1216.7" y2="131.6"/><line x1="1216.7" y1="131.6" x2="1284.9" y2="118.0"/><line x1="1284.9" y1="118.0" x2="1252.1" y2="179.4"/><line x1="1252.1" y1="179.4" x2="1297.9" y2="231.7"/><line x1="1297.9" y1="231.7" x2="1228.3" y2="234.0"/><line x1="1228.3" y1="234.0" x2="1205.9" y2="299.8"/></g>
  <g><polygon points="171.7,189.1 154.3,197.1 141.5,177.3 157.3,164.7 173.2,176.7" fill="#1D9E75" opacity="0.22"/><polygon points="289.7,278.4 269.6,285.1 251.9,272.8 249.2,261.4 282.0,239.6 289.1,244.2" fill="#EF9F27" opacity="0.26"/><polygon points="412.2,295.8 392.9,312.5 374.0,305.7 368.0,286.7 373.5,274.9 389.3,267.5 409.0,277.3" fill="#D4537E" opacity="0.30"/><polygon points="553.6,248.4 534.6,260.6 515.8,233.7 521.1,225.5 549.2,225.8" fill="#7F77DD" opacity="0.17"/><polygon points="727.6,160.6 700.7,177.5 687.3,162.7 687.5,152.6 700.6,138.7 724.9,147.6" fill="#1D9E75" opacity="0.30"/><polygon points="899.2,138.4 888.4,144.1 863.3,136.8 858.3,108.6 866.6,98.2 899.1,99.5 907.9,117.9" fill="#EF9F27" opacity="0.18"/><polygon points="1048.7,162.3 1024.1,174.2 1014.9,157.4 1025.5,143.1 1044.2,147.1" fill="#D4537E" opacity="0.24"/><polygon points="1172.0,259.4 1146.2,267.1 1127.9,251.3 1133.7,222.4 1148.9,214.9 1178.5,235.8" fill="#7F77DD" opacity="0.28"/><polygon points="1280.6,304.2 1265.5,310.3 1247.9,298.6 1246.3,293.4 1259.9,271.1 1272.6,271.2 1286.2,288.3" fill="#1D9E75" opacity="0.20"/><polygon points="1421.2,272.6 1391.3,281.0 1383.0,273.7 1399.8,238.2 1422.7,252.0" fill="#EF9F27" opacity="0.30"/></g>
  <g><rect x="101.7" y="73.6" width="117.7" height="4.5" fill="#7F77DD" opacity="0.27"/><rect x="218.0" y="73.6" width="98.5" height="10.4" fill="#1D9E75" opacity="0.21"/><rect x="321.4" y="85.1" width="62.4" height="14.1" fill="#EF9F27" opacity="0.21"/><rect x="405.9" y="55.1" width="23.9" height="9.9" fill="#D4537E" opacity="0.30"/><rect x="528.1" y="72.7" width="118.8" height="10.5" fill="#7F77DD" opacity="0.13"/><rect x="637.7" y="145.4" width="29.8" height="13.5" fill="#1D9E75" opacity="0.29"/><rect x="706.7" y="77.5" width="54.4" height="7.0" fill="#EF9F27" opacity="0.18"/><rect x="838.4" y="130.9" width="94.1" height="3.4" fill="#D4537E" opacity="0.19"/><rect x="916.8" y="227.5" width="85.1" height="11.1" fill="#7F77DD" opacity="0.11"/><rect x="1053.4" y="256.0" width="82.7" height="13.1" fill="#1D9E75" opacity="0.20"/><rect x="1125.6" y="80.9" width="84.9" height="5.7" fill="#EF9F27" opacity="0.24"/><rect x="1240.4" y="113.1" width="41.6" height="3.9" fill="#D4537E" opacity="0.21"/><rect x="1344.7" y="292.1" width="48.8" height="5.7" fill="#7F77DD" opacity="0.23"/><rect x="1435.3" y="282.3" width="58.6" height="13.3" fill="#1D9E75" opacity="0.10"/></g>
  <rect width="1600" height="360" filter="url(#grain-626443266)" opacity=".85"/>
</svg>
