<?xml version="1.0" encoding="UTF-8"?>
<svg xmlns="http://www.w3.org/2000/svg" viewBox="0 0 1600 900" width="1600" height="900" role="img" aria-labelledby="title desc">
  <title id="title">Hénon attractor pass-track backdrop</title>
  <desc id="desc">A text-free view of the verified Hénon bend-contract-reflect warp, tracing a small grid through several iterated generations, with low-contrast rhythmic geometric accents.</desc>
  <defs>
    
    <radialGradient id="udit-henon-pass-05-feedback-neb-a" cx="18%" cy="34%" r="62%"><stop offset="0" stop-color="#3b82f6" stop-opacity="0.48"/><stop offset="1" stop-color="#0f172a" stop-opacity="0"/></radialGradient>
    <radialGradient id="udit-henon-pass-05-feedback-neb-b" cx="82%" cy="68%" r="56%"><stop offset="0" stop-color="#10b981" stop-opacity="0.42"/><stop offset="1" stop-color="#0f172a" stop-opacity="0"/></radialGradient>
    <radialGradient id="udit-henon-pass-05-feedback-neb-c" cx="54%" cy="12%" r="48%"><stop offset="0" stop-color="#8b5cf6" stop-opacity="0.34"/><stop offset="1" stop-color="#0f172a" stop-opacity="0"/></radialGradient>
    <filter id="udit-henon-pass-05-feedback-nebula" x="-20%" y="-20%" width="140%" height="140%" color-interpolation-filters="sRGB">
      <feTurbulence type="fractalNoise" baseFrequency="0.006 0.01" numOctaves="4" seed="738" result="noise"/>
      <feColorMatrix in="noise" type="matrix" values="0 0 0 0 0.14  0 0 0 0 0.1  0 0 0 0 0.28  0 0 0 0.9 0" result="cloud"/>
      <feGaussianBlur in="cloud" stdDeviation="11" result="blur"/>
      <feBlend in="SourceGraphic" in2="blur" mode="screen"/>
    </filter>
    <linearGradient id="udit-henon-pass-05-feedback-veil" x1="0" x2="1"><stop offset="0" stop-color="#0f172a" stop-opacity="0.98"/><stop offset="0.42" stop-color="#0f172a" stop-opacity="0.88"/><stop offset="1" stop-color="#0f172a" stop-opacity="0.24"/></linearGradient>
    <filter id="udit-henon-pass-05-feedback-glow" x="-30%" y="-30%" width="160%" height="160%"><feGaussianBlur stdDeviation="3.2" result="blur"/><feMerge><feMergeNode in="blur"/><feMergeNode in="SourceGraphic"/></feMerge></filter>
  </defs>
  <rect width="1600" height="900" fill="#0f172a"/>
  <rect width="1600" height="900" fill="url(#udit-henon-pass-05-feedback-neb-a)"/>
  <rect width="1600" height="900" fill="url(#udit-henon-pass-05-feedback-neb-b)"/>
  <rect width="1600" height="900" fill="url(#udit-henon-pass-05-feedback-neb-c)"/>
  <rect width="1600" height="900" filter="url(#udit-henon-pass-05-feedback-nebula)" opacity="0.55"/>
  <g filter="url(#udit-henon-pass-05-feedback-glow)" opacity="1"><path d="M956.90,741.18 L980.36,741.18 L1003.82,741.18 L1027.28,741.18 L1050.74,741.18 L1074.20,741.18 L1097.66,741.18 L1121.12,741.18 L1144.57,741.18 L1168.03,741.18" fill="none" stroke="#3b82f6" stroke-width="0.55" opacity="0.140"/><path d="M956.90,741.18 L956.90,676.02 L956.90,610.85 L956.90,545.69 L956.90,480.53 L956.90,415.36 L956.90,350.20 L956.90,285.03 L956.90,219.87 L956.90,154.70" fill="none" stroke="#3b82f6" stroke-width="0.55" opacity="0.140"/><path d="M956.90,676.02 L980.36,676.02 L1003.82,676.02 L1027.28,676.02 L1050.74,676.02 L1074.20,676.02 L1097.66,676.02 L1121.12,676.02 L1144.57,676.02 L1168.03,676.02" fill="none" stroke="#3b82f6" stroke-width="0.55" opacity="0.140"/><path d="M980.36,741.18 L980.36,676.02 L980.36,610.85 L980.36,545.69 L980.36,480.53 L980.36,415.36 L980.36,350.20 L980.36,285.03 L980.36,219.87 L980.36,154.70" fill="none" stroke="#3b82f6" stroke-width="0.55" opacity="0.140"/><path d="M956.90,610.85 L980.36,610.85 L1003.82,610.85 L1027.28,610.85 L1050.74,610.85 L1074.20,610.85 L1097.66,610.85 L1121.12,610.85 L1144.57,610.85 L1168.03,610.85" fill="none" stroke="#3b82f6" stroke-width="0.55" opacity="0.140"/><path d="M1003.82,741.18 L1003.82,676.02 L1003.82,610.85 L1003.82,545.69 L1003.82,480.53 L1003.82,415.36 L1003.82,350.20 L1003.82,285.03 L1003.82,219.87 L1003.82,154.70" fill="none" stroke="#3b82f6" stroke-width="0.55" opacity="0.140"/><path d="M956.90,545.69 L980.36,545.69 L1003.82,545.69 L1027.28,545.69 L1050.74,545.69 L1074.20,545.69 L1097.66,545.69 L1121.12,545.69 L1144.57,545.69 L1168.03,545.69" fill="none" stroke="#3b82f6" stroke-width="0.55" opacity="0.140"/><path d="M1027.28,741.18 L1027.28,676.02 L1027.28,610.85 L1027.28,545.69 L1027.28,480.53 L1027.28,415.36 L1027.28,350.20 L1027.28,285.03 L1027.28,219.87 L1027.28,154.70" fill="none" stroke="#3b82f6" stroke-width="0.55" opacity="0.140"/><path d="M956.90,480.53 L980.36,480.53 L1003.82,480.53 L1027.28,480.53 L1050.74,480.53 L1074.20,480.53 L1097.66,480.53 L1121.12,480.53 L1144.57,480.53 L1168.03,480.53" fill="none" stroke="#3b82f6" stroke-width="0.55" opacity="0.140"/><path d="M1050.74,741.18 L1050.74,676.02 L1050.74,610.85 L1050.74,545.69 L1050.74,480.53 L1050.74,415.36 L1050.74,350.20 L1050.74,285.03 L1050.74,219.87 L1050.74,154.70" fill="none" stroke="#3b82f6" stroke-width="0.55" opacity="0.140"/><path d="M956.90,415.36 L980.36,415.36 L1003.82,415.36 L1027.28,415.36 L1050.74,415.36 L1074.20,415.36 L1097.66,415.36 L1121.12,415.36 L1144.57,415.36 L1168.03,415.36" fill="none" stroke="#3b82f6" stroke-width="0.55" opacity="0.140"/><path d="M1074.20,741.18 L1074.20,676.02 L1074.20,610.85 L1074.20,545.69 L1074.20,480.53 L1074.20,415.36 L1074.20,350.20 L1074.20,285.03 L1074.20,219.87 L1074.20,154.70" fill="none" stroke="#3b82f6" stroke-width="0.55" opacity="0.140"/><path d="M956.90,350.20 L980.36,350.20 L1003.82,350.20 L1027.28,350.20 L1050.74,350.20 L1074.20,350.20 L1097.66,350.20 L1121.12,350.20 L1144.57,350.20 L1168.03,350.20" fill="none" stroke="#3b82f6" stroke-width="0.55" opacity="0.140"/><path d="M1097.66,741.18 L1097.66,676.02 L1097.66,610.85 L1097.66,545.69 L1097.66,480.53 L1097.66,415.36 L1097.66,350.20 L1097.66,285.03 L1097.66,219.87 L1097.66,154.70" fill="none" stroke="#3b82f6" stroke-width="0.55" opacity="0.140"/><path d="M956.90,285.03 L980.36,285.03 L1003.82,285.03 L1027.28,285.03 L1050.74,285.03 L1074.20,285.03 L1097.66,285.03 L1121.12,285.03 L1144.57,285.03 L1168.03,285.03" fill="none" stroke="#3b82f6" stroke-width="0.55" opacity="0.140"/><path d="M1121.12,741.18 L1121.12,676.02 L1121.12,610.85 L1121.12,545.69 L1121.12,480.53 L1121.12,415.36 L1121.12,350.20 L1121.12,285.03 L1121.12,219.87 L1121.12,154.70" fill="none" stroke="#3b82f6" stroke-width="0.55" opacity="0.140"/><path d="M956.90,219.87 L980.36,219.87 L1003.82,219.87 L1027.28,219.87 L1050.74,219.87 L1074.20,219.87 L1097.66,219.87 L1121.12,219.87 L1144.57,219.87 L1168.03,219.87" fill="none" stroke="#3b82f6" stroke-width="0.55" opacity="0.140"/><path d="M1144.57,741.18 L1144.57,676.02 L1144.57,610.85 L1144.57,545.69 L1144.57,480.53 L1144.57,415.36 L1144.57,350.20 L1144.57,285.03 L1144.57,219.87 L1144.57,154.70" fill="none" stroke="#3b82f6" stroke-width="0.55" opacity="0.140"/><path d="M956.90,154.70 L980.36,154.70 L1003.82,154.70 L1027.28,154.70 L1050.74,154.70 L1074.20,154.70 L1097.66,154.70 L1121.12,154.70 L1144.57,154.70 L1168.03,154.70" fill="none" stroke="#3b82f6" stroke-width="0.55" opacity="0.140"/><path d="M1168.03,741.18 L1168.03,676.02 L1168.03,610.85 L1168.03,545.69 L1168.03,480.53 L1168.03,415.36 L1168.03,350.20 L1168.03,285.03 L1168.03,219.87 L1168.03,154.70" fill="none" stroke="#3b82f6" stroke-width="0.55" opacity="0.140"/><path d="M1342.22,535.92 L1356.82,516.37 L1367.76,496.82 L1375.06,477.27 L1378.71,457.72 L1378.71,438.17 L1375.06,418.62 L1367.76,399.07 L1356.82,379.52 L1342.22,359.97" fill="none" stroke="#3b82f6" stroke-width="0.80" opacity="0.224"/><path d="M1342.22,535.92 L1365.68,535.92 L1389.14,535.92 L1412.60,535.92 L1436.05,535.92 L1459.51,535.92 L1482.97,535.92 L1506.43,535.92 L1529.89,535.92 L1553.35,535.92" fill="none" stroke="#3b82f6" stroke-width="0.80" opacity="0.224"/><path d="M1365.68,535.92 L1380.27,516.37 L1391.22,496.82 L1398.52,477.27 L1402.17,457.72 L1402.17,438.17 L1398.52,418.62 L1391.22,399.07 L1380.27,379.52 L1365.68,359.97" fill="none" stroke="#3b82f6" stroke-width="0.80" opacity="0.224"/><path d="M1356.82,516.37 L1380.27,516.37 L1403.73,516.37 L1427.19,516.37 L1450.65,516.37 L1474.11,516.37 L1497.57,516.37 L1521.03,516.37 L1544.49,516.37 L1567.95,516.37" fill="none" stroke="#3b82f6" stroke-width="0.80" opacity="0.224"/><path d="M1389.14,535.92 L1403.73,516.37 L1414.68,496.82 L1421.98,477.27 L1425.63,457.72 L1425.63,438.17 L1421.98,418.62 L1414.68,399.07 L1403.73,379.52 L1389.14,359.97" fill="none" stroke="#3b82f6" stroke-width="0.80" opacity="0.224"/><path d="M1367.76,496.82 L1391.22,496.82 L1414.68,496.82 L1438.14,496.82 L1461.60,496.82 L1485.06,496.82 L1508.52,496.82 L1531.98,496.82 L1555.44,496.82 L1578.90,496.82" fill="none" stroke="#3b82f6" stroke-width="0.80" opacity="0.224"/><path d="M1412.60,535.92 L1427.19,516.37 L1438.14,496.82 L1445.44,477.27 L1449.09,457.72 L1449.09,438.17 L1445.44,418.62 L1438.14,399.07 L1427.19,379.52 L1412.60,359.97" fill="none" stroke="#3b82f6" stroke-width="0.80" opacity="0.224"/><path d="M1375.06,477.27 L1398.52,477.27 L1421.98,477.27 L1445.44,477.27 L1468.90,477.27 L1492.36,477.27 L1515.82,477.27 L1539.28,477.27 L1562.73,477.27 L1586.19,477.27" fill="none" stroke="#3b82f6" stroke-width="0.80" opacity="0.224"/><path d="M1436.05,535.92 L1450.65,516.37 L1461.60,496.82 L1468.90,477.27 L1472.55,457.72 L1472.55,438.17 L1468.90,418.62 L1461.60,399.07 L1450.65,379.52 L1436.05,359.97" fill="none" stroke="#3b82f6" stroke-width="0.80" opacity="0.224"/><path d="M1378.71,457.72 L1402.17,457.72 L1425.63,457.72 L1449.09,457.72 L1472.55,457.72 L1496.01,457.72 L1519.47,457.72 L1542.92,457.72 L1566.38,457.72 L1589.84,457.72" fill="none" stroke="#3b82f6" stroke-width="0.80" opacity="0.224"/><path d="M1459.51,535.92 L1474.11,516.37 L1485.06,496.82 L1492.36,477.27 L1496.01,457.72 L1496.01,438.17 L1492.36,418.62 L1485.06,399.07 L1474.11,379.52 L1459.51,359.97" fill="none" stroke="#3b82f6" stroke-width="0.80" opacity="0.224"/><path d="M1378.71,438.17 L1402.17,438.17 L1425.63,438.17 L1449.09,438.17 L1472.55,438.17 L1496.01,438.17 L1519.47,438.17 L1542.92,438.17 L1566.38,438.17 L1589.84,438.17" fill="none" stroke="#3b82f6" stroke-width="0.80" opacity="0.224"/><path d="M1482.97,535.92 L1497.57,516.37 L1508.52,496.82 L1515.82,477.27 L1519.47,457.72 L1519.47,438.17 L1515.82,418.62 L1508.52,399.07 L1497.57,379.52 L1482.97,359.97" fill="none" stroke="#3b82f6" stroke-width="0.80" opacity="0.224"/><path d="M1375.06,418.62 L1398.52,418.62 L1421.98,418.62 L1445.44,418.62 L1468.90,418.62 L1492.36,418.62 L1515.82,418.62 L1539.28,418.62 L1562.73,418.62 L1586.19,418.62" fill="none" stroke="#3b82f6" stroke-width="0.80" opacity="0.224"/><path d="M1506.43,535.92 L1521.03,516.37 L1531.98,496.82 L1539.28,477.27 L1542.92,457.72 L1542.92,438.17 L1539.28,418.62 L1531.98,399.07 L1521.03,379.52 L1506.43,359.97" fill="none" stroke="#3b82f6" stroke-width="0.80" opacity="0.224"/><path d="M1367.76,399.07 L1391.22,399.07 L1414.68,399.07 L1438.14,399.07 L1461.60,399.07 L1485.06,399.07 L1508.52,399.07 L1531.98,399.07 L1555.44,399.07 L1578.90,399.07" fill="none" stroke="#3b82f6" stroke-width="0.80" opacity="0.224"/><path d="M1529.89,535.92 L1544.49,516.37 L1555.44,496.82 L1562.73,477.27 L1566.38,457.72 L1566.38,438.17 L1562.73,418.62 L1555.44,399.07 L1544.49,379.52 L1529.89,359.97" fill="none" stroke="#3b82f6" stroke-width="0.80" opacity="0.224"/><path d="M1356.82,379.52 L1380.27,379.52 L1403.73,379.52 L1427.19,379.52 L1450.65,379.52 L1474.11,379.52 L1497.57,379.52 L1521.03,379.52 L1544.49,379.52 L1567.95,379.52" fill="none" stroke="#3b82f6" stroke-width="0.80" opacity="0.224"/><path d="M1553.35,535.92 L1567.95,516.37 L1578.90,496.82 L1586.19,477.27 L1589.84,457.72 L1589.84,438.17 L1586.19,418.62 L1578.90,399.07 L1567.95,379.52 L1553.35,359.97" fill="none" stroke="#3b82f6" stroke-width="0.80" opacity="0.224"/><path d="M1342.22,359.97 L1365.68,359.97 L1389.14,359.97 L1412.60,359.97 L1436.05,359.97 L1459.51,359.97 L1482.97,359.97 L1506.43,359.97 L1529.89,359.97 L1553.35,359.97" fill="none" stroke="#3b82f6" stroke-width="0.80" opacity="0.224"/><path d="M1193.59,214.82 L1172.85,202.65 L1158.12,193.53 L1150.21,187.45 L1149.64,184.41 L1156.68,184.41 L1171.32,187.45 L1193.31,193.53 L1222.11,202.65 L1256.93,214.82" fill="none" stroke="#10b981" stroke-width="1.04" opacity="0.308"/><path d="M1193.59,214.82 L1148.25,195.27 L1099.26,175.72 L1046.62,156.17 L990.33,136.62 L930.40,117.07 L866.81,97.52 L799.57,77.97 L728.69,58.42 L654.15,38.87" fill="none" stroke="#10b981" stroke-width="1.04" opacity="0.308"/><path d="M1148.25,195.27 L1125.24,183.10 L1108.81,173.98 L1099.76,167.90 L1098.62,164.86 L1105.66,164.86 L1120.87,167.90 L1144.00,173.98 L1174.50,183.10 L1211.59,195.27" fill="none" stroke="#10b981" stroke-width="1.04" opacity="0.308"/><path d="M1172.85,202.65 L1125.24,183.10 L1073.98,163.56 L1019.06,144.01 L960.51,124.46 L898.30,104.91 L832.44,85.36 L762.93,65.81 L689.77,46.26 L612.97,26.71" fill="none" stroke="#10b981" stroke-width="1.04" opacity="0.308"/><path d="M1099.26,175.72 L1073.98,163.56 L1055.84,154.43 L1045.66,148.35 L1043.95,145.31 L1050.99,145.31 L1066.77,148.35 L1091.03,154.43 L1123.24,163.56 L1162.60,175.72" fill="none" stroke="#10b981" stroke-width="1.04" opacity="0.308"/><path d="M1158.12,193.53 L1108.81,173.98 L1055.84,154.43 L999.23,134.88 L938.97,115.33 L875.05,95.78 L807.49,76.24 L736.28,56.69 L661.42,37.14 L582.92,17.59" fill="none" stroke="#10b981" stroke-width="1.04" opacity="0.308"/><path d="M1046.62,156.17 L1019.06,144.01 L999.23,134.88 L987.91,128.80 L985.64,125.76 L992.67,125.76 L1009.02,128.80 L1034.42,134.88 L1068.33,144.01 L1109.96,156.17" fill="none" stroke="#10b981" stroke-width="1.04" opacity="0.308"/><path d="M1150.21,187.45 L1099.76,167.90 L1045.66,148.35 L987.91,128.80 L926.51,109.25 L861.46,89.70 L792.77,70.15 L720.42,50.60 L644.43,31.05 L564.78,11.51" fill="none" stroke="#10b981" stroke-width="1.04" opacity="0.308"/><path d="M990.33,136.62 L960.51,124.46 L938.97,115.33 L926.51,109.25 L923.67,106.21 L930.71,106.21 L947.62,109.25 L974.16,115.33 L1009.77,124.46 L1053.67,136.62" fill="none" stroke="#10b981" stroke-width="1.04" opacity="0.308"/><path d="M1149.64,184.41 L1098.62,164.86 L1043.95,145.31 L985.64,125.76 L923.67,106.21 L858.06,86.66 L788.79,67.11 L715.88,47.56 L639.32,28.01 L559.10,8.46" fill="none" stroke="#10b981" stroke-width="1.04" opacity="0.308"/><path d="M930.40,117.07 L898.30,104.91 L875.05,95.78 L861.46,89.70 L858.06,86.66 L865.09,86.66 L882.58,89.70 L910.24,95.78 L947.56,104.91 L993.73,117.07" fill="none" stroke="#10b981" stroke-width="1.04" opacity="0.308"/><path d="M1156.68,184.41 L1105.66,164.86 L1050.99,145.31 L992.67,125.76 L930.71,106.21 L865.09,86.66 L795.83,67.11 L722.92,47.56 L646.35,28.01 L566.14,8.46" fill="none" stroke="#10b981" stroke-width="1.04" opacity="0.308"/><path d="M866.81,97.52 L832.44,85.36 L807.49,76.24 L792.77,70.15 L788.79,67.11 L795.83,67.11 L813.88,70.15 L842.68,76.24 L881.70,85.36 L930.15,97.52" fill="none" stroke="#10b981" stroke-width="1.04" opacity="0.308"/><path d="M1171.32,187.45 L1120.87,167.90 L1066.77,148.35 L1009.02,128.80 L947.62,109.25 L882.58,89.70 L813.88,70.15 L741.54,50.60 L665.54,31.05 L585.90,11.51" fill="none" stroke="#10b981" stroke-width="1.04" opacity="0.308"/><path d="M799.57,77.97 L762.93,65.81 L736.28,56.69 L720.42,50.60 L715.88,47.56 L722.92,47.56 L741.54,50.60 L771.47,56.69 L812.20,65.81 L862.91,77.97" fill="none" stroke="#10b981" stroke-width="1.04" opacity="0.308"/><path d="M1193.31,193.53 L1144.00,173.98 L1091.03,154.43 L1034.42,134.88 L974.16,115.33 L910.24,95.78 L842.68,76.24 L771.47,56.69 L696.61,37.14 L618.10,17.59" fill="none" stroke="#10b981" stroke-width="1.04" opacity="0.308"/><path d="M728.69,58.42 L689.77,46.26 L661.42,37.14 L644.43,31.05 L639.32,28.01 L646.35,28.01 L665.54,31.05 L696.61,37.14 L739.04,46.26 L792.03,58.42" fill="none" stroke="#10b981" stroke-width="1.04" opacity="0.308"/><path d="M1222.11,202.65 L1174.50,183.10 L1123.24,163.56 L1068.33,144.01 L1009.77,124.46 L947.56,104.91 L881.70,85.36 L812.20,65.81 L739.04,46.26 L662.23,26.71" fill="none" stroke="#10b981" stroke-width="1.04" opacity="0.308"/><path d="M654.15,38.87 L612.97,26.71 L582.92,17.59 L564.78,11.51 L559.10,8.46 L566.14,8.46 L585.90,11.51 L618.10,17.59 L662.23,26.71 L717.49,38.87" fill="none" stroke="#10b981" stroke-width="1.04" opacity="0.308"/><path d="M1256.93,214.82 L1211.59,195.27 L1162.60,175.72 L1109.96,156.17 L1053.67,136.62 L993.73,117.07 L930.15,97.52 L862.91,77.97 L792.03,58.42 L717.49,38.87" fill="none" stroke="#10b981" stroke-width="1.04" opacity="0.308"/><path d="M1511.65,338.67 L1532.64,355.96 L1545.99,368.23 L1552.99,374.83 L1554.41,375.30 L1550.18,369.44 L1539.23,357.23 L1519.56,338.91 L1488.54,314.91 L1443.28,285.89" fill="none" stroke="#10b981" stroke-width="1.29" opacity="0.392"/><path d="M1511.65,338.67 L1551.30,376.46 L1578.24,417.28 L1588.94,461.15 L1579.56,508.06 L1546.01,558.00 L1483.96,610.99 L1388.78,667.02 L1255.58,726.10 L1079.24,788.21" fill="none" stroke="#10b981" stroke-width="1.29" opacity="0.392"/><path d="M1551.30,376.46 L1567.01,395.64 L1576.24,409.33 L1580.94,416.87 L1582.31,417.82 L1580.46,411.95 L1574.24,399.27 L1561.32,380.00 L1538.46,354.58 L1501.97,323.67" fill="none" stroke="#10b981" stroke-width="1.29" opacity="0.392"/><path d="M1532.64,355.96 L1567.01,395.64 L1586.67,438.35 L1587.90,484.11 L1566.72,532.91 L1518.87,584.75 L1439.83,639.63 L1324.83,697.56 L1168.82,758.52 L966.49,822.53" fill="none" stroke="#10b981" stroke-width="1.29" opacity="0.392"/><path d="M1578.24,417.28 L1586.67,438.35 L1590.25,453.46 L1591.65,461.95 L1592.54,463.37 L1593.24,457.51 L1592.52,444.36 L1587.69,424.14 L1574.87,397.30 L1549.49,364.50" fill="none" stroke="#10b981" stroke-width="1.29" opacity="0.392"/><path d="M1545.99,368.23 L1576.24,409.33 L1590.25,453.46 L1584.18,500.64 L1553.90,550.86 L1495.06,604.12 L1403.00,660.42 L1272.83,719.76 L1099.38,782.15 L877.21,847.57" fill="none" stroke="#10b981" stroke-width="1.29" opacity="0.392"/><path d="M1588.94,461.15 L1587.90,484.11 L1584.18,500.64 L1581.19,510.08 L1581.15,511.97 L1584.57,506.11 L1590.15,492.48 L1594.83,471.32 L1594.04,443.06 L1582.29,408.36" fill="none" stroke="#10b981" stroke-width="1.29" opacity="0.392"/><path d="M1552.99,374.83 L1580.94,416.87 L1591.65,461.95 L1581.19,510.08 L1545.38,561.24 L1479.75,615.45 L1379.58,672.69 L1239.88,732.98 L1055.41,796.31 L820.65,862.68" fill="none" stroke="#10b981" stroke-width="1.29" opacity="0.392"/><path d="M1579.56,508.06 L1566.72,532.91 L1553.90,550.86 L1545.38,561.24 L1543.89,563.61 L1550.20,557.74 L1562.93,543.65 L1578.61,521.54 L1591.98,491.86 L1596.55,455.27" fill="none" stroke="#10b981" stroke-width="1.29" opacity="0.392"/><path d="M1554.41,375.30 L1582.31,417.82 L1592.54,463.37 L1581.15,511.97 L1543.89,563.61 L1476.26,618.29 L1373.51,676.01 L1230.60,736.77 L1042.25,800.57 L802.90,867.41" fill="none" stroke="#10b981" stroke-width="1.29" opacity="0.392"/><path d="M1546.01,558.00 L1518.87,584.75 L1495.06,604.12 L1479.75,615.45 L1476.26,618.29 L1485.64,612.42 L1506.41,597.85 L1534.68,574.80 L1564.45,543.70 L1588.18,505.22" fill="none" stroke="#10b981" stroke-width="1.29" opacity="0.392"/><path d="M1550.18,369.44 L1580.46,411.95 L1593.24,457.51 L1584.57,506.11 L1550.20,557.74 L1485.64,612.42 L1386.12,670.14 L1246.61,730.90 L1061.84,794.71 L826.22,861.55" fill="none" stroke="#10b981" stroke-width="1.29" opacity="0.392"/><path d="M1483.96,610.99 L1439.83,639.63 L1403.00,660.42 L1379.58,672.69 L1373.51,676.01 L1386.12,670.14 L1415.86,655.10 L1458.39,631.10 L1506.93,598.58 L1552.84,558.21" fill="none" stroke="#10b981" stroke-width="1.29" opacity="0.392"/><path d="M1539.23,357.23 L1574.24,399.27 L1592.52,444.36 L1590.15,492.48 L1562.93,543.65 L1506.41,597.85 L1415.86,655.10 L1286.29,715.39 L1112.46,778.72 L888.85,845.09" fill="none" stroke="#10b981" stroke-width="1.29" opacity="0.392"/><path d="M1388.78,667.02 L1324.83,697.56 L1272.83,719.76 L1239.88,732.98 L1230.60,736.77 L1246.61,730.90 L1286.29,715.39 L1344.84,690.44 L1414.63,656.50 L1485.89,614.24" fill="none" stroke="#10b981" stroke-width="1.29" opacity="0.392"/><path d="M1519.56,338.91 L1561.32,380.00 L1587.69,424.14 L1594.83,471.32 L1578.61,521.54 L1534.68,574.80 L1458.39,631.10 L1344.84,690.44 L1188.85,752.82 L985.00,818.25" fill="none" stroke="#10b981" stroke-width="1.29" opacity="0.392"/><path d="M1255.58,726.10 L1168.82,758.52 L1099.38,782.15 L1055.41,796.31 L1042.25,800.57 L1061.84,794.71 L1112.46,778.72 L1188.85,752.82 L1282.52,717.47 L1382.47,673.31" fill="none" stroke="#10b981" stroke-width="1.29" opacity="0.392"/><path d="M1488.54,314.91 L1538.46,354.58 L1574.87,397.30 L1594.04,443.06 L1591.98,491.86 L1564.45,543.70 L1506.93,598.58 L1414.63,656.50 L1282.52,717.47 L1105.28,781.47" fill="none" stroke="#10b981" stroke-width="1.29" opacity="0.392"/><path d="M1079.24,788.21 L966.49,822.53 L877.21,847.57 L820.65,862.68 L802.90,867.41 L826.22,861.55 L888.85,845.09 L985.00,818.25 L1105.28,781.47 L1237.43,735.42" fill="none" stroke="#10b981" stroke-width="1.29" opacity="0.392"/><path d="M1443.28,285.89 L1501.97,323.67 L1549.49,364.50 L1582.29,408.36 L1596.55,455.27 L1588.18,505.22 L1552.84,558.21 L1485.89,614.24 L1382.47,673.31 L1237.43,735.42" fill="none" stroke="#10b981" stroke-width="1.29" opacity="0.392"/><path d="M855.12,73.62 L784.92,56.13 L738.31,45.01 L713.32,39.18 L708.51,37.99 L724.37,41.52 L763.79,50.65 L831.27,67.03 L930.75,92.89 L1062.28,130.60" fill="none" stroke="#8b5cf6" stroke-width="1.54" opacity="0.476"/><path d="M855.12,73.62 L718.23,40.59 L613.77,18.13 L561.03,9.22 L576.60,17.04 L669.90,44.99 L837.03,96.70 L1052.84,176.02 L1260.95,287.01 L1361.31,433.97" fill="none" stroke="#8b5cf6" stroke-width="1.54" opacity="0.476"/><path d="M718.23,40.59 L659.56,27.49 L623.48,19.80 L604.69,15.88 L599.62,14.74 L608.10,16.28 L633.90,21.47 L684.12,32.23 L767.16,51.28 L889.06,81.70" fill="none" stroke="#8b5cf6" stroke-width="1.54" opacity="0.476"/><path d="M784.92,56.13 L659.56,27.49 L577.13,11.11 L556.37,10.08 L611.12,27.73 L744.87,67.61 L943.59,133.47 L1166.65,229.31 L1335.42,359.31 L1319.34,527.92" fill="none" stroke="#8b5cf6" stroke-width="1.54" opacity="0.476"/><path d="M613.77,18.13 L577.13,11.11 L559.21,8.12 L551.25,6.96 L547.60,6.21 L547.25,5.63 L554.51,6.23 L578.70,10.26 L632.48,20.94 L728.38,42.09" fill="none" stroke="#8b5cf6" stroke-width="1.54" opacity="0.476"/><path d="M738.31,45.01 L623.48,19.80 L559.21,8.12 L563.36,13.19 L646.97,38.41 L808.07,87.45 L1023.76,164.16 L1240.16,272.64 L1359.90,417.18 L1227.07,602.33" fill="none" stroke="#8b5cf6" stroke-width="1.54" opacity="0.476"/><path d="M561.03,9.22 L556.37,10.08 L563.36,13.19 L570.25,15.67 L569.73,15.71 L560.04,12.86 L545.50,8.21 L536.70,4.31 L549.66,4.97 L603.09,14.76" fill="none" stroke="#8b5cf6" stroke-width="1.54" opacity="0.476"/><path d="M713.32,39.18 L604.69,15.88 L551.25,6.96 L570.25,15.67 L670.77,45.52 L847.14,100.21 L1070.42,183.68 L1277.76,300.10 L1359.16,453.82 L1141.55,649.46" fill="none" stroke="#8b5cf6" stroke-width="1.54" opacity="0.476"/><path d="M576.60,17.04 L611.12,27.73 L646.97,38.41 L670.77,45.52 L674.69,46.76 L656.52,41.50 L619.87,30.89 L574.98,17.82 L539.32,6.68 L536.37,2.87" fill="none" stroke="#8b5cf6" stroke-width="1.54" opacity="0.476"/><path d="M708.51,37.99 L599.62,14.74 L547.60,6.21 L569.73,15.71 L674.69,46.76 L855.72,103.12 L1081.87,188.74 L1287.03,307.83 L1356.43,464.79 L1110.34,664.25" fill="none" stroke="#8b5cf6" stroke-width="1.54" opacity="0.476"/><path d="M669.90,44.99 L744.87,67.61 L808.07,87.45 L847.14,100.21 L855.72,103.12 L831.82,95.30 L777.34,77.99 L699.76,54.43 L614.81,29.63 L547.80,9.85" fill="none" stroke="#8b5cf6" stroke-width="1.54" opacity="0.476"/><path d="M724.37,41.52 L608.10,16.28 L547.25,5.63 L560.04,12.86 L656.52,41.50 L831.82,95.30 L1057.45,178.24 L1270.44,294.49 L1359.90,448.47 L1150.79,644.82" fill="none" stroke="#8b5cf6" stroke-width="1.54" opacity="0.476"/><path d="M837.03,96.70 L943.59,133.47 L1023.76,164.16 L1070.42,183.68 L1081.87,188.74 L1057.45,178.24 L996.11,153.45 L899.08,118.01 L775.55,77.56 L647.80,39.30" fill="none" stroke="#8b5cf6" stroke-width="1.54" opacity="0.476"/><path d="M763.79,50.65 L633.90,21.47 L554.51,6.23 L545.50,8.21 L619.87,30.89 L777.34,77.99 L996.11,153.45 L1222.36,261.42 L1357.37,406.28 L1241.82,592.63" fill="none" stroke="#8b5cf6" stroke-width="1.54" opacity="0.476"/><path d="M1052.84,176.02 L1166.65,229.31 L1240.16,272.64 L1277.76,300.10 L1287.03,307.83 L1270.44,294.49 L1222.36,261.42 L1133.08,212.63 L998.46,154.47 L830.45,95.09" fill="none" stroke="#8b5cf6" stroke-width="1.54" opacity="0.476"/><path d="M831.27,67.03 L684.12,32.23 L578.70,10.26 L536.70,4.31 L574.98,17.82 L699.76,54.43 L899.08,118.01 L1133.08,212.63 L1322.02,342.62 L1331.52,512.50" fill="none" stroke="#8b5cf6" stroke-width="1.54" opacity="0.476"/><path d="M1260.95,287.01 L1335.42,359.31 L1359.90,417.18 L1359.16,453.82 L1356.43,464.79 L1359.90,448.47 L1357.37,406.28 L1322.02,342.62 L1227.16,264.56 L1064.09,181.27" fill="none" stroke="#8b5cf6" stroke-width="1.54" opacity="0.476"/><path d="M930.75,92.89 L767.16,51.28 L632.48,20.94 L549.66,4.97 L539.32,6.68 L614.81,29.63 L775.55,77.56 L998.46,154.47 L1227.16,264.56 L1358.58,412.26" fill="none" stroke="#8b5cf6" stroke-width="1.54" opacity="0.476"/><path d="M1361.31,433.97 L1319.34,527.92 L1227.07,602.33 L1141.55,649.46 L1110.34,664.25 L1150.79,644.82 L1241.82,592.63 L1331.52,512.50 L1358.58,412.26 L1279.75,302.14" fill="none" stroke="#8b5cf6" stroke-width="1.54" opacity="0.476"/><path d="M1062.28,130.60 L889.06,81.70 L728.38,42.09 L603.09,14.76 L536.37,2.87 L547.80,9.85 L647.80,39.30 L830.45,95.09 L1064.09,181.27 L1279.75,302.14" fill="none" stroke="#8b5cf6" stroke-width="1.54" opacity="0.476"/><path d="M1476.95,620.73 L1370.39,679.23 L1281.40,718.08 L1227.73,738.90 L1216.94,742.91 L1252.05,729.69 L1332.00,696.84 L1444.65,640.61 L1555.04,557.71 L1598.98,448.10" fill="none" stroke="#8b5cf6" stroke-width="1.78" opacity="0.560"/><path d="M1476.95,620.73 L1238.50,734.81 L971.98,821.86 L809.03,865.81 L857.19,852.83 L1118.85,775.08 L1442.68,635.81 L1582.32,455.96 L1412.05,282.54 L1193.68,198.91" fill="none" stroke="#8b5cf6" stroke-width="1.78" opacity="0.560"/><path d="M1238.50,734.81 L1097.90,783.70 L999.95,813.77 L945.48,829.43 L930.43,833.65 L955.67,826.58 L1029.32,805.08 L1159.80,763.23 L1338.40,694.03 L1516.89,592.45" fill="none" stroke="#8b5cf6" stroke-width="1.78" opacity="0.560"/><path d="M1370.39,679.23 L1097.90,783.70 L861.02,852.40 L793.16,869.69 L960.61,824.06 L1287.23,712.61 L1551.09,547.01 L1527.45,361.12 L1269.62,220.48 L1237.17,233.88" fill="none" stroke="#8b5cf6" stroke-width="1.78" opacity="0.560"/><path d="M971.98,821.86 L861.02,852.40 L803.36,867.33 L777.02,873.96 L764.86,877.00 L763.87,877.29 L788.30,871.24 L866.38,851.08 L1025.46,806.27 L1260.78,726.35" fill="none" stroke="#8b5cf6" stroke-width="1.78" opacity="0.560"/><path d="M1281.40,718.08 L999.95,813.77 L803.36,867.33 L815.35,863.86 L1059.79,794.19 L1399.94,659.94 L1581.93,480.20 L1443.16,299.87 L1202.50,200.08 L1339.32,310.77" fill="none" stroke="#8b5cf6" stroke-width="1.78" opacity="0.560"/><path d="M809.03,865.81 L793.16,869.69 L815.35,863.86 L837.10,858.12 L835.38,858.56 L804.42,866.64 L756.97,878.75 L727.95,886.08 L772.33,875.28 L941.02,830.76" fill="none" stroke="#8b5cf6" stroke-width="1.78" opacity="0.560"/><path d="M1227.73,738.90 L945.48,829.43 L777.02,873.96 L837.10,858.12 L1120.93,774.36 L1456.19,627.39 L1579.66,441.31 L1384.28,268.53 L1190.78,200.70 L1391.45,382.04" fill="none" stroke="#8b5cf6" stroke-width="1.78" opacity="0.560"/><path d="M857.19,852.83 L960.61,824.06 L1059.79,794.19 L1120.93,774.36 L1130.62,771.09 L1084.69,786.23 L985.39,816.78 L851.67,854.19 L736.21,883.90 L727.32,886.36" fill="none" stroke="#8b5cf6" stroke-width="1.78" opacity="0.560"/><path d="M1216.94,742.91 L930.43,833.65 L764.86,877.00 L835.38,858.56 L1130.62,771.09 L1467.16,620.23 L1576.80,431.78 L1367.98,260.81 L1192.16,202.97 L1399.26,408.05" fill="none" stroke="#8b5cf6" stroke-width="1.78" opacity="0.560"/><path d="M1118.85,775.08 L1287.23,712.61 L1399.94,659.94 L1456.19,627.39 L1467.16,620.23 L1435.30,640.15 L1348.38,685.55 L1190.23,750.20 L970.93,820.99 L764.23,876.84" fill="none" stroke="#8b5cf6" stroke-width="1.78" opacity="0.560"/><path d="M1252.05,729.69 L955.67,826.58 L763.87,877.29 L804.42,866.64 L1084.69,786.23 L1435.30,640.15 L1581.74,452.12 L1396.58,274.63 L1191.24,200.09 L1387.99,374.34" fill="none" stroke="#8b5cf6" stroke-width="1.78" opacity="0.560"/><path d="M1442.68,635.81 L1551.09,547.01 L1581.93,480.20 L1579.66,441.31 L1576.80,431.78 L1581.74,452.12 L1576.15,503.24 L1515.00,584.10 L1345.14,687.04 L1061.76,793.50" fill="none" stroke="#8b5cf6" stroke-width="1.78" opacity="0.560"/><path d="M1332.00,696.84 L1029.32,805.08 L788.30,871.24 L756.97,878.75 L985.39,816.78 L1348.38,685.55 L1576.15,503.24 L1467.12,314.70 L1211.40,202.19 L1326.00,298.48" fill="none" stroke="#8b5cf6" stroke-width="1.78" opacity="0.560"/><path d="M1582.32,455.96 L1527.45,361.12 L1443.16,299.87 L1384.28,268.53 L1367.98,260.81 L1396.58,274.63 L1467.12,314.70 L1552.91,389.10 L1576.80,501.28 L1433.28,641.30" fill="none" stroke="#8b5cf6" stroke-width="1.78" opacity="0.560"/><path d="M1444.65,640.61 L1159.80,763.23 L866.38,851.08 L727.95,886.08 L851.67,854.19 L1190.23,750.20 L1515.00,584.10 L1552.91,389.10 L1299.29,231.65 L1221.48,223.73" fill="none" stroke="#8b5cf6" stroke-width="1.78" opacity="0.560"/><path d="M1412.05,282.54 L1269.62,220.48 L1202.50,200.08 L1190.78,200.70 L1192.16,202.97 L1191.24,200.09 L1211.40,202.19 L1299.29,231.65 L1460.83,310.70 L1580.72,446.59" fill="none" stroke="#8b5cf6" stroke-width="1.78" opacity="0.560"/><path d="M1555.04,557.71 L1338.40,694.03 L1025.46,806.27 L772.33,875.28 L736.21,883.90 L970.93,820.99 L1345.14,687.04 L1576.80,501.28 L1460.83,310.70 L1206.86,201.18" fill="none" stroke="#8b5cf6" stroke-width="1.78" opacity="0.560"/><path d="M1193.68,198.91 L1237.17,233.88 L1339.32,310.77 L1391.45,382.04 L1399.26,408.05 L1387.99,374.34 L1326.00,298.48 L1221.48,223.73 L1206.86,201.18 L1380.69,266.87" fill="none" stroke="#8b5cf6" stroke-width="1.78" opacity="0.560"/><path d="M1598.98,448.10 L1516.89,592.45 L1260.78,726.35 L941.02,830.76 L727.32,886.36 L764.23,876.84 L1061.76,793.50 L1433.28,641.30 L1580.72,446.59 L1380.69,266.87" fill="none" stroke="#8b5cf6" stroke-width="1.78" opacity="0.560"/></g>
  <g filter="url(#udit-henon-pass-05-feedback-glow)" opacity="0.72"><polygon points="1114.27,621.04 1079.67,254.98 1445.73,220.38 1480.33,586.44" fill="none" stroke="#3b82f6" stroke-width="2.10" opacity="0.200"/><polygon points="1098.07,559.52 1118.94,284.54 1393.93,305.41 1373.06,580.39" fill="none" stroke="#10b981" stroke-width="1.88" opacity="0.182"/></g>
  <g opacity="0.88"><polygon points="1114.27,621.04 1079.67,254.98 1445.73,220.38 1480.33,586.44" fill="none" stroke="#3b82f6" stroke-width="2.10" opacity="0.200"/><polygon points="1098.07,559.52 1118.94,284.54 1393.93,305.41 1373.06,580.39" fill="none" stroke="#10b981" stroke-width="1.88" opacity="0.182"/><polygon points="1086.53,544.68 1136.85,344.07 1337.47,394.39 1287.15,595.00" fill="none" stroke="#3b82f6" stroke-width="1.66" opacity="0.164"/><polygon points="1075.72,537.47 1138.37,395.56 1280.28,458.21 1217.63,600.12" fill="none" stroke="#10b981" stroke-width="1.44" opacity="0.146"/><polygon points="1063.37,507.67 1127.68,410.72 1224.63,475.04 1160.32,571.99" fill="none" stroke="#3b82f6" stroke-width="1.22" opacity="0.128"/><polygon points="1343.60,215.09 1344.33,207.56 1351.86,208.29 1351.13,215.82" fill="none" stroke="#3b82f6" stroke-width="0.85" opacity="0.167"/><polygon points="1503.51,396.33 1503.65,391.70 1508.28,391.85 1508.13,396.48" fill="none" stroke="#10b981" stroke-width="0.85" opacity="0.165"/><polygon points="977.28,319.25 978.08,315.48 981.85,316.29 981.05,320.05" fill="none" stroke="#8b5cf6" stroke-width="0.85" opacity="0.097"/><polygon points="1081.93,673.75 1082.47,667.94 1088.28,668.49 1087.73,674.29" fill="none" stroke="#3b82f6" stroke-width="0.85" opacity="0.186"/><polygon points="1403.97,706.32 1405.22,699.89 1411.66,701.14 1410.40,707.58" fill="none" stroke="#10b981" stroke-width="0.85" opacity="0.125"/><polygon points="1415.24,231.24 1414.88,224.74 1421.38,224.38 1421.74,230.88" fill="none" stroke="#8b5cf6" stroke-width="0.85" opacity="0.103"/><polygon points="832.02,158.14 832.98,150.45 840.67,151.41 839.71,159.10" fill="none" stroke="#3b82f6" stroke-width="0.85" opacity="0.107"/><polygon points="1081.14,206.56 1082.01,202.54 1086.04,203.41 1085.16,207.44" fill="none" stroke="#10b981" stroke-width="0.85" opacity="0.084"/><polygon points="1098.26,387.75 1098.05,381.50 1104.30,381.29 1104.51,387.55" fill="none" stroke="#8b5cf6" stroke-width="0.85" opacity="0.199"/><polygon points="1509.18,91.31 1510.17,83.70 1517.78,84.70 1516.78,92.31" fill="none" stroke="#3b82f6" stroke-width="0.85" opacity="0.079"/><polygon points="838.43,465.42 838.62,460.08 843.96,460.27 843.77,465.61" fill="none" stroke="#10b981" stroke-width="0.85" opacity="0.079"/><polygon points="1490.38,317.20 1490.25,311.38 1496.06,311.25 1496.20,317.06" fill="none" stroke="#8b5cf6" stroke-width="0.85" opacity="0.160"/><polygon points="1503.07,621.33 1503.10,614.19 1510.24,614.22 1510.20,621.36" fill="none" stroke="#3b82f6" stroke-width="0.85" opacity="0.099"/><polygon points="1157.21,399.62 1158.33,391.08 1166.87,392.19 1165.76,400.73" fill="none" stroke="#10b981" stroke-width="0.85" opacity="0.123"/><polygon points="1420.21,221.35 1420.34,216.53 1425.16,216.65 1425.04,221.48" fill="none" stroke="#8b5cf6" stroke-width="0.85" opacity="0.108"/><polygon points="756.81,717.18 758.21,710.77 764.62,712.17 763.23,718.58" fill="none" stroke="#3b82f6" stroke-width="0.85" opacity="0.098"/></g>
  <rect width="1600" height="900" fill="url(#udit-henon-pass-05-feedback-veil)"/>
</svg>