<?xml version="1.0" encoding="UTF-8"?>
<svg xmlns="http://www.w3.org/2000/svg" viewBox="0 0 1600 900" width="1600" height="900" role="img" aria-labelledby="title desc">
  <title id="title">Nebula pass-track backdrop</title>
  <desc id="desc">A text-free nebula shader field with low-contrast geometric accents — no Julia-set iteration in the background layer.</desc>
  <defs>
    
    <radialGradient id="udit-pass-04-practice-neb-a" cx="18%" cy="34%" r="62%"><stop offset="0" stop-color="#3b82f6" stop-opacity="0.48"/><stop offset="1" stop-color="#0f172a" stop-opacity="0"/></radialGradient>
    <radialGradient id="udit-pass-04-practice-neb-b" cx="82%" cy="68%" r="56%"><stop offset="0" stop-color="#10b981" stop-opacity="0.42"/><stop offset="1" stop-color="#0f172a" stop-opacity="0"/></radialGradient>
    <radialGradient id="udit-pass-04-practice-neb-c" cx="54%" cy="12%" r="48%"><stop offset="0" stop-color="#8b5cf6" stop-opacity="0.34"/><stop offset="1" stop-color="#0f172a" stop-opacity="0"/></radialGradient>
    <filter id="udit-pass-04-practice-nebula" x="-20%" y="-20%" width="140%" height="140%" color-interpolation-filters="sRGB">
      <feTurbulence type="fractalNoise" baseFrequency="0.006 0.01" numOctaves="4" seed="715" result="noise"/>
      <feColorMatrix in="noise" type="matrix" values="0 0 0 0 0.14  0 0 0 0 0.1  0 0 0 0 0.28  0 0 0 0.9 0" result="cloud"/>
      <feGaussianBlur in="cloud" stdDeviation="11" result="blur"/>
      <feBlend in="SourceGraphic" in2="blur" mode="screen"/>
    </filter>
    <linearGradient id="udit-pass-04-practice-veil" x1="0" x2="1"><stop offset="0" stop-color="#0f172a" stop-opacity="0.98"/><stop offset="0.42" stop-color="#0f172a" stop-opacity="0.9"/><stop offset="1" stop-color="#0f172a" stop-opacity="0.36"/></linearGradient>
    <filter id="udit-pass-04-practice-glow" x="-30%" y="-30%" width="160%" height="160%"><feGaussianBlur stdDeviation="7" result="blur"/><feMerge><feMergeNode in="blur"/><feMergeNode in="SourceGraphic"/></feMerge></filter>
  </defs>
  <rect width="1600" height="900" fill="#0f172a"/>
  <rect width="1600" height="900" fill="url(#udit-pass-04-practice-neb-a)"/>
  <rect width="1600" height="900" fill="url(#udit-pass-04-practice-neb-b)"/>
  <rect width="1600" height="900" fill="url(#udit-pass-04-practice-neb-c)"/>
  <rect width="1600" height="900" filter="url(#udit-pass-04-practice-nebula)" opacity="0.58"/>
  <g filter="url(#udit-pass-04-practice-glow)" opacity="0.72"><polygon points="1237.53,706.79 1025.57,523.83 1078.04,248.79 1342.47,156.71 1554.43,339.66 1501.96,614.71" fill="none" stroke="#3b82f6" stroke-width="2.20" opacity="0.220"/><polygon points="1179.30,603.70 1047.62,443.73 1120.32,249.70 1324.70,215.65 1456.38,375.62 1383.68,569.65" fill="none" stroke="#10b981" stroke-width="1.96" opacity="0.200"/></g>
  <g opacity="0.88"><polygon points="1237.53,706.79 1025.57,523.83 1078.04,248.79 1342.47,156.71 1554.43,339.66 1501.96,614.71" fill="none" stroke="#3b82f6" stroke-width="2.20" opacity="0.220"/><polygon points="1179.30,603.70 1047.62,443.73 1120.32,249.70 1324.70,215.65 1456.38,375.62 1383.68,569.65" fill="none" stroke="#10b981" stroke-width="1.96" opacity="0.200"/><polygon points="1136.69,552.49 1060.67,419.33 1137.99,286.92 1291.31,287.67 1367.33,420.83 1290.01,553.24" fill="none" stroke="#3b82f6" stroke-width="1.72" opacity="0.180"/><polygon points="1103.04,540.29 1064.27,433.65 1137.23,346.76 1248.96,366.51 1287.73,473.14 1214.77,560.03" fill="none" stroke="#10b981" stroke-width="1.48" opacity="0.160"/><polygon points="1073.91,533.23 1058.98,450.61 1123.08,396.37 1202.09,424.76 1217.02,507.38 1152.92,561.62" fill="none" stroke="#3b82f6" stroke-width="1.24" opacity="0.140"/><polygon points="1426.27,623.60 1425.67,613.24 1434.95,617.90" fill="none" stroke="#3b82f6" stroke-width="0.85" opacity="0.085"/><polygon points="1311.62,492.13 1309.26,484.69 1316.70,482.32 1319.06,489.76" fill="none" stroke="#10b981" stroke-width="0.85" opacity="0.112"/><polygon points="1371.33,376.23 1369.62,373.49 1371.69,371.02 1374.69,372.23 1374.47,375.45" fill="none" stroke="#8b5cf6" stroke-width="0.85" opacity="0.146"/><polygon points="810.89,105.12 809.28,103.31 810.05,101.02 812.42,100.53 814.02,102.34 813.26,104.64" fill="none" stroke="#3b82f6" stroke-width="0.85" opacity="0.212"/><polygon points="1342.22,255.96 1341.07,251.55 1345.47,252.76" fill="none" stroke="#10b981" stroke-width="0.85" opacity="0.173"/><polygon points="1432.42,136.45 1429.80,130.78 1435.47,128.15 1438.09,133.83" fill="none" stroke="#8b5cf6" stroke-width="0.85" opacity="0.189"/><polygon points="867.48,783.30 862.82,778.06 866.36,772.02 873.21,773.51 873.90,780.48" fill="none" stroke="#3b82f6" stroke-width="0.85" opacity="0.081"/><polygon points="1284.44,411.32 1282.08,408.85 1283.04,405.57 1286.36,404.76 1288.72,407.23 1287.76,410.51" fill="none" stroke="#10b981" stroke-width="0.85" opacity="0.181"/><polygon points="1399.59,114.69 1398.30,105.64 1406.78,109.05" fill="none" stroke="#8b5cf6" stroke-width="0.85" opacity="0.212"/><polygon points="918.58,185.30 915.33,180.43 920.20,177.17 923.46,182.04" fill="none" stroke="#3b82f6" stroke-width="0.85" opacity="0.207"/><polygon points="909.77,94.60 906.38,88.42 911.21,83.30 917.58,86.30 916.69,93.29" fill="none" stroke="#10b981" stroke-width="0.85" opacity="0.181"/><polygon points="784.70,121.31 779.87,116.88 781.30,110.48 787.55,108.51 792.38,112.95 790.96,119.35" fill="none" stroke="#8b5cf6" stroke-width="0.85" opacity="0.086"/><polygon points="1318.25,391.67 1316.16,383.66 1324.14,385.85" fill="none" stroke="#3b82f6" stroke-width="0.85" opacity="0.166"/><polygon points="1171.08,297.79 1168.18,291.89 1174.07,288.99 1176.97,294.89" fill="none" stroke="#10b981" stroke-width="0.85" opacity="0.088"/><polygon points="1466.62,776.37 1462.49,770.54 1466.76,764.80 1473.53,767.10 1473.45,774.24" fill="none" stroke="#8b5cf6" stroke-width="0.85" opacity="0.210"/><polygon points="1269.90,824.31 1265.99,819.82 1267.91,814.19 1273.76,813.04 1277.67,817.53 1275.74,823.16" fill="none" stroke="#3b82f6" stroke-width="0.85" opacity="0.179"/><polygon points="1261.55,413.27 1259.50,402.31 1270.02,406.01" fill="none" stroke="#10b981" stroke-width="0.85" opacity="0.201"/><polygon points="1402.32,250.48 1398.26,243.28 1405.46,239.23 1409.52,246.43" fill="none" stroke="#8b5cf6" stroke-width="0.85" opacity="0.153"/></g>
  <rect width="1600" height="900" fill="url(#udit-pass-04-practice-veil)"/>
</svg>