<?xml version="1.0" encoding="UTF-8"?>
<svg xmlns="http://www.w3.org/2000/svg" viewBox="0 0 1600 560" role="img" aria-labelledby="title-feii-unit-2-astro-fundamentals-semantic desc-feii-unit-2-astro-fundamentals-semantic">
  <title id="title-feii-unit-2-astro-fundamentals-semantic">FE II · semantic graphic</title>
  <desc id="desc-feii-unit-2-astro-fundamentals-semantic">Semantic hexagonal diagram linking the master idea &quot;Hydration is a cost model&quot; with the field lens &quot;Cost budget&quot;.</desc>
  <defs>
    <linearGradient id="semantic-ground-feii-unit-2-astro-fundamentals" x1="0" y1="0" x2="1" y2="1">
      <stop offset="0" stop-color="#191128"/>
      <stop offset="1" stop-color="#070A11"/>
    </linearGradient>
  </defs>
  <rect width="1600" height="560" fill="url(#semantic-ground-feii-unit-2-astro-fundamentals)"/>
  <g aria-hidden="true"><line x1="430.00" y1="244.67" x2="468.00" y2="292.55" stroke="#B6A1FF" stroke-opacity="0.100" stroke-width="2"/><line x1="499.74" y1="371.40" x2="537.74" y2="265.07" stroke="#FF6B3D" stroke-opacity="0.118" stroke-width="2"/><line x1="547.13" y1="256.23" x2="585.13" y2="284.35" stroke="#A6F4D4" stroke-opacity="0.133" stroke-width="2"/><line x1="568.86" y1="203.97" x2="606.86" y2="216.99" stroke="#B6A1FF" stroke-opacity="0.147" stroke-width="2"/><line x1="583.54" y1="352.93" x2="621.54" y2="284.86" stroke="#A6F4D4" stroke-opacity="0.158" stroke-width="2"/><line x1="615.77" y1="308.88" x2="653.77" y2="222.61" stroke="#FF6B3D" stroke-opacity="0.166" stroke-width="2"/><line x1="675.19" y1="188.40" x2="713.19" y2="205.03" stroke="#B6A1FF" stroke-opacity="0.173" stroke-width="2"/><line x1="748.24" y1="310.35" x2="786.24" y2="222.73" stroke="#FF6B3D" stroke-opacity="0.178" stroke-width="2"/><line x1="809.75" y1="351.97" x2="847.75" y2="283.00" stroke="#A6F4D4" stroke-opacity="0.180" stroke-width="2"/><line x1="844.38" y1="203.11" x2="882.38" y2="299.85" stroke="#B6A1FF" stroke-opacity="0.180" stroke-width="2"/><line x1="859.72" y1="257.74" x2="897.72" y2="248.74" stroke="#A6F4D4" stroke-opacity="0.178" stroke-width="2"/><line x1="879.81" y1="371.28" x2="917.81" y2="287.52" stroke="#FF6B3D" stroke-opacity="0.173" stroke-width="2"/><line x1="924.65" y1="243.24" x2="962.65" y2="268.14" stroke="#B6A1FF" stroke-opacity="0.166" stroke-width="2"/><line x1="993.12" y1="212.49" x2="1031.12" y2="255.15" stroke="#FF6B3D" stroke-opacity="0.158" stroke-width="2"/><line x1="1063.95" y1="360.41" x2="1101.95" y2="251.57" stroke="#A6F4D4" stroke-opacity="0.147" stroke-width="2"/><line x1="1113.84" y1="295.52" x2="1151.84" y2="240.72" stroke="#B6A1FF" stroke-opacity="0.133" stroke-width="2"/><line x1="1137.38" y1="189.55" x2="1175.38" y2="276.79" stroke="#A6F4D4" stroke-opacity="0.118" stroke-width="2"/><line x1="1151.61" y1="322.96" x2="1189.61" y2="315.96" stroke="#FF6B3D" stroke-opacity="0.100" stroke-width="2"/></g>
  <g aria-hidden="true"><polygon points="442.44,251.85 430.00,259.03 417.56,251.85 417.56,237.49 430.00,230.31 442.44,237.49" fill="#B6A1FF" fill-opacity="0.426" stroke="#B6A1FF" stroke-opacity="0.55" stroke-width="1.1"/><polygon points="509.41,376.98 499.74,382.55 490.08,376.98 490.08,365.82 499.74,360.24 509.41,365.82" fill="#FF6B3D" fill-opacity="0.290" stroke="#FF6B3D" stroke-opacity="0.55" stroke-width="1.1"/><polygon points="567.51,268.00 547.13,279.76 526.75,268.00 526.75,244.47 547.13,232.70 567.51,244.47" fill="#A6F4D4" fill-opacity="0.405" stroke="#A6F4D4" stroke-opacity="0.55" stroke-width="1.1"/><polygon points="585.42,213.53 568.86,223.09 552.31,213.53 552.31,194.41 568.86,184.86 585.42,194.41" fill="#B6A1FF" fill-opacity="0.217" stroke="#B6A1FF" stroke-opacity="0.55" stroke-width="1.1"/><polygon points="594.45,359.23 583.54,365.53 572.63,359.23 572.63,346.63 583.54,340.33 594.45,346.63" fill="#A6F4D4" fill-opacity="0.303" stroke="#A6F4D4" stroke-opacity="0.55" stroke-width="1.1"/><polygon points="629.89,317.03 615.77,325.18 601.65,317.03 601.65,300.72 615.77,292.57 629.89,300.72" fill="#FF6B3D" fill-opacity="0.349" stroke="#FF6B3D" stroke-opacity="0.55" stroke-width="1.1"/><polygon points="690.62,197.31 675.19,206.22 659.76,197.31 659.76,179.50 675.19,170.59 690.62,179.50" fill="#B6A1FF" fill-opacity="0.500" stroke="#B6A1FF" stroke-opacity="0.55" stroke-width="1.1"/><polygon points="761.15,317.80 748.24,325.26 735.33,317.80 735.33,302.90 748.24,295.44 761.15,302.90" fill="#FF6B3D" fill-opacity="0.367" stroke="#FF6B3D" stroke-opacity="0.55" stroke-width="1.1"/><polygon points="830.89,364.18 809.75,376.38 788.62,364.18 788.62,339.77 809.75,327.57 830.89,339.77" fill="#A6F4D4" fill-opacity="0.311" stroke="#A6F4D4" stroke-opacity="0.55" stroke-width="1.1"/><polygon points="860.69,212.53 844.38,221.95 828.06,212.53 828.06,193.70 844.38,184.28 860.69,193.70" fill="#B6A1FF" fill-opacity="0.306" stroke="#B6A1FF" stroke-opacity="0.55" stroke-width="1.1"/><polygon points="868.41,262.76 859.72,267.78 851.02,262.76 851.02,252.72 859.72,247.70 868.41,252.72" fill="#A6F4D4" fill-opacity="0.312" stroke="#A6F4D4" stroke-opacity="0.55" stroke-width="1.1"/><polygon points="891.00,377.74 879.81,384.20 868.62,377.74 868.62,364.82 879.81,358.36 891.00,364.82" fill="#FF6B3D" fill-opacity="0.407" stroke="#FF6B3D" stroke-opacity="0.55" stroke-width="1.1"/><polygon points="935.96,249.77 924.65,256.30 913.35,249.77 913.35,236.71 924.65,230.19 935.96,236.71" fill="#B6A1FF" fill-opacity="0.352" stroke="#B6A1FF" stroke-opacity="0.55" stroke-width="1.1"/><polygon points="1002.07,217.66 993.12,222.82 984.17,217.66 984.17,207.32 993.12,202.15 1002.07,207.32" fill="#FF6B3D" fill-opacity="0.443" stroke="#FF6B3D" stroke-opacity="0.55" stroke-width="1.1"/><polygon points="1073.26,365.79 1063.95,371.16 1054.63,365.79 1054.63,355.03 1063.95,349.66 1073.26,355.03" fill="#A6F4D4" fill-opacity="0.456" stroke="#A6F4D4" stroke-opacity="0.55" stroke-width="1.1"/><polygon points="1130.78,305.30 1113.84,315.08 1096.91,305.30 1096.91,285.74 1113.84,275.96 1130.78,285.74" fill="#B6A1FF" fill-opacity="0.284" stroke="#B6A1FF" stroke-opacity="0.55" stroke-width="1.1"/><polygon points="1153.54,198.89 1137.38,208.22 1121.22,198.89 1121.22,180.22 1137.38,170.89 1153.54,180.22" fill="#A6F4D4" fill-opacity="0.450" stroke="#A6F4D4" stroke-opacity="0.55" stroke-width="1.1"/><polygon points="1173.80,335.77 1151.61,348.58 1129.43,335.77 1129.43,310.15 1151.61,297.34 1173.80,310.15" fill="#FF6B3D" fill-opacity="0.378" stroke="#FF6B3D" stroke-opacity="0.55" stroke-width="1.1"/></g>
  <g transform="translate(420 280)">
    <polygon points="102.19,59.00 0.00,118.00 -102.19,59.00 -102.19,-59.00 -0.00,-118.00 102.19,-59.00" fill="#FF6B3D" fill-opacity="0.24" stroke="#FF6B3D" stroke-opacity="0.9" stroke-width="2.4"/>
    <text x="0" y="-20" text-anchor="middle" fill="#FBF5ED" font-family="ui-monospace, SFMono-Regular, Menlo, monospace" font-size="18" font-weight="500" letter-spacing="2" opacity="0.88">MASTER IDEA</text>
    <g class="semantic-callout semantic-callout--above">
    <rect x="-187.60" y="-219.00" width="375.20" height="100.00" rx="18" fill="#191128" fill-opacity="0.88" stroke="#FF6B3D" stroke-opacity="0.78" stroke-width="1.4"/>
    <text text-anchor="middle" fill="#FBF5ED" font-family="Inter, ui-sans-serif, system-ui, sans-serif" font-size="30" font-weight="500"><tspan x="0" y="-199">Hydration is a cost</tspan><tspan x="0" y="-163">model</tspan></text>
  </g>
  </g>
  <g transform="translate(1180 280)">
    <polygon points="102.19,59.00 0.00,118.00 -102.19,59.00 -102.19,-59.00 -0.00,-118.00 102.19,-59.00" fill="#A6F4D4" fill-opacity="0.24" stroke="#A6F4D4" stroke-opacity="0.9" stroke-width="2.4"/>
    <text x="0" y="-20" text-anchor="middle" fill="#FBF5ED" font-family="ui-monospace, SFMono-Regular, Menlo, monospace" font-size="18" font-weight="500" letter-spacing="2" opacity="0.88">FIELD LENS</text>
    <g class="semantic-callout semantic-callout--above">
    <rect x="-130.00" y="-202.00" width="260.00" height="66.00" rx="18" fill="#191128" fill-opacity="0.88" stroke="#A6F4D4" stroke-opacity="0.78" stroke-width="1.4"/>
    <text text-anchor="middle" fill="#FBF5ED" font-family="Inter, ui-sans-serif, system-ui, sans-serif" font-size="30" font-weight="500"><tspan x="0" y="-164">Cost budget</tspan></text>
  </g>
  </g>
  <g transform="translate(800 160)">
    <polygon points="62.35,36.00 0.00,72.00 -62.35,36.00 -62.35,-36.00 -0.00,-72.00 62.35,-36.00" fill="#B6A1FF" fill-opacity="0.24" stroke="#B6A1FF" stroke-opacity="0.9" stroke-width="2.4"/>
    <text x="0" y="-20" text-anchor="middle" fill="#FBF5ED" font-family="ui-monospace, SFMono-Regular, Menlo, monospace" font-size="18" font-weight="500" letter-spacing="2" opacity="0.88">BUDGET</text>
    <g class="semantic-callout semantic-callout--above">
    <rect x="-154.00" y="-156.00" width="308.00" height="66.00" rx="18" fill="#191128" fill-opacity="0.88" stroke="#B6A1FF" stroke-opacity="0.78" stroke-width="1.4"/>
    <text text-anchor="middle" fill="#FBF5ED" font-family="Inter, ui-sans-serif, system-ui, sans-serif" font-size="30" font-weight="500"><tspan x="0" y="-118">studio decision</tspan></text>
  </g>
  </g>
  <g transform="translate(800 400)">
    <polygon points="62.35,36.00 0.00,72.00 -62.35,36.00 -62.35,-36.00 -0.00,-72.00 62.35,-36.00" fill="#FBF5ED" fill-opacity="0.88" stroke="#FBF5ED" stroke-opacity="0.9" stroke-width="2.4"/>
    <text x="0" y="-20" text-anchor="middle" fill="#191128" font-family="ui-monospace, SFMono-Regular, Menlo, monospace" font-size="18" font-weight="500" letter-spacing="2" opacity="0.88">EVIDENCE</text>
    <g class="semantic-callout semantic-callout--above">
    <rect x="-137.20" y="-156.00" width="274.40" height="66.00" rx="18" fill="#FBF5ED" fill-opacity="0.88" stroke="#FBF5ED" stroke-opacity="0.78" stroke-width="1.4"/>
    <text text-anchor="middle" fill="#191128" font-family="Inter, ui-sans-serif, system-ui, sans-serif" font-size="30" font-weight="500"><tspan x="0" y="-118">process trace</tspan></text>
  </g>
  </g>
</svg>