<?xml version="1.0" encoding="UTF-8"?>
<svg xmlns="http://www.w3.org/2000/svg" viewBox="0 0 1600 900" role="img" aria-labelledby="title-react-framework-mode-auth-i18n desc-react-framework-mode-auth-i18n">
  <title id="title-react-framework-mode-auth-i18n">FE I · 24</title>
  <desc id="desc-react-framework-mode-auth-i18n">Abstract hexagonal field representing rendering, data, identity, and language boundaries; no people or products are depicted.</desc>
  <defs>
    <linearGradient id="ground-react-framework-mode-auth-i18n" x1="0" y1="0" x2="1" y2="1">
      <stop offset="0" stop-color="#101827"/>
      <stop offset="1" stop-color="#070A11"/>
    </linearGradient>
    <linearGradient id="mark-react-framework-mode-auth-i18n" x1="0" y1="0" x2="1" y2="1">
      <stop offset="0" stop-color="#FF7A59"/>
      <stop offset="0.55" stop-color="#54D6BE"/>
      <stop offset="1" stop-color="#F3C969"/>
    </linearGradient>
  </defs>
  <rect width="1600" height="900" fill="url(#ground-react-framework-mode-auth-i18n)"/>
  <g aria-hidden="true"><polygon points="1412.90,731.34 962.57,991.34 512.23,731.34 512.23,211.34 962.57,-48.66 1412.90,211.34" fill="#54D6BE" fill-opacity="0.063" stroke="#54D6BE" stroke-opacity="0.073" stroke-width="1.2"/><polygon points="1300.32,666.34 962.57,861.34 624.82,666.34 624.82,276.34 962.57,81.34 1300.32,276.34" fill="#FF7A59" fill-opacity="0.051" stroke="#FF7A59" stroke-opacity="0.061" stroke-width="1.2"/><polygon points="1209.39,613.84 962.57,756.34 715.75,613.84 715.75,328.84 962.57,186.34 1209.39,328.84" fill="#54D6BE" fill-opacity="0.039" stroke="#54D6BE" stroke-opacity="0.049" stroke-width="1.2"/><polygon points="1131.44,568.84 962.57,666.34 793.69,568.84 793.69,373.84 962.57,276.34 1131.44,373.84" fill="#FF7A59" fill-opacity="0.027" stroke="#FF7A59" stroke-opacity="0.037" stroke-width="1.2"/></g>
  <g aria-hidden="true"><polygon points="122.40,-55.33 109.12,-47.67 95.84,-55.33 95.84,-70.67 109.12,-78.33 122.40,-70.67" fill="#F3C969" fill-opacity="0.092" stroke="#F3C969" stroke-opacity="0.166" stroke-width="1.1"/><polygon points="196.20,-54.73 181.87,-46.45 167.53,-54.73 167.53,-71.27 181.87,-79.55 196.20,-71.27" fill="#F3C969" fill-opacity="0.103" stroke="#F3C969" stroke-opacity="0.185" stroke-width="1.1"/><polygon points="271.26,-53.39 254.61,-43.78 237.97,-53.39 237.97,-72.61 254.61,-82.22 271.26,-72.61" fill="#F3C969" fill-opacity="0.129" stroke="#F3C969" stroke-opacity="0.232" stroke-width="1.1"/><polygon points="343.37,-53.76 327.36,-44.51 311.35,-53.76 311.35,-72.24 327.36,-81.49 343.37,-72.24" fill="#F3C969" fill-opacity="0.122" stroke="#F3C969" stroke-opacity="0.220" stroke-width="1.1"/><polygon points="416.85,-53.33 400.10,-43.67 383.36,-53.33 383.36,-72.67 400.10,-82.33 416.85,-72.67" fill="#F3C969" fill-opacity="0.130" stroke="#F3C969" stroke-opacity="0.234" stroke-width="1.1"/><polygon points="486.36,-55.20 472.85,-47.40 459.34,-55.20 459.34,-70.80 472.85,-78.60 486.36,-70.80" fill="#F3C969" fill-opacity="0.094" stroke="#F3C969" stroke-opacity="0.169" stroke-width="1.1"/><polygon points="849.58,-55.49 836.58,-47.98 823.58,-55.49 823.58,-70.51 836.58,-78.02 849.58,-70.51" fill="#F3C969" fill-opacity="0.089" stroke="#F3C969" stroke-opacity="0.160" stroke-width="1.1"/><polygon points="926.76,-52.93 909.33,-42.87 891.89,-52.93 891.89,-73.07 909.33,-83.13 926.76,-73.07" fill="#FF7A59" fill-opacity="0.138" stroke="#FF7A59" stroke-opacity="0.248" stroke-width="1.1"/><polygon points="998.21,-53.68 982.07,-44.37 965.94,-53.68 965.94,-72.32 982.07,-81.63 998.21,-72.32" fill="#F3C969" fill-opacity="0.124" stroke="#F3C969" stroke-opacity="0.223" stroke-width="1.1"/><polygon points="1070.63,-53.87 1054.82,-44.74 1039.01,-53.87 1039.01,-72.13 1054.82,-81.26 1070.63,-72.13" fill="#F3C969" fill-opacity="0.120" stroke="#F3C969" stroke-opacity="0.216" stroke-width="1.1"/><polygon points="1141.34,-55.05 1127.57,-47.10 1113.79,-55.05 1113.79,-70.95 1127.57,-78.90 1141.34,-70.95" fill="#F3C969" fill-opacity="0.097" stroke="#F3C969" stroke-opacity="0.175" stroke-width="1.1"/><polygon points="1505.24,-54.95 1491.30,-46.90 1477.35,-54.95 1477.35,-71.05 1491.30,-79.10 1505.24,-71.05" fill="#F3C969" fill-opacity="0.099" stroke="#F3C969" stroke-opacity="0.178" stroke-width="1.1"/><polygon points="1580.58,-53.45 1564.04,-43.90 1547.50,-53.45 1547.50,-72.55 1564.04,-82.10 1580.58,-72.55" fill="#F3C969" fill-opacity="0.128" stroke="#F3C969" stroke-opacity="0.230" stroke-width="1.1"/><polygon points="1652.35,-54.02 1636.79,-45.03 1621.23,-54.02 1621.23,-71.98 1636.79,-80.97 1652.35,-71.98" fill="#F3C969" fill-opacity="0.117" stroke="#F3C969" stroke-opacity="0.211" stroke-width="1.1"/><polygon points="1724.26,-54.50 1709.53,-46.00 1694.81,-54.50 1694.81,-71.50 1709.53,-80.00 1724.26,-71.50" fill="#F3C969" fill-opacity="0.108" stroke="#F3C969" stroke-opacity="0.194" stroke-width="1.1"/><polygon points="1796.44,-54.82 1782.28,-46.65 1768.12,-54.82 1768.12,-71.18 1782.28,-79.35 1796.44,-71.18" fill="#F3C969" fill-opacity="0.102" stroke="#F3C969" stroke-opacity="0.184" stroke-width="1.1"/><polygon points="-54.95,10.27 -72.75,20.54 -90.54,10.27 -90.54,-10.27 -72.75,-20.54 -54.95,-10.27" fill="#FF7A59" fill-opacity="0.142" stroke="#FF7A59" stroke-opacity="0.256" stroke-width="1.1"/><polygon points="15.70,9.06 0.00,18.12 -15.70,9.06 -15.70,-9.06 -0.00,-18.12 15.70,-9.06" fill="#F3C969" fill-opacity="0.119" stroke="#F3C969" stroke-opacity="0.214" stroke-width="1.1"/><polygon points="376.71,7.49 363.73,14.98 350.76,7.49 350.76,-7.49 363.73,-14.98 376.71,-7.49" fill="#F3C969" fill-opacity="0.088" stroke="#F3C969" stroke-opacity="0.158" stroke-width="1.1"/><polygon points="451.39,8.61 436.48,17.22 421.56,8.61 421.56,-8.61 436.48,-17.22 451.39,-8.61" fill="#F3C969" fill-opacity="0.110" stroke="#F3C969" stroke-opacity="0.198" stroke-width="1.1"/><polygon points="524.15,8.62 509.22,17.24 494.29,8.62 494.29,-8.62 509.22,-17.24 524.15,-8.62" fill="#F3C969" fill-opacity="0.110" stroke="#F3C969" stroke-opacity="0.198" stroke-width="1.1"/><polygon points="598.09,9.31 581.97,18.62 565.85,9.31 565.85,-9.31 581.97,-18.62 598.09,-9.31" fill="#F3C969" fill-opacity="0.123" stroke="#F3C969" stroke-opacity="0.221" stroke-width="1.1"/><polygon points="671.29,9.57 654.72,19.14 638.14,9.57 638.14,-9.57 654.72,-19.14 671.29,-9.57" fill="#F3C969" fill-opacity="0.128" stroke="#F3C969" stroke-opacity="0.230" stroke-width="1.1"/><polygon points="742.21,8.52 727.46,17.03 712.71,8.52 712.71,-8.52 727.46,-17.03 742.21,-8.52" fill="#F3C969" fill-opacity="0.108" stroke="#F3C969" stroke-opacity="0.194" stroke-width="1.1"/><polygon points="1105.21,8.09 1091.19,16.18 1077.18,8.09 1077.18,-8.09 1091.19,-16.18 1105.21,-8.09" fill="#F3C969" fill-opacity="0.100" stroke="#F3C969" stroke-opacity="0.180" stroke-width="1.1"/><polygon points="1179.01,8.70 1163.94,17.40 1148.87,8.70 1148.87,-8.70 1163.94,-17.40 1179.01,-8.70" fill="#F3C969" fill-opacity="0.112" stroke="#F3C969" stroke-opacity="0.202" stroke-width="1.1"/><polygon points="1253.11,9.48 1236.68,18.96 1220.26,9.48 1220.26,-9.48 1236.68,-18.96 1253.11,-9.48" fill="#F3C969" fill-opacity="0.127" stroke="#F3C969" stroke-opacity="0.229" stroke-width="1.1"/><polygon points="1325.97,9.55 1309.43,19.09 1292.89,9.55 1292.89,-9.55 1309.43,-19.09 1325.97,-9.55" fill="#F3C969" fill-opacity="0.128" stroke="#F3C969" stroke-opacity="0.230" stroke-width="1.1"/><polygon points="1397.10,8.62 1382.18,17.24 1367.25,8.62 1367.25,-8.62 1382.18,-17.24 1397.10,-8.62" fill="#F3C969" fill-opacity="0.110" stroke="#F3C969" stroke-opacity="0.198" stroke-width="1.1"/><polygon points="1760.35,8.34 1745.91,16.67 1731.47,8.34 1731.47,-8.34 1745.91,-16.67 1760.35,-8.34" fill="#F3C969" fill-opacity="0.105" stroke="#F3C969" stroke-opacity="0.189" stroke-width="1.1"/><polygon points="123.40,71.24 109.12,79.49 94.84,71.24 94.84,54.76 109.12,46.51 123.40,54.76" fill="#F3C969" fill-opacity="0.103" stroke="#F3C969" stroke-opacity="0.185" stroke-width="1.1"/><polygon points="197.36,71.94 181.87,80.89 166.37,71.94 166.37,54.06 181.87,45.11 197.36,54.06" fill="#F3C969" fill-opacity="0.116" stroke="#F3C969" stroke-opacity="0.209" stroke-width="1.1"/><polygon points="270.18,71.99 254.61,80.98 239.04,71.99 239.04,54.01 254.61,45.02 270.18,54.01" fill="#F3C969" fill-opacity="0.117" stroke="#F3C969" stroke-opacity="0.211" stroke-width="1.1"/><polygon points="343.72,72.44 327.36,81.89 311.00,72.44 311.00,53.56 327.36,44.11 343.72,53.56" fill="#F3C969" fill-opacity="0.126" stroke="#F3C969" stroke-opacity="0.227" stroke-width="1.1"/><polygon points="414.73,71.44 400.10,79.89 385.48,71.44 385.48,54.56 400.10,46.11 414.73,54.56" fill="#F3C969" fill-opacity="0.107" stroke="#F3C969" stroke-opacity="0.193" stroke-width="1.1"/><polygon points="853.76,72.92 836.58,82.84 819.40,72.92 819.40,53.08 836.58,43.16 853.76,53.08" fill="#F3C969" fill-opacity="0.135" stroke="#F3C969" stroke-opacity="0.243" stroke-width="1.1"/><polygon points="927.17,73.30 909.33,83.60 891.48,73.30 891.48,52.70 909.33,42.40 927.17,52.70" fill="#FF7A59" fill-opacity="0.143" stroke="#FF7A59" stroke-opacity="0.257" stroke-width="1.1"/><polygon points="998.58,72.53 982.07,82.06 965.56,72.53 965.56,53.47 982.07,43.94 998.58,53.47" fill="#F3C969" fill-opacity="0.128" stroke="#F3C969" stroke-opacity="0.230" stroke-width="1.1"/><polygon points="1070.71,72.18 1054.82,81.35 1038.92,72.18 1038.92,53.82 1054.82,44.65 1070.71,53.82" fill="#F3C969" fill-opacity="0.121" stroke="#F3C969" stroke-opacity="0.218" stroke-width="1.1"/><polygon points="1140.64,70.55 1127.57,78.10 1114.49,70.55 1114.49,55.45 1127.57,47.90 1140.64,55.45" fill="#F3C969" fill-opacity="0.090" stroke="#F3C969" stroke-opacity="0.162" stroke-width="1.1"/><polygon points="1433.15,71.43 1418.55,79.86 1403.95,71.43 1403.95,54.57 1418.55,46.14 1433.15,54.57" fill="#F3C969" fill-opacity="0.106" stroke="#F3C969" stroke-opacity="0.191" stroke-width="1.1"/><polygon points="1508.27,72.80 1491.30,82.60 1474.32,72.80 1474.32,53.20 1491.30,43.40 1508.27,53.20" fill="#F3C969" fill-opacity="0.133" stroke="#F3C969" stroke-opacity="0.239" stroke-width="1.1"/><polygon points="1580.06,72.25 1564.04,81.50 1548.02,72.25 1548.02,53.75 1564.04,44.50 1580.06,53.75" fill="#F3C969" fill-opacity="0.122" stroke="#F3C969" stroke-opacity="0.220" stroke-width="1.1"/><polygon points="1652.36,71.99 1636.79,80.98 1621.22,71.99 1621.22,54.01 1636.79,45.02 1652.36,54.01" fill="#F3C969" fill-opacity="0.117" stroke="#F3C969" stroke-opacity="0.211" stroke-width="1.1"/><polygon points="1723.65,71.15 1709.53,79.30 1695.42,71.15 1695.42,54.85 1709.53,46.70 1723.65,54.85" fill="#F3C969" fill-opacity="0.101" stroke="#F3C969" stroke-opacity="0.182" stroke-width="1.1"/><polygon points="-58.14,134.43 -72.75,142.86 -87.35,134.43 -87.35,117.57 -72.75,109.14 -58.14,117.57" fill="#F3C969" fill-opacity="0.106" stroke="#F3C969" stroke-opacity="0.191" stroke-width="1.1"/><polygon points="14.91,134.61 0.00,143.22 -14.91,134.61 -14.91,117.39 -0.00,108.78 14.91,117.39" fill="#F3C969" fill-opacity="0.110" stroke="#F3C969" stroke-opacity="0.198" stroke-width="1.1"/><polygon points="451.24,134.52 436.48,143.04 421.72,134.52 421.72,117.48 436.48,108.96 451.24,117.48" fill="#F3C969" fill-opacity="0.108" stroke="#F3C969" stroke-opacity="0.194" stroke-width="1.1"/><polygon points="525.38,135.33 509.22,144.66 493.06,135.33 493.06,116.67 509.22,107.34 525.38,116.67" fill="#F3C969" fill-opacity="0.124" stroke="#F3C969" stroke-opacity="0.223" stroke-width="1.1"/><polygon points="599.01,135.84 581.97,145.68 564.93,135.84 564.93,116.16 581.97,106.32 599.01,116.16" fill="#F3C969" fill-opacity="0.134" stroke="#F3C969" stroke-opacity="0.241" stroke-width="1.1"/><polygon points="669.58,134.58 654.72,143.16 639.86,134.58 639.86,117.42 654.72,108.84 669.58,117.42" fill="#F3C969" fill-opacity="0.109" stroke="#F3C969" stroke-opacity="0.196" stroke-width="1.1"/><polygon points="741.96,134.37 727.46,142.74 712.96,134.37 712.96,117.63 727.46,109.26 741.96,117.63" fill="#F3C969" fill-opacity="0.105" stroke="#F3C969" stroke-opacity="0.189" stroke-width="1.1"/><polygon points="960.03,134.27 945.70,142.54 931.37,134.27 931.37,117.73 945.70,109.46 960.03,117.73" fill="#F3C969" fill-opacity="0.103" stroke="#F3C969" stroke-opacity="0.185" stroke-width="1.1"/><polygon points="1035.06,135.59 1018.45,145.18 1001.83,135.59 1001.83,116.41 1018.45,106.82 1035.06,116.41" fill="#F3C969" fill-opacity="0.129" stroke="#F3C969" stroke-opacity="0.232" stroke-width="1.1"/><polygon points="1107.94,135.67 1091.19,145.34 1074.45,135.67 1074.45,116.33 1091.19,106.66 1107.94,116.33" fill="#F3C969" fill-opacity="0.130" stroke="#F3C969" stroke-opacity="0.234" stroke-width="1.1"/><polygon points="1182.69,136.83 1163.94,147.65 1145.19,136.83 1145.19,115.17 1163.94,104.35 1182.69,115.17" fill="#FF7A59" fill-opacity="0.153" stroke="#FF7A59" stroke-opacity="0.275" stroke-width="1.1"/><polygon points="1254.02,136.01 1236.68,146.02 1219.35,136.01 1219.35,115.99 1236.68,105.98 1254.02,115.99" fill="#F3C969" fill-opacity="0.137" stroke="#F3C969" stroke-opacity="0.247" stroke-width="1.1"/><polygon points="1324.54,134.72 1309.43,143.45 1294.32,134.72 1294.32,117.28 1309.43,108.55 1324.54,117.28" fill="#F3C969" fill-opacity="0.112" stroke="#F3C969" stroke-opacity="0.202" stroke-width="1.1"/><polygon points="1686.65,133.79 1673.16,141.57 1659.68,133.79 1659.68,118.21 1673.16,110.43 1686.65,118.21" fill="#F3C969" fill-opacity="0.094" stroke="#F3C969" stroke-opacity="0.169" stroke-width="1.1"/><polygon points="1761.79,135.17 1745.91,144.34 1730.03,135.17 1730.03,116.83 1745.91,107.66 1761.79,116.83" fill="#F3C969" fill-opacity="0.121" stroke="#F3C969" stroke-opacity="0.218" stroke-width="1.1"/><polygon points="50.92,197.40 36.37,205.80 21.82,197.40 21.82,180.60 36.37,172.20 50.92,180.60" fill="#F3C969" fill-opacity="0.106" stroke="#F3C969" stroke-opacity="0.191" stroke-width="1.1"/><polygon points="123.94,197.56 109.12,206.11 94.30,197.56 94.30,180.44 109.12,171.89 123.94,180.44" fill="#F3C969" fill-opacity="0.109" stroke="#F3C969" stroke-opacity="0.196" stroke-width="1.1"/><polygon points="199.09,198.94 181.87,208.89 164.64,198.94 164.64,179.06 181.87,169.11 199.09,179.06" fill="#F3C969" fill-opacity="0.136" stroke="#F3C969" stroke-opacity="0.245" stroke-width="1.1"/><polygon points="271.56,198.79 254.61,208.57 237.66,198.79 237.66,179.21 254.61,169.43 271.56,179.21" fill="#F3C969" fill-opacity="0.133" stroke="#F3C969" stroke-opacity="0.239" stroke-width="1.1"/><polygon points="340.57,196.63 327.36,204.26 314.14,196.63 314.14,181.37 327.36,173.74 340.57,181.37" fill="#F3C969" fill-opacity="0.091" stroke="#F3C969" stroke-opacity="0.164" stroke-width="1.1"/><polygon points="707.87,198.69 691.09,208.38 674.31,198.69 674.31,179.31 691.09,169.62 707.87,179.31" fill="#F3C969" fill-opacity="0.131" stroke="#F3C969" stroke-opacity="0.236" stroke-width="1.1"/><polygon points="782.52,199.79 763.83,210.58 745.15,199.79 745.15,178.21 763.83,167.42 782.52,178.21" fill="#FF7A59" fill-opacity="0.152" stroke="#FF7A59" stroke-opacity="0.274" stroke-width="1.1"/><polygon points="855.99,200.21 836.58,211.41 817.17,200.21 817.17,177.79 836.58,166.59 855.99,177.79" fill="#FF7A59" fill-opacity="0.160" stroke="#FF7A59" stroke-opacity="0.288" stroke-width="1.1"/><polygon points="929.28,200.52 909.33,212.04 889.38,200.52 889.38,177.48 909.33,165.96 929.28,177.48" fill="#FF7A59" fill-opacity="0.166" stroke="#FF7A59" stroke-opacity="0.299" stroke-width="1.1"/><polygon points="1001.95,200.48 982.07,211.96 962.19,200.48 962.19,177.52 982.07,166.04 1001.95,177.52" fill="#FF7A59" fill-opacity="0.165" stroke="#FF7A59" stroke-opacity="0.297" stroke-width="1.1"/><polygon points="1069.70,197.59 1054.82,206.18 1039.94,197.59 1039.94,180.41 1054.82,171.82 1069.70,180.41" fill="#F3C969" fill-opacity="0.110" stroke="#F3C969" stroke-opacity="0.198" stroke-width="1.1"/><polygon points="1142.08,197.38 1127.57,205.76 1113.05,197.38 1113.05,180.62 1127.57,172.24 1142.08,180.62" fill="#F3C969" fill-opacity="0.106" stroke="#F3C969" stroke-opacity="0.191" stroke-width="1.1"/><polygon points="1286.49,196.76 1273.06,204.51 1259.62,196.76 1259.62,181.24 1273.06,173.49 1286.49,181.24" fill="#F3C969" fill-opacity="0.094" stroke="#F3C969" stroke-opacity="0.169" stroke-width="1.1"/><polygon points="1361.75,198.20 1345.80,207.41 1329.86,198.20 1329.86,179.80 1345.80,170.59 1361.75,179.80" fill="#F3C969" fill-opacity="0.121" stroke="#F3C969" stroke-opacity="0.218" stroke-width="1.1"/><polygon points="1433.91,197.87 1418.55,206.74 1403.19,197.87 1403.19,180.13 1418.55,171.26 1433.91,180.13" fill="#F3C969" fill-opacity="0.115" stroke="#F3C969" stroke-opacity="0.207" stroke-width="1.1"/><polygon points="1509.20,199.34 1491.30,209.68 1473.39,199.34 1473.39,178.66 1491.30,168.32 1509.20,178.66" fill="#FF7A59" fill-opacity="0.143" stroke="#FF7A59" stroke-opacity="0.257" stroke-width="1.1"/><polygon points="1581.40,199.02 1564.04,209.04 1546.68,199.02 1546.68,178.98 1564.04,168.96 1581.40,178.98" fill="#FF7A59" fill-opacity="0.137" stroke="#FF7A59" stroke-opacity="0.247" stroke-width="1.1"/><polygon points="1653.01,198.37 1636.79,207.74 1620.56,198.37 1620.56,179.63 1636.79,170.26 1653.01,179.63" fill="#F3C969" fill-opacity="0.125" stroke="#F3C969" stroke-opacity="0.225" stroke-width="1.1"/><polygon points="1723.28,196.94 1709.53,204.88 1695.78,196.94 1695.78,181.06 1709.53,173.12 1723.28,181.06" fill="#F3C969" fill-opacity="0.097" stroke="#F3C969" stroke-opacity="0.175" stroke-width="1.1"/><polygon points="-59.77,259.49 -72.75,266.99 -85.73,259.49 -85.73,244.51 -72.75,237.01 -59.77,244.51" fill="#F3C969" fill-opacity="0.088" stroke="#F3C969" stroke-opacity="0.158" stroke-width="1.1"/><polygon points="13.05,259.53 0.00,267.07 -13.05,259.53 -13.05,244.47 -0.00,236.93 13.05,244.47" fill="#F3C969" fill-opacity="0.089" stroke="#F3C969" stroke-opacity="0.160" stroke-width="1.1"/><polygon points="304.46,259.78 290.98,267.57 277.50,259.78 277.50,244.22 290.98,236.43 304.46,244.22" fill="#F3C969" fill-opacity="0.094" stroke="#F3C969" stroke-opacity="0.169" stroke-width="1.1"/><polygon points="380.66,261.77 363.73,271.54 346.80,261.77 346.80,242.23 363.73,232.46 380.66,242.23" fill="#F3C969" fill-opacity="0.132" stroke="#F3C969" stroke-opacity="0.238" stroke-width="1.1"/><polygon points="453.87,262.04 436.48,272.08 419.09,262.04 419.09,241.96 436.48,231.92 453.87,241.96" fill="#FF7A59" fill-opacity="0.138" stroke="#FF7A59" stroke-opacity="0.248" stroke-width="1.1"/><polygon points="527.88,262.77 509.22,273.54 490.57,262.77 490.57,241.23 509.22,230.46 527.88,241.23" fill="#FF7A59" fill-opacity="0.152" stroke="#FF7A59" stroke-opacity="0.274" stroke-width="1.1"/><polygon points="600.79,262.87 581.97,273.73 563.15,262.87 563.15,241.13 581.97,230.27 600.79,241.13" fill="#FF7A59" fill-opacity="0.153" stroke="#FF7A59" stroke-opacity="0.275" stroke-width="1.1"/><polygon points="671.49,261.69 654.72,271.37 637.94,261.69 637.94,242.31 654.72,232.63 671.49,242.31" fill="#F3C969" fill-opacity="0.131" stroke="#F3C969" stroke-opacity="0.236" stroke-width="1.1"/><polygon points="743.06,261.00 727.46,270.01 711.87,261.00 711.87,243.00 727.46,233.99 743.06,243.00" fill="#F3C969" fill-opacity="0.118" stroke="#F3C969" stroke-opacity="0.212" stroke-width="1.1"/><polygon points="813.72,259.80 800.21,267.61 786.69,259.80 786.69,244.20 800.21,236.39 813.72,244.20" fill="#F3C969" fill-opacity="0.094" stroke="#F3C969" stroke-opacity="0.169" stroke-width="1.1"/><polygon points="889.90,261.78 872.95,271.57 856.01,261.78 856.01,242.22 872.95,232.43 889.90,242.22" fill="#F3C969" fill-opacity="0.133" stroke="#F3C969" stroke-opacity="0.239" stroke-width="1.1"/><polygon points="964.50,262.86 945.70,273.71 926.90,262.86 926.90,241.14 945.70,230.29 964.50,241.14" fill="#FF7A59" fill-opacity="0.153" stroke="#FF7A59" stroke-opacity="0.275" stroke-width="1.1"/><polygon points="1037.87,263.21 1018.45,274.43 999.02,263.21 999.02,240.79 1018.45,229.57 1037.87,240.79" fill="#FF7A59" fill-opacity="0.160" stroke="#FF7A59" stroke-opacity="0.288" stroke-width="1.1"/><polygon points="1113.18,264.69 1091.19,277.39 1069.21,264.69 1069.21,239.31 1091.19,226.61 1113.18,239.31" fill="#54D6BE" fill-opacity="0.189" stroke="#54D6BE" stroke-opacity="0.340" stroke-width="1.1"/><polygon points="1185.41,264.40 1163.94,276.80 1142.46,264.40 1142.46,239.60 1163.94,227.20 1185.41,239.60" fill="#54D6BE" fill-opacity="0.183" stroke="#54D6BE" stroke-opacity="0.329" stroke-width="1.1"/><polygon points="1255.91,263.10 1236.68,274.20 1217.46,263.10 1217.46,240.90 1236.68,229.80 1255.91,240.90" fill="#FF7A59" fill-opacity="0.158" stroke="#FF7A59" stroke-opacity="0.284" stroke-width="1.1"/><polygon points="1326.42,261.81 1309.43,271.61 1292.45,261.81 1292.45,242.19 1309.43,232.39 1326.42,242.19" fill="#F3C969" fill-opacity="0.133" stroke="#F3C969" stroke-opacity="0.239" stroke-width="1.1"/><polygon points="1395.15,259.49 1382.18,266.98 1369.20,259.49 1369.20,244.51 1382.18,237.02 1395.15,244.51" fill="#F3C969" fill-opacity="0.088" stroke="#F3C969" stroke-opacity="0.158" stroke-width="1.1"/><polygon points="1687.11,260.05 1673.16,268.10 1659.22,260.05 1659.22,243.95 1673.16,235.90 1687.11,243.95" fill="#F3C969" fill-opacity="0.099" stroke="#F3C969" stroke-opacity="0.178" stroke-width="1.1"/><polygon points="1762.56,261.61 1745.91,271.23 1729.26,261.61 1729.26,242.39 1745.91,232.77 1762.56,242.39" fill="#F3C969" fill-opacity="0.129" stroke="#F3C969" stroke-opacity="0.232" stroke-width="1.1"/><polygon points="52.28,324.18 36.37,333.37 20.47,324.18 20.47,305.82 36.37,296.63 52.28,305.82" fill="#F3C969" fill-opacity="0.121" stroke="#F3C969" stroke-opacity="0.218" stroke-width="1.1"/><polygon points="127.14,325.41 109.12,335.81 91.10,325.41 91.10,304.59 109.12,294.19 127.14,304.59" fill="#FF7A59" fill-opacity="0.145" stroke="#FF7A59" stroke-opacity="0.261" stroke-width="1.1"/><polygon points="199.01,324.90 181.87,334.80 164.72,324.90 164.72,305.10 181.87,295.20 199.01,305.10" fill="#F3C969" fill-opacity="0.135" stroke="#F3C969" stroke-opacity="0.243" stroke-width="1.1"/><polygon points="270.45,324.14 254.61,333.29 238.77,324.14 238.77,305.86 254.61,296.71 270.45,305.86" fill="#F3C969" fill-opacity="0.120" stroke="#F3C969" stroke-opacity="0.216" stroke-width="1.1"/><polygon points="340.42,322.54 327.36,330.09 314.29,322.54 314.29,307.46 327.36,299.91 340.42,307.46" fill="#F3C969" fill-opacity="0.089" stroke="#F3C969" stroke-opacity="0.160" stroke-width="1.1"/><polygon points="486.70,323.00 472.85,330.99 459.00,323.00 459.00,307.00 472.85,299.01 486.70,307.00" fill="#F3C969" fill-opacity="0.098" stroke="#F3C969" stroke-opacity="0.176" stroke-width="1.1"/><polygon points="558.58,322.50 545.60,329.99 532.61,322.50 532.61,307.50 545.60,300.01 558.58,307.50" fill="#F3C969" fill-opacity="0.088" stroke="#F3C969" stroke-opacity="0.158" stroke-width="1.1"/><polygon points="634.35,324.24 618.34,333.48 602.34,324.24 602.34,305.76 618.34,296.52 634.35,305.76" fill="#F3C969" fill-opacity="0.122" stroke="#F3C969" stroke-opacity="0.220" stroke-width="1.1"/><polygon points="712.72,327.49 691.09,339.98 669.46,327.49 669.46,302.51 691.09,290.02 712.72,302.51" fill="#54D6BE" fill-opacity="0.185" stroke="#54D6BE" stroke-opacity="0.333" stroke-width="1.1"/><polygon points="787.21,328.50 763.83,341.99 740.46,328.50 740.46,301.50 763.83,288.01 787.21,301.50" fill="#54D6BE" fill-opacity="0.204" stroke="#54D6BE" stroke-opacity="0.367" stroke-width="1.1"/><polygon points="861.24,329.24 836.58,343.47 811.92,329.24 811.92,300.76 836.58,286.53 861.24,300.76" fill="#54D6BE" fill-opacity="0.218" stroke="#54D6BE" stroke-opacity="0.392" stroke-width="1.1"/><polygon points="932.62,328.45 909.33,341.90 886.03,328.45 886.03,301.55 909.33,288.10 932.62,301.55" fill="#54D6BE" fill-opacity="0.203" stroke="#54D6BE" stroke-opacity="0.365" stroke-width="1.1"/><polygon points="1002.86,327.00 982.07,339.00 961.29,327.00 961.29,303.00 982.07,291.00 1002.86,303.00" fill="#54D6BE" fill-opacity="0.175" stroke="#54D6BE" stroke-opacity="0.315" stroke-width="1.1"/><polygon points="1072.73,325.34 1054.82,335.68 1036.91,325.34 1036.91,304.66 1054.82,294.32 1072.73,304.66" fill="#FF7A59" fill-opacity="0.143" stroke="#FF7A59" stroke-opacity="0.257" stroke-width="1.1"/><polygon points="1143.53,324.22 1127.57,333.44 1111.60,324.22 1111.60,305.78 1127.57,296.56 1143.53,305.78" fill="#F3C969" fill-opacity="0.122" stroke="#F3C969" stroke-opacity="0.220" stroke-width="1.1"/><polygon points="1216.27,324.21 1200.31,333.43 1184.35,324.21 1184.35,305.79 1200.31,296.57 1216.27,305.79" fill="#F3C969" fill-opacity="0.122" stroke="#F3C969" stroke-opacity="0.220" stroke-width="1.1"/><polygon points="1291.64,325.73 1273.06,336.45 1254.48,325.73 1254.48,304.27 1273.06,293.55 1291.64,304.27" fill="#FF7A59" fill-opacity="0.151" stroke="#FF7A59" stroke-opacity="0.272" stroke-width="1.1"/><polygon points="1363.34,325.13 1345.80,335.25 1328.26,325.13 1328.26,304.87 1345.80,294.75 1363.34,304.87" fill="#FF7A59" fill-opacity="0.139" stroke="#FF7A59" stroke-opacity="0.250" stroke-width="1.1"/><polygon points="1438.39,326.45 1418.55,337.91 1398.71,326.45 1398.71,303.55 1418.55,292.09 1438.39,303.55" fill="#FF7A59" fill-opacity="0.165" stroke="#FF7A59" stroke-opacity="0.297" stroke-width="1.1"/><polygon points="1511.88,326.89 1491.30,338.77 1470.71,326.89 1470.71,303.11 1491.30,291.23 1511.88,303.11" fill="#54D6BE" fill-opacity="0.173" stroke="#54D6BE" stroke-opacity="0.311" stroke-width="1.1"/><polygon points="1581.57,325.12 1564.04,335.24 1546.52,325.12 1546.52,304.88 1564.04,294.76 1581.57,304.88" fill="#FF7A59" fill-opacity="0.139" stroke="#FF7A59" stroke-opacity="0.250" stroke-width="1.1"/><polygon points="308.26,387.97 290.98,397.94 273.71,387.97 273.71,368.03 290.98,358.06 308.26,368.03" fill="#F3C969" fill-opacity="0.136" stroke="#F3C969" stroke-opacity="0.245" stroke-width="1.1"/><polygon points="383.55,389.45 363.73,400.89 343.91,389.45 343.91,366.55 363.73,355.11 383.55,366.55" fill="#FF7A59" fill-opacity="0.165" stroke="#FF7A59" stroke-opacity="0.297" stroke-width="1.1"/><polygon points="455.10,388.75 436.48,399.50 417.85,388.75 417.85,367.25 436.48,356.50 455.10,367.25" fill="#FF7A59" fill-opacity="0.151" stroke="#FF7A59" stroke-opacity="0.272" stroke-width="1.1"/><polygon points="528.34,389.04 509.22,400.08 490.10,389.04 490.10,366.96 509.22,355.92 528.34,366.96" fill="#FF7A59" fill-opacity="0.157" stroke="#FF7A59" stroke-opacity="0.283" stroke-width="1.1"/><polygon points="601.03,389.01 581.97,400.01 562.91,389.01 562.91,366.99 581.97,355.99 601.03,366.99" fill="#FF7A59" fill-opacity="0.156" stroke="#FF7A59" stroke-opacity="0.281" stroke-width="1.1"/><polygon points="672.58,388.32 654.72,398.63 636.85,388.32 636.85,367.68 654.72,357.37 672.58,367.68" fill="#FF7A59" fill-opacity="0.143" stroke="#FF7A59" stroke-opacity="0.257" stroke-width="1.1"/><polygon points="742.92,386.93 727.46,395.85 712.00,386.93 712.00,369.07 727.46,360.15 742.92,369.07" fill="#F3C969" fill-opacity="0.116" stroke="#F3C969" stroke-opacity="0.209" stroke-width="1.1"/><polygon points="818.63,388.64 800.21,399.27 781.79,388.64 781.79,367.36 800.21,356.73 818.63,367.36" fill="#FF7A59" fill-opacity="0.149" stroke="#FF7A59" stroke-opacity="0.268" stroke-width="1.1"/><polygon points="892.16,389.09 872.95,400.18 853.75,389.09 853.75,366.91 872.95,355.82 892.16,366.91" fill="#FF7A59" fill-opacity="0.158" stroke="#FF7A59" stroke-opacity="0.284" stroke-width="1.1"/><polygon points="968.08,390.92 945.70,403.84 923.32,390.92 923.32,365.08 945.70,352.16 968.08,365.08" fill="#54D6BE" fill-opacity="0.193" stroke="#54D6BE" stroke-opacity="0.347" stroke-width="1.1"/><polygon points="1044.78,393.21 1018.45,408.41 992.11,393.21 992.11,362.79 1018.45,347.59 1044.78,362.79" fill="#54D6BE" fill-opacity="0.237" stroke="#54D6BE" stroke-opacity="0.427" stroke-width="1.1"/><polygon points="1116.73,392.74 1091.19,407.49 1065.65,392.74 1065.65,363.26 1091.19,348.51 1116.73,363.26" fill="#54D6BE" fill-opacity="0.228" stroke="#54D6BE" stroke-opacity="0.410" stroke-width="1.1"/><polygon points="1186.57,391.07 1163.94,404.13 1141.31,391.07 1141.31,364.93 1163.94,351.87 1186.57,364.93" fill="#54D6BE" fill-opacity="0.196" stroke="#54D6BE" stroke-opacity="0.353" stroke-width="1.1"/><polygon points="1257.01,389.74 1236.68,401.47 1216.36,389.74 1216.36,366.26 1236.68,354.53 1257.01,366.26" fill="#54D6BE" fill-opacity="0.170" stroke="#54D6BE" stroke-opacity="0.306" stroke-width="1.1"/><polygon points="1325.09,387.04 1309.43,396.08 1293.78,387.04 1293.78,368.96 1309.43,359.92 1325.09,368.96" fill="#F3C969" fill-opacity="0.118" stroke="#F3C969" stroke-opacity="0.212" stroke-width="1.1"/><polygon points="1395.56,385.72 1382.18,393.45 1368.80,385.72 1368.80,370.28 1382.18,362.55 1395.56,370.28" fill="#F3C969" fill-opacity="0.093" stroke="#F3C969" stroke-opacity="0.167" stroke-width="1.1"/><polygon points="1469.65,386.50 1454.92,395.01 1440.19,386.50 1440.19,369.50 1454.92,360.99 1469.65,369.50" fill="#F3C969" fill-opacity="0.108" stroke="#F3C969" stroke-opacity="0.194" stroke-width="1.1"/><polygon points="1543.01,386.86 1527.67,395.71 1512.33,386.86 1512.33,369.14 1527.67,360.29 1543.01,369.14" fill="#F3C969" fill-opacity="0.115" stroke="#F3C969" stroke-opacity="0.207" stroke-width="1.1"/><polygon points="1616.39,387.22 1600.41,396.45 1584.44,387.22 1584.44,368.78 1600.41,359.55 1616.39,368.78" fill="#F3C969" fill-opacity="0.122" stroke="#F3C969" stroke-opacity="0.220" stroke-width="1.1"/><polygon points="1690.85,388.21 1673.16,398.43 1655.47,388.21 1655.47,367.79 1673.16,357.57 1690.85,367.79" fill="#FF7A59" fill-opacity="0.141" stroke="#FF7A59" stroke-opacity="0.254" stroke-width="1.1"/><polygon points="1763.00,387.87 1745.91,397.74 1728.82,387.87 1728.82,368.13 1745.91,358.26 1763.00,368.13" fill="#F3C969" fill-opacity="0.134" stroke="#F3C969" stroke-opacity="0.241" stroke-width="1.1"/><polygon points="-21.16,449.78 -36.37,458.56 -51.58,449.78 -51.58,432.22 -36.37,423.44 -21.16,432.22" fill="#F3C969" fill-opacity="0.113" stroke="#F3C969" stroke-opacity="0.203" stroke-width="1.1"/><polygon points="53.11,450.66 36.37,460.33 19.63,450.66 19.63,431.34 36.37,421.67 53.11,431.34" fill="#F3C969" fill-opacity="0.130" stroke="#F3C969" stroke-opacity="0.234" stroke-width="1.1"/><polygon points="126.22,450.87 109.12,460.75 92.02,450.87 92.02,431.13 109.12,421.25 126.22,431.13" fill="#F3C969" fill-opacity="0.134" stroke="#F3C969" stroke-opacity="0.241" stroke-width="1.1"/><polygon points="198.55,450.63 181.87,460.26 165.18,450.63 165.18,431.37 181.87,421.74 198.55,431.37" fill="#F3C969" fill-opacity="0.130" stroke="#F3C969" stroke-opacity="0.234" stroke-width="1.1"/><polygon points="269.17,449.41 254.61,457.81 240.05,449.41 240.05,432.59 254.61,424.19 269.17,432.59" fill="#F3C969" fill-opacity="0.106" stroke="#F3C969" stroke-opacity="0.191" stroke-width="1.1"/><polygon points="413.84,448.93 400.10,456.86 386.37,448.93 386.37,433.07 400.10,425.14 413.84,433.07" fill="#F3C969" fill-opacity="0.097" stroke="#F3C969" stroke-opacity="0.175" stroke-width="1.1"/><polygon points="486.62,448.95 472.85,456.91 459.08,448.95 459.08,433.05 472.85,425.09 486.62,433.05" fill="#F3C969" fill-opacity="0.097" stroke="#F3C969" stroke-opacity="0.175" stroke-width="1.1"/><polygon points="561.51,450.19 545.60,459.38 529.68,450.19 529.68,431.81 545.60,422.62 561.51,431.81" fill="#F3C969" fill-opacity="0.121" stroke="#F3C969" stroke-opacity="0.218" stroke-width="1.1"/><polygon points="638.42,452.59 618.34,464.19 598.26,452.59 598.26,429.41 618.34,417.81 638.42,429.41" fill="#FF7A59" fill-opacity="0.167" stroke="#FF7A59" stroke-opacity="0.301" stroke-width="1.1"/><polygon points="714.21,454.35 691.09,467.70 667.96,454.35 667.96,427.65 691.09,414.30 714.21,427.65" fill="#54D6BE" fill-opacity="0.201" stroke="#54D6BE" stroke-opacity="0.362" stroke-width="1.1"/><polygon points="787.93,454.91 763.83,468.82 739.74,454.91 739.74,427.09 763.83,413.18 787.93,427.09" fill="#54D6BE" fill-opacity="0.212" stroke="#54D6BE" stroke-opacity="0.382" stroke-width="1.1"/><polygon points="862.62,456.03 836.58,471.06 810.54,456.03 810.54,425.97 836.58,410.94 862.62,425.97" fill="#54D6BE" fill-opacity="0.234" stroke="#54D6BE" stroke-opacity="0.421" stroke-width="1.1"/><polygon points="933.36,454.88 909.33,468.75 885.29,454.88 885.29,427.12 909.33,413.25 933.36,427.12" fill="#54D6BE" fill-opacity="0.211" stroke="#54D6BE" stroke-opacity="0.380" stroke-width="1.1"/><polygon points="1004.96,454.21 982.07,467.43 959.19,454.21 959.19,427.79 982.07,414.57 1004.96,427.79" fill="#54D6BE" fill-opacity="0.199" stroke="#54D6BE" stroke-opacity="0.358" stroke-width="1.1"/><polygon points="1074.97,452.63 1054.82,464.26 1034.67,452.63 1034.67,429.37 1054.82,417.74 1074.97,429.37" fill="#54D6BE" fill-opacity="0.168" stroke="#54D6BE" stroke-opacity="0.302" stroke-width="1.1"/><polygon points="1144.94,451.03 1127.57,461.07 1110.19,451.03 1110.19,430.97 1127.57,420.93 1144.94,430.97" fill="#FF7A59" fill-opacity="0.137" stroke="#FF7A59" stroke-opacity="0.247" stroke-width="1.1"/><polygon points="1220.85,452.86 1200.31,464.72 1179.77,452.86 1179.77,429.14 1200.31,417.28 1220.85,429.14" fill="#54D6BE" fill-opacity="0.173" stroke="#54D6BE" stroke-opacity="0.311" stroke-width="1.1"/><polygon points="1293.01,452.52 1273.06,464.04 1253.10,452.52 1253.10,429.48 1273.06,417.96 1293.01,429.48" fill="#FF7A59" fill-opacity="0.166" stroke="#FF7A59" stroke-opacity="0.299" stroke-width="1.1"/><polygon points="1366.71,453.07 1345.80,465.14 1324.90,453.07 1324.90,428.93 1345.80,416.86 1366.71,428.93" fill="#54D6BE" fill-opacity="0.177" stroke="#54D6BE" stroke-opacity="0.319" stroke-width="1.1"/><polygon points="1439.17,452.91 1418.55,464.81 1397.93,452.91 1397.93,429.09 1418.55,417.19 1439.17,429.09" fill="#54D6BE" fill-opacity="0.173" stroke="#54D6BE" stroke-opacity="0.311" stroke-width="1.1"/><polygon points="1512.02,452.97 1491.30,464.94 1470.57,452.97 1470.57,429.03 1491.30,417.06 1512.02,429.03" fill="#54D6BE" fill-opacity="0.175" stroke="#54D6BE" stroke-opacity="0.315" stroke-width="1.1"/><polygon points="1580.14,450.29 1564.04,459.59 1547.94,450.29 1547.94,431.71 1564.04,422.41 1580.14,431.71" fill="#F3C969" fill-opacity="0.123" stroke="#F3C969" stroke-opacity="0.221" stroke-width="1.1"/><polygon points="1650.83,449.11 1636.79,457.21 1622.75,449.11 1622.75,432.89 1636.79,424.79 1650.83,432.89" fill="#F3C969" fill-opacity="0.100" stroke="#F3C969" stroke-opacity="0.180" stroke-width="1.1"/><polygon points="233.91,513.05 218.24,522.10 202.57,513.05 202.57,494.95 218.24,485.90 233.91,494.95" fill="#F3C969" fill-opacity="0.118" stroke="#F3C969" stroke-opacity="0.212" stroke-width="1.1"/><polygon points="307.24,513.39 290.98,522.77 274.73,513.39 274.73,494.61 290.98,485.23 307.24,494.61" fill="#F3C969" fill-opacity="0.125" stroke="#F3C969" stroke-opacity="0.225" stroke-width="1.1"/><polygon points="382.79,515.01 363.73,526.01 344.67,515.01 344.67,492.99 363.73,481.99 382.79,492.99" fill="#FF7A59" fill-opacity="0.156" stroke="#FF7A59" stroke-opacity="0.281" stroke-width="1.1"/><polygon points="455.31,514.87 436.48,525.74 417.65,514.87 417.65,493.13 436.48,482.26 455.31,493.13" fill="#FF7A59" fill-opacity="0.154" stroke="#FF7A59" stroke-opacity="0.277" stroke-width="1.1"/><polygon points="526.85,514.18 509.22,524.36 491.59,514.18 491.59,493.82 509.22,483.64 526.85,493.82" fill="#FF7A59" fill-opacity="0.140" stroke="#FF7A59" stroke-opacity="0.252" stroke-width="1.1"/><polygon points="599.16,513.92 581.97,523.85 564.78,513.92 564.78,494.08 581.97,484.15 599.16,494.08" fill="#F3C969" fill-opacity="0.135" stroke="#F3C969" stroke-opacity="0.243" stroke-width="1.1"/><polygon points="671.52,513.70 654.72,523.41 637.91,513.70 637.91,494.30 654.72,484.59 671.52,494.30" fill="#F3C969" fill-opacity="0.131" stroke="#F3C969" stroke-opacity="0.236" stroke-width="1.1"/><polygon points="743.71,513.38 727.46,522.76 711.22,513.38 711.22,494.62 727.46,485.24 743.71,494.62" fill="#F3C969" fill-opacity="0.125" stroke="#F3C969" stroke-opacity="0.225" stroke-width="1.1"/><polygon points="819.96,515.40 800.21,526.80 780.46,515.40 780.46,492.60 800.21,481.20 819.96,492.60" fill="#FF7A59" fill-opacity="0.164" stroke="#FF7A59" stroke-opacity="0.295" stroke-width="1.1"/><polygon points="895.95,517.28 872.95,530.56 849.95,517.28 849.95,490.72 872.95,477.44 895.95,490.72" fill="#54D6BE" fill-opacity="0.200" stroke="#54D6BE" stroke-opacity="0.360" stroke-width="1.1"/><polygon points="972.73,519.61 945.70,535.21 918.67,519.61 918.67,488.39 945.70,472.79 972.73,488.39" fill="#54D6BE" fill-opacity="0.245" stroke="#54D6BE" stroke-opacity="0.441" stroke-width="1.1"/><polygon points="1045.00,519.33 1018.45,534.67 991.89,519.33 991.89,488.67 1018.45,473.33 1045.00,488.67" fill="#54D6BE" fill-opacity="0.240" stroke="#54D6BE" stroke-opacity="0.432" stroke-width="1.1"/><polygon points="1116.25,518.47 1091.19,532.94 1066.13,518.47 1066.13,489.53 1091.19,475.06 1116.25,489.53" fill="#54D6BE" fill-opacity="0.223" stroke="#54D6BE" stroke-opacity="0.401" stroke-width="1.1"/><polygon points="1187.32,517.50 1163.94,530.99 1140.56,517.50 1140.56,490.50 1163.94,477.01 1187.32,490.50" fill="#54D6BE" fill-opacity="0.204" stroke="#54D6BE" stroke-opacity="0.367" stroke-width="1.1"/><polygon points="1255.35,514.78 1236.68,525.55 1218.02,514.78 1218.02,493.22 1236.68,482.45 1255.35,493.22" fill="#FF7A59" fill-opacity="0.152" stroke="#FF7A59" stroke-opacity="0.274" stroke-width="1.1"/><polygon points="1326.19,513.68 1309.43,523.35 1292.67,513.68 1292.67,494.32 1309.43,484.65 1326.19,494.32" fill="#F3C969" fill-opacity="0.131" stroke="#F3C969" stroke-opacity="0.236" stroke-width="1.1"/><polygon points="1396.26,512.13 1382.18,520.26 1368.09,512.13 1368.09,495.87 1382.18,487.74 1396.26,495.87" fill="#F3C969" fill-opacity="0.101" stroke="#F3C969" stroke-opacity="0.182" stroke-width="1.1"/><polygon points="1469.11,512.19 1454.92,520.39 1440.73,512.19 1440.73,495.81 1454.92,487.61 1469.11,495.81" fill="#F3C969" fill-opacity="0.102" stroke="#F3C969" stroke-opacity="0.184" stroke-width="1.1"/><polygon points="1543.56,513.17 1527.67,522.35 1511.78,513.17 1511.78,494.83 1527.67,485.65 1543.56,494.83" fill="#F3C969" fill-opacity="0.121" stroke="#F3C969" stroke-opacity="0.218" stroke-width="1.1"/><polygon points="1618.66,514.53 1600.41,525.06 1582.17,514.53 1582.17,493.47 1600.41,482.94 1618.66,493.47" fill="#FF7A59" fill-opacity="0.147" stroke="#FF7A59" stroke-opacity="0.265" stroke-width="1.1"/><polygon points="1690.47,514.00 1673.16,523.99 1655.85,514.00 1655.85,494.00 1673.16,484.01 1690.47,494.00" fill="#F3C969" fill-opacity="0.137" stroke="#F3C969" stroke-opacity="0.247" stroke-width="1.1"/><polygon points="1761.26,512.86 1745.91,521.73 1730.56,512.86 1730.56,495.14 1745.91,486.27 1761.26,495.14" fill="#F3C969" fill-opacity="0.115" stroke="#F3C969" stroke-opacity="0.207" stroke-width="1.1"/><polygon points="-19.55,576.71 -36.37,586.43 -53.20,576.71 -53.20,557.29 -36.37,547.57 -19.55,557.29" fill="#F3C969" fill-opacity="0.131" stroke="#F3C969" stroke-opacity="0.236" stroke-width="1.1"/><polygon points="52.63,576.38 36.37,585.77 20.12,576.38 20.12,557.62 36.37,548.23 52.63,557.62" fill="#F3C969" fill-opacity="0.125" stroke="#F3C969" stroke-opacity="0.225" stroke-width="1.1"/><polygon points="124.96,576.15 109.12,585.30 93.27,576.15 93.27,557.85 109.12,548.70 124.96,557.85" fill="#F3C969" fill-opacity="0.120" stroke="#F3C969" stroke-opacity="0.216" stroke-width="1.1"/><polygon points="195.79,575.04 181.87,583.08 167.94,575.04 167.94,558.96 181.87,550.92 195.79,558.96" fill="#F3C969" fill-opacity="0.099" stroke="#F3C969" stroke-opacity="0.178" stroke-width="1.1"/><polygon points="488.55,576.06 472.85,585.13 457.15,576.06 457.15,557.94 472.85,548.87 488.55,557.94" fill="#F3C969" fill-opacity="0.119" stroke="#F3C969" stroke-opacity="0.214" stroke-width="1.1"/><polygon points="563.47,577.32 545.60,587.64 527.72,577.32 527.72,556.68 545.60,546.36 563.47,556.68" fill="#FF7A59" fill-opacity="0.143" stroke="#FF7A59" stroke-opacity="0.257" stroke-width="1.1"/><polygon points="640.41,579.74 618.34,592.48 596.28,579.74 596.28,554.26 618.34,541.52 640.41,554.26" fill="#54D6BE" fill-opacity="0.190" stroke="#54D6BE" stroke-opacity="0.342" stroke-width="1.1"/><polygon points="714.39,580.45 691.09,593.91 667.78,580.45 667.78,553.55 691.09,540.09 714.39,553.55" fill="#54D6BE" fill-opacity="0.203" stroke="#54D6BE" stroke-opacity="0.365" stroke-width="1.1"/><polygon points="788.77,581.40 763.83,595.79 738.90,581.40 738.90,552.60 763.83,538.21 788.77,552.60" fill="#54D6BE" fill-opacity="0.221" stroke="#54D6BE" stroke-opacity="0.398" stroke-width="1.1"/><polygon points="858.47,579.64 836.58,592.28 814.69,579.64 814.69,554.36 836.58,541.72 858.47,554.36" fill="#54D6BE" fill-opacity="0.188" stroke="#54D6BE" stroke-opacity="0.338" stroke-width="1.1"/><polygon points="930.40,579.16 909.33,591.33 888.26,579.16 888.26,554.84 909.33,542.67 930.40,554.84" fill="#54D6BE" fill-opacity="0.178" stroke="#54D6BE" stroke-opacity="0.320" stroke-width="1.1"/><polygon points="1000.74,577.78 982.07,588.56 963.41,577.78 963.41,556.22 982.07,545.44 1000.74,556.22" fill="#FF7A59" fill-opacity="0.152" stroke="#FF7A59" stroke-opacity="0.274" stroke-width="1.1"/><polygon points="1074.22,578.20 1054.82,589.41 1035.41,578.20 1035.41,555.80 1054.82,544.59 1074.22,555.80" fill="#FF7A59" fill-opacity="0.160" stroke="#FF7A59" stroke-opacity="0.288" stroke-width="1.1"/><polygon points="1146.22,577.77 1127.57,588.54 1108.91,577.77 1108.91,556.23 1127.57,545.46 1146.22,556.23" fill="#FF7A59" fill-opacity="0.152" stroke="#FF7A59" stroke-opacity="0.274" stroke-width="1.1"/><polygon points="1220.84,578.85 1200.31,590.71 1179.78,578.85 1179.78,555.15 1200.31,543.29 1220.84,555.15" fill="#54D6BE" fill-opacity="0.172" stroke="#54D6BE" stroke-opacity="0.310" stroke-width="1.1"/><polygon points="1294.87,579.59 1273.06,592.18 1251.25,579.59 1251.25,554.41 1273.06,541.82 1294.87,554.41" fill="#54D6BE" fill-opacity="0.187" stroke="#54D6BE" stroke-opacity="0.337" stroke-width="1.1"/><polygon points="1367.77,579.68 1345.80,592.37 1323.83,579.68 1323.83,554.32 1345.80,541.63 1367.77,554.32" fill="#54D6BE" fill-opacity="0.189" stroke="#54D6BE" stroke-opacity="0.340" stroke-width="1.1"/><polygon points="1438.75,578.66 1418.55,590.32 1398.35,578.66 1398.35,555.34 1418.55,543.68 1438.75,555.34" fill="#54D6BE" fill-opacity="0.169" stroke="#54D6BE" stroke-opacity="0.304" stroke-width="1.1"/><polygon points="1508.13,576.72 1491.30,586.44 1474.46,576.72 1474.46,557.28 1491.30,547.56 1508.13,557.28" fill="#F3C969" fill-opacity="0.131" stroke="#F3C969" stroke-opacity="0.236" stroke-width="1.1"/><polygon points="1579.33,575.83 1564.04,584.65 1548.76,575.83 1548.76,558.17 1564.04,549.35 1579.33,558.17" fill="#F3C969" fill-opacity="0.114" stroke="#F3C969" stroke-opacity="0.205" stroke-width="1.1"/><polygon points="235.18,639.78 218.24,649.56 201.30,639.78 201.30,620.22 218.24,610.44 235.18,620.22" fill="#F3C969" fill-opacity="0.132" stroke="#F3C969" stroke-opacity="0.238" stroke-width="1.1"/><polygon points="307.14,639.33 290.98,648.66 274.82,639.33 274.82,620.67 290.98,611.34 307.14,620.67" fill="#F3C969" fill-opacity="0.124" stroke="#F3C969" stroke-opacity="0.223" stroke-width="1.1"/><polygon points="381.08,640.01 363.73,650.03 346.38,640.01 346.38,619.99 363.73,609.97 381.08,619.99" fill="#FF7A59" fill-opacity="0.137" stroke="#FF7A59" stroke-opacity="0.247" stroke-width="1.1"/><polygon points="453.84,640.03 436.48,650.05 419.11,640.03 419.11,619.97 436.48,609.95 453.84,619.97" fill="#FF7A59" fill-opacity="0.137" stroke="#FF7A59" stroke-opacity="0.247" stroke-width="1.1"/><polygon points="524.73,638.95 509.22,647.90 493.72,638.95 493.72,621.05 509.22,612.10 524.73,621.05" fill="#F3C969" fill-opacity="0.117" stroke="#F3C969" stroke-opacity="0.211" stroke-width="1.1"/><polygon points="595.39,637.75 581.97,645.50 568.54,637.75 568.54,622.25 581.97,614.50 595.39,622.25" fill="#F3C969" fill-opacity="0.093" stroke="#F3C969" stroke-opacity="0.167" stroke-width="1.1"/><polygon points="668.74,638.10 654.72,646.19 640.69,638.10 640.69,621.90 654.72,613.81 668.74,621.90" fill="#F3C969" fill-opacity="0.100" stroke="#F3C969" stroke-opacity="0.180" stroke-width="1.1"/><polygon points="744.50,639.83 727.46,649.67 710.43,639.83 710.43,620.17 727.46,610.33 744.50,620.17" fill="#F3C969" fill-opacity="0.134" stroke="#F3C969" stroke-opacity="0.241" stroke-width="1.1"/><polygon points="820.92,641.96 800.21,653.92 779.49,641.96 779.49,618.04 800.21,606.08 820.92,618.04" fill="#54D6BE" fill-opacity="0.175" stroke="#54D6BE" stroke-opacity="0.315" stroke-width="1.1"/><polygon points="894.73,642.57 872.95,655.15 851.17,642.57 851.17,617.43 872.95,604.85 894.73,617.43" fill="#54D6BE" fill-opacity="0.186" stroke="#54D6BE" stroke-opacity="0.335" stroke-width="1.1"/><polygon points="970.17,644.13 945.70,658.25 921.23,644.13 921.23,615.87 945.70,601.75 970.17,615.87" fill="#54D6BE" fill-opacity="0.216" stroke="#54D6BE" stroke-opacity="0.389" stroke-width="1.1"/><polygon points="1040.68,642.84 1018.45,655.67 996.21,642.84 996.21,617.16 1018.45,604.33 1040.68,617.16" fill="#54D6BE" fill-opacity="0.191" stroke="#54D6BE" stroke-opacity="0.344" stroke-width="1.1"/><polygon points="1111.52,641.74 1091.19,653.47 1070.86,641.74 1070.86,618.26 1091.19,606.53 1111.52,618.26" fill="#54D6BE" fill-opacity="0.170" stroke="#54D6BE" stroke-opacity="0.306" stroke-width="1.1"/><polygon points="1181.10,639.91 1163.94,649.81 1146.78,639.91 1146.78,620.09 1163.94,610.19 1181.10,620.09" fill="#F3C969" fill-opacity="0.135" stroke="#F3C969" stroke-opacity="0.243" stroke-width="1.1"/><polygon points="1253.07,639.46 1236.68,648.92 1220.30,639.46 1220.30,620.54 1236.68,611.08 1253.07,620.54" fill="#F3C969" fill-opacity="0.126" stroke="#F3C969" stroke-opacity="0.227" stroke-width="1.1"/><polygon points="1324.06,638.45 1309.43,646.89 1294.80,638.45 1294.80,621.55 1309.43,613.11 1324.06,621.55" fill="#F3C969" fill-opacity="0.107" stroke="#F3C969" stroke-opacity="0.193" stroke-width="1.1"/><polygon points="1396.29,638.15 1382.18,646.29 1368.07,638.15 1368.07,621.85 1382.18,613.71 1396.29,621.85" fill="#F3C969" fill-opacity="0.101" stroke="#F3C969" stroke-opacity="0.182" stroke-width="1.1"/><polygon points="1469.83,638.61 1454.92,647.21 1440.01,638.61 1440.01,621.39 1454.92,612.79 1469.83,621.39" fill="#F3C969" fill-opacity="0.110" stroke="#F3C969" stroke-opacity="0.198" stroke-width="1.1"/><polygon points="1544.81,639.90 1527.67,649.80 1510.52,639.90 1510.52,620.10 1527.67,610.20 1544.81,620.10" fill="#F3C969" fill-opacity="0.135" stroke="#F3C969" stroke-opacity="0.243" stroke-width="1.1"/><polygon points="1617.59,639.92 1600.41,649.83 1583.24,639.92 1583.24,620.08 1600.41,610.17 1617.59,620.08" fill="#F3C969" fill-opacity="0.135" stroke="#F3C969" stroke-opacity="0.243" stroke-width="1.1"/><polygon points="1690.50,640.01 1673.16,650.02 1655.82,640.01 1655.82,619.99 1673.16,609.98 1690.50,619.99" fill="#F3C969" fill-opacity="0.137" stroke="#F3C969" stroke-opacity="0.247" stroke-width="1.1"/><polygon points="1759.82,638.03 1745.91,646.06 1731.99,638.03 1731.99,621.97 1745.91,613.94 1759.82,621.97" fill="#F3C969" fill-opacity="0.099" stroke="#F3C969" stroke-opacity="0.178" stroke-width="1.1"/><polygon points="-19.62,702.67 -36.37,712.34 -53.12,702.67 -53.12,683.33 -36.37,673.66 -19.62,683.33" fill="#F3C969" fill-opacity="0.130" stroke="#F3C969" stroke-opacity="0.234" stroke-width="1.1"/><polygon points="51.45,701.70 36.37,710.40 21.30,701.70 21.30,684.30 36.37,675.60 51.45,684.30" fill="#F3C969" fill-opacity="0.112" stroke="#F3C969" stroke-opacity="0.202" stroke-width="1.1"/><polygon points="122.37,700.65 109.12,708.30 95.87,700.65 95.87,685.35 109.12,677.70 122.37,685.35" fill="#F3C969" fill-opacity="0.091" stroke="#F3C969" stroke-opacity="0.164" stroke-width="1.1"/><polygon points="487.80,701.63 472.85,710.26 457.90,701.63 457.90,684.37 472.85,675.74 487.80,684.37" fill="#F3C969" fill-opacity="0.110" stroke="#F3C969" stroke-opacity="0.198" stroke-width="1.1"/><polygon points="564.21,703.75 545.60,714.49 526.98,703.75 526.98,682.25 545.60,671.51 564.21,682.25" fill="#FF7A59" fill-opacity="0.151" stroke="#FF7A59" stroke-opacity="0.272" stroke-width="1.1"/><polygon points="639.42,705.17 618.34,717.34 597.26,705.17 597.26,680.83 618.34,668.66 639.42,680.83" fill="#54D6BE" fill-opacity="0.179" stroke="#54D6BE" stroke-opacity="0.322" stroke-width="1.1"/><polygon points="712.32,705.26 691.09,717.52 669.85,705.26 669.85,680.74 691.09,668.48 712.32,680.74" fill="#54D6BE" fill-opacity="0.180" stroke="#54D6BE" stroke-opacity="0.324" stroke-width="1.1"/><polygon points="783.30,704.24 763.83,715.48 744.37,704.24 744.37,681.76 763.83,670.52 783.30,681.76" fill="#FF7A59" fill-opacity="0.161" stroke="#FF7A59" stroke-opacity="0.290" stroke-width="1.1"/><polygon points="853.01,702.49 836.58,711.97 820.15,702.49 820.15,683.51 836.58,674.03 853.01,683.51" fill="#F3C969" fill-opacity="0.127" stroke="#F3C969" stroke-opacity="0.229" stroke-width="1.1"/><polygon points="923.75,701.33 909.33,709.66 894.90,701.33 894.90,684.67 909.33,676.34 923.75,684.67" fill="#F3C969" fill-opacity="0.105" stroke="#F3C969" stroke-opacity="0.189" stroke-width="1.1"/><polygon points="997.35,701.82 982.07,710.64 966.80,701.82 966.80,684.18 982.07,675.36 997.35,684.18" fill="#F3C969" fill-opacity="0.114" stroke="#F3C969" stroke-opacity="0.205" stroke-width="1.1"/><polygon points="1071.54,702.65 1054.82,712.31 1038.10,702.65 1038.10,683.35 1054.82,673.69 1071.54,683.35" fill="#F3C969" fill-opacity="0.130" stroke="#F3C969" stroke-opacity="0.234" stroke-width="1.1"/><polygon points="1145.93,703.60 1127.57,714.20 1109.20,703.60 1109.20,682.40 1127.57,671.80 1145.93,682.40" fill="#FF7A59" fill-opacity="0.148" stroke="#FF7A59" stroke-opacity="0.266" stroke-width="1.1"/><polygon points="1220.09,704.42 1200.31,715.84 1180.53,704.42 1180.53,681.58 1200.31,670.16 1220.09,681.58" fill="#FF7A59" fill-opacity="0.164" stroke="#FF7A59" stroke-opacity="0.295" stroke-width="1.1"/><polygon points="1294.78,705.54 1273.06,718.08 1251.34,705.54 1251.34,680.46 1273.06,667.92 1294.78,680.46" fill="#54D6BE" fill-opacity="0.186" stroke="#54D6BE" stroke-opacity="0.335" stroke-width="1.1"/><polygon points="1365.04,704.11 1345.80,715.22 1326.56,704.11 1326.56,681.89 1345.80,670.78 1365.04,681.89" fill="#FF7A59" fill-opacity="0.158" stroke="#FF7A59" stroke-opacity="0.284" stroke-width="1.1"/><polygon points="1435.91,703.02 1418.55,713.04 1401.19,703.02 1401.19,682.98 1418.55,672.96 1435.91,682.98" fill="#FF7A59" fill-opacity="0.137" stroke="#FF7A59" stroke-opacity="0.247" stroke-width="1.1"/><polygon points="1506.30,701.66 1491.30,710.33 1476.29,701.66 1476.29,684.34 1491.30,675.67 1506.30,684.34" fill="#F3C969" fill-opacity="0.111" stroke="#F3C969" stroke-opacity="0.200" stroke-width="1.1"/><polygon points="160.92,764.91 145.49,773.81 130.07,764.91 130.07,747.09 145.49,738.19 160.92,747.09" fill="#F3C969" fill-opacity="0.116" stroke="#F3C969" stroke-opacity="0.209" stroke-width="1.1"/><polygon points="234.37,765.31 218.24,774.63 202.11,765.31 202.11,746.69 218.24,737.37 234.37,746.69" fill="#F3C969" fill-opacity="0.124" stroke="#F3C969" stroke-opacity="0.223" stroke-width="1.1"/><polygon points="307.03,765.26 290.98,774.52 274.94,765.26 274.94,746.74 290.98,737.48 307.03,746.74" fill="#F3C969" fill-opacity="0.123" stroke="#F3C969" stroke-opacity="0.221" stroke-width="1.1"/><polygon points="378.43,764.49 363.73,772.98 349.03,764.49 349.03,747.51 363.73,739.02 378.43,747.51" fill="#F3C969" fill-opacity="0.108" stroke="#F3C969" stroke-opacity="0.194" stroke-width="1.1"/><polygon points="667.80,763.56 654.72,771.11 641.63,763.56 641.63,748.44 654.72,740.89 667.80,748.44" fill="#F3C969" fill-opacity="0.090" stroke="#F3C969" stroke-opacity="0.162" stroke-width="1.1"/><polygon points="742.84,764.88 727.46,773.76 712.08,764.88 712.08,747.12 727.46,738.24 742.84,747.12" fill="#F3C969" fill-opacity="0.115" stroke="#F3C969" stroke-opacity="0.207" stroke-width="1.1"/><polygon points="819.26,767.00 800.21,778.00 781.15,767.00 781.15,745.00 800.21,734.00 819.26,745.00" fill="#FF7A59" fill-opacity="0.156" stroke="#FF7A59" stroke-opacity="0.281" stroke-width="1.1"/><polygon points="892.32,767.18 872.95,778.36 853.59,767.18 853.59,744.82 872.95,733.64 892.32,744.82" fill="#FF7A59" fill-opacity="0.160" stroke="#FF7A59" stroke-opacity="0.288" stroke-width="1.1"/><polygon points="965.30,767.31 945.70,778.63 926.10,767.31 926.10,744.69 945.70,733.37 965.30,744.69" fill="#FF7A59" fill-opacity="0.162" stroke="#FF7A59" stroke-opacity="0.292" stroke-width="1.1"/><polygon points="1038.18,767.39 1018.45,778.79 998.71,767.39 998.71,744.61 1018.45,733.21 1038.18,744.61" fill="#FF7A59" fill-opacity="0.164" stroke="#FF7A59" stroke-opacity="0.295" stroke-width="1.1"/><polygon points="1106.86,765.05 1091.19,774.10 1075.52,765.05 1075.52,746.95 1091.19,737.90 1106.86,746.95" fill="#F3C969" fill-opacity="0.118" stroke="#F3C969" stroke-opacity="0.212" stroke-width="1.1"/><polygon points="1177.15,763.63 1163.94,771.26 1150.72,763.63 1150.72,748.37 1163.94,740.74 1177.15,748.37" fill="#F3C969" fill-opacity="0.091" stroke="#F3C969" stroke-opacity="0.164" stroke-width="1.1"/><polygon points="1249.90,763.63 1236.68,771.26 1223.47,763.63 1223.47,748.37 1236.68,740.74 1249.90,748.37" fill="#F3C969" fill-opacity="0.091" stroke="#F3C969" stroke-opacity="0.164" stroke-width="1.1"/><polygon points="1396.41,764.22 1382.18,772.44 1367.94,764.22 1367.94,747.78 1382.18,739.56 1396.41,747.78" fill="#F3C969" fill-opacity="0.102" stroke="#F3C969" stroke-opacity="0.184" stroke-width="1.1"/><polygon points="1469.59,764.47 1454.92,772.94 1440.26,764.47 1440.26,747.53 1454.92,739.06 1469.59,747.53" fill="#F3C969" fill-opacity="0.107" stroke="#F3C969" stroke-opacity="0.193" stroke-width="1.1"/><polygon points="1545.28,766.17 1527.67,776.34 1510.06,766.17 1510.06,745.83 1527.67,735.66 1545.28,745.83" fill="#FF7A59" fill-opacity="0.140" stroke="#FF7A59" stroke-opacity="0.252" stroke-width="1.1"/><polygon points="1617.06,765.61 1600.41,775.22 1583.77,765.61 1583.77,746.39 1600.41,736.78 1617.06,746.39" fill="#F3C969" fill-opacity="0.129" stroke="#F3C969" stroke-opacity="0.232" stroke-width="1.1"/><polygon points="1689.13,765.22 1673.16,774.44 1657.19,765.22 1657.19,746.78 1673.16,737.56 1689.13,746.78" fill="#F3C969" fill-opacity="0.122" stroke="#F3C969" stroke-opacity="0.220" stroke-width="1.1"/><polygon points="-20.35,828.25 -36.37,837.51 -52.40,828.25 -52.40,809.75 -36.37,800.49 -20.35,809.75" fill="#F3C969" fill-opacity="0.122" stroke="#F3C969" stroke-opacity="0.220" stroke-width="1.1"/><polygon points="50.54,827.18 36.37,835.36 22.20,827.18 22.20,810.82 36.37,802.64 50.54,810.82" fill="#F3C969" fill-opacity="0.102" stroke="#F3C969" stroke-opacity="0.184" stroke-width="1.1"/><polygon points="122.17,826.53 109.12,834.07 96.07,826.53 96.07,811.47 109.12,803.93 122.17,811.47" fill="#F3C969" fill-opacity="0.089" stroke="#F3C969" stroke-opacity="0.160" stroke-width="1.1"/><polygon points="413.83,826.92 400.10,834.85 386.38,826.92 386.38,811.08 400.10,803.15 413.83,811.08" fill="#F3C969" fill-opacity="0.097" stroke="#F3C969" stroke-opacity="0.175" stroke-width="1.1"/><polygon points="487.78,827.62 472.85,836.23 457.92,827.62 457.92,810.38 472.85,801.77 487.78,810.38" fill="#F3C969" fill-opacity="0.110" stroke="#F3C969" stroke-opacity="0.198" stroke-width="1.1"/><polygon points="562.18,828.57 545.60,838.15 529.01,828.57 529.01,809.43 545.60,799.85 562.18,809.43" fill="#F3C969" fill-opacity="0.129" stroke="#F3C969" stroke-opacity="0.232" stroke-width="1.1"/><polygon points="636.37,829.41 618.34,839.81 600.32,829.41 600.32,808.59 618.34,798.19 636.37,808.59" fill="#FF7A59" fill-opacity="0.145" stroke="#FF7A59" stroke-opacity="0.261" stroke-width="1.1"/><polygon points="706.23,827.74 691.09,836.48 675.95,827.74 675.95,810.26 691.09,801.52 706.23,810.26" fill="#F3C969" fill-opacity="0.113" stroke="#F3C969" stroke-opacity="0.203" stroke-width="1.1"/><polygon points="778.62,827.53 763.83,836.07 749.05,827.53 749.05,810.47 763.83,801.93 778.62,810.47" fill="#F3C969" fill-opacity="0.108" stroke="#F3C969" stroke-opacity="0.194" stroke-width="1.1"/><polygon points="849.86,826.67 836.58,834.33 823.30,826.67 823.30,811.33 836.58,803.67 849.86,811.33" fill="#F3C969" fill-opacity="0.092" stroke="#F3C969" stroke-opacity="0.166" stroke-width="1.1"/><polygon points="995.55,826.78 982.07,834.57 968.59,826.78 968.59,811.22 982.07,803.43 995.55,811.22" fill="#F3C969" fill-opacity="0.094" stroke="#F3C969" stroke-opacity="0.169" stroke-width="1.1"/><polygon points="1144.09,828.54 1127.57,838.08 1111.04,828.54 1111.04,809.46 1127.57,799.92 1144.09,809.46" fill="#F3C969" fill-opacity="0.128" stroke="#F3C969" stroke-opacity="0.230" stroke-width="1.1"/><polygon points="1217.13,828.71 1200.31,838.42 1183.49,828.71 1183.49,809.29 1200.31,799.58 1217.13,809.29" fill="#F3C969" fill-opacity="0.131" stroke="#F3C969" stroke-opacity="0.236" stroke-width="1.1"/><polygon points="1291.61,829.71 1273.06,840.42 1254.51,829.71 1254.51,808.29 1273.06,797.58 1291.61,808.29" fill="#FF7A59" fill-opacity="0.150" stroke="#FF7A59" stroke-opacity="0.270" stroke-width="1.1"/><polygon points="1363.16,829.02 1345.80,839.04 1328.45,829.02 1328.45,808.98 1345.80,798.96 1363.16,808.98" fill="#FF7A59" fill-opacity="0.137" stroke="#FF7A59" stroke-opacity="0.247" stroke-width="1.1"/><polygon points="1796.12,826.99 1782.28,834.98 1768.44,826.99 1768.44,811.01 1782.28,803.02 1796.12,811.01" fill="#F3C969" fill-opacity="0.098" stroke="#F3C969" stroke-opacity="0.176" stroke-width="1.1"/><polygon points="87.97,890.79 72.75,899.58 57.52,890.79 57.52,873.21 72.75,864.42 87.97,873.21" fill="#F3C969" fill-opacity="0.113" stroke="#F3C969" stroke-opacity="0.203" stroke-width="1.1"/><polygon points="161.60,891.30 145.49,900.60 129.38,891.30 129.38,872.70 145.49,863.40 161.60,872.70" fill="#F3C969" fill-opacity="0.123" stroke="#F3C969" stroke-opacity="0.221" stroke-width="1.1"/><polygon points="234.53,891.41 218.24,900.81 201.95,891.41 201.95,872.59 218.24,863.19 234.53,872.59" fill="#F3C969" fill-opacity="0.125" stroke="#F3C969" stroke-opacity="0.225" stroke-width="1.1"/><polygon points="305.49,890.38 290.98,898.75 276.48,890.38 276.48,873.62 290.98,865.25 305.49,873.62" fill="#F3C969" fill-opacity="0.105" stroke="#F3C969" stroke-opacity="0.189" stroke-width="1.1"/><polygon points="377.34,889.86 363.73,897.72 350.12,889.86 350.12,874.14 363.73,866.28 377.34,874.14" fill="#F3C969" fill-opacity="0.095" stroke="#F3C969" stroke-opacity="0.171" stroke-width="1.1"/><polygon points="667.73,889.51 654.72,897.02 641.71,889.51 641.71,874.49 654.72,866.98 667.73,874.49" fill="#F3C969" fill-opacity="0.089" stroke="#F3C969" stroke-opacity="0.160" stroke-width="1.1"/><polygon points="743.18,891.08 727.46,900.15 711.74,891.08 711.74,872.92 727.46,863.85 743.18,872.92" fill="#F3C969" fill-opacity="0.119" stroke="#F3C969" stroke-opacity="0.214" stroke-width="1.1"/><polygon points="816.96,891.67 800.21,901.34 783.46,891.67 783.46,872.33 800.21,862.66 816.96,872.33" fill="#F3C969" fill-opacity="0.130" stroke="#F3C969" stroke-opacity="0.234" stroke-width="1.1"/><polygon points="889.23,891.40 872.95,900.80 856.67,891.40 856.67,872.60 872.95,863.20 889.23,872.60" fill="#F3C969" fill-opacity="0.125" stroke="#F3C969" stroke-opacity="0.225" stroke-width="1.1"/><polygon points="962.47,891.68 945.70,901.36 928.93,891.68 928.93,872.32 945.70,862.64 962.47,872.32" fill="#F3C969" fill-opacity="0.131" stroke="#F3C969" stroke-opacity="0.236" stroke-width="1.1"/><polygon points="1033.46,890.67 1018.45,899.34 1003.43,890.67 1003.43,873.33 1018.45,864.66 1033.46,873.33" fill="#F3C969" fill-opacity="0.111" stroke="#F3C969" stroke-opacity="0.200" stroke-width="1.1"/><polygon points="1395.27,889.56 1382.18,897.11 1369.09,889.56 1369.09,874.44 1382.18,866.89 1395.27,874.44" fill="#F3C969" fill-opacity="0.090" stroke="#F3C969" stroke-opacity="0.162" stroke-width="1.1"/><polygon points="1470.67,891.09 1454.92,900.19 1439.17,891.09 1439.17,872.91 1454.92,863.81 1470.67,872.91" fill="#F3C969" fill-opacity="0.119" stroke="#F3C969" stroke-opacity="0.214" stroke-width="1.1"/><polygon points="1543.48,891.13 1527.67,900.26 1511.86,891.13 1511.86,872.87 1527.67,863.74 1543.48,872.87" fill="#F3C969" fill-opacity="0.120" stroke="#F3C969" stroke-opacity="0.216" stroke-width="1.1"/><polygon points="1617.16,891.67 1600.41,901.34 1583.67,891.67 1583.67,872.33 1600.41,862.66 1617.16,872.33" fill="#F3C969" fill-opacity="0.130" stroke="#F3C969" stroke-opacity="0.234" stroke-width="1.1"/><polygon points="1687.62,890.35 1673.16,898.69 1658.70,890.35 1658.70,873.65 1673.16,865.31 1687.62,873.65" fill="#F3C969" fill-opacity="0.105" stroke="#F3C969" stroke-opacity="0.189" stroke-width="1.1"/><polygon points="954.21,452.85 883.36,493.76 812.51,452.85 812.51,371.03 883.36,330.12 954.21,371.03" fill="#F3C969" fill-opacity="0.680" stroke="#F7F2E8" stroke-opacity="0.12" stroke-width="1.2"/><polygon points="1189.57,525.09 1122.03,564.08 1054.48,525.09 1054.48,447.09 1122.03,408.10 1189.57,447.09" fill="#FF7A59" fill-opacity="0.656" stroke="#F7F2E8" stroke-opacity="0.12" stroke-width="1.2"/><polygon points="871.69,572.10 806.21,609.91 740.74,572.10 740.74,496.50 806.21,458.70 871.69,496.50" fill="#54D6BE" fill-opacity="0.632" stroke="#F7F2E8" stroke-opacity="0.12" stroke-width="1.2"/><polygon points="1077.30,385.44 1012.62,422.78 947.93,385.44 947.93,310.74 1012.62,273.39 1077.30,310.74" fill="#FF7A59" fill-opacity="0.608" stroke="#F7F2E8" stroke-opacity="0.12" stroke-width="1.2"/><polygon points="1137.51,630.08 1073.41,667.09 1009.32,630.08 1009.32,556.07 1073.41,519.06 1137.51,556.07" fill="#54D6BE" fill-opacity="0.584" stroke="#F7F2E8" stroke-opacity="0.12" stroke-width="1.2"/><polygon points="788.63,458.59 727.33,493.99 666.02,458.59 666.02,387.81 727.33,352.41 788.63,387.81" fill="#F3C969" fill-opacity="0.560" stroke="#F7F2E8" stroke-opacity="0.12" stroke-width="1.2"/><polygon points="1257.65,437.43 1205.12,467.75 1152.60,437.43 1152.60,376.78 1205.12,346.45 1257.65,376.78" fill="#54D6BE" fill-opacity="0.536" stroke="#F7F2E8" stroke-opacity="0.12" stroke-width="1.2"/><polygon points="903.70,657.15 849.54,688.41 795.39,657.15 795.39,594.62 849.54,563.35 903.70,594.62" fill="#FF7A59" fill-opacity="0.512" stroke="#F7F2E8" stroke-opacity="0.12" stroke-width="1.2"/><polygon points="917.45,331.71 867.99,360.27 818.52,331.71 818.52,274.59 867.99,246.03 917.45,274.59" fill="#54D6BE" fill-opacity="0.488" stroke="#F7F2E8" stroke-opacity="0.12" stroke-width="1.2"/><polygon points="1283.06,589.81 1232.86,618.79 1182.66,589.81 1182.66,531.85 1232.86,502.87 1283.06,531.85" fill="#FF7A59" fill-opacity="0.464" stroke="#F7F2E8" stroke-opacity="0.12" stroke-width="1.2"/><polygon points="695.39,543.23 650.30,569.26 605.20,543.23 605.20,491.16 650.30,465.12 695.39,491.16" fill="#F3C969" fill-opacity="0.440" stroke="#F7F2E8" stroke-opacity="0.12" stroke-width="1.2"/><polygon points="1192.15,329.55 1148.31,354.86 1104.47,329.55 1104.47,278.93 1148.31,253.62 1192.15,278.93" fill="#FF7A59" fill-opacity="0.416" stroke="#F7F2E8" stroke-opacity="0.12" stroke-width="1.2"/><polygon points="1053.79,699.75 1014.77,722.28 975.75,699.75 975.75,654.69 1014.77,632.16 1053.79,654.69" fill="#54D6BE" fill-opacity="0.392" stroke="#F7F2E8" stroke-opacity="0.12" stroke-width="1.2"/><polygon points="721.78,358.08 684.30,379.71 646.82,358.08 646.82,314.80 684.30,293.16 721.78,314.80" fill="#FF7A59" fill-opacity="0.368" stroke="#F7F2E8" stroke-opacity="0.12" stroke-width="1.2"/><polygon points="1366.61,478.26 1330.04,499.37 1293.47,478.26 1293.47,436.03 1330.04,414.92 1366.61,436.03" fill="#54D6BE" fill-opacity="0.344" stroke="#F7F2E8" stroke-opacity="0.12" stroke-width="1.2"/><polygon points="730.18,653.34 700.12,670.70 670.05,653.34 670.05,618.63 700.12,601.27 730.18,618.63" fill="#F3C969" fill-opacity="0.320" stroke="#F7F2E8" stroke-opacity="0.12" stroke-width="1.2"/><polygon points="996.65,251.29 971.72,265.68 946.79,251.29 946.79,222.50 971.72,208.10 996.65,222.50" fill="#54D6BE" fill-opacity="0.296" stroke="#F7F2E8" stroke-opacity="0.12" stroke-width="1.2"/><polygon points="1247.65,665.39 1225.32,678.29 1202.98,665.39 1202.98,639.60 1225.32,626.71 1247.65,639.60" fill="#FF7A59" fill-opacity="0.272" stroke="#F7F2E8" stroke-opacity="0.12" stroke-width="1.2"/><polygon points="575.97,455.57 555.97,467.11 535.97,455.57 535.97,432.48 555.97,420.93 575.97,432.48" fill="#54D6BE" fill-opacity="0.248" stroke="#F7F2E8" stroke-opacity="0.12" stroke-width="1.2"/><polygon points="1322.58,335.26 1300.70,347.89 1278.83,335.26 1278.83,310.00 1300.70,297.37 1322.58,310.00" fill="#FF7A59" fill-opacity="0.224" stroke="#F7F2E8" stroke-opacity="0.12" stroke-width="1.2"/></g>
  <g aria-hidden="true" transform="translate(98 110)">
    <polygon points="12.99,7.50 0.00,15.00 -12.99,7.50 -12.99,-7.50 -0.00,-15.00 12.99,-7.50" fill="url(#mark-react-framework-mode-auth-i18n)"/>
    <polygon points="49.79,4.50 42.00,9.00 34.21,4.50 34.21,-4.50 42.00,-9.00 49.79,-4.50" fill="#F7F2E8" fill-opacity="0.78"/>
    <polygon points="72.33,2.50 68.00,5.00 63.67,2.50 63.67,-2.50 68.00,-5.00 72.33,-2.50" fill="#F3C969" fill-opacity="0.9"/>
  </g>
</svg>