<?xml version="1.0" encoding="UTF-8"?>
<svg xmlns="http://www.w3.org/2000/svg" viewBox="0 0 1600 720" role="img" aria-labelledby="title-pseudo-elements-and-state-styling-outcome desc-pseudo-elements-and-state-styling-outcome">
  <title id="title-pseudo-elements-and-state-styling-outcome">FE I · outcome illustration</title>
  <desc id="desc-pseudo-elements-and-state-styling-outcome">Text-free abstract illustration of interaction states transforming a stable element while preserving meaning and feedback.</desc>
  <rect width="1600" height="720" fill="#101827"/>
  <g aria-hidden="true"><polygon points="329.16,175.91 322.22,179.92 315.27,175.91 315.27,167.89 322.22,163.88 329.16,167.89" fill="#F3C969" fill-opacity="0.067" stroke="#F3C969" stroke-opacity="0.167" stroke-width="1"/><polygon points="1210.18,133.13 1204.67,136.31 1199.16,133.13 1199.16,126.77 1204.67,123.59 1210.18,126.77" fill="#54D6BE" fill-opacity="0.065" stroke="#54D6BE" stroke-opacity="0.153" stroke-width="1"/><polygon points="443.61,236.68 436.02,241.06 428.43,236.68 428.43,227.92 436.02,223.54 443.61,227.92" fill="#FF7A59" fill-opacity="0.041" stroke="#FF7A59" stroke-opacity="0.070" stroke-width="1"/><polygon points="807.11,346.50 792.96,354.67 778.82,346.50 778.82,330.17 792.96,322.00 807.11,330.17" fill="#F3C969" fill-opacity="0.036" stroke="#F3C969" stroke-opacity="0.137" stroke-width="1"/><polygon points="1270.72,123.95 1260.50,129.85 1250.28,123.95 1250.28,112.14 1260.50,106.24 1270.72,112.14" fill="#FF7A59" fill-opacity="0.046" stroke="#FF7A59" stroke-opacity="0.085" stroke-width="1"/><polygon points="536.11,416.96 531.53,419.60 526.95,416.96 526.95,411.66 531.53,409.02 536.11,411.66" fill="#54D6BE" fill-opacity="0.020" stroke="#54D6BE" stroke-opacity="0.133" stroke-width="1"/><polygon points="740.92,87.03 736.87,89.36 732.83,87.03 732.83,82.36 736.87,80.02 740.92,82.36" fill="#F3C969" fill-opacity="0.027" stroke="#F3C969" stroke-opacity="0.165" stroke-width="1"/><polygon points="862.90,648.73 858.12,651.49 853.34,648.73 853.34,643.21 858.12,640.45 862.90,643.21" fill="#54D6BE" fill-opacity="0.024" stroke="#54D6BE" stroke-opacity="0.156" stroke-width="1"/><polygon points="692.76,535.56 678.32,543.89 663.87,535.56 663.87,518.88 678.32,510.54 692.76,518.88" fill="#FF7A59" fill-opacity="0.057" stroke="#FF7A59" stroke-opacity="0.074" stroke-width="1"/><polygon points="1465.15,555.44 1451.13,563.53 1437.11,555.44 1437.11,539.25 1451.13,531.16 1465.15,539.25" fill="#F3C969" fill-opacity="0.060" stroke="#F3C969" stroke-opacity="0.060" stroke-width="1"/><polygon points="402.44,223.38 389.18,231.04 375.91,223.38 375.91,208.06 389.18,200.40 402.44,208.06" fill="#FF7A59" fill-opacity="0.058" stroke="#FF7A59" stroke-opacity="0.159" stroke-width="1"/><polygon points="628.38,412.67 614.44,420.72 600.49,412.67 600.49,396.57 614.44,388.51 628.38,396.57" fill="#54D6BE" fill-opacity="0.042" stroke="#54D6BE" stroke-opacity="0.095" stroke-width="1"/><polygon points="196.88,645.70 190.08,649.62 183.29,645.70 183.29,637.85 190.08,633.93 196.88,637.85" fill="#F3C969" fill-opacity="0.040" stroke="#F3C969" stroke-opacity="0.165" stroke-width="1"/><polygon points="1320.85,415.54 1310.07,421.77 1299.29,415.54 1299.29,403.09 1310.07,396.87 1320.85,403.09" fill="#54D6BE" fill-opacity="0.042" stroke="#54D6BE" stroke-opacity="0.127" stroke-width="1"/><polygon points="777.89,340.49 770.72,344.63 763.55,340.49 763.55,332.21 770.72,328.07 777.89,332.21" fill="#FF7A59" fill-opacity="0.025" stroke="#FF7A59" stroke-opacity="0.078" stroke-width="1"/><polygon points="111.25,499.92 97.36,507.95 83.46,499.92 83.46,483.88 97.36,475.86 111.25,483.88" fill="#F3C969" fill-opacity="0.056" stroke="#F3C969" stroke-opacity="0.146" stroke-width="1"/><polygon points="134.95,400.61 125.99,405.79 117.03,400.61 117.03,390.27 125.99,385.10 134.95,390.27" fill="#FF7A59" fill-opacity="0.034" stroke="#FF7A59" stroke-opacity="0.101" stroke-width="1"/><polygon points="349.54,422.46 340.99,427.40 332.44,422.46 332.44,412.59 340.99,407.65 349.54,412.59" fill="#54D6BE" fill-opacity="0.061" stroke="#54D6BE" stroke-opacity="0.111" stroke-width="1"/><polygon points="1352.26,181.03 1340.69,187.71 1329.13,181.03 1329.13,167.68 1340.69,161.01 1352.26,167.68" fill="#F3C969" fill-opacity="0.043" stroke="#F3C969" stroke-opacity="0.133" stroke-width="1"/><polygon points="844.57,165.02 830.95,172.89 817.33,165.02 817.33,149.29 830.95,141.43 844.57,149.29" fill="#54D6BE" fill-opacity="0.032" stroke="#54D6BE" stroke-opacity="0.072" stroke-width="1"/><polygon points="938.78,349.22 924.21,357.63 909.64,349.22 909.64,332.39 924.21,323.98 938.78,332.39" fill="#FF7A59" fill-opacity="0.066" stroke="#FF7A59" stroke-opacity="0.099" stroke-width="1"/><polygon points="786.47,435.77 778.79,440.20 771.12,435.77 771.12,426.91 778.79,422.48 786.47,426.91" fill="#F3C969" fill-opacity="0.030" stroke="#F3C969" stroke-opacity="0.153" stroke-width="1"/><polygon points="666.56,447.89 653.57,455.39 640.58,447.89 640.58,432.89 653.57,425.39 666.56,432.89" fill="#FF7A59" fill-opacity="0.024" stroke="#FF7A59" stroke-opacity="0.157" stroke-width="1"/><polygon points="162.24,581.85 157.85,584.39 153.46,581.85 153.46,576.78 157.85,574.25 162.24,576.78" fill="#54D6BE" fill-opacity="0.032" stroke="#54D6BE" stroke-opacity="0.120" stroke-width="1"/><polygon points="307.65,81.14 294.41,88.78 281.16,81.14 281.16,65.84 294.41,58.19 307.65,65.84" fill="#F3C969" fill-opacity="0.039" stroke="#F3C969" stroke-opacity="0.151" stroke-width="1"/><polygon points="420.43,338.03 413.64,341.95 406.86,338.03 406.86,330.20 413.64,326.29 420.43,330.20" fill="#54D6BE" fill-opacity="0.051" stroke="#54D6BE" stroke-opacity="0.071" stroke-width="1"/><polygon points="1527.27,399.10 1513.64,406.98 1500.00,399.10 1500.00,383.36 1513.64,375.49 1527.27,383.36" fill="#FF7A59" fill-opacity="0.019" stroke="#FF7A59" stroke-opacity="0.146" stroke-width="1"/><polygon points="1207.48,250.19 1198.96,255.11 1190.44,250.19 1190.44,240.36 1198.96,235.44 1207.48,240.36" fill="#F3C969" fill-opacity="0.030" stroke="#F3C969" stroke-opacity="0.067" stroke-width="1"/><polygon points="168.46,534.50 157.41,540.88 146.37,534.50 146.37,521.75 157.41,515.37 168.46,521.75" fill="#FF7A59" fill-opacity="0.029" stroke="#FF7A59" stroke-opacity="0.066" stroke-width="1"/><polygon points="1420.34,123.10 1407.36,130.59 1394.39,123.10 1394.39,108.11 1407.36,100.62 1420.34,108.11" fill="#54D6BE" fill-opacity="0.061" stroke="#54D6BE" stroke-opacity="0.093" stroke-width="1"/><polygon points="1296.90,473.32 1286.50,479.32 1276.11,473.32 1276.11,461.31 1286.50,455.31 1296.90,461.31" fill="#F3C969" fill-opacity="0.051" stroke="#F3C969" stroke-opacity="0.088" stroke-width="1"/><polygon points="1453.24,117.36 1438.97,125.60 1424.70,117.36 1424.70,100.88 1438.97,92.64 1453.24,100.88" fill="#54D6BE" fill-opacity="0.043" stroke="#54D6BE" stroke-opacity="0.072" stroke-width="1"/><polygon points="1008.04,577.51 1000.90,581.63 993.76,577.51 993.76,569.27 1000.90,565.14 1008.04,569.27" fill="#FF7A59" fill-opacity="0.066" stroke="#FF7A59" stroke-opacity="0.069" stroke-width="1"/><polygon points="1384.62,343.72 1380.10,346.33 1375.57,343.72 1375.57,338.49 1380.10,335.88 1384.62,338.49" fill="#F3C969" fill-opacity="0.029" stroke="#F3C969" stroke-opacity="0.138" stroke-width="1"/><polygon points="352.95,418.03 348.67,420.50 344.39,418.03 344.39,413.08 348.67,410.61 352.95,413.08" fill="#FF7A59" fill-opacity="0.051" stroke="#FF7A59" stroke-opacity="0.114" stroke-width="1"/><polygon points="796.19,470.94 792.55,473.04 788.91,470.94 788.91,466.74 792.55,464.64 796.19,466.74" fill="#54D6BE" fill-opacity="0.040" stroke="#54D6BE" stroke-opacity="0.113" stroke-width="1"/><polygon points="1466.49,492.15 1459.42,496.22 1452.36,492.15 1452.36,483.99 1459.42,479.91 1466.49,483.99" fill="#F3C969" fill-opacity="0.020" stroke="#F3C969" stroke-opacity="0.153" stroke-width="1"/><polygon points="606.58,103.76 596.01,109.86 585.44,103.76 585.44,91.55 596.01,85.45 606.58,91.55" fill="#54D6BE" fill-opacity="0.021" stroke="#54D6BE" stroke-opacity="0.139" stroke-width="1"/><polygon points="1331.86,406.28 1328.26,408.36 1324.66,406.28 1324.66,402.13 1328.26,400.05 1331.86,402.13" fill="#FF7A59" fill-opacity="0.051" stroke="#FF7A59" stroke-opacity="0.169" stroke-width="1"/><polygon points="290.02,654.27 285.21,657.05 280.41,654.27 280.41,648.72 285.21,645.95 290.02,648.72" fill="#F3C969" fill-opacity="0.051" stroke="#F3C969" stroke-opacity="0.117" stroke-width="1"/><polygon points="762.43,239.79 751.38,246.17 740.34,239.79 740.34,227.03 751.38,220.66 762.43,227.03" fill="#FF7A59" fill-opacity="0.052" stroke="#FF7A59" stroke-opacity="0.133" stroke-width="1"/><polygon points="162.94,607.54 153.06,613.24 143.19,607.54 143.19,596.14 153.06,590.44 162.94,596.14" fill="#54D6BE" fill-opacity="0.036" stroke="#54D6BE" stroke-opacity="0.112" stroke-width="1"/></g>
  <g aria-hidden="true"><polygon points="276.01,391.00 205.00,432.00 133.99,391.00 133.99,309.00 205.00,268.00 276.01,309.00" fill="#F3C969" fill-opacity="0.22" stroke="#F3C969" stroke-opacity="0.82" stroke-width="3"/><circle cx="205" cy="350" r="20" fill="#F3C969" fill-opacity="0.88"/><polygon points="586.01,251.00 515.00,292.00 443.99,251.00 443.99,169.00 515.00,128.00 586.01,169.00" fill="#54D6BE" fill-opacity="0.22" stroke="#54D6BE" stroke-opacity="0.82" stroke-width="3"/><circle cx="515" cy="210" r="20" fill="#54D6BE" fill-opacity="0.88"/><path d="M285 350 Q360 295 435 210" fill="none" stroke="#54D6BE" stroke-opacity="0.8" stroke-width="5" stroke-linecap="round"/><polygon points="896.01,391.00 825.00,432.00 753.99,391.00 753.99,309.00 825.00,268.00 896.01,309.00" fill="#FF7A59" fill-opacity="0.22" stroke="#FF7A59" stroke-opacity="0.82" stroke-width="3"/><circle cx="825" cy="350" r="20" fill="#FF7A59" fill-opacity="0.88"/><path d="M595 210 Q670 295 745 350" fill="none" stroke="#54D6BE" stroke-opacity="0.8" stroke-width="5" stroke-linecap="round"/><polygon points="1206.01,251.00 1135.00,292.00 1063.99,251.00 1063.99,169.00 1135.00,128.00 1206.01,169.00" fill="#54D6BE" fill-opacity="0.22" stroke="#54D6BE" stroke-opacity="0.82" stroke-width="3"/><circle cx="1135" cy="210" r="20" fill="#54D6BE" fill-opacity="0.88"/><path d="M905 350 Q980 295 1055 210" fill="none" stroke="#54D6BE" stroke-opacity="0.8" stroke-width="5" stroke-linecap="round"/><polygon points="1471.01,391.00 1400.00,432.00 1328.99,391.00 1328.99,309.00 1400.00,268.00 1471.01,309.00" fill="#F3C969" fill-opacity="0.22" stroke="#F3C969" stroke-opacity="0.82" stroke-width="3"/><circle cx="1400" cy="350" r="20" fill="#F3C969" fill-opacity="0.88"/><path d="M1215 210 Q1267.5 295 1320 350" fill="none" stroke="#54D6BE" stroke-opacity="0.8" stroke-width="5" stroke-linecap="round"/><polygon points="873.50,618.00 825.00,646.00 776.50,618.00 776.50,562.00 825.00,534.00 873.50,562.00" fill="#FF7A59" fill-opacity="0.16" stroke="#FF7A59" stroke-opacity="0.65" stroke-width="3"/><path d="M825 432 C980 500 980 585 885 590" fill="none" stroke="#F3C969" stroke-opacity="0.7" stroke-width="4" stroke-linecap="round" stroke-dasharray="13 10"/><path d="M769 590 C650 570 640 440 745 395" fill="none" stroke="#F3C969" stroke-opacity="0.58" stroke-width="3"/></g>
  <path d="M46 82 L92 46 H1508 L1554 82 V638 L1508 674 H92 L46 638 Z" fill="none" stroke="#F7F2E8" stroke-opacity="0.16" stroke-width="2"/>
</svg>